<svg width="101" height="83" viewBox="0 0 101 83" fill="none" xmlns="http://www.w3.org/2000/svg">
<path d="M86.5541 83H14.5673C6.55529 83 0 76.3991 0 68.3314V0H101V68.3314C101 76.3991 94.5661 83 86.5541 83Z" fill="#492F7A"/>
<path d="M86.6755 76.0324H14.4459C9.83292 76.0324 6.0697 72.243 6.0697 67.5979V40.461C6.0697 35.8159 9.83292 32.0265 14.4459 32.0265H86.6755C91.2885 32.0265 95.0517 35.8159 95.0517 40.461V67.5979C95.0517 72.243 91.2885 76.0324 86.6755 76.0324Z" stroke="#FFE154" stroke-miterlimit="10"/>
<path d="M26.7067 45.8395H17.4808C16.5096 45.8395 15.5384 46.3284 15.0529 47.3063C14.5673 48.2843 14.5673 49.2622 15.0529 50.1178C15.5384 50.9735 16.5096 51.5847 17.4808 51.5847H29.256V61.1193H26.4639V62.8306H29.4988C29.863 62.8306 30.2272 62.7084 30.4699 62.4639C30.7127 62.2194 30.8341 61.8527 30.8341 61.486V51.3402C30.8341 50.9735 30.7127 50.6068 30.4699 50.3623C30.2272 50.1178 29.863 49.9956 29.4988 49.9956H28.0421V47.4286C28.0421 47.0619 27.9207 46.6951 27.6779 46.4507C27.4351 45.9617 27.0709 45.8395 26.7067 45.8395ZM26.4639 49.7511H17.4808C17.1166 49.7511 16.7524 49.5066 16.5096 49.1399C16.2668 48.7732 16.2668 48.4065 16.5096 48.0398C16.7524 47.6731 17.1166 47.4286 17.4808 47.4286H26.4639V49.7511Z" fill="white"/>
<path d="M27.7993 56.2298C27.7993 56.7187 27.4351 57.0854 26.9495 57.0854C26.4639 57.0854 26.0998 56.7187 26.0998 56.2298C26.0998 55.7408 26.4639 55.3741 26.9495 55.3741C27.4351 55.3741 27.7993 55.863 27.7993 56.2298Z" fill="white"/>
<path d="M14.6887 58.7968H15.5384C16.3882 58.7968 17.1166 59.1635 17.7235 59.6524C18.3305 60.2636 18.5733 60.9971 18.5733 61.8527V62.7084H20.2728V61.8527C20.2728 60.6303 19.7872 59.4079 18.9375 58.43C18.0877 57.5744 16.8738 57.0854 15.5384 57.0854H14.6887V58.7968Z" fill="white"/>
<path d="M14.6887 54.8851H15.5384C17.3594 54.8851 19.1803 55.6186 20.5156 56.9632C21.8509 58.3078 22.5793 60.0191 22.5793 61.975V62.8306H24.2788V61.975C24.2788 59.6524 23.3077 57.4521 21.7296 55.863C20.1514 54.2739 17.8449 53.296 15.6598 53.296H14.8101L14.6887 54.8851Z" fill="white"/>
<path d="M16.3882 61.975C16.3882 62.4639 16.024 62.8306 15.5384 62.8306C15.0529 62.8306 14.6887 62.4639 14.6887 61.975C14.6887 61.486 15.0529 61.1193 15.5384 61.1193C16.024 61.1193 16.3882 61.486 16.3882 61.975Z" fill="white"/>
<path d="M42.6094 52.6848C41.7596 52.6848 41.0312 52.4404 40.4243 51.9514C39.8173 51.3402 39.4531 50.4846 39.4531 49.5066V42.539C39.4531 41.5611 39.8173 40.7055 40.4243 40.0943C41.0312 39.6053 41.7596 39.3608 42.6094 39.3608C43.4591 39.3608 44.1875 39.6053 44.7945 40.0943C45.4014 40.7055 45.7656 41.5611 45.7656 42.539V43.7614H43.7019V42.539C43.7019 42.0501 43.5805 41.8056 43.4591 41.5611C43.3377 41.4389 42.9736 41.3167 42.7308 41.3167C42.3666 41.3167 42.1238 41.4389 42.0024 41.5611C41.7596 41.6834 41.7596 42.0501 41.7596 42.539V49.5066C41.7596 49.9956 41.881 50.2401 42.0024 50.4845C42.1238 50.6068 42.3666 50.729 42.7308 50.729C43.095 50.729 43.3377 50.6068 43.4591 50.4845C43.5805 50.3623 43.7019 49.9956 43.7019 49.5066V47.7953H45.7656V49.5066C45.7656 50.6068 45.4014 51.3402 44.7945 51.9514C44.1875 52.4404 43.4591 52.6848 42.6094 52.6848Z" fill="white"/>
<path d="M49.893 52.6848C49.0433 52.6848 48.3149 52.4404 47.7079 51.9514C47.101 51.3402 46.7368 50.4846 46.7368 49.5066V42.539C46.7368 41.4389 47.101 40.7055 47.7079 40.0943C48.3149 39.6053 48.9219 39.3608 49.893 39.3608C50.7428 39.3608 51.4712 39.6053 52.0781 40.0943C52.6851 40.7055 53.0493 41.5611 53.0493 42.539V49.5066C53.0493 50.6068 52.6851 51.3402 52.0781 51.9514C51.5926 52.4404 50.8642 52.6848 49.893 52.6848ZM49.893 41.1944C49.5289 41.1944 49.2861 41.3167 49.1647 41.4389C48.9219 41.5611 48.9219 41.9279 48.9219 42.4168V49.3844C48.9219 49.8734 49.0433 50.1178 49.1647 50.3623C49.2861 50.4846 49.5289 50.6068 49.893 50.6068C50.2572 50.6068 50.5 50.4846 50.6214 50.3623C50.8642 50.2401 50.8642 49.8734 50.8642 49.3844V42.4168C50.8642 41.9279 50.7428 41.6834 50.6214 41.4389C50.6214 41.3167 50.2572 41.1944 49.893 41.1944Z" fill="white"/>
<path d="M60.6971 39.3608V52.5626H59.4832L56.3269 45.8395V52.5626H54.2632V39.3608H55.4772L58.6334 46.084V39.3608H60.6971Z" fill="white"/>
<path d="M68.4663 39.3608V52.5626H67.2524L64.0961 45.8395V52.5626H62.0324V39.3608H63.2464L66.4026 46.084V39.3608H68.4663Z" fill="white"/>
<path d="M75.3858 41.4389H71.9868V44.7393H74.2933V46.8174H71.9868V50.4845H75.3858V52.5626H69.9231V39.3608H75.3858V41.4389Z" fill="white"/>
<path d="M79.3918 52.6848C78.5421 52.6848 77.8137 52.4404 77.2067 51.9514C76.5998 51.3402 76.2356 50.4846 76.2356 49.5066V42.539C76.2356 41.5611 76.5998 40.7055 77.2067 40.0943C77.8137 39.6053 78.5421 39.3608 79.3918 39.3608C80.2416 39.3608 80.97 39.6053 81.5769 40.0943C82.1839 40.7055 82.5481 41.5611 82.5481 42.539V43.7614H80.4844V42.539C80.4844 42.0501 80.363 41.8056 80.2416 41.5611C80.1202 41.4389 79.756 41.3167 79.5132 41.3167C79.1491 41.3167 78.9063 41.4389 78.7849 41.5611C78.5421 41.6834 78.5421 42.0501 78.5421 42.539V49.5066C78.5421 49.9956 78.6635 50.2401 78.7849 50.4845C78.9063 50.6068 79.1491 50.729 79.5132 50.729C79.8774 50.729 80.1202 50.6068 80.2416 50.4845C80.363 50.3623 80.4844 49.9956 80.4844 49.5066V47.7953H82.5481V49.5066C82.5481 50.6068 82.1839 51.3402 81.5769 51.9514C80.97 52.4404 80.2416 52.6848 79.3918 52.6848Z" fill="white"/>
<path d="M89.4675 39.3608V41.4389H87.4038V52.5626H85.3401V41.4389H83.2764V39.3608H89.4675Z" fill="white"/>
<path d="M50.0144 55.6186H52.0781L50.5 68.8203H49.4074L47.5865 62.3417L45.7656 68.9426H44.6731L43.0949 55.7408H45.1586L45.887 62.3417L47.1009 57.8189H48.3149L49.5288 62.3417L50.0144 55.6186Z" fill="white"/>
<path d="M57.2981 68.9426L56.9339 66.8645H54.6274L54.2632 68.9426H52.1995L54.8702 55.7408H56.9339L59.6046 68.9426H57.2981ZM54.8702 64.6642H56.5697L55.72 59.8969L54.8702 64.6642Z" fill="white"/>
<path d="M60.4543 68.9426V55.6186H62.518V66.7423H65.9171V68.8203H60.4543V68.9426Z" fill="white"/>
<path d="M66.8882 68.9426V55.6186H68.9519V66.7423H72.351V68.8203H66.8882V68.9426Z" fill="white"/>
<path d="M78.6635 57.6966H75.2644V61.1193H77.6923V63.1974H75.3858V66.8645H78.7849V68.9426H73.3221V55.6186H78.7849V57.6966H78.6635Z" fill="white"/>
<path d="M85.7043 55.6186V57.6966H83.6407V68.8203H81.5769V57.6966H79.5132V55.6186H85.7043Z" fill="white"/>
</svg>
