<svg width="17" height="18" viewBox="0 0 17 18" fill="none" xmlns="http://www.w3.org/2000/svg">
<path d="M12.7067 0.839478H3.48076C2.5096 0.839478 1.53845 1.32843 1.05287 2.30634C0.567296 3.28425 0.567296 4.26216 1.05287 5.11783C1.53845 5.9735 2.5096 6.58469 3.48076 6.58469H15.256V16.1193H12.4639V17.8306H15.4988C15.863 17.8306 16.2272 17.7084 16.4699 17.4639C16.7127 17.2194 16.8341 16.8527 16.8341 16.486V6.34021C16.8341 5.9735 16.7127 5.60678 16.4699 5.36231C16.2272 5.11783 15.863 4.99559 15.4988 4.99559H14.0421V2.42858C14.0421 2.06186 13.9207 1.69515 13.6779 1.45067C13.4351 0.961716 13.0709 0.839478 12.7067 0.839478ZM12.4639 4.75111H3.48076C3.11657 4.75111 2.75239 4.50664 2.5096 4.13992C2.26682 3.7732 2.26682 3.40649 2.5096 3.03977C2.75239 2.67306 3.11657 2.42858 3.48076 2.42858H12.4639V4.75111Z" fill="white"/>
<path d="M13.7993 11.2298C13.7993 11.7187 13.4351 12.0854 12.9495 12.0854C12.4639 12.0854 12.0998 11.7187 12.0998 11.2298C12.0998 10.7408 12.4639 10.3741 12.9495 10.3741C13.4351 10.3741 13.7993 10.863 13.7993 11.2298Z" fill="white"/>
<path d="M0.68869 13.7968H1.53845C2.38821 13.7968 3.11658 14.1635 3.72355 14.6524C4.33052 15.2636 4.57331 15.9971 4.57331 16.8527V17.7084H6.27283V16.8527C6.27283 15.6303 5.78725 14.4079 4.93749 13.43C4.08773 12.5744 2.87379 12.0854 1.53845 12.0854H0.68869V13.7968Z" fill="white"/>
<path d="M0.68869 9.88513H1.53845C3.35936 9.88513 5.18028 10.6186 6.51561 11.9632C7.85095 13.3078 8.57932 15.0191 8.57932 16.975V17.8306H10.2788V16.975C10.2788 14.6524 9.30768 12.4521 7.72956 10.863C6.15143 9.27393 3.84494 8.29602 1.65984 8.29602H0.810084L0.68869 9.88513Z" fill="white"/>
<path d="M2.38821 16.975C2.38821 17.4639 2.02403 17.8306 1.53845 17.8306C1.05287 17.8306 0.68869 17.4639 0.68869 16.975C0.68869 16.486 1.05287 16.1193 1.53845 16.1193C2.02403 16.1193 2.38821 16.486 2.38821 16.975Z" fill="white"/>
</svg>
