<svg width="26" height="20" viewBox="0 0 26 20" fill="none" xmlns="http://www.w3.org/2000/svg">
<path d="M25.17 13.9799C25.16 13.6299 25.15 13.2599 25.14 12.8999C25.12 12.3699 25.07 11.8299 25 11.2999C24.9 10.4599 24.75 9.63988 24.54 8.81989C24.36 8.07989 24.13 7.34989 23.87 6.62989C23.62 5.93989 23.33 5.26989 23.02 4.60989C22.81 4.16989 22.58 3.72989 22.34 3.30989C22.03 2.75989 21.71 2.22989 21.36 1.69989C21.33 1.64989 21.28 1.60989 21.22 1.58989C20.83 1.40989 20.44 1.23989 20.04 1.08989C19.15 0.739886 18.24 0.459886 17.31 0.239886C16.95 0.159886 16.59 0.0798857 16.23 0.0198857C16.13 -0.000114267 16.12 0.00988573 16.07 0.0998857C16.03 0.169886 16 0.239886 15.96 0.309886C15.8 0.629886 15.64 0.959886 15.5 1.28989C15.46 1.38989 15.45 1.38989 15.35 1.36989C14.99 1.31989 14.62 1.27989 14.26 1.23989C13.87 1.20989 13.48 1.17989 13.09 1.16989C12.6 1.16989 12.11 1.15989 11.62 1.18989C11.31 1.20989 11 1.22989 10.69 1.25989C10.39 1.28989 10.09 1.32989 9.78999 1.36989C9.70999 1.37989 9.69999 1.36989 9.65999 1.29989C9.65999 1.27989 9.64999 1.25989 9.63999 1.24989C9.46999 0.859886 9.27999 0.479886 9.07999 0.0998857C9.02999 0.00988573 9.01999 0.00988573 8.91999 0.0198857C8.79999 0.0398857 8.67999 0.0598857 8.54999 0.0898857C6.97999 0.399886 5.46999 0.889886 4.01999 1.54989C3.89999 1.60989 3.80999 1.67989 3.72999 1.79989C3.26999 2.50989 2.83999 3.23989 2.44999 3.98989C2.06999 4.71989 1.72999 5.46989 1.42999 6.23989C1.12999 7.01989 0.869993 7.80989 0.659993 8.61989C0.419993 9.53989 0.249993 10.4699 0.139993 11.4099C0.0599927 12.0499 0.0199927 12.6799 -7.32439e-06 13.3199C-0.0100073 13.8499 -0.0100073 14.3799 -7.32439e-06 14.8999C0.0199927 15.3199 0.0399927 15.7299 0.0799927 16.1499C0.0799927 16.2199 0.109993 16.2699 0.169993 16.3199C0.409993 16.4999 0.659993 16.6799 0.909993 16.8499C1.83999 17.4899 2.81999 18.0499 3.83999 18.5199C4.64999 18.8999 5.47999 19.2199 6.33999 19.4899C6.44999 19.5199 6.44999 19.5199 6.51999 19.4299C6.76999 19.0699 7.00999 18.6999 7.23999 18.3299C7.41999 18.0199 7.59999 17.7099 7.75999 17.3799C7.79999 17.2999 7.79999 17.2799 7.70999 17.2499C7.38999 17.1199 7.07999 16.9899 6.76999 16.8399C6.41999 16.6699 6.07999 16.4899 5.73999 16.2899C5.65999 16.2399 5.65999 16.2199 5.73999 16.1599C5.85999 16.0699 5.97999 15.9799 6.08999 15.8799C6.15999 15.8199 6.20999 15.8099 6.29999 15.8499C6.76999 16.0699 7.24999 16.2599 7.72999 16.4299C8.69999 16.7699 9.69999 17.0099 10.73 17.1399C11.24 17.2099 11.76 17.2399 12.28 17.2599C12.79 17.2699 13.3 17.2599 13.81 17.2099C14.28 17.1699 14.74 17.1099 15.2 17.0199C16.28 16.8199 17.33 16.4999 18.34 16.0699C18.52 15.9999 18.69 15.9199 18.86 15.8399C18.91 15.8199 18.95 15.8099 18.99 15.8399C19.13 15.9499 19.27 16.0599 19.41 16.1699C19.46 16.2099 19.46 16.2299 19.41 16.2699C19.39 16.2799 19.37 16.2999 19.34 16.3099C19.02 16.4999 18.7 16.6699 18.36 16.8299C18.05 16.9799 17.74 17.1199 17.42 17.2399C17.33 17.2699 17.32 17.2899 17.37 17.3699C17.41 17.4499 17.46 17.5299 17.5 17.6199C17.78 18.1699 18.1 18.6899 18.45 19.1999C18.51 19.2899 18.57 19.3699 18.63 19.4599C18.66 19.5099 18.71 19.5199 18.76 19.4999C18.77 19.4999 18.79 19.4999 18.81 19.4899C19.99 19.1099 21.13 18.6399 22.23 18.0599C23.17 17.5599 24.07 16.9899 24.93 16.3499C25.02 16.2799 25.06 16.2099 25.06 16.0999C25.07 15.8999 25.09 15.6899 25.1 15.4899C25.13 14.9899 25.14 14.4999 25.15 13.9899L25.17 13.9799ZM6.12999 10.7099C6.12999 10.0699 6.31999 9.47989 6.71999 8.96989C7.14999 8.42989 7.70999 8.12989 8.40999 8.12989C8.96999 8.12989 9.44999 8.33988 9.85999 8.72989C10.37 9.20988 10.62 9.81989 10.67 10.5099C10.71 11.0499 10.61 11.5599 10.36 12.0399C10.14 12.4699 9.82999 12.8099 9.39999 13.0499C9.10999 13.2099 8.78999 13.2999 8.44999 13.3099C7.88999 13.3199 7.40999 13.1299 6.99999 12.7599C6.49999 12.2999 6.22999 11.7299 6.14999 11.0599C6.13999 10.9499 6.12999 10.8299 6.12999 10.7199V10.7099ZM16.77 13.3099C16.25 13.3099 15.8 13.1299 15.41 12.7899C14.87 12.3199 14.59 11.7199 14.51 11.0099C14.46 10.5199 14.53 10.0499 14.72 9.58989C14.93 9.09989 15.24 8.68989 15.71 8.41989C16.44 7.99989 17.18 8.00989 17.9 8.45989C18.51 8.84989 18.85 9.42989 18.99 10.1299C19.12 10.7999 19.03 11.4499 18.71 12.0599C18.44 12.5699 18.05 12.9499 17.51 13.1699C17.27 13.2699 17.05 13.2999 16.77 13.3099Z" fill="white"/>
</svg>
