<svg width="84" height="25" viewBox="0 0 84 25" fill="none" xmlns="http://www.w3.org/2000/svg">
<g clip-path="url(#clip0_2_141)">
<path d="M70.92 0H12.12C5.42631 0 0 5.42631 0 12.12C0 18.8137 5.42631 24.24 12.12 24.24H70.92C77.6137 24.24 83.04 18.8137 83.04 12.12C83.04 5.42631 77.6137 0 70.92 0Z" fill="#EC408B"/>
<path d="M34.018 15.4H32.5121L32.5238 13.982H34.018C34.432 13.982 34.7543 13.9078 34.9848 13.7594C35.2152 13.6109 35.3773 13.3766 35.4711 13.0562C35.5688 12.7359 35.6176 12.316 35.6176 11.7965V10.4664C35.6176 10.0719 35.5922 9.73788 35.5414 9.46445C35.4906 9.1871 35.4047 8.96445 35.2836 8.79648C35.1625 8.6246 35.0004 8.49765 34.7973 8.41562C34.5941 8.33359 34.3422 8.29257 34.0414 8.29257H32.4828V6.86874H34.0414C34.5336 6.86874 34.9809 6.94882 35.3832 7.10898C35.7856 7.26913 36.1313 7.50351 36.4203 7.8121C36.7094 8.11679 36.932 8.49374 37.0883 8.94296C37.2445 9.39218 37.3227 9.9039 37.3227 10.4781V11.7965C37.3227 12.3746 37.2445 12.8863 37.0883 13.3316C36.932 13.7769 36.7094 14.1539 36.4203 14.4625C36.1352 14.7672 35.7895 14.9996 35.3832 15.1598C34.977 15.3199 34.5219 15.4 34.018 15.4ZM33.5082 6.86874V15.4H31.7914V6.86874H33.5082ZM40.3578 6.86874V15.4H38.6527V6.86874H40.3578ZM45.432 13.1559C45.432 13.0035 45.4184 12.8648 45.391 12.7398C45.3637 12.6148 45.3051 12.4996 45.2152 12.3941C45.1293 12.2887 45.0023 12.1832 44.8344 12.0777C44.6703 11.9723 44.4555 11.8629 44.1898 11.7496C43.8734 11.6168 43.5668 11.4762 43.2699 11.3277C42.9731 11.1754 42.7055 10.9996 42.4672 10.8004C42.2289 10.6012 42.0395 10.3668 41.8988 10.0973C41.7621 9.82382 41.6938 9.50351 41.6938 9.13632C41.6938 8.77695 41.7582 8.45078 41.8871 8.15781C42.0199 7.86484 42.2074 7.61484 42.4496 7.40781C42.6918 7.19687 42.975 7.03476 43.2992 6.92148C43.6273 6.8082 43.9926 6.75156 44.3949 6.75156C44.9418 6.75156 45.4145 6.86484 45.8129 7.0914C46.2152 7.31796 46.5258 7.62851 46.7445 8.02304C46.9672 8.41757 47.0785 8.8707 47.0785 9.38242H45.3676C45.3676 9.14023 45.3324 8.92734 45.2621 8.74374C45.1957 8.55624 45.0883 8.40976 44.9398 8.30429C44.7914 8.19882 44.6 8.14609 44.3656 8.14609C44.1469 8.14609 43.9652 8.19101 43.8207 8.28085C43.6801 8.36679 43.5746 8.48593 43.5043 8.63828C43.4379 8.78671 43.4047 8.95468 43.4047 9.14218C43.4047 9.28281 43.4379 9.40976 43.5043 9.52304C43.5746 9.63242 43.6703 9.73203 43.7914 9.82187C43.9125 9.90781 44.0551 9.99179 44.2191 10.0738C44.3871 10.1559 44.5707 10.2359 44.7699 10.3141C45.1566 10.4664 45.4984 10.6344 45.7953 10.818C46.0922 10.9977 46.3402 11.2008 46.5395 11.4273C46.7387 11.65 46.8891 11.9019 46.9906 12.1832C47.0922 12.4644 47.143 12.7848 47.143 13.1441C47.143 13.4996 47.0805 13.8238 46.9555 14.1168C46.8344 14.4059 46.6566 14.6559 46.4223 14.8668C46.1879 15.0738 45.9047 15.234 45.5727 15.3473C45.2445 15.4605 44.8773 15.5172 44.4711 15.5172C44.0766 15.5172 43.7035 15.4625 43.352 15.3531C43.0004 15.2398 42.6898 15.0699 42.4203 14.8434C42.1547 14.6129 41.9457 14.3219 41.7934 13.9703C41.641 13.6148 41.5648 13.1949 41.5648 12.7105H43.2816C43.2816 12.9684 43.307 13.1891 43.3578 13.3727C43.4086 13.5523 43.4867 13.6969 43.5922 13.8062C43.6977 13.9117 43.8266 13.9918 43.9789 14.0465C44.1352 14.0973 44.3129 14.1227 44.5121 14.1227C44.7387 14.1227 44.9184 14.0797 45.0512 13.9937C45.1879 13.9078 45.2856 13.7926 45.3441 13.648C45.4027 13.5035 45.432 13.3394 45.432 13.1559ZM52.3695 12.5582H54.0746C54.0512 13.1988 53.9223 13.7398 53.6879 14.1812C53.4535 14.6187 53.1195 14.9508 52.6859 15.1773C52.2563 15.4039 51.7367 15.5172 51.1273 15.5172C50.6547 15.5172 50.2348 15.4391 49.8676 15.2828C49.5004 15.1227 49.1879 14.8883 48.9301 14.5797C48.6723 14.2711 48.477 13.8902 48.3441 13.4371C48.2152 12.9801 48.1508 12.4547 48.1508 11.8609V10.4137C48.1508 9.81992 48.2191 9.29453 48.3559 8.83749C48.4965 8.38046 48.6957 7.99765 48.9535 7.68906C49.2152 7.37656 49.5297 7.14218 49.8969 6.98593C50.268 6.82578 50.6859 6.7457 51.1508 6.7457C51.7719 6.7457 52.2914 6.86288 52.7094 7.09726C53.1273 7.33163 53.4496 7.67343 53.6762 8.12265C53.9066 8.56796 54.0453 9.11288 54.0922 9.75742H52.3813C52.3695 9.35117 52.3227 9.03281 52.2406 8.80234C52.1625 8.56796 52.0375 8.4039 51.8656 8.31015C51.6938 8.21249 51.4555 8.16367 51.1508 8.16367C50.9242 8.16367 50.7289 8.20468 50.5648 8.28671C50.4008 8.36484 50.266 8.49179 50.1606 8.66757C50.0551 8.84335 49.977 9.07382 49.9262 9.35898C49.8793 9.64413 49.8559 9.99179 49.8559 10.4019V11.8609C49.8559 12.2633 49.8773 12.607 49.9203 12.8922C49.9633 13.1734 50.0316 13.4039 50.1254 13.5836C50.2191 13.7633 50.3461 13.8941 50.5063 13.9762C50.6703 14.0582 50.8773 14.0992 51.1273 14.0992C51.4164 14.0992 51.6488 14.0562 51.8246 13.9703C52.0043 13.8844 52.1371 13.7301 52.2231 13.5074C52.309 13.2848 52.3578 12.9684 52.3695 12.5582ZM61.141 10.4723V11.8961C61.141 12.4977 61.0668 13.025 60.9184 13.4781C60.7738 13.9273 60.5668 14.3043 60.2973 14.609C60.0316 14.9098 59.7094 15.1363 59.3305 15.2887C58.9555 15.441 58.5395 15.5172 58.0824 15.5172C57.6254 15.5172 57.2074 15.441 56.8285 15.2887C56.4535 15.1363 56.1293 14.9098 55.8559 14.609C55.5863 14.3043 55.3773 13.9273 55.2289 13.4781C55.0805 13.025 55.0063 12.4977 55.0063 11.8961V10.4723C55.0063 9.85507 55.0785 9.31601 55.2231 8.85507C55.3676 8.39023 55.5766 8.00351 55.85 7.69492C56.1234 7.38242 56.4477 7.14804 56.8227 6.99179C57.1977 6.83163 57.6137 6.75156 58.0707 6.75156C58.5277 6.75156 58.9438 6.83163 59.3188 6.99179C59.6938 7.14804 60.018 7.38242 60.2914 7.69492C60.5648 8.00351 60.7738 8.39023 60.9184 8.85507C61.0668 9.31601 61.141 9.85507 61.141 10.4723ZM59.4359 11.8961V10.4605C59.4359 10.0543 59.4066 9.70859 59.3481 9.42343C59.2895 9.13437 59.2016 8.89804 59.0844 8.71445C58.9672 8.53085 58.8246 8.39609 58.6566 8.31015C58.4887 8.22421 58.2934 8.18124 58.0707 8.18124C57.8481 8.18124 57.6508 8.22421 57.4789 8.31015C57.3109 8.39609 57.1684 8.53085 57.0512 8.71445C56.9379 8.89804 56.852 9.13437 56.7934 9.42343C56.7387 9.70859 56.7113 10.0543 56.7113 10.4605V11.8961C56.7113 12.2867 56.7406 12.6207 56.7992 12.898C56.8578 13.1754 56.9457 13.4019 57.0629 13.5777C57.1801 13.7535 57.3227 13.8844 57.4906 13.9703C57.6625 14.0523 57.8598 14.0934 58.0824 14.0934C58.3012 14.0934 58.4945 14.0523 58.6625 13.9703C58.8344 13.8844 58.977 13.7535 59.0902 13.5777C59.2035 13.4019 59.2895 13.1754 59.3481 12.898C59.4066 12.6207 59.4359 12.2867 59.4359 11.8961ZM62.3949 6.86874H65.1313C65.7016 6.86874 66.1879 6.9664 66.5902 7.16171C66.9926 7.35703 67.3012 7.64609 67.516 8.0289C67.7309 8.41171 67.8383 8.88437 67.8383 9.44687C67.8383 9.90781 67.7758 10.3023 67.6508 10.6305C67.5258 10.9547 67.3481 11.2262 67.1176 11.4449C66.8871 11.6598 66.6117 11.8316 66.2914 11.9605L65.7699 12.2711H63.5492L63.5434 10.8473H65.0844C65.3188 10.8473 65.5121 10.7965 65.6645 10.6949C65.8207 10.5894 65.9359 10.443 66.0102 10.2555C66.0883 10.0641 66.1273 9.8414 66.1273 9.58749C66.1273 9.31796 66.0922 9.08749 66.0219 8.89609C65.9555 8.70078 65.8481 8.55234 65.6996 8.45078C65.5551 8.34531 65.3656 8.29257 65.1313 8.29257H64.1117V15.4H62.3949V6.86874ZM66.268 15.4L64.7035 11.5973L66.5023 11.5914L68.102 15.318V15.4H66.268ZM71.2602 15.4H69.7543L69.766 13.982H71.2602C71.6742 13.982 71.9965 13.9078 72.227 13.7594C72.4574 13.6109 72.6195 13.3766 72.7133 13.0562C72.8109 12.7359 72.8598 12.316 72.8598 11.7965V10.4664C72.8598 10.0719 72.8344 9.73788 72.7836 9.46445C72.7328 9.1871 72.6469 8.96445 72.5258 8.79648C72.4047 8.6246 72.2426 8.49765 72.0395 8.41562C71.8363 8.33359 71.5844 8.29257 71.2836 8.29257H69.725V6.86874H71.2836C71.7758 6.86874 72.2231 6.94882 72.6254 7.10898C73.0277 7.26913 73.3734 7.50351 73.6625 7.8121C73.9516 8.11679 74.1742 8.49374 74.3305 8.94296C74.4867 9.39218 74.5648 9.9039 74.5648 10.4781V11.7965C74.5648 12.3746 74.4867 12.8863 74.3305 13.3316C74.1742 13.7769 73.9516 14.1539 73.6625 14.4625C73.3773 14.7672 73.0316 14.9996 72.6254 15.1598C72.2191 15.3199 71.7641 15.4 71.2602 15.4ZM70.7504 6.86874V15.4H69.0336V6.86874H70.7504Z" fill="white"/>
<path d="M18.02 17.38C19.32 17.4 20.57 17.17 21.78 16.72C22.01 16.63 22.24 16.54 22.46 16.45C22.67 16.36 22.82 16.49 22.9 16.63C23 16.8 22.79 16.82 22.7 16.88C22.38 17.06 22.04 17.22 21.69 17.35C21.52 17.41 21.5 17.5 21.58 17.66C21.79 18.03 22.02 18.39 22.25 18.75C22.37 18.93 22.5 18.97 22.71 18.91C24.15 18.44 25.5 17.77 26.76 16.91C26.97 16.77 27.05 16.6 27.07 16.36C27.14 15.36 27.13 14.35 27.01 13.35C26.72 10.92 25.83 8.71999 24.48 6.69999C24.38 6.54999 24.25 6.44999 24.09 6.36999C23.08 5.93999 22.04 5.61999 20.97 5.40999C20.59 5.33999 20.59 5.33999 20.41 5.68999C20.36 5.79999 20.29 5.89999 20.25 6.00999C20.17 6.23999 20.02 6.29999 19.78 6.26999C18.73 6.12999 17.67 6.09999 16.61 6.22999C15.95 6.30999 15.95 6.31999 15.64 5.70999C15.63 5.68999 15.62 5.66999 15.61 5.64999C15.52 5.39999 15.36 5.34999 15.11 5.39999C14.04 5.61999 13 5.93999 11.99 6.35999C11.78 6.44999 11.63 6.56999 11.51 6.75999C10.09 8.92999 9.20001 11.28 8.98001 13.88C8.91001 14.72 8.91001 15.57 8.98001 16.41C8.99001 16.58 9.03001 16.72 9.19001 16.84C10.48 17.75 11.87 18.44 13.38 18.93C13.53 18.98 13.63 18.96 13.72 18.82C13.98 18.44 14.22 18.05 14.45 17.65C14.55 17.47 14.49 17.4 14.32 17.34C13.97 17.21 13.63 17.06 13.31 16.87C13.23 16.82 13.08 16.81 13.1 16.68C13.12 16.55 13.26 16.49 13.37 16.44C13.47 16.39 13.55 16.46 13.64 16.5C15.04 17.09 16.49 17.42 18.02 17.4V17.38ZM16.65 12.92C16.64 13.39 16.46 13.87 16.05 14.24C15.39 14.83 14.48 14.79 13.86 14.15C13.15 13.42 13.17 12.18 13.9 11.47C14.67 10.73 15.9 10.93 16.42 11.88C16.58 12.18 16.66 12.5 16.66 12.91L16.65 12.92ZM19.39 12.82C19.41 12.35 19.55 11.91 19.89 11.55C20.64 10.75 21.86 10.89 22.43 11.84C22.88 12.58 22.78 13.53 22.19 14.17C21.41 15 20.07 14.75 19.58 13.67C19.46 13.41 19.4 13.13 19.39 12.82Z" fill="white"/>
</g>
<defs>
<clipPath id="clip0_2_141">
<rect width="83.04" height="24.24" fill="white"/>
</clipPath>
</defs>
</svg>
