<svg width="954" height="728" viewBox="0 0 954 728" fill="none" xmlns="http://www.w3.org/2000/svg">
<path d="M534.52 157.63C544.4 139.739 555.79 122.59 567.52 105.698C579.07 88.687 592.11 72.6388 605.66 56.9299L607.27 55.0042C626.28 66.2379 646.17 76.0135 666.61 84.8538C686.1 93.1346 706.36 102.268 725.33 111.375L717.91 113.438C727.37 95.7207 737.64 77.5083 748.22 60.3963L750.59 56.5539C753.44 57.526 760.84 60.2038 763.75 61.2125C766.75 62.2763 769.75 63.3675 772.73 64.468L768.05 65.3667C771.7 62.5606 775.29 59.6994 778.98 56.9299C790.01 48.5574 801.13 40.2948 812.65 32.4908L813.4 33.2336C800.38 47.0901 786.54 60.2496 772.57 73.2899C766.1 71.5475 757.71 69.2183 751.2 67.32L757.72 64.954C747.65 84.2852 736.14 103.836 724.8 122.608C711.53 115.547 697.94 108.486 684.85 101.122C680.42 98.591 668.58 91.8141 664 89.2005C645.47 78.6087 626.45 68.8423 606.58 60.488L610.13 59.6902C594.29 86.0092 575.91 110.87 556.03 134.759C549.38 142.728 542.61 150.624 535.4 158.189L534.49 157.63H534.52Z" fill="#351631"/>
<path d="M807.76 49.401C815.271 49.401 821.36 43.8173 821.36 36.9293C821.36 30.0414 815.271 24.4576 807.76 24.4576C800.249 24.4576 794.16 30.0414 794.16 36.9293C794.16 43.8173 800.249 49.401 807.76 49.401Z" fill="#7C7C7C" stroke="#351631" stroke-width="9" stroke-miterlimit="10"/>
<path d="M416.91 165.801C397.15 134.328 379.94 101.553 366.69 67.3292C362.37 56.2513 357.67 44.2014 352.51 33.4721L354.2 34.38C346.71 35.0311 339.23 35.8197 331.77 36.7459C309.56 39.6621 286.96 43.3944 264.69 45.7054L262.7 45.9346L260.91 44.66C245.94 33.9489 230.81 23.1462 216.34 11.8575L223.56 11.9584C210.93 20.6152 198.09 29.0061 185.13 37.2411C172.09 45.4394 159 53.5369 145.45 61.0383L144.78 60.2405C150.46 55.1601 156.3 50.2814 162.19 45.4394C180.97 30.0515 200.31 15.2597 220.05 0.935547C236.2 12.6095 251.94 24.9986 267.47 37.342L263.69 36.2874C282.32 34.8843 301.4 34.2516 320.1 33.5913C331.43 33.1144 343.85 32.3441 355.07 31.2345C359.07 39.5979 363.85 48.5849 368.48 56.7282C382.72 80.6079 394.64 105.561 405.07 131.018C409.72 142.334 414.16 153.733 417.91 165.406L416.9 165.81L416.91 165.801Z" fill="#351631"/>
<path d="M145.13 72.217C152.641 72.217 158.73 66.6332 158.73 59.7452C158.73 52.8573 152.641 47.2735 145.13 47.2735C137.619 47.2735 131.53 52.8573 131.53 59.7452C131.53 66.6332 137.619 72.217 145.13 72.217Z" fill="#7C7C7C" stroke="#351631" stroke-width="9" stroke-miterlimit="10"/>
<path d="M473.97 262.301C559.237 262.301 628.36 236.603 628.36 204.903C628.36 173.204 559.237 147.506 473.97 147.506C388.703 147.506 319.58 173.204 319.58 204.903C319.58 236.603 388.703 262.301 473.97 262.301Z" fill="#7C7C7C"/>
<path d="M473.97 152.55C515.23 152.55 553.85 158.758 582.72 170.028C608.23 179.987 622.86 192.698 622.86 204.903C622.86 217.109 608.23 229.81 582.72 239.778C553.85 251.049 515.23 257.257 473.97 257.257C432.71 257.257 394.09 251.049 365.22 239.778C339.71 229.819 325.08 217.109 325.08 204.903C325.08 192.698 339.71 179.997 365.22 170.028C394.09 158.758 432.71 152.55 473.97 152.55ZM473.97 142.462C385.66 142.462 314.08 170.423 314.08 204.903C314.08 239.384 385.67 267.345 473.97 267.345C562.27 267.345 633.86 239.384 633.86 204.903C633.86 170.423 562.27 142.462 473.97 142.462Z" fill="#351631"/>
<path d="M476.97 727.725C740.393 727.725 953.94 712.12 953.94 692.869C953.94 673.618 740.393 658.012 476.97 658.012C213.547 658.012 0 673.618 0 692.869C0 712.12 213.547 727.725 476.97 727.725Z" fill="#391F6B"/>
<path d="M141.44 697.885H103.72L88.53 618.139H156.63L141.44 697.885Z" fill="#FD4131" stroke="#351631" stroke-width="10" stroke-miterlimit="10"/>
<path d="M835.32 697.885H797.59L782.41 618.139H850.5L835.32 697.885Z" fill="#FD4131" stroke="#351631" stroke-width="10" stroke-miterlimit="10"/>
<path d="M198.04 680.59H160.31L145.13 600.844H213.22L198.04 680.59Z" fill="#351631"/>
<path d="M775.65 680.59H737.92L722.74 600.844H790.83L775.65 680.59Z" fill="#351631"/>
<path d="M889.92 643.404L45.05 630.822C38.55 630.721 33.26 626.008 32.96 620.047L13.46 220.942C13.15 214.67 18.49 209.379 25.34 209.168L927.86 181.601C935.2 181.381 941.11 187.058 940.53 193.771L902.38 633.023C901.86 638.956 896.41 643.496 889.92 643.404Z" fill="#EC408B"/>
<path d="M889.91 644.092C719.44 641.13 546.38 643.844 375.87 641.845C271.17 640.818 159.54 637.947 54.69 635.031L49.34 634.885L46.66 634.811L45.32 634.775C45.12 634.775 44.86 634.765 44.54 634.738L43.64 634.674C35.22 633.968 28.54 626.842 28.89 619.139L28.81 616.681C25.48 515.431 21.01 413.621 15.39 312.5C14.06 287.263 11.68 246.959 10.2 221.786C9.32001 213.799 16.16 206.288 25.04 205.958C25.57 205.921 25.95 205.912 26.42 205.894L29.09 205.784C320.44 193.55 620.36 182.72 911.93 175.283L922.64 175.026L925.32 174.962L926.66 174.925L927.33 174.907C927.5 174.907 927.84 174.907 928.21 174.907C939.75 174.815 949.28 184.554 947.56 195.274C938.35 290.885 926.37 397.995 916.54 493.477C912.13 537.917 907.3 585.832 903.42 630.437L903.2 632.885C902.85 639.075 896.71 644.321 889.92 644.082L889.91 644.092ZM889.93 642.716C895.89 642.863 901.36 638.287 901.6 632.775L901.81 630.327L903.45 610.748C908.7 545.803 913.66 479.685 917.88 414.777C921.99 348.136 928.41 260.549 933.32 194.247L933.37 193.633C933.39 193.431 933.41 193.193 933.39 193.147C933.41 192.633 933.34 192.12 933.18 191.634C932.42 189.543 930.25 188.076 927.78 188.314L927.11 188.342L925.77 188.387L923.09 188.488L912.39 188.883C620.92 199.254 320.89 206.737 29.29 212.313L26.61 212.368C25.83 212.396 25.1 212.377 24.36 212.478C20.54 212.927 17.2 215.963 16.81 219.539C16.66 220.117 16.77 220.915 16.76 221.52L16.86 223.978C20.02 305.218 23.57 388.183 27.99 469.267C30.52 518.081 33.86 569.949 36.91 618.809C36.91 620.625 37.38 622.312 38.5 623.779C39.98 625.659 42.39 626.851 44.88 626.86C45 626.87 45.19 626.879 45.44 626.87H46.78C47.82 626.897 53.52 626.87 54.81 626.888C159.79 627.007 271.33 627.64 376.06 629.639C546.56 632.711 719.41 640.598 889.91 642.698L889.93 642.716Z" fill="#351631"/>
<path d="M772.18 444.287C768.49 444.287 765.44 441.536 765.38 438.152L762.29 265.474C762.26 263.786 762.95 262.2 764.24 260.999C765.53 259.797 767.25 259.137 769.09 259.137H891.03C892.97 259.137 894.75 259.861 896.05 261.173C897.35 262.484 897.97 264.181 897.79 265.951L880.21 438.629C879.88 441.848 876.97 444.287 873.44 444.287H772.18Z" fill="#7C7C7C"/>
<path d="M891.02 264.19C891.4 264.19 891.72 264.318 891.98 264.575C892.24 264.832 892.35 265.144 892.31 265.483L874.73 438.161C874.67 438.776 874.11 439.243 873.44 439.243H772.18C771.48 439.243 770.89 438.721 770.88 438.07L767.79 265.391C767.79 265.061 767.91 264.777 768.16 264.538C768.41 264.3 768.72 264.181 769.08 264.181H891.02M891.02 254.093H769.08C762.21 254.093 756.67 259.256 756.78 265.556L759.87 438.235C759.98 444.388 765.45 449.331 772.17 449.331H873.43C879.78 449.331 885.08 444.902 885.67 439.106L903.25 266.428C903.92 259.816 898.25 254.103 891.01 254.103L891.02 254.093Z" fill="#351631"/>
<path d="M767.91 579.239L766.41 495.375H874.43L865.89 579.239H767.91Z" fill="#7C7C7C"/>
<path d="M868.39 500.419L860.88 574.195H773.32L772 500.419H868.39ZM880.47 490.332H760.82L762.5 584.282H870.9L880.47 490.332Z" fill="#351631"/>
<path d="M728.62 254.102H88.53V584.282H728.62V254.102Z" fill="black"/>
<path d="M828.18 340.744C846.969 340.744 862.2 326.777 862.2 309.547C862.2 292.317 846.969 278.349 828.18 278.349C809.391 278.349 794.16 292.317 794.16 309.547C794.16 326.777 809.391 340.744 828.18 340.744Z" fill="#4BCC61"/>
<path d="M862.59 309.547C862.61 322.266 855.97 336.058 842.55 341.368C814.02 352.895 783.72 322.101 793.78 296.479C800.6 278.578 823.84 269.215 842.68 277.441C855.97 283.044 862.73 296.745 862.6 309.547H862.59ZM861.79 309.547C861.79 289.619 835.73 277.203 816.75 284.264C805.38 288.152 797.43 298.469 796.34 309.547C795.01 321.413 803.37 333.261 816 336.498C835.51 341.79 861.78 329.841 861.79 309.547Z" fill="#351631"/>
<path d="M832.97 340.744H823.38C819.38 340.744 816.09 337.865 815.9 334.206L813.36 285.539C813.16 281.623 816.56 278.349 820.84 278.349H835.51C839.78 278.349 843.19 281.623 842.99 285.539L840.45 334.206C840.26 337.865 836.97 340.744 832.97 340.744Z" fill="#4BCC61" stroke="#351631" stroke-width="8" stroke-miterlimit="10"/>
<path d="M828.18 425.084C846.969 425.084 862.2 411.117 862.2 393.887C862.2 376.657 846.969 362.689 828.18 362.689C809.391 362.689 794.16 376.657 794.16 393.887C794.16 411.117 809.391 425.084 828.18 425.084Z" fill="#4BCC61"/>
<path d="M847.49 420.013C831.07 430.284 808.44 429.835 797.26 413.108C785.01 394.043 797.14 366.146 820.67 360.442C840.65 355.573 862.15 367.962 865.29 386.871C867.69 400.104 859.12 412.924 847.49 420.004V420.013ZM847.04 419.408C865.02 408.229 861.61 381.479 844.58 371.034C834.68 364.587 820.92 364.34 810.31 369.723C798.87 375.335 792.83 388.412 797.02 399.765C803.19 417.546 828.72 430.779 847.04 419.399V419.408Z" fill="#351631"/>
<path d="M798.69 413.86L797.03 411.613C793.75 407.175 794.86 401.159 799.55 397.949L840.82 369.759C845.81 366.348 852.9 367.448 856.39 372.171L860.61 377.884C864.1 382.607 862.59 389.054 857.29 392.043L813.46 416.767C808.48 419.573 801.97 418.289 798.69 413.851V413.86Z" fill="#4BCC61" stroke="#351631" stroke-width="8" stroke-miterlimit="10"/>
<path d="M765.43 514.862C782.88 513.716 802.02 512.909 819.57 512.432C824.08 512.313 828.59 512.001 833.11 511.745C842.18 511.24 851.17 512.185 860.1 513.725C864.59 514.542 869.07 515.523 873.54 517.063L873.52 518.072C864.6 520.649 855.57 521.584 846.38 522.061C837.34 522.602 828.36 521.117 819.38 520.502C812.65 520.062 799.1 519.026 792.39 518.439C783.4 517.641 774.4 516.853 765.41 515.871L765.43 514.862Z" fill="#351631"/>
<path d="M873.52 541.768C856.07 542.915 836.93 543.722 819.38 544.198C814.87 544.318 810.36 544.629 805.84 544.886C796.77 545.391 787.78 544.446 778.85 542.905C774.36 542.089 769.88 541.108 765.41 539.567L765.43 538.559C774.35 535.982 783.38 535.046 792.57 534.57C801.61 534.029 810.59 535.514 819.57 536.129C826.3 536.569 839.85 537.605 846.56 538.192C855.55 538.99 864.55 539.778 873.54 540.76L873.52 541.768Z" fill="#351631"/>
<path d="M869.28 558.789C852.63 561.008 834.34 562.989 817.54 564.557C813.22 564.96 808.92 565.547 804.61 566.07C795.95 567.134 787.25 566.748 778.58 565.767C774.22 565.235 769.84 564.529 765.44 563.273L765.39 562.264C773.74 559.146 782.33 557.651 791.12 556.606C799.75 555.506 808.47 556.432 817.13 556.496C823.61 556.524 836.69 556.716 843.17 556.89C851.86 557.138 860.54 557.358 869.23 557.789L869.28 558.798V558.789Z" fill="#351631"/>
<path d="M408.58 492.725C453.426 492.725 489.78 459.387 489.78 418.262C489.78 377.137 453.426 343.798 408.58 343.798C363.734 343.798 327.38 377.137 327.38 418.262C327.38 459.387 363.734 492.725 408.58 492.725Z" stroke="white" stroke-miterlimit="10"/>
<path d="M379.43 458.345V378.178L455.39 418.262L379.43 458.345Z" fill="white"/>
</svg>
