<svg width="143" height="69" viewBox="0 0 143 69" fill="none" xmlns="http://www.w3.org/2000/svg">
<path d="M6.43459 45.5483C5.06715 45.5483 3.80447 45.063 2.77888 44.1533C0.959299 42.5377 -0.000117762 39.6539 -0.000117762 35.8163C-0.00563165 26.6963 5.28219 12.0018 9.61059 6.36657C10.1399 5.67733 11.2482 4.23821 13.2608 4.00111C13.4152 3.98457 13.5696 3.97354 13.724 3.97354C14.6503 3.97354 15.5325 4.30989 16.2162 4.91642C17.0378 5.64425 17.4844 6.66983 17.4844 7.80018C17.4844 8.93053 17.115 9.99471 16.2824 11.4063C12.4723 17.8685 8.04465 30.3851 8.04465 36.8363C8.04465 36.8694 8.04465 36.897 8.04465 36.9301C9.30733 34.9892 11.6948 30.6442 16.0784 20.9398C16.2824 20.4876 16.4754 20.0686 16.6518 19.6716C18.1571 16.3191 19.2489 13.8985 21.9452 13.5787C22.1271 13.5567 22.3091 13.5457 22.4855 13.5457C23.4946 13.5457 24.443 13.893 25.1598 14.5326C26.0365 15.3101 26.5217 16.4515 26.5217 17.7472C26.5217 18.8886 26.1523 20.0245 25.6836 21.4636C25.0054 23.5423 24.0735 26.382 24.0735 30.3961C24.0735 32.2818 24.272 33.346 24.4485 33.9195C25.055 33.0758 26.042 31.0688 27.6189 26.6025C30.0506 19.7157 31.4566 16.2033 33.403 11.3346L33.4802 11.1416C35.388 6.35554 36.7885 4.65175 39.0272 4.38708C39.2036 4.36503 39.3746 4.354 39.5455 4.354C40.5104 4.354 41.4147 4.68483 42.0929 5.28585C42.9145 6.01919 43.3666 7.08337 43.3666 8.2854C43.3666 9.95611 42.4403 11.7812 41.0287 14.3672C38.8728 18.3152 36.5073 23.4321 34.368 28.775C31.5007 35.9376 28.821 40.4865 24.3327 41.0159C24.0625 41.0489 23.7978 41.0655 23.5332 41.0655C21.9452 41.0655 20.495 40.492 19.3371 39.4113C18.1295 38.2865 17.2804 36.6764 16.7842 34.6142C12.4227 43.2435 9.98002 45.1678 7.13485 45.5042C6.89776 45.5317 6.66617 45.5483 6.43459 45.5483Z" fill="#3D0E1A"/>
<path d="M56.2415 50.1027C55.4972 50.1027 54.8134 49.8436 54.262 49.3528C53.5122 48.6857 53.0986 47.6491 53.0986 46.4305C53.0986 45.2119 53.4846 43.2379 54.2731 40.3101C54.4605 39.5877 54.6756 38.7882 54.9072 37.9226C54.7473 37.9336 54.5819 37.9391 54.4275 37.9391C52.9553 37.9391 51.5327 37.3987 50.4354 36.4228C49.1727 35.3035 48.3732 33.6713 48.1196 31.7415C46.2393 35.3862 43.3666 37.7241 40.1906 38.099C39.9039 38.1321 39.6172 38.1486 39.336 38.1486C37.748 38.1486 36.2923 37.6027 35.1289 36.5717C33.5243 35.1436 32.6421 32.9049 32.6421 30.2638C32.6421 24.3032 37.3124 16.5452 43.113 15.8615C43.3666 15.8339 43.6202 15.8174 43.8573 15.8174C44.9767 15.8174 45.9416 16.1482 46.6419 16.7713C47.3531 17.3999 47.7446 18.2876 47.7446 19.2636C47.7446 19.5778 47.7005 20.0024 47.5406 20.4656C48.6434 20.9232 49.1672 21.9543 49.4484 22.6932C50.7442 18.3152 52.8615 13.0384 55.6295 7.30393C57.7413 2.95898 58.9764 1.1008 61.182 0.836136C61.3364 0.819595 61.4908 0.808567 61.6396 0.808567C62.4722 0.808567 63.2276 1.08426 63.8176 1.60808C64.5455 2.25321 64.9425 3.22365 64.9425 4.33746C64.9425 5.97508 64.0051 7.93251 62.9133 10.1932C62.6597 10.7225 62.395 11.2684 62.1414 11.8253L61.7664 12.6359C60.4376 15.4976 59.1804 18.1994 58.3589 20.4711V20.4932C58.4747 20.4656 58.607 20.4435 58.7393 20.427C58.8992 20.4104 59.0702 20.3994 59.2466 20.3994C59.4727 20.3994 59.7098 20.416 59.9689 20.449C61.9484 13.9647 64.1484 7.61271 66.8503 3.99559C68.4989 1.77901 70.2689 0.588011 72.2704 0.350914C72.4855 0.323345 72.706 0.312317 72.921 0.312317C74.3491 0.312317 75.7883 0.863706 76.869 1.82312C77.9663 2.79908 78.5948 4.10587 78.5948 5.41818C78.5948 7.29841 77.3101 8.76511 75.4685 8.98566C75.3251 9.00221 75.1873 9.01323 75.0494 9.01323C74.2499 9.01323 73.5772 8.74857 73.0479 8.22475C72.2318 9.57014 70.71 12.7516 68.146 20.2175C68.0964 20.438 68.0357 20.6641 67.9585 20.9122C69.3315 20.1899 70.6659 18.8224 71.8899 16.8705C72.309 16.1978 72.888 15.2605 74.1341 15.1116C74.2389 15.1006 74.3326 15.0951 74.4319 15.0951C75.0384 15.0951 75.6228 15.3156 76.075 15.7181C76.5051 16.1041 77.0234 16.8264 77.0234 18.0781C77.0234 19.1864 76.4885 20.7082 75.689 21.8716C73.4008 25.1248 70.2578 26.9113 65.7971 27.5013C64.6337 31.3941 63.5915 35.3917 62.4612 40.3432C61.397 45.052 60.0737 49.6892 56.644 50.0917C56.5172 50.1082 56.3904 50.1138 56.2636 50.1138L56.2415 50.1027ZM56.6275 25.3123C55.6736 28.378 55.431 30.1866 55.431 31.2287C55.431 31.3059 55.431 31.3776 55.431 31.4437C55.7784 31.2452 56.3849 30.7435 57.2781 29.4698C57.5483 28.5324 57.8295 27.5785 58.1107 26.6081C57.4105 26.2166 56.9363 25.7644 56.622 25.3123H56.6275ZM42.6388 25.1028C41.4588 26.6742 40.8633 28.5324 40.8633 30.6222C40.8633 30.9861 40.8854 31.2507 40.9129 31.4382C41.9992 30.9585 43.3611 29.0562 43.3611 27.5289C43.3611 27.0271 43.1957 26.6136 42.9861 26.0897C42.8648 25.7865 42.7325 25.4557 42.6388 25.0972V25.1028Z" fill="#3D0E1A"/>
<path d="M78.876 33.2964C77.3597 33.2964 76.0143 32.8112 74.9777 31.8959C73.4614 30.545 72.6895 28.4056 72.6895 25.5273C72.6895 20.1678 75.5456 13.8324 79.3668 13.3802C79.5156 13.3637 79.6645 13.3527 79.8079 13.3527C80.657 13.3527 81.4565 13.6504 82.0686 14.1908C82.824 14.8635 83.243 15.856 83.243 16.9863C83.243 18.2931 82.6972 19.5834 82.0631 21.0721C81.3793 22.6877 80.6681 24.3529 80.5743 26.1614C81.0981 25.2296 81.8921 24.0386 83.4471 23.8566C83.5739 23.8401 83.6952 23.8346 83.8165 23.8346C84.5388 23.8346 85.2336 24.0937 85.7629 24.5624C86.4301 25.1579 86.7995 26.0236 86.7995 26.9995C86.7995 29.8337 83.447 32.8057 79.7693 33.2413C79.466 33.2799 79.1628 33.2964 78.8705 33.2964H78.876Z" fill="#3D0E1A"/>
<path d="M81.4235 14.2514C80.5026 14.2514 79.6149 13.9096 78.9202 13.2975C78.0655 12.5366 77.5913 11.4559 77.5913 10.2594C77.5913 7.66785 80.0781 4.08934 82.8736 3.75851C83.0115 3.74196 83.1438 3.73645 83.2761 3.73645C84.0646 3.73645 84.809 4.01766 85.3824 4.52494C86.0772 5.14249 86.4576 6.0192 86.4576 6.99516C86.4576 7.3701 86.4907 7.48038 86.5514 7.68439C86.6286 7.94906 86.7499 8.35709 86.7499 8.94156C86.7499 11.3622 84.3789 13.9316 81.8756 14.2294C81.7267 14.2459 81.5723 14.257 81.4235 14.257V14.2514Z" fill="#3D0E1A"/>
<path d="M66.8006 62.9005C65.5931 62.9005 64.4186 62.5365 63.4151 61.8473C61.7058 60.6729 60.5864 58.6493 60.2666 56.1349C59.6822 51.5198 61.3749 42.8299 64.9093 32.3039C66.4587 27.7274 67.4512 25.7313 69.6072 25.191C69.9104 25.1138 70.2137 25.0752 70.5059 25.0752C71.1621 25.0752 71.7907 25.2682 72.3145 25.6266C73.114 26.178 73.6378 27.0878 73.7757 28.196C73.9797 29.8226 73.296 31.8793 72.4965 34.2613C72.309 34.8182 72.116 35.3917 71.934 35.9706L71.6639 36.8198C70.7044 39.8248 69.8002 42.6645 69.2653 45.0189V45.052C67.6497 51.4591 67.5395 54.5745 67.7269 56.0632C67.738 56.1515 67.749 56.2342 67.7655 56.3059C68.2783 55.9805 69.0282 55.0652 70.0262 52.788C70.0262 52.6777 70.0262 52.5674 70.0262 52.4572C70.0262 47.1032 73.318 38.9647 79.273 38.2589C79.5156 38.2313 79.7638 38.2148 80.0064 38.2148C81.6991 38.2148 82.9949 38.9095 83.8826 39.5161C84.8696 37.9942 86.215 35.9761 88.3103 35.728C88.4426 35.7115 88.575 35.706 88.7073 35.706C89.5123 35.706 90.2898 36.0037 90.8908 36.5386C91.6241 37.1947 92.0652 38.1817 92.0652 39.1797C92.0652 40.3045 91.5139 41.6224 90.8136 43.2876C90.4662 44.1202 90.1023 44.9803 89.799 45.8515C89.1208 47.8641 88.79 49.601 88.7459 50.5273C89.4076 50.1248 90.2677 49.1047 91.354 47.445C92.2748 42.3833 94.3811 34.1952 98.3897 33.721C98.5165 33.7044 98.6378 33.6989 98.7646 33.6989C99.509 33.6989 100.215 33.9691 100.761 34.4543C101.229 34.8679 101.775 35.6177 101.891 36.8694C102.961 35.9761 104.262 35.2979 105.85 35.1105C106.115 35.0774 106.374 35.0663 106.627 35.0663C107.929 35.0663 109.081 35.4799 109.958 36.2574C111.028 37.2057 111.59 38.5842 111.59 40.2494C111.59 41.9146 110.978 43.5798 110.438 45.041C110.035 46.1217 109.627 47.2355 109.517 48.2059C109.87 47.9468 110.355 47.4781 110.989 46.6235C111.425 40.7567 114.937 32.6347 120.71 31.951C120.98 31.9179 121.256 31.9014 121.531 31.9014C122.838 31.9014 123.996 32.2543 124.928 32.734C125.308 31.6974 125.672 30.6608 126.031 29.6517C126.637 27.9369 127.211 26.3158 127.751 24.9649C129.24 21.3533 130.475 18.7838 132.89 18.4971C133.033 18.4806 133.177 18.4695 133.315 18.4695C134.169 18.4695 134.991 18.7838 135.63 19.3463C136.436 20.0631 136.882 21.0997 136.882 22.2631C136.882 23.228 136.601 24.0937 136.149 25.1799C136.05 25.4226 135.934 25.6927 135.807 25.9905C135.107 27.6391 134.054 30.1314 132.443 34.4212C130.596 39.29 129.538 43.249 129.538 45.2836C129.538 45.9122 129.615 46.3037 129.687 46.5297C129.83 46.3257 130.012 46.0059 130.128 45.7909C130.629 44.8811 131.39 43.5026 133.061 43.3096C133.182 43.2931 133.304 43.2876 133.43 43.2876C134.153 43.2876 134.848 43.5467 135.382 44.0209C136.05 44.6164 136.419 45.4766 136.419 46.4525C136.419 49.3142 133.204 52.3028 129.681 52.7218C129.4 52.7549 129.124 52.7714 128.854 52.7714C126.621 52.7714 125.165 51.6962 124.217 50.5824C122.971 52.8266 120.953 55.7379 117.732 56.1184C117.523 56.1459 117.308 56.157 117.098 56.157C115.786 56.157 114.512 55.6607 113.503 54.7675C113.057 54.3705 112.671 53.9073 112.334 53.3835C111.209 54.1389 110.029 54.5855 108.756 54.7344C108.453 54.773 108.144 54.7895 107.852 54.7895C106.324 54.7895 104.973 54.3043 103.931 53.3835C102.608 52.2035 101.902 50.4391 101.902 48.2776C101.902 47.9192 101.924 47.5498 101.957 47.1859C101.461 48.2445 100.998 49.2701 100.661 50.0255C98.1471 55.6497 96.8403 58.3625 94.5851 58.6272C94.4803 58.6382 94.3756 58.6437 94.2653 58.6437C93.576 58.6437 92.9144 58.3846 92.3575 57.8883C91.8447 57.4362 91.4477 56.8076 91.1665 56.0357C90.3229 56.5043 89.4406 56.7856 88.4592 56.9013C88.178 56.9344 87.8967 56.951 87.6321 56.951C85.1453 56.951 83.8054 55.556 83.05 54.2437C81.7377 56.4823 79.7913 59.4984 76.5161 59.8844C76.2955 59.9119 76.075 59.923 75.8599 59.923C74.8674 59.923 73.9025 59.6473 73.0644 59.1345C71.6528 61.0864 70.0814 62.2609 68.2949 62.702C67.7986 62.8233 67.2969 62.8894 66.8006 62.8894V62.9005ZM80.5688 44.7708C79.3778 45.4986 77.8118 48.7628 77.4865 51.6246C77.9883 50.7699 78.661 49.4962 79.5211 47.627C80.464 45.5703 80.5633 45.1237 80.5633 44.7708H80.5688ZM121.73 38.8213C120.704 40.3652 119.199 44.0705 118.918 47.6435C119.739 46.1934 120.914 43.7342 122.436 39.6098C122.138 39.3727 121.906 39.0915 121.73 38.8268V38.8213Z" fill="#3D0E1A"/>
<path d="M141.15 49.7939C140.615 49.3198 139.926 49.0606 139.198 49.0606C139.077 49.0606 138.95 49.0661 138.829 49.0827C137.158 49.2812 136.402 50.6541 135.895 51.5639C135.774 51.7789 135.597 52.0988 135.454 52.3028C135.382 52.0767 135.305 51.6852 135.305 51.0566C135.305 49.0165 136.364 45.063 138.211 40.1943C139.821 35.9045 140.874 33.4177 141.574 31.7635C141.701 31.4658 141.812 31.1956 141.916 30.953C142.368 29.8668 142.65 28.9956 142.65 28.0361C142.65 26.8727 142.203 25.8361 141.398 25.1193C140.764 24.5514 139.937 24.2426 139.082 24.2426C138.944 24.2426 138.801 24.2536 138.658 24.2702C136.243 24.5569 135.007 27.1264 133.519 30.7379C132.973 32.0833 132.399 33.7044 131.798 35.4248C131.44 36.4338 131.076 37.4704 130.696 38.507C129.764 38.0273 128.606 37.6744 127.299 37.6744C127.023 37.6744 126.748 37.691 126.477 37.724C120.704 38.4078 117.192 46.5297 116.756 52.3965C116.122 53.2456 115.637 53.7198 115.284 53.979C115.389 53.0141 115.803 51.9003 116.205 50.814C116.745 49.3528 117.357 47.6987 117.357 46.0224C117.357 44.3462 116.795 42.9788 115.725 42.0304C114.849 41.2474 113.696 40.8394 112.395 40.8394C112.141 40.8394 111.882 40.8559 111.618 40.8835C110.03 41.071 108.734 41.7547 107.659 42.6424C107.543 41.3853 106.997 40.6409 106.528 40.2274C105.982 39.7421 105.271 39.4719 104.532 39.4719C104.411 39.4719 104.284 39.4775 104.157 39.494C100.154 39.9682 98.0478 48.1563 97.1215 53.2181C96.0297 54.8833 95.1696 55.8978 94.5134 56.3003C94.552 55.374 94.8829 53.6371 95.5666 51.6246C95.8754 50.7534 96.2338 49.8932 96.5811 49.0606C97.2814 47.3954 97.8328 46.0776 97.8328 44.9528C97.8328 43.9547 97.3917 42.9678 96.6583 42.3116C96.0573 41.7768 95.2799 41.479 94.4748 41.479C94.3425 41.479 94.2047 41.4845 94.0778 41.5011C91.9826 41.7492 90.6372 43.7673 89.6502 45.2891C88.768 44.6826 87.4667 43.9878 85.7739 43.9878C85.5313 43.9878 85.2832 44.0044 85.0406 44.0319C79.0856 44.7377 75.7938 52.8762 75.7938 58.2302C75.7938 58.346 75.7938 58.4563 75.7938 58.561C74.7902 60.8383 74.0459 61.7481 73.5331 62.0789C73.522 62.0072 73.5055 61.93 73.4945 61.8363C73.307 60.3475 73.4173 57.2267 75.0218 50.825V50.792C75.5622 48.4375 76.472 45.5979 77.4259 42.5928L77.6961 41.7437C77.878 41.1647 78.071 40.5913 78.2585 40.0344C78.7547 38.5456 79.2124 37.1837 79.4329 35.9706C79.7803 36.6323 80.2159 37.2002 80.7452 37.6689C81.7763 38.5842 83.1272 39.0694 84.6436 39.0694C84.9358 39.0694 85.2391 39.0529 85.5423 39.0143C89.2201 38.5787 92.5725 35.6012 92.5725 32.7726C92.5725 31.7966 92.2031 30.9309 91.5359 30.3354C91.0066 29.8668 90.3174 29.6076 89.5895 29.6076C89.4682 29.6076 89.3469 29.6131 89.2201 29.6297C87.6652 29.8116 86.8712 31.0026 86.3474 31.9345C86.4411 30.1314 87.1524 28.4607 87.8361 26.8451C88.4702 25.3509 89.0161 24.0661 89.0161 22.7593C89.0161 21.629 88.597 20.6365 87.8416 19.9638C90.2732 19.5558 92.5174 17.0635 92.5174 14.7091C92.5174 14.1191 92.3961 13.7166 92.3189 13.4519C92.2582 13.2479 92.2252 13.1376 92.2252 12.7627C92.2252 11.7812 91.8447 10.9045 91.15 10.2924C90.582 9.78517 89.8321 9.50396 89.0436 9.50396C88.9113 9.50396 88.7735 9.50947 88.6411 9.52602C85.8456 9.85685 83.3588 13.4354 83.3588 16.0269C83.3588 17.2234 83.833 18.3041 84.6877 19.065C84.7428 19.1092 84.798 19.1533 84.8531 19.1974C83.6786 19.429 82.6034 20.2174 81.6826 21.3533C81.2525 21.028 80.7287 20.846 80.1828 20.846C80.0891 20.846 79.9898 20.8515 79.8851 20.8626C78.6389 21.0114 78.06 21.9433 77.6409 22.6215C76.4168 24.5734 75.0825 25.9409 73.7095 26.6632C73.7867 26.4206 73.8474 26.189 73.897 25.9684C76.461 18.4971 77.9883 15.3211 78.7988 13.9757C79.3282 14.4995 79.9954 14.7642 80.8004 14.7642C80.9382 14.7642 81.0761 14.7532 81.2194 14.7366C83.0611 14.5216 84.3458 13.0549 84.3458 11.1692C84.3458 9.85685 83.7172 8.55006 82.62 7.5741C81.5392 6.61468 80.1001 6.06329 78.672 6.06329C78.4515 6.06329 78.2364 6.07432 78.0214 6.10189C76.0254 6.33899 74.2499 7.52999 72.6012 9.74657C69.9049 13.3637 67.6994 19.7157 65.7199 26.2C65.4663 26.1669 65.2236 26.1504 64.9976 26.1504C64.8211 26.1504 64.6557 26.1614 64.4903 26.178C64.358 26.1945 64.2256 26.2166 64.1043 26.2441V26.2221C64.9369 23.9559 66.1941 21.2541 67.5229 18.3868L67.8979 17.5763C68.1515 17.0249 68.4162 16.479 68.6698 15.9442C69.7561 13.6835 70.6989 11.7316 70.6989 10.0884C70.6989 8.97463 70.2964 8.00418 69.5741 7.35906C68.9841 6.83524 68.2287 6.55954 67.3961 6.55954C67.2472 6.55954 67.0929 6.57057 66.9385 6.58711C64.7329 6.84627 63.4978 8.70445 61.386 13.0549C58.618 18.7893 56.5007 24.0661 55.2049 28.4442C54.9237 27.7053 54.3999 26.6687 53.2971 26.2166C53.4625 25.7534 53.5011 25.3343 53.5011 25.0145C53.5011 24.0386 53.1096 23.1563 52.3983 22.5223C51.6926 21.8992 50.7331 21.5683 49.6138 21.5683C49.3712 21.5683 49.1231 21.5849 48.8694 21.6125C47.6233 21.7613 46.4268 22.2355 45.3185 22.9523C45.8148 21.9598 46.311 21.017 46.7907 20.1292C48.2023 17.5432 49.1286 15.7181 49.1286 14.0474C49.1286 12.8454 48.6765 11.7812 47.8549 11.0478C47.1767 10.4468 46.2724 10.116 45.3075 10.116C45.1365 10.116 44.9601 10.127 44.7892 10.1491C42.5505 10.4138 41.15 12.1175 39.2422 16.9036L39.165 17.0966C37.2186 21.9598 35.8126 25.4777 33.3809 32.3645C31.804 36.8308 30.817 38.8379 30.2104 39.6815C30.034 39.108 29.8355 38.0383 29.8355 36.1581C29.8355 32.144 30.7673 29.3043 31.4456 27.2256C31.9142 25.7865 32.2837 24.6561 32.2837 23.5092C32.2837 22.219 31.7984 21.0776 30.9217 20.2946C30.2049 19.6605 29.2565 19.3077 28.2475 19.3077C28.0711 19.3077 27.8891 19.3187 27.7071 19.3407C25.0108 19.6605 23.9246 22.0811 22.4138 25.4336C22.2374 25.8306 22.0444 26.2496 21.8404 26.7018C17.4568 36.4062 15.0693 40.7512 13.8066 42.6921C13.8066 42.659 13.8066 42.6314 13.8066 42.5983C13.8066 36.1471 18.2343 23.6305 22.0444 17.1683C22.877 15.7512 23.2464 14.6429 23.2464 13.5622C23.2464 12.4815 22.7943 11.4063 21.9782 10.6784C21.2945 10.0719 20.4067 9.73554 19.4859 9.73554C19.3315 9.73554 19.1827 9.74657 19.0228 9.76311C17.0102 10.0002 15.9019 11.4393 15.3726 12.1286C11.0442 17.7638 5.75635 32.4528 5.75635 41.5727C5.75635 45.4104 6.71576 48.2942 8.53535 49.9097C9.56093 50.825 10.8291 51.3048 12.1911 51.3048C12.4226 51.3048 12.6597 51.2882 12.8913 51.2606C15.7365 50.9243 18.1791 49 22.5406 40.3707C23.0369 42.4384 23.886 44.043 25.0936 45.1678C26.2515 46.254 27.7016 46.822 29.2896 46.822C29.5543 46.822 29.819 46.8054 30.0891 46.7723C33.7779 46.3367 36.2482 43.1883 38.5971 38.1045C38.9444 39.8304 39.7219 41.286 40.8853 42.3171C42.0488 43.3482 43.4989 43.8941 45.0924 43.8941C45.3736 43.8941 45.6604 43.8775 45.9471 43.8445C49.1231 43.4695 51.9958 41.1371 53.8761 37.4869C54.1297 39.4168 54.9292 41.0489 56.1919 42.1682C57.2947 43.1497 58.7117 43.6846 60.184 43.6846C60.3439 43.6846 60.5038 43.679 60.6637 43.668C60.4266 44.5392 60.217 45.3387 60.0296 46.0555C59.2411 48.9834 58.8551 50.9849 58.8551 52.1759C58.8551 53.3669 59.2686 54.4311 60.0185 55.0983C60.5699 55.589 61.2536 55.8482 61.998 55.8482C62.1248 55.8482 62.2517 55.8427 62.3785 55.8261C65.2347 55.4898 66.6297 52.2201 67.6277 48.4155C66.2161 54.2051 65.6427 58.8974 66.0232 61.8804C66.343 64.3892 67.4568 66.4183 69.1716 67.5928C70.1751 68.282 71.3496 68.6459 72.5571 68.6459C73.0589 68.6459 73.5606 68.5853 74.0514 68.4585C75.8379 68.0118 77.4093 66.8429 78.8209 64.891C79.6535 65.4038 80.6184 65.6795 81.6164 65.6795C81.8315 65.6795 82.0575 65.6684 82.2726 65.6409C85.5478 65.2549 87.4942 62.2333 88.8065 60.0002C89.5675 61.3069 90.9018 62.7075 93.3886 62.7075C93.6533 62.7075 93.9345 62.6909 94.2157 62.6579C95.1972 62.5421 96.0849 62.2609 96.923 61.7922C97.1987 62.5641 97.6012 63.1927 98.114 63.6448C98.6709 64.1411 99.327 64.4002 100.022 64.4002C100.127 64.4002 100.237 64.3947 100.342 64.3837C102.387 64.1411 103.655 61.8749 105.745 57.2653L109.98 59.3771C110.531 59.7961 111.154 60.1104 111.838 60.3034H111.855C112.406 60.4633 112.985 60.546 113.603 60.546C113.895 60.546 114.204 60.5295 114.507 60.4909C115.78 60.342 116.96 59.8954 118.085 59.14C118.416 59.6693 118.808 60.1325 119.254 60.524C120.263 61.4172 121.537 61.9135 122.849 61.9135C123.059 61.9135 123.274 61.9025 123.483 61.8749C126.704 61.4944 128.722 58.5776 129.968 56.3389C130.916 57.4527 132.372 58.528 134.605 58.528C134.875 58.528 135.151 58.5114 135.432 58.4783C138.961 58.0593 142.17 55.0763 142.17 52.209C142.17 51.2331 141.801 50.3729 141.133 49.7774L141.15 49.7939ZM46.6804 37.2057C46.6529 37.0183 46.6308 36.7481 46.6308 36.3897C46.6308 34.2999 47.2318 32.4417 48.4063 30.8703C48.5055 31.2287 48.6324 31.554 48.7537 31.8628C48.9632 32.3866 49.1286 32.8001 49.1286 33.3019C49.1286 34.8293 47.7667 36.7315 46.6804 37.2113V37.2057ZM63.0512 35.2318C62.1579 36.5055 61.5514 37.0072 61.204 37.2057C61.204 37.1396 61.204 37.0679 61.204 36.9907C61.204 35.9486 61.4466 34.1455 62.4005 31.0743C62.7148 31.5209 63.189 31.9731 63.8893 32.3701C63.6026 33.3405 63.3269 34.2944 63.0567 35.2318H63.0512ZM78.479 30.6718C78.468 30.8813 78.4625 31.0853 78.4625 31.2948C78.4625 31.4382 78.4625 31.5761 78.468 31.7194C78.3467 31.6036 78.2199 31.4934 78.0765 31.3996C77.9607 31.3224 77.8394 31.2507 77.7126 31.1846C77.9718 31.0247 78.2254 30.8537 78.4735 30.6773L78.479 30.6718ZM70.6769 38.0659C69.5906 41.3081 68.6753 44.3738 67.953 47.1969C68.0412 46.8275 68.124 46.458 68.2122 46.0886C69.3425 41.1316 70.3791 37.1341 71.5481 33.2468C71.9726 33.1916 72.3752 33.1199 72.7777 33.0428C72.0774 34.1786 71.4488 35.8052 70.6879 38.0659H70.6769ZM85.2942 53.3835C84.4285 55.2582 83.7613 56.5264 83.2596 57.3811C83.5794 54.5194 85.1508 51.2551 86.3418 50.5273C86.3418 50.8802 86.2426 51.3268 85.2997 53.3835H85.2942ZM124.685 53.4C124.967 49.8325 126.472 46.1272 127.498 44.5778C127.674 44.8425 127.906 45.1237 128.203 45.3608C126.681 49.4852 125.507 51.9444 124.685 53.3945V53.4Z" fill="#3D0E1A"/>
<path d="M42.9806 27.8818L54.6479 26.7349L63.3985 1.30481L68.6753 5.24173L76.8524 1.81209L83.3643 6.07432L85.3879 4.52492L91.4587 10.6012L85.7738 24.5679L92.0156 30.8758L90.4276 36.3842L96.7851 41.1371L108.789 35.5075L114.986 39.075L124.371 35.2483L134.726 18.7728L141.414 25.1248L135.399 44.0264L141.414 50.1027L134.996 55.3189C134.996 55.3189 128.038 55.1865 127.773 55.3189C127.508 55.4512 119.877 57.9931 119.613 58.0648C119.348 58.1365 107.102 53.4111 107.102 53.4111L92.6 60.138L87.9629 57.9324L70.0372 65.1556L70.2798 68.2048L62.8581 61.4007L60.4706 54.773L59.23 53.968L53.9422 49L56.7984 37.2168C56.7984 37.2168 52.9772 34.1235 52.7732 34.151C52.5692 34.1786 45.4122 42.2068 45.4122 42.2068L40.8798 40.1998L43.0026 27.8873L42.9806 27.8818Z" fill="#3D0E1A"/>
<path d="M42.0928 5.29135L47.8603 11.0589L30.9878 42.4936C30.9878 42.4936 27.3101 42.6645 27.084 42.2068C26.8579 41.7492 21.2834 37.2112 21.2834 37.2112L12.6101 44.7653L8.55183 49.9208L3.33569 44.5833C3.33569 44.5833 12.1414 6.59262 12.8913 6.47683C13.6412 6.36104 16.5415 5.23621 16.5415 5.23621L21.9892 10.6839L22.2594 17.9126L25.4023 14.7642L30.1111 19.7488L37.1358 10.3862L42.0928 5.29135Z" fill="#3D0E1A"/>
<path d="M41.8613 8.2909C41.8613 7.52447 41.5856 6.85729 41.0894 6.41618C40.6041 5.9861 39.9314 5.79862 39.1981 5.88133C37.8637 6.04123 36.7279 7.04476 34.8697 11.704L34.798 11.886C32.8571 16.7382 31.4566 20.2395 29.036 27.0988C28.0545 29.8778 26.0144 35.6563 24.3382 35.8548C24.1066 35.8824 23.9026 35.8107 23.7096 35.6398C23.285 35.2648 22.5737 34.0794 22.5737 30.3961C22.5737 26.1449 23.5442 23.1674 24.2555 20.9949C24.6855 19.6826 25.0219 18.6515 25.0219 17.7472C25.0219 16.8926 24.7186 16.1482 24.1672 15.6575C23.6379 15.1888 22.9156 14.9848 22.1271 15.073C20.2799 15.2935 19.4308 17.1738 18.0303 20.2836C17.8483 20.6861 17.6608 21.1107 17.4568 21.5573C12.0422 33.539 8.63461 39.6925 7.3223 39.8469C7.27819 39.8469 7.22305 39.8469 7.14586 39.7752C7.00249 39.6484 6.54484 39.0694 6.54484 36.8308C6.54484 30.0377 11.0056 17.3998 14.9921 10.6398C15.6814 9.47087 15.9846 8.59416 15.9846 7.79465C15.9846 7.0999 15.7144 6.47132 15.2182 6.03572C14.733 5.60564 14.1044 5.41265 13.4372 5.48984C12.158 5.63872 11.4081 6.49337 10.8016 7.28186C6.69923 12.6193 1.49963 27.1263 1.49963 35.8162C1.49963 39.2128 2.28812 41.7051 3.77687 43.0284C4.53227 43.6956 5.44206 44.043 6.43456 44.043C6.60549 44.043 6.78194 44.0319 6.95838 44.0099C9.66019 43.6901 12.2021 41.1923 17.7877 29.0452C17.6884 33.4453 18.5706 36.6378 20.3626 38.314C21.3937 39.279 22.7061 39.698 24.1507 39.5271C27.9056 39.0805 30.3097 34.8734 32.9674 28.2181C35.1288 22.8255 37.5219 17.648 39.7054 13.6504C41.0066 11.2684 41.8613 9.60321 41.8613 8.2909Z" fill="#EC408B"/>
<path d="M65.3063 26.0236C69.519 25.5218 71.3992 23.9779 73.4945 21.0004C74.1947 19.9804 74.5642 18.7508 74.5642 18.0615C74.5642 17.5101 74.4098 17.08 74.1231 16.8209C73.9135 16.6334 73.6433 16.5507 73.3621 16.5838C72.8383 16.6444 72.5737 17.069 72.2152 17.648C70.2192 20.824 68.8077 22.6546 66.365 22.9468C65.9294 22.9965 65.7144 22.9854 65.6096 22.9744C65.6096 22.9579 65.6206 22.9413 65.6262 22.9248C65.753 22.5388 65.8798 22.1639 66.0011 21.7889L66.0176 21.7448C66.3595 20.9398 66.569 20.3112 66.6738 19.7984C69.7947 10.6839 72.0223 5.99162 73.2905 5.84274C73.3291 5.84274 73.3456 5.84274 73.3456 5.84274C73.4062 5.87031 73.5 6.12395 73.5551 6.25628C73.7426 6.73048 74.09 7.6127 75.2699 7.46934C76.3617 7.34252 77.0675 6.52646 77.0675 5.39612C77.0675 4.51389 76.6209 3.61513 75.8489 2.92589C74.9115 2.0933 73.6323 1.67975 72.4248 1.82312C70.8588 2.01059 69.4252 3.0086 68.0357 4.8723C65.3339 8.48941 63.1008 15.1722 61.0882 21.8606C61.0331 22.0425 60.989 22.1308 60.9614 22.1639H60.9393C60.0682 21.9268 59.401 21.8385 58.9047 21.8992C58.0501 21.9984 57.5152 22.5774 57.5152 23.399C57.5152 23.989 57.8295 25.0697 59.9358 25.7424C59.9358 25.7534 59.9303 25.7699 59.9248 25.7865C59.4892 27.2587 59.0646 28.7088 58.6621 30.1094C57.3719 31.9951 56.2801 32.938 55.2931 33.0538C54.8686 33.1034 54.5653 33.0428 54.3668 32.8663C54.0801 32.6127 53.9312 32.0558 53.9312 31.2121C53.9312 28.8412 54.9402 25.0476 56.9363 19.9307C57.7854 17.6039 59.0536 14.869 60.3935 11.9797L60.7684 11.1747C61.0276 10.6123 61.2922 10.0609 61.5514 9.52602C62.5604 7.43074 63.4316 5.62218 63.4316 4.32642C63.4316 3.63718 63.2166 3.08028 62.8086 2.72188C62.4336 2.39105 61.9318 2.24768 61.3529 2.31937C60.002 2.47927 59.0205 3.74195 56.9749 7.94353C53.843 14.4279 51.5657 20.3277 50.4023 24.8326C50.1487 24.9484 49.9171 25.0035 49.6965 25.0311C48.7426 25.1469 48.5221 24.6175 48.1747 23.603C47.8825 22.7428 47.4855 21.5628 46.0243 21.7338C44.8664 21.8716 43.9952 22.8476 43.9952 24.0055C43.9952 24.5293 44.1882 25.009 44.3867 25.5218C44.6237 26.1118 44.8664 26.7294 44.8664 27.5178C44.8664 29.9109 42.6939 32.7946 40.7199 33.0262C40.2457 33.0814 40.0307 32.9435 39.9094 32.8387C39.6612 32.6182 39.358 32.0503 39.358 30.6056C39.358 28.0306 40.1465 25.7534 41.7014 23.8401C42.7325 22.5829 43.6037 22.0701 44.519 21.5353L44.7175 21.4195C45.9691 20.7247 46.2338 19.8535 46.2338 19.2415C46.2338 18.6956 46.0298 18.2214 45.6383 17.874C45.1035 17.3999 44.2874 17.2124 43.2839 17.3337C38.36 17.9182 34.1418 24.9208 34.1418 30.2417C34.1418 32.4473 34.8476 34.2889 36.1268 35.4248C37.0146 36.2132 38.1118 36.6213 39.3304 36.6213C39.551 36.6213 39.777 36.6102 40.0086 36.5827C43.0909 36.2188 45.8864 33.55 47.4799 29.4642C47.9376 28.3835 48.1416 28.1023 48.8088 28.0196C49.1286 27.981 49.4429 27.9204 49.7572 27.8432C49.6083 28.775 49.5311 29.6186 49.5311 30.341C49.5311 32.4362 50.2038 34.1896 51.4334 35.2759C52.2715 36.0203 53.3192 36.4173 54.4274 36.4173C54.6149 36.4173 54.8024 36.4062 54.9899 36.3842C55.6956 36.3015 56.3904 36.0699 57.0796 35.6784C56.5558 37.5641 56.0926 39.2624 55.7232 40.685C54.9788 43.442 54.5984 45.3718 54.5984 46.4139C54.5984 47.1969 54.8355 47.831 55.26 48.2115C55.5357 48.4541 55.8721 48.5809 56.2415 48.5809C56.3077 48.5809 56.3738 48.5809 56.4455 48.5699C58.6511 48.3107 59.8531 44.9472 60.9724 39.9792C62.1689 34.7355 63.2607 30.556 64.5179 26.4206C64.5877 26.2 64.8505 26.064 65.3063 26.0125V26.0236Z" fill="#EC408B"/>
<path d="M75.9812 30.771C76.7421 31.4437 77.7291 31.7911 78.876 31.7911C79.1076 31.7911 79.3502 31.7746 79.5983 31.747C82.7578 31.372 85.2997 28.8412 85.2997 26.9995C85.2997 26.4592 85.1122 25.9905 84.7649 25.6872C84.4616 25.417 84.0591 25.3013 83.629 25.3509C82.6751 25.4667 82.1954 26.3379 81.7322 27.1815C81.3021 27.9645 80.8996 28.7033 80.1883 28.786C79.8409 28.8301 79.67 28.7144 79.5708 28.6316C79.3392 28.4221 79.058 27.8983 79.058 26.575C79.058 24.3032 79.9181 22.2796 80.6791 20.4876C81.247 19.1478 81.7377 17.9898 81.7377 16.9863C81.7377 16.2916 81.5006 15.7016 81.0705 15.3156C80.668 14.9572 80.1277 14.8028 79.5432 14.869C76.8414 15.1888 74.1892 20.4656 74.1892 25.5218C74.1892 27.9534 74.7902 29.7124 75.9702 30.7655L75.9812 30.771Z" fill="#EC408B"/>
<path d="M79.9181 12.1727C80.3427 12.5476 80.8665 12.7461 81.4234 12.7461C81.5171 12.7461 81.6054 12.7461 81.6991 12.7296C83.458 12.5201 85.2445 10.6067 85.2445 8.93603C85.2445 8.5666 85.1729 8.3295 85.1067 8.10343C85.0295 7.84428 84.9523 7.57961 84.9523 6.98962C84.9523 6.44926 84.7483 5.96955 84.3844 5.64423C84.0315 5.32994 83.5573 5.1921 83.05 5.25275C81.0871 5.48433 79.0966 8.36258 79.0966 10.2594C79.0966 11.0203 79.3888 11.704 79.9181 12.1727Z" fill="#EC408B"/>
<path d="M133.243 44.8039C132.339 44.9086 131.887 45.7302 131.451 46.5187C131.004 47.3237 130.585 48.0902 129.747 48.1894C129.372 48.2335 129.058 48.1398 128.799 47.9137C128.308 47.4781 128.038 46.5463 128.038 45.2891C128.038 43.0449 129.102 38.9977 131.037 33.8974C132.658 29.5745 133.723 27.0712 134.423 25.4115C134.55 25.1138 134.66 24.8491 134.759 24.612C135.211 23.5313 135.377 22.8972 135.377 22.2686C135.377 21.5408 135.112 20.9067 134.627 20.4766C134.197 20.0961 133.645 19.9252 133.061 19.9914C131.594 20.1623 130.629 21.9157 129.141 25.5273C128.611 26.8396 128.043 28.4497 127.442 30.148C126.908 31.6643 126.356 33.2302 125.755 34.7962C125.7 34.945 125.656 35.0388 125.623 35.0939C125.612 35.0829 125.595 35.0663 125.579 35.0553C124.718 34.1124 122.877 33.2082 120.881 33.4397C115.94 34.0242 112.715 41.6996 112.456 47.1473C111.154 48.9889 110.063 49.8767 109.048 49.998C108.695 50.0421 108.447 49.998 108.298 49.8601C108.089 49.6726 107.978 49.2591 107.978 48.6526C107.978 47.3182 108.508 45.8956 109.015 44.5172C109.539 43.1111 110.074 41.6499 110.074 40.2439C110.074 39.0253 109.682 38.0328 108.949 37.3767C108.221 36.726 107.206 36.4614 106.015 36.5992C102.713 36.9907 100.843 40.1502 99.6027 42.2399C99.2443 42.8464 98.8087 43.5798 98.5496 43.8279C98.5385 43.7617 98.533 43.6625 98.533 43.5302C98.533 43.5302 98.7977 42.3226 99.1726 41.297C99.1782 41.2805 99.3215 40.9 99.4042 40.7181C99.895 39.6374 100.397 38.5236 100.397 37.3601C100.397 36.3566 100.044 35.8328 99.7461 35.5681C99.4208 35.2814 99.0017 35.1546 98.5496 35.2042C95.8533 35.524 93.7249 42.5818 92.7655 47.9964C90.6923 51.2165 89.5178 52.0712 88.4095 52.2035C88.0566 52.2476 87.7975 52.187 87.6155 52.0216C87.3619 51.7955 87.224 51.3378 87.224 50.6927C87.224 49.4852 87.6707 47.3844 88.3654 45.3387C88.6852 44.4234 89.0547 43.5412 89.4131 42.6865C90.0472 41.1757 90.5489 39.9847 90.5489 39.1632C90.5489 38.5897 90.3008 38.0218 89.8817 37.6468C89.4958 37.305 88.994 37.1451 88.4757 37.2112C87.0421 37.3822 85.9503 39.0584 85.0791 40.4093C84.7924 40.8504 84.4065 41.4459 84.2135 41.6058C84.0866 41.5452 83.8385 41.3577 83.6345 41.2033C82.8074 40.5692 81.4179 39.505 79.4384 39.7421C74.5311 40.3211 71.5205 47.5333 71.5205 52.4461C71.5205 52.6612 71.526 52.8597 71.537 53.0582C70.0648 56.5043 68.9234 57.6182 67.8096 57.8938C67.3961 57.9986 67.0873 57.9766 66.8668 57.8277C66.547 57.6071 66.3319 57.0778 66.2272 56.2452C65.9294 53.8963 66.4532 50.0035 67.7876 44.6771C68.339 42.262 69.2488 39.3948 70.2192 36.3566L70.4894 35.5075C70.6769 34.9175 70.8699 34.3385 71.0573 33.7706C71.7962 31.565 72.4303 29.6572 72.2704 28.3725C72.1822 27.6888 71.901 27.1649 71.4543 26.8562C71.0408 26.575 70.5225 26.4978 69.9601 26.6356C68.6367 26.9664 67.8207 28.3394 66.3264 32.7671C62.9133 42.9347 61.204 51.597 61.7499 55.9309C62.0145 58.0096 62.9023 59.6638 64.2532 60.5901C65.0141 61.114 65.8908 61.3786 66.7896 61.3786C67.1645 61.3786 67.545 61.3345 67.9254 61.2353C69.7064 60.7942 71.2779 59.3936 72.7446 56.8352C72.932 57.0778 73.125 57.2818 73.307 57.4472C74.0183 58.0758 74.906 58.4122 75.8544 58.4122C76.0143 58.4122 76.1742 58.4011 76.3341 58.3846C79.0855 58.0593 80.7728 55.159 82.0024 53.0361C82.4325 52.2973 83.0114 51.2992 83.2926 51.1559C83.4084 51.2882 83.5739 51.7183 83.6952 52.0381C84.2245 53.4331 85.1177 55.7655 88.2827 55.3961C89.5895 55.2417 90.7915 54.7454 92.2141 53.3063C92.2637 54.8998 92.6773 56.1459 93.3555 56.7525C93.6312 57.0006 93.9455 57.1274 94.2598 57.1274C94.3039 57.1274 94.3535 57.1274 94.3976 57.1219C95.8312 56.951 97.1821 54.0782 99.2774 49.3969C100.898 45.7688 102.917 41.2474 104.312 41.082C104.35 41.082 104.372 41.082 104.383 41.0765C104.4 41.1096 104.449 41.2254 104.449 41.5507C104.449 42.1793 104.24 43.1221 104.019 44.1201C103.727 45.4325 103.402 46.9212 103.402 48.2611C103.402 49.9814 103.926 51.3599 104.924 52.2421C105.844 53.0582 107.102 53.4 108.568 53.2291C110.096 53.0471 111.491 52.3414 112.875 50.9684C113.222 52.0767 113.768 52.9865 114.49 53.6316C115.235 54.2933 116.139 54.6407 117.087 54.6407C117.236 54.6407 117.391 54.6296 117.545 54.6131C120.622 54.2492 122.441 50.7313 123.533 48.6305C123.72 48.2666 123.93 47.8641 124.084 47.616C124.145 47.7207 124.211 47.8365 124.272 47.9468C124.923 49.1323 126.279 51.597 129.494 51.2165C132.493 50.8636 134.903 48.3162 134.903 46.4415C134.903 45.9011 134.715 45.438 134.373 45.1347C134.065 44.8645 133.662 44.7377 133.232 44.7928L133.243 44.8039ZM121.984 36.6709C121.984 36.6709 122.033 36.6709 122.055 36.6709C122.276 36.6709 122.392 36.8198 122.656 37.3822C122.921 37.9446 123.312 38.7772 124.355 38.7221C121.184 47.638 118.934 50.9353 117.969 51.0456C117.909 51.0511 117.865 51.0401 117.81 50.996C117.705 50.9022 117.363 50.4666 117.363 48.7739C117.363 43.679 120.225 36.8859 121.978 36.6764L121.984 36.6709ZM82.0741 44.7377C82.0741 45.4269 81.8976 46.061 80.8941 48.2501C78.468 53.5103 77.277 54.6958 76.7035 54.7675C76.676 54.7675 76.5933 54.7785 76.472 54.6737C76.2073 54.4422 75.9261 53.7805 75.9261 52.6281C75.9261 49.1874 78.1427 43.4419 80.7728 43.1277C80.839 43.1221 80.9051 43.1166 80.9713 43.1166C81.2415 43.1166 81.4675 43.1938 81.633 43.3427C81.9252 43.6018 82.0741 44.0871 82.0741 44.7432V44.7377Z" fill="#EC408B"/>
<path d="M6.84813 17.5487C6.81504 17.5487 6.78196 17.5432 6.74888 17.5322C6.59449 17.4771 6.51178 17.3061 6.56692 17.1462L7.28372 15.1226C7.33886 14.9682 7.50979 14.8855 7.6697 14.9407C7.82408 14.9958 7.90679 15.1667 7.85165 15.3266L7.13485 17.3502C7.09074 17.4715 6.97495 17.5487 6.85364 17.5487H6.84813Z" fill="#3D0E1A"/>
<path d="M19.6899 35.0939C19.5521 35.0939 19.4253 34.9947 19.3977 34.8513L18.9731 32.7505C18.9401 32.5851 19.0448 32.4307 19.2102 32.3976C19.3701 32.3646 19.53 32.4693 19.5631 32.6347L19.9877 34.7355C20.0208 34.9009 19.916 35.0553 19.7506 35.0884C19.7285 35.0884 19.712 35.0939 19.6899 35.0939Z" fill="#3D0E1A"/>
<path d="M54.5652 18.7783C54.5266 18.7783 54.488 18.7728 54.455 18.7563C54.3006 18.6956 54.2234 18.5192 54.2895 18.3648L55.089 16.3743C55.1497 16.2199 55.3261 16.1427 55.4805 16.2088C55.6349 16.2695 55.7121 16.4459 55.646 16.6003L54.8464 18.5908C54.7968 18.7066 54.6865 18.7783 54.5652 18.7783Z" fill="#3D0E1A"/>
<path d="M52.9222 19.8811C52.8836 19.8811 52.845 19.8756 52.8119 19.859C52.6575 19.7984 52.5803 19.622 52.6465 19.4676L53.446 17.477C53.5066 17.3227 53.6831 17.2455 53.8375 17.3116C53.9919 17.3723 54.0691 17.5487 54.0029 17.7031L53.2034 19.6936C53.1537 19.8094 53.0435 19.8811 52.9222 19.8811Z" fill="#3D0E1A"/>
<path d="M54.3503 16.2916C54.3117 16.2916 54.2731 16.2861 54.24 16.2695C54.0856 16.2089 54.0084 16.0324 54.0746 15.878L54.8741 13.8875C54.9347 13.7331 55.1112 13.6559 55.2656 13.7221C55.42 13.7883 55.4972 13.9592 55.431 14.1136L54.6315 16.1041C54.5818 16.2199 54.4716 16.2916 54.3503 16.2916Z" fill="#3D0E1A"/>
<path d="M58.0942 40.9883C58.0666 40.9883 58.0391 40.9883 58.0115 40.9773C57.8516 40.9331 57.7634 40.7622 57.8075 40.6023L58.414 38.5456C58.4581 38.3857 58.629 38.2975 58.7889 38.3416C58.9488 38.3857 59.0371 38.5567 58.993 38.7166L58.3864 40.7732C58.3478 40.9056 58.2265 40.9883 58.0997 40.9883H58.0942Z" fill="#3D0E1A"/>
<path d="M62.2407 21.9984C62.2131 21.9984 62.1855 21.9984 62.158 21.9874C61.9981 21.9433 61.9098 21.7724 61.954 21.6125L62.5605 19.5558C62.6101 19.3959 62.7755 19.3077 62.9354 19.3518C63.0953 19.3959 63.1835 19.5668 63.1394 19.7267L62.5329 21.7834C62.4943 21.9157 62.373 21.9984 62.2462 21.9984H62.2407Z" fill="#3D0E1A"/>
<path d="M62.4501 30.4292C62.4226 30.4292 62.395 30.4292 62.3674 30.4181C62.2075 30.374 62.1193 30.2031 62.1634 30.0432L62.77 27.9865C62.8196 27.8266 62.985 27.7384 63.1449 27.7825C63.3048 27.8266 63.393 27.9975 63.3489 28.1574L62.7424 30.2141C62.7038 30.3465 62.5825 30.4292 62.4557 30.4292H62.4501Z" fill="#3D0E1A"/>
<path d="M66.4257 13.5126C66.3926 13.5126 66.354 13.507 66.3209 13.4905C66.1665 13.4298 66.0893 13.2589 66.1445 13.1045L66.8999 11.0975C66.9605 10.9431 67.1315 10.8659 67.2858 10.921C67.4402 10.9817 67.5174 11.1526 67.4623 11.307L66.7069 13.3141C66.6628 13.4354 66.547 13.507 66.4257 13.507V13.5126Z" fill="#3D0E1A"/>
<path d="M64.5399 15.1557C64.5069 15.1557 64.4683 15.1502 64.4352 15.1337C64.2808 15.073 64.2036 14.9021 64.2587 14.7477L65.0141 12.7406C65.0748 12.5862 65.2457 12.509 65.4001 12.5642C65.5545 12.6248 65.6317 12.7958 65.5766 12.9502L64.8211 14.9572C64.777 15.0785 64.6612 15.1502 64.5399 15.1502V15.1557Z" fill="#3D0E1A"/>
<path d="M75.8103 27.6833C75.678 27.6833 75.5622 27.6005 75.5236 27.4682C75.2314 26.4647 75.3417 25.2682 75.3472 25.213C75.3637 25.0476 75.5126 24.9263 75.678 24.9429C75.8434 24.9594 75.9647 25.1083 75.9482 25.2737C75.9482 25.2847 75.8434 26.4095 76.1026 27.2973C76.1467 27.4572 76.0585 27.6226 75.8986 27.6722C75.871 27.6777 75.8434 27.6833 75.8159 27.6833H75.8103Z" fill="#3D0E1A"/>
<path d="M77.492 30.7214C77.4203 30.7214 77.3486 30.6938 77.288 30.6442C76.516 29.9329 75.9977 28.8522 75.9757 28.8081C75.904 28.6592 75.9701 28.4772 76.119 28.4056C76.2679 28.3339 76.4499 28.4001 76.5215 28.5489C76.5215 28.56 77.0178 29.5745 77.7015 30.2031C77.8228 30.3134 77.8338 30.5064 77.7181 30.6277C77.6574 30.6938 77.5802 30.7269 77.4975 30.7269L77.492 30.7214Z" fill="#3D0E1A"/>
<path d="M77.7291 28.6758C77.6354 28.6758 77.5361 28.6317 77.481 28.5434C76.891 27.6778 76.6319 26.5033 76.6208 26.4537C76.5878 26.2938 76.687 26.1339 76.8524 26.0953C77.0123 26.0622 77.1777 26.1614 77.2108 26.3268C77.2108 26.3379 77.459 27.4407 77.9828 28.2071C78.0765 28.3449 78.0434 28.5324 77.9056 28.6261C77.856 28.6592 77.7953 28.6758 77.7346 28.6758H77.7291Z" fill="#3D0E1A"/>
<path d="M56.5614 42.2454C56.5338 42.2454 56.5062 42.2454 56.4786 42.2344C56.3187 42.1903 56.2305 42.0194 56.2746 41.8595L56.8812 39.8028C56.9253 39.6429 57.0962 39.5546 57.2561 39.5988C57.416 39.6429 57.5042 39.8138 57.4601 39.9737L56.8536 42.0304C56.815 42.1627 56.6937 42.2454 56.5669 42.2454H56.5614Z" fill="#3D0E1A"/>
<path d="M57.642 38.5346C57.6145 38.5346 57.5869 38.5346 57.5593 38.5236C57.3994 38.4794 57.3112 38.3085 57.3553 38.1486L57.9618 36.0919C58.006 35.932 58.1769 35.8438 58.3368 35.8879C58.4967 35.932 58.5849 36.103 58.5408 36.2629L57.9343 38.3195C57.8957 38.4519 57.7744 38.5346 57.6476 38.5346H57.642Z" fill="#3D0E1A"/>
<path d="M62.8802 49.9538C62.8802 49.9538 62.8471 49.9538 62.8306 49.9538C62.6652 49.9263 62.5549 49.7719 62.5825 49.6065L62.9298 47.4891C62.9574 47.3237 63.1118 47.2134 63.2772 47.241C63.4426 47.2686 63.5529 47.423 63.5253 47.5884L63.178 49.7057C63.1559 49.8546 63.0236 49.9594 62.8802 49.9594V49.9538Z" fill="#3D0E1A"/>
<path d="M72.6949 51.4592C72.6949 51.4592 72.6618 51.4592 72.6453 51.4592C72.4799 51.4316 72.3696 51.2772 72.3972 51.1118L72.7445 48.9944C72.7721 48.829 72.9265 48.7187 73.0919 48.7463C73.2573 48.7739 73.3676 48.9283 73.34 49.0937L72.9927 51.211C72.9706 51.3599 72.8383 51.4647 72.6949 51.4647V51.4592Z" fill="#3D0E1A"/>
<path d="M64.3249 48.4927C64.3249 48.4927 64.2918 48.4927 64.2753 48.4927C64.1099 48.4651 63.9996 48.3107 64.0272 48.1453L64.3745 46.028C64.4021 45.8625 64.5565 45.7523 64.7219 45.7798C64.8873 45.8074 64.9976 45.9618 64.97 46.1272L64.6227 48.2445C64.6006 48.3934 64.4683 48.4982 64.3249 48.4982V48.4927Z" fill="#3D0E1A"/>
<path d="M63.7129 52.3359C63.7129 52.3359 63.6798 52.3359 63.6632 52.3359C63.4978 52.3083 63.3875 52.1539 63.4151 51.9885L63.7625 49.8712C63.7901 49.7057 63.9444 49.5955 64.1099 49.623C64.2753 49.6506 64.3856 49.805 64.358 49.9704L64.0106 52.0877C63.9886 52.2366 63.8562 52.3414 63.7129 52.3414V52.3359Z" fill="#3D0E1A"/>
<path d="M68.973 37.2829C68.9454 37.2829 68.9124 37.2829 68.8848 37.2719C68.7249 37.2223 68.6367 37.0569 68.6863 36.897L69.3094 34.8458C69.359 34.6859 69.5244 34.5977 69.6843 34.6473C69.8442 34.6969 69.9324 34.8623 69.8828 35.0222L69.2597 37.0734C69.2211 37.2057 69.0998 37.2884 68.973 37.2884V37.2829Z" fill="#3D0E1A"/>
<path d="M73.9686 49.9538C73.9686 49.9538 73.9355 49.9538 73.919 49.9538C73.7536 49.9263 73.6433 49.7719 73.6708 49.6065L74.0348 47.4891C74.0623 47.3237 74.2167 47.2134 74.3821 47.241C74.5476 47.2686 74.6578 47.423 74.6303 47.5884L74.2663 49.7057C74.2388 49.8546 74.112 49.9538 73.9686 49.9538Z" fill="#3D0E1A"/>
<path d="M87.1192 46.0996C87.1192 46.0996 87.0641 46.0996 87.0365 46.0886C86.8766 46.0445 86.7829 45.8736 86.8325 45.7192L87.4225 43.657C87.4666 43.4971 87.6376 43.4034 87.7919 43.453C87.9518 43.4971 88.0456 43.668 87.996 43.8224L87.406 45.8846C87.3674 46.0169 87.2461 46.1052 87.1192 46.1052V46.0996Z" fill="#3D0E1A"/>
<path d="M85.5203 47.6104C85.5203 47.6104 85.4651 47.6105 85.4375 47.5994C85.2776 47.5553 85.1839 47.3844 85.2335 47.23L85.8235 45.1678C85.8676 45.0079 86.0386 44.9142 86.1929 44.9638C86.3529 45.0079 86.4466 45.1788 86.397 45.3332L85.807 47.3954C85.7684 47.5277 85.6471 47.616 85.5203 47.616V47.6104Z" fill="#3D0E1A"/>
<path d="M95.1475 55.6552C95.0924 55.6552 95.0428 55.6387 94.9931 55.6111C94.8498 55.5229 94.8057 55.3409 94.8884 55.1976L95.9912 53.3559C96.0739 53.2126 96.2613 53.1684 96.4047 53.2512C96.5481 53.3339 96.5922 53.5213 96.5095 53.6647L95.4067 55.5063C95.3516 55.6001 95.2523 55.6497 95.1475 55.6497V55.6552Z" fill="#3D0E1A"/>
<path d="M97.0056 52.2973C96.956 52.2973 96.9119 52.2862 96.8678 52.2642C96.7189 52.187 96.6638 52.005 96.741 51.8561L97.7335 49.9539C97.8107 49.805 97.9926 49.7498 98.1415 49.827C98.2904 49.9042 98.3455 50.0862 98.2683 50.2351L97.2758 52.1374C97.2207 52.2421 97.1159 52.2973 97.0111 52.2973H97.0056Z" fill="#3D0E1A"/>
<path d="M95.2027 53.0913C95.153 53.0913 95.1089 53.0802 95.0648 53.0582C94.9159 52.981 94.8608 52.799 94.938 52.6502L95.9305 50.7479C96.0077 50.599 96.1896 50.5438 96.3385 50.621C96.4874 50.6982 96.5425 50.8802 96.4653 51.0291L95.4728 52.9314C95.4177 53.0361 95.3129 53.0913 95.2082 53.0913H95.2027Z" fill="#3D0E1A"/>
<path d="M86.397 49.7223C86.397 49.7223 86.3639 49.7223 86.3419 49.7223C86.1764 49.6947 86.0717 49.5348 86.0992 49.3749L86.4742 47.2631C86.5018 47.0977 86.6617 46.9874 86.8216 47.0205C86.987 47.048 87.0917 47.2079 87.0642 47.3678L86.6892 49.4797C86.6617 49.623 86.5348 49.7278 86.3915 49.7278L86.397 49.7223Z" fill="#3D0E1A"/>
<path d="M133.105 25.3178C133.061 25.3178 133.017 25.3068 132.973 25.2847C132.824 25.213 132.763 25.0311 132.835 24.8822L133.789 22.9634C133.861 22.8145 134.043 22.7539 134.191 22.8255C134.34 22.8972 134.401 23.0792 134.329 23.228L133.375 25.1469C133.32 25.2516 133.215 25.3123 133.105 25.3123V25.3178Z" fill="#3D0E1A"/>
<path d="M131.258 26.5143C131.214 26.5143 131.17 26.5033 131.126 26.4812C130.977 26.4095 130.916 26.2276 130.988 26.0787L131.942 24.1599C132.013 24.011 132.195 23.9504 132.344 24.022C132.493 24.0937 132.554 24.2757 132.482 24.4245L131.528 26.3434C131.473 26.4481 131.368 26.5088 131.258 26.5088V26.5143Z" fill="#3D0E1A"/>
<path d="M131.738 28.753C131.705 28.753 131.666 28.7474 131.633 28.7364C131.479 28.6758 131.396 28.5048 131.457 28.3504L132.206 26.3434C132.267 26.189 132.438 26.1118 132.592 26.1669C132.747 26.2276 132.829 26.3985 132.769 26.5529L132.019 28.56C131.975 28.6813 131.859 28.753 131.738 28.753Z" fill="#3D0E1A"/>
<path d="M21.6198 36.5496C21.4819 36.5496 21.3551 36.4503 21.3275 36.307L20.9029 34.2062C20.8699 34.0408 20.9746 33.8864 21.14 33.8533C21.2999 33.8202 21.4599 33.925 21.4929 34.0904L21.9175 36.1912C21.9506 36.3566 21.8458 36.511 21.6804 36.5441C21.6584 36.5441 21.6418 36.5496 21.6198 36.5496Z" fill="#3D0E1A"/>
<path d="M20.6935 22.8476C20.6604 22.8476 20.6273 22.8421 20.5942 22.831C20.4398 22.7759 20.3571 22.605 20.4123 22.4451L21.1291 20.4215C21.1842 20.2671 21.3551 20.1844 21.515 20.2395C21.6694 20.2946 21.7521 20.4656 21.697 20.6255L20.9802 22.6491C20.9361 22.7704 20.8203 22.8476 20.699 22.8476H20.6935Z" fill="#3D0E1A"/>
<path d="M45.7706 27.1484C45.6327 27.1484 45.5114 27.0547 45.4783 26.9168L44.9821 24.8271C44.9435 24.6671 45.0427 24.5017 45.2026 24.4631C45.3625 24.4245 45.528 24.5238 45.5666 24.6837L46.0628 26.7735C46.1014 26.9334 46.0022 27.0988 45.8423 27.1374C45.8202 27.1429 45.7981 27.1429 45.7706 27.1429V27.1484Z" fill="#3D0E1A"/>
<path d="M18.2618 23.8346C18.2232 23.8346 18.1791 23.829 18.1405 23.807C17.9861 23.7408 17.92 23.5644 17.9861 23.41L18.8408 21.4415C18.9069 21.2871 19.0834 21.221 19.2378 21.2871C19.3922 21.3533 19.4583 21.5298 19.3922 21.6841L18.5375 23.6526C18.4879 23.7684 18.3776 23.8346 18.2618 23.8346Z" fill="#3D0E1A"/>
<path d="M36.397 11.5331C36.3584 11.5331 36.3253 11.5275 36.2867 11.511C36.1323 11.4504 36.0552 11.2739 36.1158 11.1195C36.1489 11.0313 36.9594 8.98565 37.8086 8.10342C37.9244 7.98212 38.1118 7.98212 38.2331 8.0924C38.3544 8.20819 38.3544 8.39566 38.2442 8.51697C37.4777 9.31097 36.6837 11.318 36.6782 11.3346C36.6341 11.4504 36.5183 11.5275 36.397 11.5275V11.5331Z" fill="#3D0E1A"/>
<path d="M7.75792 19.7874C7.72483 19.7874 7.69175 19.7818 7.65867 19.7708C7.50428 19.7157 7.42157 19.5447 7.47671 19.3848L8.19351 17.3612C8.24865 17.2069 8.41958 17.1241 8.57949 17.1793C8.73387 17.2344 8.81658 17.4054 8.76144 17.5653L8.04464 19.5889C8.00053 19.7102 7.88474 19.7874 7.76343 19.7874H7.75792Z" fill="#3D0E1A"/>
<path d="M9.97995 39.3617C9.93032 39.3617 9.87519 39.3507 9.82556 39.3176C9.6822 39.2349 9.63257 39.0474 9.7208 38.904L10.8125 37.0569C10.8953 36.9135 11.0827 36.8639 11.2261 36.9521C11.3694 37.0348 11.4191 37.2223 11.3309 37.3657L10.2391 39.2128C10.184 39.3066 10.0847 39.3617 9.97995 39.3617Z" fill="#3D0E1A"/>
<path d="M4.11316 26.6191C4.11316 26.6191 4.06354 26.6191 4.03597 26.6081C3.87607 26.5695 3.77682 26.404 3.82093 26.2441L4.21793 24.6837C4.25652 24.5238 4.42194 24.4246 4.58184 24.4687C4.74175 24.5073 4.841 24.6727 4.79689 24.8326L4.39989 26.393C4.3668 26.5309 4.2455 26.6191 4.10765 26.6191H4.11316Z" fill="#3D0E1A"/>
<path d="M20.0262 19.7433C19.9821 19.7433 19.9435 19.7322 19.8994 19.7157C19.7505 19.6495 19.6789 19.4676 19.7505 19.3187L20.4177 17.852C20.4839 17.7031 20.6659 17.6314 20.8147 17.7031C20.9636 17.7693 21.0353 17.9513 20.9636 18.1001L20.2964 19.5668C20.2468 19.6771 20.1365 19.7433 20.0207 19.7433H20.0262Z" fill="#3D0E1A"/>
<path d="M5.10023 28.4221C5.10023 28.4221 5.06715 28.4221 5.0506 28.4221C4.88519 28.3945 4.77491 28.2402 4.80799 28.0747L5.08369 26.4923C5.11126 26.3268 5.26565 26.2166 5.43106 26.2496C5.59648 26.2772 5.70676 26.4316 5.67367 26.597L5.39798 28.1795C5.37041 28.3229 5.24359 28.4276 5.10023 28.4276V28.4221Z" fill="#3D0E1A"/>
<path d="M37.2131 13.1266C37.1745 13.1266 37.1359 13.1211 37.0973 13.1045C36.9429 13.0384 36.8712 12.8674 36.9319 12.713L37.7479 10.7446C37.8141 10.5902 37.985 10.5185 38.1394 10.5792C38.2938 10.6453 38.3655 10.8163 38.3049 10.9707L37.4888 12.9391C37.4392 13.0549 37.3289 13.1266 37.2131 13.1266Z" fill="#3D0E1A"/>
<path d="M35.1729 14.7036C35.1343 14.7036 35.1012 14.6981 35.0626 14.6815C34.9082 14.6209 34.831 14.4444 34.8917 14.29L35.5092 12.7075C35.5699 12.5532 35.7463 12.476 35.9007 12.5366C36.0551 12.5973 36.1323 12.7737 36.0717 12.9281L35.4541 14.5106C35.41 14.6319 35.2942 14.7036 35.1729 14.7036Z" fill="#3D0E1A"/>
<path d="M33.1273 25.0586C33.0942 25.0586 33.0611 25.0531 33.0281 25.0421C32.8737 24.987 32.791 24.816 32.8461 24.6561L33.8606 21.822C33.9158 21.6676 34.0922 21.5849 34.2466 21.64C34.401 21.6952 34.4837 21.8661 34.4286 22.026L33.414 24.8601C33.3699 24.9815 33.2541 25.0586 33.1328 25.0586H33.1273Z" fill="#3D0E1A"/>
<path d="M35.2832 31.2563C35.1454 31.2563 35.0241 31.1625 34.991 31.0302C34.98 30.9861 34.7208 29.8998 34.9855 28.0803C35.0075 27.9148 35.1619 27.8046 35.3273 27.8266C35.4928 27.8487 35.603 28.0031 35.581 28.1685C35.3329 29.8668 35.5755 30.8813 35.5755 30.8923C35.6141 31.0522 35.5148 31.2177 35.3549 31.2563C35.3328 31.2618 35.3053 31.2673 35.2832 31.2673V31.2563Z" fill="#3D0E1A"/>
<path d="M10.5259 19.6495C10.4928 19.6495 10.4542 19.644 10.4211 19.6275C10.2667 19.5668 10.1896 19.3959 10.2447 19.2415C10.9615 17.3502 12.759 15.7181 12.8362 15.6519C12.9575 15.5417 13.1505 15.5527 13.2608 15.674C13.3711 15.7953 13.36 15.9883 13.2387 16.0986C13.2222 16.1151 11.4743 17.7031 10.8071 19.4565C10.763 19.5778 10.6472 19.6495 10.5259 19.6495Z" fill="#EC408B"/>
<path d="M10.1234 20.8295C10.0848 20.8295 10.0407 20.8185 10.0021 20.8019C9.84769 20.7357 9.78153 20.5593 9.84769 20.4049C10.5094 18.9107 11.6232 18.4475 11.6728 18.4309C11.8272 18.3703 12.0036 18.442 12.0643 18.5964C12.1249 18.7507 12.0532 18.9272 11.8989 18.9878C11.8768 18.9989 10.956 19.4014 10.3991 20.653C10.3495 20.7633 10.2392 20.8295 10.1234 20.8295Z" fill="#EC408B"/>
<path d="M6.56138 45.0685C6.46213 45.0685 6.36288 45.0189 6.30774 44.9307C6.21952 44.7929 6.26363 44.6054 6.40148 44.5172C6.42353 44.5061 8.44162 43.2214 9.56094 41.887C9.6657 41.7602 9.85869 41.7437 9.98551 41.8484C10.1123 41.9532 10.1289 42.1462 10.0241 42.273C8.84413 43.679 6.80951 44.9693 6.7268 45.0244C6.67717 45.0575 6.62203 45.0685 6.56689 45.0685H6.56138Z" fill="#EC408B"/>
<path d="M9.78693 44.3407C9.78693 44.3407 9.77039 44.3407 9.75936 44.3407C9.59394 44.3242 9.47264 44.1808 9.48918 44.0154C9.50021 43.9161 9.72628 41.5783 11.2922 39.8359C11.4025 39.7146 11.5955 39.7035 11.7168 39.8138C11.8381 39.9241 11.8491 40.1171 11.7388 40.2384C10.3052 41.8264 10.0902 44.043 10.0847 44.065C10.0681 44.2194 9.94132 44.3407 9.78693 44.3407Z" fill="#EC408B"/>
<path d="M22.3311 33.2799C22.1822 33.2799 22.0554 33.1751 22.0333 33.0207C21.6087 30.137 23.3566 28.0141 23.4283 27.9259C23.5331 27.7991 23.7261 27.7825 23.8529 27.8873C23.9797 27.992 23.9963 28.185 23.8915 28.3119C23.8749 28.3339 22.2428 30.3189 22.6288 32.9325C22.6509 33.0979 22.5406 33.2523 22.3752 33.2744C22.3586 33.2744 22.3476 33.2744 22.3311 33.2744V33.2799Z" fill="#EC408B"/>
<path d="M22.4579 33.7871C22.3035 33.7871 22.1712 33.6713 22.1602 33.5114C21.9561 31.2783 23.2078 30.3299 23.2629 30.2858C23.3953 30.1866 23.5827 30.2141 23.682 30.3465C23.7812 30.4788 23.7537 30.6663 23.6213 30.7655C23.5772 30.7986 22.5902 31.5761 22.7612 33.4508C22.7777 33.6162 22.6564 33.7651 22.491 33.7761C22.48 33.7761 22.4744 33.7761 22.4634 33.7761L22.4579 33.7871Z" fill="#EC408B"/>
<path d="M29.455 35.3035C29.3999 35.3035 29.3392 35.2869 29.2896 35.2538C29.1518 35.1601 29.1132 34.9781 29.2069 34.8348C30.3372 33.12 31.6165 32.3094 31.6716 32.2763C31.8094 32.1881 31.9969 32.2322 32.0851 32.3701C32.1734 32.5079 32.1293 32.6954 31.9914 32.7836C31.9804 32.7891 30.7618 33.5666 29.7087 35.1656C29.6535 35.2538 29.5543 35.2979 29.455 35.2979V35.3035Z" fill="#EC408B"/>
<path d="M44.1717 34.333C44.1 34.333 44.0283 34.3054 43.9732 34.2558C43.8463 34.1455 43.8353 33.9581 43.9456 33.8312C45.3075 32.2984 46.6915 31.6753 46.7466 31.6477C46.901 31.5816 47.0775 31.6477 47.1436 31.8021C47.2098 31.9565 47.1436 32.133 46.9893 32.1991C46.9782 32.2046 45.6604 32.8001 44.3922 34.2282C44.3316 34.2944 44.2489 34.3275 44.1661 34.3275L44.1717 34.333Z" fill="#EC408B"/>
<path d="M28.3137 36.6985C28.2586 36.6985 28.2034 36.6819 28.1538 36.6488C28.0159 36.5606 27.9718 36.3732 28.0601 36.2353C28.9809 34.7907 30.9769 34.2889 31.0596 34.2668C31.2195 34.2282 31.3849 34.3275 31.4235 34.4874C31.4621 34.6473 31.3629 34.8127 31.203 34.8513C31.1864 34.8513 29.3558 35.3145 28.5673 36.5551C28.5122 36.6433 28.4129 36.693 28.3137 36.693V36.6985Z" fill="#EC408B"/>
<path d="M38.2496 20.9674C38.189 20.9674 38.1228 20.9508 38.0732 20.9067C37.9408 20.8074 37.9133 20.62 38.0125 20.4876C39.402 18.6129 42.4126 15.4259 42.5394 15.288C42.6552 15.1667 42.8427 15.1612 42.964 15.277C43.0853 15.3928 43.0908 15.5803 42.975 15.7016C42.9419 15.7347 39.8597 18.9989 38.4978 20.846C38.4371 20.9232 38.3489 20.9674 38.2551 20.9674H38.2496Z" fill="#EC408B"/>
<path d="M40.1795 19.1919C40.1354 19.1919 40.0913 19.1808 40.0472 19.1588C39.8983 19.0871 39.8377 18.9051 39.9093 18.7563C40.378 17.8134 42.4568 16.6665 42.6939 16.5397C42.8372 16.4625 43.0247 16.5121 43.1019 16.661C43.1791 16.8044 43.1294 16.9918 42.9806 17.069C42.3851 17.3888 40.775 18.3703 40.4442 19.0265C40.389 19.1312 40.2843 19.1919 40.174 19.1919H40.1795Z" fill="#EC408B"/>
<path d="M37.6211 33.1365C37.5383 33.1365 37.4556 33.1034 37.395 33.0373C36.2867 31.7966 36.3032 30.1204 36.3032 30.0487C36.3032 29.8833 36.4356 29.7565 36.6065 29.751C36.7719 29.751 36.9043 29.8888 36.9043 30.0542C36.9043 30.0708 36.8987 31.5706 37.8416 32.6347C37.9519 32.7616 37.9409 32.949 37.8196 33.0593C37.7644 33.1089 37.6927 33.1365 37.6211 33.1365Z" fill="#3D0E1A"/>
<path d="M45.5445 9.52602C45.4563 9.52602 45.3736 9.48743 45.313 9.41575C43.9455 7.77261 42.9971 5.81518 42.9585 5.73247C42.8868 5.58359 42.9475 5.40164 43.1019 5.32995C43.2508 5.25827 43.4327 5.31893 43.5044 5.47332C43.5154 5.49537 44.4583 7.44729 45.7761 9.02977C45.8809 9.15659 45.8643 9.34958 45.7375 9.45434C45.6824 9.49845 45.6107 9.52602 45.5445 9.52602Z" fill="#3D0E1A"/>
<path d="M46.719 10.7005C46.6308 10.7005 46.5481 10.6619 46.4874 10.5902C45.0979 8.92501 44.6623 7.17159 44.6458 7.09991C44.6072 6.94001 44.7064 6.77459 44.8663 6.73599C45.0262 6.69739 45.1917 6.79664 45.2303 6.95655C45.2303 6.97309 45.6548 8.64931 46.9506 10.2042C47.0554 10.331 47.0388 10.524 46.912 10.6288C46.8568 10.6729 46.7852 10.7005 46.719 10.7005Z" fill="#3D0E1A"/>
<path d="M28.9864 19.4345C28.9092 19.4345 28.832 19.4069 28.7768 19.3463C27.8781 18.4585 26.9903 16.0765 26.9517 15.9773C26.8966 15.8229 26.9738 15.6465 27.1282 15.5913C27.2826 15.5362 27.459 15.6134 27.5141 15.7678C27.5252 15.7898 28.3964 18.1277 29.1959 18.9162C29.3117 19.032 29.3172 19.225 29.1959 19.3408C29.1352 19.4014 29.058 19.429 28.9808 19.429L28.9864 19.4345Z" fill="#3D0E1A"/>
<path d="M6.07614 49.2591C5.93278 49.2591 5.80596 49.1543 5.77839 49.0055C5.77839 48.9779 5.33728 46.4415 4.10768 45.3497C3.98086 45.2395 3.96983 45.052 4.08011 44.9252C4.19039 44.8039 4.37786 44.7873 4.50468 44.8976C5.89418 46.1327 6.34632 48.7959 6.36837 48.9062C6.39594 49.0716 6.28567 49.226 6.12025 49.2536C6.10371 49.2536 6.08717 49.2536 6.07062 49.2536L6.07614 49.2591Z" fill="#3D0E1A"/>
<path d="M4.31165 47.5553C4.27856 47.5553 4.23997 47.5498 4.20688 47.5332C4.05249 47.4726 3.9753 47.3017 4.03044 47.1473C4.0525 47.0921 4.48258 45.8074 2.88355 44.2525C2.76224 44.1367 2.76225 43.9437 2.87804 43.8279C2.99383 43.7066 3.18681 43.7066 3.30261 43.8224C5.19938 45.6696 4.62043 47.2906 4.59837 47.3568C4.55426 47.4781 4.43847 47.5498 4.31716 47.5498L4.31165 47.5553Z" fill="#3D0E1A"/>
<path d="M43.6037 45.0686C43.5485 45.0686 43.4934 45.052 43.4493 45.0244C43.3445 44.9583 40.8964 43.4309 39.551 40.5251C39.4793 40.3762 39.551 40.1943 39.6998 40.1281C39.8487 40.0564 40.0307 40.1281 40.0968 40.277C41.3595 43.0119 43.736 44.5006 43.7636 44.5172C43.9069 44.6054 43.951 44.7873 43.8628 44.9307C43.8077 45.0244 43.7084 45.0741 43.6037 45.0741V45.0686Z" fill="#3D0E1A"/>
<path d="M41.7179 44.7267C41.6076 44.7267 41.4973 44.666 41.4477 44.5558C41.4422 44.5447 40.8577 43.3482 39.5565 40.5196C39.4848 40.3707 39.5565 40.1888 39.7053 40.1226C39.8542 40.0509 40.0362 40.1226 40.1023 40.2715C41.4036 43.0946 41.9826 44.2856 41.9881 44.2966C42.0598 44.4455 41.9991 44.6274 41.8502 44.6991C41.8061 44.7212 41.762 44.7322 41.7179 44.7322V44.7267Z" fill="#3D0E1A"/>
<path d="M61.3749 9.29443C61.3197 9.29443 61.2646 9.27789 61.215 9.25032C61.0716 9.1621 61.033 8.97462 61.1157 8.83678C62.4777 6.64776 63.8341 3.42765 63.8506 3.39457C63.9168 3.24018 64.0932 3.1685 64.2421 3.23467C64.3965 3.30083 64.4682 3.47728 64.402 3.62615C64.3855 3.65923 63.0125 6.91794 61.6285 9.15107C61.5734 9.2448 61.4741 9.29443 61.3749 9.29443Z" fill="#EC408B"/>
<path d="M60.2612 11.7922C60.2171 11.7922 60.173 11.7812 60.1288 11.7591C59.98 11.6875 59.9193 11.5055 59.991 11.3566C61.2206 8.84229 63.5033 6.38861 63.5971 6.28385C63.7129 6.16254 63.9003 6.15703 64.0217 6.26731C64.143 6.37759 64.1485 6.57057 64.0382 6.69188C64.0161 6.71393 61.7224 9.18415 60.5314 11.6158C60.4817 11.7205 60.3715 11.7867 60.2612 11.7867V11.7922Z" fill="#EC408B"/>
<path d="M56.7763 5.90891C56.7267 5.90891 56.6771 5.89788 56.633 5.87031C56.4841 5.79311 56.4345 5.61116 56.5116 5.46228C56.7598 5.00463 56.9693 4.54698 57.1733 4.11138C57.9232 2.50684 58.629 0.996032 60.7959 0.0255871C60.9448 -0.0405795 61.1268 0.0255871 61.1929 0.174462C61.2591 0.323337 61.1929 0.505295 61.0441 0.571462C59.0811 1.45368 58.447 2.80459 57.7192 4.36502C57.5097 4.81164 57.2946 5.2693 57.041 5.749C56.9858 5.84825 56.8811 5.90891 56.7763 5.90891Z" fill="#3D0E1A"/>
<path d="M56.6219 7.14401C56.5944 7.14401 56.5668 7.14401 56.5392 7.13298C56.3793 7.08887 56.2856 6.91794 56.3352 6.75804C57.0134 4.42566 57.8019 1.06219 57.8074 1.02911C57.846 0.869204 58.0059 0.76444 58.1713 0.803037C58.3312 0.841634 58.436 1.00154 58.3974 1.16695C58.3919 1.20004 57.6034 4.57454 56.9142 6.92345C56.8756 7.05579 56.7543 7.1385 56.6274 7.1385L56.6219 7.14401Z" fill="#3D0E1A"/>
<path d="M60.7518 25.4998C58.7117 25.4998 57.0245 24.8271 56.9528 24.7995C56.7984 24.7388 56.7267 24.5624 56.7874 24.408C56.848 24.2536 57.0245 24.1819 57.1788 24.2426C57.1954 24.2481 58.8275 24.9043 60.7518 24.9043C60.7629 24.9043 60.7794 24.9043 60.7904 24.9043C60.9559 24.9043 61.0882 25.0366 61.0937 25.202C61.0937 25.3674 60.9614 25.5053 60.796 25.5053H60.7574L60.7518 25.4998Z" fill="#EC408B"/>
<path d="M59.048 25.996C58.243 25.996 57.7026 25.9133 57.664 25.9078C57.4986 25.8802 57.3883 25.7258 57.4104 25.5659C57.438 25.4005 57.5868 25.2902 57.7523 25.3123C57.7688 25.3123 59.5332 25.577 61.4135 25.1248C61.5734 25.0862 61.7388 25.1855 61.7774 25.3454C61.816 25.5053 61.7167 25.6707 61.5568 25.7093C60.6305 25.9298 59.7428 25.996 59.048 25.996Z" fill="#EC408B"/>
<path d="M67.0267 18.1497C66.9881 18.1497 66.9495 18.1442 66.9109 18.1277C66.7565 18.0615 66.6848 17.8851 66.751 17.7362C68.0136 14.7311 69.7285 12.3932 69.745 12.3712C69.8443 12.2388 70.0317 12.2113 70.1641 12.305C70.2964 12.4043 70.324 12.5917 70.2302 12.7241C70.2137 12.7461 68.5375 15.0289 67.3079 17.9678C67.2582 18.0836 67.148 18.1497 67.0322 18.1497H67.0267Z" fill="#EC408B"/>
<path d="M66.194 20.7027C66.1554 20.7027 66.1168 20.6971 66.0782 20.6806C65.9238 20.6144 65.8522 20.438 65.9183 20.2836C67.2527 17.1297 68.3389 15.2715 68.8848 15.1777C69.0502 15.1502 69.2046 15.2605 69.2322 15.4259C69.2597 15.5692 69.1715 15.7126 69.0392 15.7567C68.962 15.8063 68.2286 16.3687 66.4697 20.5207C66.4201 20.6365 66.3098 20.7027 66.194 20.7027Z" fill="#EC408B"/>
<path d="M62.0035 55.0707C61.8601 55.0707 61.7333 54.9715 61.7057 54.8281C61.4686 53.582 61.1929 48.2556 61.1819 48.0295C61.1709 47.8641 61.3032 47.7207 61.4686 47.7152C61.6285 47.7042 61.7774 47.8365 61.7829 48.0019C61.7829 48.0571 62.0697 53.5158 62.3012 54.7234C62.3343 54.8888 62.224 55.0432 62.0641 55.0763C62.0476 55.0763 62.0255 55.0763 62.009 55.0763L62.0035 55.0707Z" fill="#EC408B"/>
<path d="M62.2461 57.0833C62.1193 57.0833 62.0035 57.0061 61.9594 56.8793C61.5403 55.6828 60.4706 50.4556 60.4265 50.2351C60.3934 50.0696 60.4982 49.9152 60.6636 49.8822C60.8235 49.8491 60.9834 49.9538 61.0165 50.1193C61.0275 50.1744 62.1248 55.5284 62.5273 56.6863C62.5824 56.8407 62.4997 57.0171 62.3453 57.0723C62.3123 57.0833 62.2792 57.0888 62.2461 57.0888V57.0833Z" fill="#EC408B"/>
<path d="M59.8311 54.387C59.7539 54.387 59.6712 54.3539 59.6161 54.2933C58.0391 52.6391 55.5523 51.9168 55.5247 51.9058C55.3648 51.8617 55.2711 51.6963 55.3152 51.5363C55.3593 51.3764 55.5247 51.2827 55.6847 51.3268C55.7949 51.3599 58.3534 52.0988 60.0461 53.8742C60.1619 53.9955 60.1564 54.183 60.0351 54.2988C59.9745 54.3539 59.9028 54.3815 59.8256 54.3815L59.8311 54.387Z" fill="#3D0E1A"/>
<path d="M60.7243 55.6221C60.6472 55.6221 60.57 55.5946 60.5148 55.5339C58.188 53.2346 57.3002 53.5158 57.2947 53.5158C57.1458 53.593 56.9749 53.5324 56.8977 53.3835C56.8205 53.2346 56.8867 53.0527 57.0356 52.9755C57.2285 52.8762 58.3093 52.5068 60.9449 55.1038C61.0607 55.2196 61.0662 55.4126 60.9449 55.5284C60.8843 55.5891 60.8071 55.6166 60.7299 55.6166L60.7243 55.6221Z" fill="#3D0E1A"/>
<path d="M78.8264 25.4115C78.8264 25.4115 78.7933 25.4115 78.7768 25.4115C78.6114 25.384 78.5011 25.2296 78.5286 25.0642C78.9367 22.6105 81.2194 19.9032 81.3132 19.7874C81.4179 19.6605 81.6109 19.644 81.7377 19.7543C81.8645 19.8646 81.8811 20.052 81.7708 20.1788C81.7487 20.2064 79.5046 22.8751 79.1186 25.1634C79.0966 25.3123 78.9642 25.417 78.8209 25.417L78.8264 25.4115Z" fill="#EC408B"/>
<path d="M78.8264 27.6777C78.8264 27.6777 78.7933 27.6777 78.7768 27.6777C78.6114 27.6502 78.5011 27.4958 78.5286 27.3304C78.9367 24.8822 79.9071 23.625 79.9457 23.5754C80.0505 23.4431 80.2379 23.421 80.3703 23.5258C80.5026 23.6305 80.5247 23.818 80.4199 23.9503C80.4034 23.9669 79.4991 25.1579 79.1186 27.4351C79.0966 27.584 78.9642 27.6888 78.8209 27.6888L78.8264 27.6777Z" fill="#EC408B"/>
<path d="M79.1187 12.702C78.9919 12.702 78.8705 12.6193 78.8319 12.487C78.8209 12.4539 77.845 9.08491 80.646 6.79664C80.7728 6.69188 80.9658 6.70842 81.0706 6.84075C81.1753 6.97309 81.1588 7.16056 81.0265 7.26532C78.5452 9.29443 79.3723 12.1892 79.4109 12.316C79.4605 12.4759 79.3668 12.6414 79.2069 12.691C79.1793 12.702 79.1462 12.702 79.1187 12.702Z" fill="#EC408B"/>
<path d="M90.9018 11.0479C90.8081 11.0479 90.7199 11.0037 90.6592 10.9265L86.5183 5.26378C86.419 5.13145 86.4521 4.94398 86.5844 4.84473C86.7168 4.74548 86.9043 4.77856 87.0035 4.91089L91.1444 10.5737C91.2437 10.706 91.2106 10.8935 91.0783 10.9927C91.0231 11.0313 90.9625 11.0534 90.9018 11.0534V11.0479Z" fill="#3D0E1A"/>
<path d="M91.7345 12.0293C91.6352 12.0293 91.5359 11.9797 91.4808 11.8915C91.376 11.7261 88.8562 7.77262 88.5364 6.12397C88.5033 5.95855 88.6136 5.80416 88.7735 5.77108C88.9334 5.73799 89.0933 5.84827 89.1264 6.00817C89.4241 7.54103 91.9605 11.5221 91.9826 11.5607C92.0708 11.6985 92.0322 11.886 91.8888 11.9742C91.8392 12.0073 91.7841 12.0238 91.7289 12.0238L91.7345 12.0293Z" fill="#3D0E1A"/>
<path d="M91.1279 28.979C91.1279 28.979 91.0893 28.979 91.0727 28.979C91.0066 28.968 89.38 28.6537 87.2351 27.0988C87.1027 26.9995 87.0697 26.8121 87.1689 26.6797C87.2682 26.5474 87.4556 26.5143 87.588 26.6136C89.6116 28.0858 91.1665 28.389 91.183 28.389C91.3484 28.4221 91.4532 28.5765 91.4256 28.7419C91.3981 28.8853 91.2712 28.99 91.1279 28.99V28.979Z" fill="#3D0E1A"/>
<path d="M91.4587 29.8943C91.4146 29.8943 91.3649 29.8833 91.3208 29.8613C91.3043 29.8502 89.5454 28.9404 87.6155 28.0362C87.4666 27.9645 87.4004 27.788 87.4721 27.6336C87.5438 27.4848 87.7203 27.4186 87.8746 27.4903C89.8155 28.4001 91.58 29.3154 91.602 29.3264C91.7509 29.4036 91.806 29.5856 91.7288 29.7344C91.6737 29.8392 91.5689 29.8943 91.4642 29.8943H91.4587Z" fill="#3D0E1A"/>
<path d="M84.0591 42.2896C84.0315 42.2896 83.9984 42.2896 83.9709 42.2785C83.811 42.2289 83.7227 42.0635 83.7724 41.9036C84.1252 40.7512 86.2426 37.4428 86.3308 37.2995C86.419 37.1616 86.6065 37.1175 86.7443 37.2058C86.8822 37.294 86.9263 37.4814 86.8381 37.6193C86.816 37.6524 84.6766 40.9993 84.3458 42.0745C84.3072 42.2013 84.1859 42.2896 84.0591 42.2896Z" fill="#EC408B"/>
<path d="M83.64 42.5046C83.6124 42.5046 83.5794 42.5046 83.5518 42.4936C83.3919 42.4439 83.3037 42.2785 83.3533 42.1186C83.7007 40.9883 84.7759 38.3692 84.82 38.2589C84.8862 38.1045 85.0571 38.0328 85.2115 38.0935C85.3659 38.1541 85.4375 38.3306 85.3769 38.485C85.3659 38.5125 84.2631 41.1868 83.9267 42.2895C83.8881 42.4164 83.7668 42.5046 83.64 42.5046Z" fill="#EC408B"/>
<path d="M77.5472 57.9545C77.4259 57.9545 77.3101 57.8773 77.266 57.7615C77.2053 57.6071 77.288 57.4307 77.4424 57.3755C79.2289 56.7029 81.8259 53.9128 81.8535 53.8853C81.9638 53.764 82.1568 53.7584 82.2781 53.8687C82.3994 53.979 82.4049 54.172 82.2946 54.2933C82.1843 54.4146 79.5763 57.2156 77.6519 57.938C77.6188 57.949 77.5802 57.96 77.5472 57.96V57.9545Z" fill="#EC408B"/>
<path d="M77.0674 58.2302C76.9461 58.2302 76.8303 58.153 76.7862 58.0372C76.7256 57.8828 76.8083 57.7064 76.9627 57.6512C78.7933 56.962 81.7818 55.2417 81.8094 55.2251C81.9527 55.1424 82.1347 55.192 82.2229 55.3354C82.3111 55.4788 82.256 55.6607 82.1126 55.7489C81.9913 55.8206 79.0524 57.5134 77.1777 58.2192C77.1446 58.2302 77.106 58.2412 77.0729 58.2412L77.0674 58.2302Z" fill="#EC408B"/>
<path d="M4.1408 18.3979C4.10772 18.3979 4.07463 18.3979 4.04706 18.3813C3.88716 18.3262 3.80445 18.1553 3.85959 18.0009C5.03405 14.5161 4.43855 13.7 4.43304 13.6945C4.31173 13.5787 4.31724 13.3968 4.43304 13.2755C4.54883 13.1542 4.74733 13.1597 4.86312 13.2755C5.01751 13.4244 5.71226 14.3672 4.42752 18.1939C4.38341 18.3207 4.26762 18.3979 4.1408 18.3979Z" fill="#3D0E1A"/>
<path d="M3.77129 19.3683C3.73821 19.3683 3.70513 19.3683 3.67756 19.3518C3.51765 19.2966 3.43495 19.1257 3.49008 18.9713C4.66454 15.4865 3.95325 14.6925 3.94222 14.6815C3.8154 14.5767 3.80438 14.3893 3.90914 14.2624C4.0139 14.1356 4.2124 14.1246 4.33922 14.2294C4.52118 14.3782 5.35378 15.3211 4.05801 19.1643C4.0139 19.2911 3.89811 19.3683 3.77129 19.3683Z" fill="#3D0E1A"/>
<path d="M93.0909 47.842C92.9254 47.842 92.7876 47.7097 92.7876 47.5388C92.7876 45.1237 93.6698 41.1812 93.7029 41.0158C93.7415 40.8559 93.9014 40.7512 94.0613 40.7898C94.2212 40.8284 94.326 40.9883 94.2874 41.1482C94.2763 41.1868 93.3831 45.1954 93.3831 47.5388C93.3831 47.7042 93.2508 47.842 93.0798 47.842H93.0909Z" fill="#EC408B"/>
<path d="M93.0632 48.9999C92.9143 48.9999 92.7875 48.8897 92.7655 48.7408C92.4512 46.3478 92.8041 42.3226 92.8206 42.1517C92.8372 41.9863 92.9805 41.865 93.1459 41.8815C93.3114 41.8981 93.4327 42.0414 93.4161 42.2068C93.4161 42.2454 93.0522 46.3367 93.3555 48.6636C93.3775 48.829 93.2617 48.9779 93.0963 48.9999C93.0853 48.9999 93.0687 48.9999 93.0577 48.9999H93.0632Z" fill="#EC408B"/>
<path d="M108.408 45.5483C108.37 45.5483 108.326 45.5372 108.287 45.5207C108.133 45.4545 108.067 45.2781 108.133 45.1237C109.412 42.2344 110.239 39.0253 110.25 38.9922C110.289 38.8323 110.454 38.7331 110.614 38.7772C110.774 38.8158 110.873 38.9812 110.829 39.1411C110.818 39.1742 109.985 42.4329 108.679 45.3663C108.629 45.4766 108.519 45.5427 108.403 45.5427L108.408 45.5483Z" fill="#EC408B"/>
<path d="M107.785 45.835C107.736 45.835 107.692 45.8239 107.647 45.8019C107.499 45.7247 107.443 45.5427 107.521 45.3939L108.513 43.4916C108.59 43.3427 108.772 43.2876 108.921 43.3648C109.07 43.4419 109.125 43.6239 109.048 43.7728L108.055 45.6751C108 45.7798 107.896 45.835 107.791 45.835H107.785Z" fill="#3D0E1A"/>
<path d="M107.289 43.9603C107.239 43.9603 107.195 43.9492 107.151 43.9272C107.002 43.85 106.947 43.668 107.024 43.5191L108.017 41.6168C108.094 41.468 108.276 41.4128 108.425 41.49C108.574 41.5672 108.629 41.7492 108.552 41.8981L107.559 43.8003C107.504 43.9051 107.399 43.9603 107.295 43.9603H107.289Z" fill="#3D0E1A"/>
<path d="M115.229 40.3211C115.179 40.3211 115.135 40.3101 115.091 40.288C114.942 40.2108 114.887 40.0289 114.964 39.88L115.957 37.9777C116.034 37.8288 116.216 37.7737 116.365 37.8509C116.514 37.9281 116.569 38.11 116.492 38.2589L115.499 40.1612C115.444 40.2659 115.339 40.3211 115.235 40.3211H115.229Z" fill="#3D0E1A"/>
<path d="M115.323 42.8023C115.284 42.8023 115.246 42.7968 115.213 42.7803C115.058 42.7196 114.986 42.5432 115.047 42.3888L115.852 40.3983C115.913 40.2439 116.089 40.1667 116.244 40.2329C116.398 40.2935 116.47 40.47 116.409 40.6244L115.604 42.6149C115.554 42.7307 115.444 42.8023 115.323 42.8023Z" fill="#3D0E1A"/>
<path d="M107.785 47.3292C107.747 47.3292 107.703 47.3182 107.664 47.3017C107.51 47.2355 107.444 47.0591 107.51 46.9047C108.805 43.9823 110.515 40.7401 110.531 40.7071C110.608 40.5582 110.79 40.503 110.939 40.5802C111.088 40.6574 111.143 40.8394 111.066 40.9883C111.05 41.0213 109.351 44.247 108.061 47.1473C108.011 47.2576 107.901 47.3237 107.785 47.3237V47.3292Z" fill="#EC408B"/>
<path d="M113.387 38.7937C113.338 38.7937 113.288 38.7827 113.244 38.7552C111.617 37.8564 110.178 36.0203 110.123 35.9431C110.024 35.8107 110.046 35.6233 110.178 35.5185C110.311 35.4137 110.498 35.4413 110.603 35.5736C110.619 35.5902 112.025 37.3877 113.542 38.2258C113.685 38.3085 113.74 38.4905 113.658 38.6338C113.602 38.7331 113.498 38.7882 113.393 38.7882L113.387 38.7937Z" fill="#3D0E1A"/>
<path d="M113.387 38.7937C113.338 38.7937 113.288 38.7827 113.244 38.7551C111.529 37.8067 111.364 36.0092 111.358 35.932C111.347 35.7666 111.469 35.6232 111.634 35.6067C111.799 35.5902 111.943 35.717 111.959 35.8824C111.965 35.9486 112.114 37.4428 113.536 38.2313C113.68 38.314 113.735 38.496 113.652 38.6393C113.597 38.7386 113.492 38.7937 113.387 38.7937Z" fill="#3D0E1A"/>
<path d="M93.6367 39.902H93.6256C93.4602 39.8965 93.3279 39.7532 93.3389 39.5877C93.4216 37.4594 95.1033 34.9395 95.175 34.8348C95.2688 34.6969 95.4562 34.6583 95.5941 34.7521C95.7319 34.8458 95.7705 35.0333 95.6768 35.1711C95.6602 35.1932 94.0171 37.6579 93.9454 39.6098C93.9399 39.7697 93.8076 39.8965 93.6422 39.8965L93.6367 39.902Z" fill="#3D0E1A"/>
<path d="M93.6367 39.6098H93.6256C93.4602 39.6043 93.3279 39.4609 93.3389 39.2955C93.4161 37.2333 93.6422 35.8989 93.6477 35.8438C93.6753 35.6784 93.8296 35.5681 93.9951 35.5957C94.1605 35.6233 94.2707 35.7776 94.2432 35.9431C94.2432 35.9541 94.0171 37.2995 93.9399 39.3176C93.9344 39.4775 93.8021 39.6043 93.6367 39.6043V39.6098Z" fill="#3D0E1A"/>
<path d="M85.5202 65.3541C85.4651 65.3541 85.41 65.3376 85.3603 65.3045C85.2225 65.2163 85.1784 65.0288 85.2666 64.891C85.2942 64.8524 87.8085 60.8934 88.3213 59.0959C88.3654 58.936 88.5363 58.8422 88.6907 58.8919C88.8506 58.936 88.9444 59.1014 88.8947 59.2613C88.3599 61.1415 85.8786 65.0509 85.7684 65.2163C85.7132 65.3045 85.614 65.3541 85.5147 65.3541H85.5202Z" fill="#3D0E1A"/>
<path d="M87.0035 64.2458C86.9704 64.2458 86.9318 64.2403 86.8987 64.2293C86.7443 64.1742 86.6616 63.9977 86.7223 63.8433C86.7333 63.8158 87.7975 60.9265 88.3213 59.0959C88.3654 58.936 88.5363 58.8422 88.6907 58.8919C88.8506 58.936 88.9444 59.1014 88.8947 59.2613C88.3654 61.1084 87.2957 64.0198 87.2847 64.0473C87.2406 64.1686 87.1248 64.2458 87.0035 64.2458Z" fill="#3D0E1A"/>
<path d="M117.021 49.2922C117.021 49.2922 116.999 49.2922 116.983 49.2922C116.817 49.2701 116.701 49.1213 116.718 48.9558C117.231 44.6881 118.78 42.6149 118.846 42.5266C118.945 42.3943 119.133 42.3667 119.265 42.4715C119.398 42.5707 119.425 42.7582 119.326 42.8906C119.309 42.9126 117.81 44.9417 117.313 49.0275C117.297 49.1819 117.165 49.2922 117.016 49.2922H117.021Z" fill="#EC408B"/>
<path d="M124.956 33.5335C124.856 33.5335 124.763 33.4839 124.702 33.4012C123.886 32.1716 121.46 31.6643 121.438 31.6588C121.272 31.6257 121.168 31.4658 121.201 31.3059C121.234 31.146 121.394 31.0357 121.554 31.0688C121.664 31.0908 124.25 31.6312 125.198 33.0648C125.292 33.2027 125.253 33.3901 125.116 33.4839C125.066 33.5169 125.005 33.5335 124.95 33.5335H124.956Z" fill="#3D0E1A"/>
<path d="M124.956 33.5335C124.856 33.5335 124.763 33.4839 124.702 33.4012C123.836 32.0944 123.026 31.3169 123.02 31.3114C122.899 31.1956 122.893 31.0081 123.009 30.8868C123.125 30.7655 123.312 30.76 123.434 30.8758C123.467 30.9089 124.305 31.7084 125.204 33.0703C125.297 33.2082 125.259 33.3957 125.121 33.4894C125.071 33.5225 125.011 33.539 124.956 33.539V33.5335Z" fill="#3D0E1A"/>
<path d="M129.863 51.1394C129.703 51.1394 129.571 51.018 129.565 50.8581C129.554 50.6927 129.681 50.5494 129.846 50.5383C131.881 50.4115 134.897 48.217 134.925 48.1949C135.057 48.0957 135.245 48.1233 135.344 48.2611C135.443 48.3934 135.415 48.5809 135.278 48.6802C135.151 48.7739 132.091 50.996 129.88 51.1394H129.863Z" fill="#EC408B"/>
<path d="M129.863 51.1393C129.703 51.1393 129.571 51.018 129.565 50.8581C129.554 50.6927 129.681 50.5494 129.846 50.5383C131.936 50.406 134.285 49.6782 134.307 49.6671C134.467 49.6175 134.633 49.7057 134.682 49.8656C134.732 50.0255 134.644 50.191 134.484 50.2406C134.384 50.2737 132.041 51.0015 129.88 51.1338H129.863V51.1393Z" fill="#EC408B"/>
<path d="M136.154 46.1548C136.127 46.1548 136.094 46.1548 136.066 46.1438C135.906 46.0941 135.818 45.9287 135.868 45.7688C137.114 41.6775 140.009 36.5716 140.036 36.522C140.119 36.3787 140.301 36.329 140.444 36.4117C140.587 36.4944 140.637 36.6764 140.554 36.8198C140.527 36.8694 137.665 41.9146 136.436 45.9453C136.397 46.0776 136.276 46.1603 136.149 46.1603L136.154 46.1548Z" fill="#3D0E1A"/>
<path d="M136.154 46.1548C136.127 46.1548 136.094 46.1548 136.066 46.1437C135.906 46.0941 135.818 45.9287 135.868 45.7688C137.13 41.6334 139.523 39.3506 139.623 39.2514C139.744 39.1356 139.931 39.1411 140.047 39.2624C140.163 39.3837 140.157 39.5712 140.036 39.687C140.014 39.709 137.654 41.9642 136.441 45.9397C136.402 46.0721 136.281 46.1548 136.154 46.1548Z" fill="#3D0E1A"/>
<path d="M115.725 55.3354C115.676 55.3354 115.621 55.3244 115.577 55.2968C115.45 55.2251 112.434 53.4442 112.434 50.6431C112.434 50.4777 112.566 50.3398 112.737 50.3398C112.908 50.3398 113.04 50.4722 113.04 50.6431C113.04 53.0968 115.852 54.7565 115.885 54.773C116.029 54.8557 116.078 55.0377 115.996 55.1865C115.94 55.2803 115.841 55.3354 115.736 55.3354H115.725Z" fill="#EC408B"/>
<path d="M135.901 59.2337C134.318 59.2337 131.738 58.7485 129.328 56.157C129.212 56.0357 129.223 55.8427 129.345 55.7324C129.466 55.6166 129.659 55.6276 129.769 55.7489C133.276 59.526 137.224 58.5004 137.263 58.4893C137.423 58.4452 137.588 58.539 137.632 58.6989C137.676 58.8588 137.582 59.0242 137.423 59.0683C137.362 59.0848 136.783 59.2337 135.901 59.2337Z" fill="#3D0E1A"/>
<path d="M135.708 60.0001H135.686C135.548 59.9891 132.311 59.73 129.747 56.5429C129.642 56.4161 129.665 56.2231 129.791 56.1184C129.918 56.0136 130.111 56.0357 130.216 56.1625C132.609 59.1345 135.697 59.3936 135.73 59.3991C135.895 59.4102 136.022 59.5535 136.005 59.7189C135.994 59.8788 135.862 60.0001 135.708 60.0001Z" fill="#3D0E1A"/>
<path d="M110.642 60.6894C110.537 60.6894 110.432 60.6343 110.377 60.5295C109.715 59.2999 106.434 57.6898 105.227 57.1715C105.073 57.1054 105.001 56.9289 105.067 56.7745C105.133 56.6202 105.31 56.5485 105.464 56.6146C105.651 56.6918 110.013 58.5776 110.906 60.2428C110.983 60.3917 110.928 60.5736 110.785 60.6508C110.741 60.6729 110.691 60.6839 110.642 60.6839V60.6894Z" fill="#3D0E1A"/>
<path d="M109.478 60.4358C109.362 60.4358 109.246 60.3641 109.202 60.2483C108.469 58.4618 105.707 57.574 105.679 57.563C105.519 57.5134 105.431 57.3425 105.48 57.1881C105.53 57.0337 105.701 56.9399 105.855 56.9896C105.982 57.0282 108.916 57.971 109.759 60.0167C109.82 60.1711 109.748 60.3475 109.594 60.4082C109.555 60.4247 109.517 60.4302 109.478 60.4302V60.4358Z" fill="#3D0E1A"/>
<path d="M68.35 68.4971C68.1846 68.4971 68.0467 68.3647 68.0467 68.1938C68.0467 66.5507 64.2918 62.6082 62.8416 61.2242C62.7203 61.1085 62.7148 60.921 62.8306 60.7997C62.9464 60.6784 63.1338 60.6729 63.2551 60.7886C63.8065 61.3125 68.6422 65.9938 68.6422 68.1938C68.6422 68.3592 68.5099 68.4971 68.3389 68.4971H68.35Z" fill="#3D0E1A"/>
<path d="M67.1039 67.2344C66.955 67.2344 66.8227 67.1241 66.8061 66.9697C66.6407 65.6519 64.3525 62.8343 63.4868 61.8639C63.3765 61.7426 63.3875 61.5496 63.5088 61.4393C63.6301 61.329 63.8231 61.34 63.9334 61.4614C64.0657 61.6102 67.1811 65.1226 67.4016 66.8925C67.4237 67.0579 67.3079 67.2068 67.1425 67.2289C67.1315 67.2289 67.1149 67.2289 67.1039 67.2289V67.2344Z" fill="#3D0E1A"/>
</svg>
