<svg width="175" height="84" viewBox="0 0 175 84" fill="none" xmlns="http://www.w3.org/2000/svg">
<g clip-path="url(#clip0_3_797)">
<path d="M8.37 21.4201C8.37 21.4201 8.29 21.4201 8.25 21.4001C8.06 21.3301 7.96 21.1201 8.03 20.9301L8.91 18.4601C8.98 18.2701 9.19 18.1701 9.38 18.2401C9.57 18.3101 9.67 18.5201 9.6 18.7101L8.72 21.1801C8.67 21.3301 8.53 21.4201 8.37 21.4201Z" fill="white"/>
<path d="M24.04 42.8302C23.87 42.8302 23.72 42.7102 23.68 42.5402L23.16 39.9702C23.12 39.7702 23.25 39.5802 23.45 39.5402C23.65 39.5002 23.84 39.6302 23.88 39.8302L24.4 42.4002C24.44 42.6002 24.31 42.7902 24.11 42.8302C24.09 42.8302 24.06 42.8302 24.04 42.8302Z" fill="white"/>
<path d="M66.61 22.9202C66.61 22.9202 66.52 22.9202 66.47 22.8902C66.28 22.8102 66.19 22.6002 66.27 22.4102L67.25 19.9802C67.33 19.7902 67.54 19.7002 67.73 19.7802C67.92 19.8602 68.01 20.0702 67.93 20.2602L66.95 22.6902C66.89 22.8302 66.75 22.9202 66.61 22.9202Z" fill="white"/>
<path d="M64.6 24.2701C64.6 24.2701 64.51 24.2701 64.46 24.2401C64.27 24.1601 64.18 23.9501 64.26 23.7601L65.24 21.3301C65.32 21.1401 65.53 21.0501 65.72 21.1301C65.91 21.2101 66 21.4201 65.92 21.6101L64.94 24.0401C64.88 24.1801 64.74 24.2701 64.6 24.2701Z" fill="white"/>
<path d="M66.34 19.8802C66.34 19.8802 66.25 19.8802 66.2 19.8502C66.01 19.7702 65.92 19.5602 66 19.3702L66.98 16.9402C67.06 16.7502 67.27 16.6602 67.46 16.7402C67.65 16.8202 67.74 17.0302 67.66 17.2202L66.68 19.6502C66.62 19.7902 66.48 19.8802 66.34 19.8802Z" fill="white"/>
<path d="M70.91 50.0302C70.91 50.0302 70.84 50.0302 70.81 50.0102C70.62 49.9502 70.5 49.7502 70.56 49.5502L71.3 47.0402C71.36 46.8502 71.56 46.7302 71.76 46.7902C71.95 46.8502 72.07 47.0502 72.01 47.2502L71.27 49.7602C71.22 49.9202 71.08 50.0202 70.92 50.0202L70.91 50.0302Z" fill="white"/>
<path d="M75.98 26.8502C75.98 26.8502 75.91 26.8502 75.88 26.8302C75.69 26.7702 75.57 26.5702 75.63 26.3702L76.37 23.8602C76.43 23.6702 76.63 23.5602 76.83 23.6102C77.02 23.6702 77.14 23.8702 77.08 24.0702L76.34 26.5802C76.29 26.7402 76.15 26.8402 75.99 26.8402L75.98 26.8502Z" fill="white"/>
<path d="M76.23 37.1401C76.23 37.1401 76.16 37.1401 76.13 37.1201C75.94 37.0601 75.82 36.8601 75.88 36.6601L76.62 34.1501C76.68 33.9601 76.88 33.8401 77.08 33.9001C77.27 33.9601 77.39 34.1601 77.33 34.3601L76.59 36.8701C76.54 37.0301 76.4 37.1301 76.24 37.1301L76.23 37.1401Z" fill="white"/>
<path d="M81.09 16.5003C81.09 16.5003 81 16.5003 80.96 16.4803C80.77 16.4103 80.67 16.2003 80.75 16.0103L81.67 13.5603C81.74 13.3703 81.95 13.2703 82.14 13.3503C82.33 13.4203 82.43 13.6303 82.35 13.8203L81.43 16.2703C81.37 16.4203 81.23 16.5103 81.09 16.5103V16.5003Z" fill="white"/>
<path d="M78.78 18.5003C78.78 18.5003 78.69 18.5003 78.65 18.4803C78.46 18.4103 78.36 18.2003 78.44 18.0103L79.36 15.5603C79.43 15.3703 79.64 15.2703 79.83 15.3503C80.02 15.4203 80.12 15.6303 80.04 15.8203L79.12 18.2703C79.06 18.4203 78.92 18.5103 78.78 18.5103V18.5003Z" fill="white"/>
<path d="M92.54 33.79C92.38 33.79 92.23 33.69 92.19 33.53C91.83 32.3 91.97 30.84 91.98 30.78C92 30.58 92.18 30.43 92.38 30.45C92.58 30.47 92.73 30.65 92.71 30.85C92.71 30.86 92.58 32.23 92.9 33.32C92.96 33.51 92.85 33.72 92.65 33.78C92.62 33.79 92.58 33.79 92.55 33.79H92.54Z" fill="white"/>
<path d="M94.59 37.5003C94.5 37.5003 94.41 37.4703 94.34 37.4003C93.4 36.5303 92.76 35.2103 92.74 35.1603C92.65 34.9803 92.74 34.7603 92.91 34.6703C93.09 34.5803 93.31 34.6703 93.4 34.8403C93.4 34.8503 94 36.0903 94.84 36.8603C94.99 37.0003 95 37.2303 94.86 37.3803C94.79 37.4603 94.69 37.5003 94.59 37.5003Z" fill="white"/>
<path d="M94.88 35.0102C94.76 35.0102 94.65 34.9502 94.58 34.8502C93.86 33.7902 93.54 32.3602 93.53 32.3002C93.49 32.1002 93.61 31.9102 93.81 31.8602C94.01 31.8202 94.2 31.9402 94.25 32.1402C94.25 32.1502 94.55 33.5002 95.19 34.4302C95.3 34.6002 95.26 34.8302 95.09 34.9402C95.03 34.9802 94.95 35.0002 94.88 35.0002V35.0102Z" fill="white"/>
<path d="M69.05 51.5602C69.05 51.5602 68.98 51.5602 68.95 51.5402C68.76 51.4802 68.64 51.2802 68.7 51.0802L69.44 48.5702C69.5 48.3802 69.7 48.2602 69.9 48.3202C70.09 48.3802 70.21 48.5802 70.15 48.7802L69.41 51.2902C69.36 51.4502 69.22 51.5502 69.06 51.5502L69.05 51.5602Z" fill="white"/>
<path d="M70.36 47.0302C70.36 47.0302 70.29 47.0302 70.26 47.0102C70.07 46.9502 69.95 46.7502 70.01 46.5502L70.75 44.0402C70.81 43.8502 71.01 43.7302 71.21 43.7902C71.4 43.8502 71.52 44.0502 71.46 44.2502L70.72 46.7602C70.67 46.9202 70.53 47.0202 70.37 47.0202L70.36 47.0302Z" fill="white"/>
<path d="M76.76 60.9802C76.76 60.9802 76.72 60.9802 76.7 60.9802C76.5 60.9502 76.36 60.7602 76.4 60.5602L76.83 57.9802C76.86 57.7802 77.05 57.6402 77.25 57.6802C77.45 57.7102 77.59 57.9002 77.55 58.1002L77.12 60.6802C77.09 60.8602 76.93 60.9902 76.76 60.9902V60.9802Z" fill="white"/>
<path d="M88.74 62.8103C88.74 62.8103 88.7 62.8103 88.68 62.8103C88.48 62.7803 88.34 62.5903 88.38 62.3903L88.81 59.8103C88.84 59.6103 89.03 59.4703 89.23 59.5103C89.43 59.5403 89.57 59.7303 89.53 59.9303L89.1 62.5103C89.07 62.6903 88.91 62.8203 88.74 62.8203V62.8103Z" fill="white"/>
<path d="M78.52 59.19C78.52 59.19 78.48 59.19 78.46 59.19C78.26 59.16 78.12 58.97 78.16 58.77L78.59 56.19C78.62 55.99 78.81 55.86 79.01 55.89C79.21 55.92 79.35 56.11 79.31 56.31L78.88 58.89C78.85 59.07 78.69 59.2 78.52 59.2V59.19Z" fill="white"/>
<path d="M77.77 63.8801C77.77 63.8801 77.73 63.8801 77.71 63.8801C77.51 63.8501 77.37 63.6601 77.41 63.4601L77.84 60.8801C77.87 60.6801 78.06 60.5401 78.26 60.5801C78.46 60.6101 78.6 60.8001 78.56 61.0001L78.13 63.5801C78.1 63.7601 77.94 63.8901 77.77 63.8901V63.8801Z" fill="white"/>
<path d="M84.2 45.5101C84.2 45.5101 84.13 45.5101 84.09 45.4901C83.9 45.4301 83.79 45.2301 83.84 45.0301L84.6 42.5201C84.66 42.3301 84.86 42.2201 85.06 42.2701C85.25 42.3301 85.36 42.5301 85.31 42.7301L84.55 45.2401C84.5 45.4001 84.36 45.5001 84.2 45.5001V45.5101Z" fill="white"/>
<path d="M90.29 60.9801C90.29 60.9801 90.25 60.9801 90.23 60.9801C90.03 60.9501 89.9 60.7601 89.93 60.5601L90.37 57.9801C90.4 57.7801 90.59 57.6501 90.79 57.6801C90.99 57.7101 91.12 57.9001 91.09 58.1001L90.65 60.6801C90.62 60.8601 90.46 60.9901 90.29 60.9901V60.9801Z" fill="white"/>
<path d="M106.34 56.27C106.34 56.27 106.27 56.27 106.24 56.26C106.04 56.2 105.93 56 105.99 55.81L106.71 53.29C106.77 53.09 106.97 52.98 107.16 53.04C107.36 53.1 107.47 53.3 107.41 53.49L106.69 56.01C106.64 56.17 106.5 56.28 106.34 56.28V56.27Z" fill="white"/>
<path d="M104.39 58.1101C104.39 58.1101 104.32 58.1101 104.29 58.1001C104.09 58.0401 103.98 57.8401 104.04 57.6501L104.76 55.1301C104.82 54.9301 105.02 54.8201 105.21 54.8801C105.41 54.9401 105.52 55.1401 105.46 55.3301L104.74 57.8501C104.69 58.0101 104.55 58.1201 104.39 58.1201V58.1101Z" fill="white"/>
<path d="M116.14 67.9302C116.08 67.9302 116.01 67.9102 115.95 67.8802C115.78 67.7802 115.72 67.5502 115.82 67.3802L117.17 65.1302C117.27 64.9602 117.5 64.9002 117.67 65.0002C117.84 65.1002 117.9 65.3302 117.8 65.5002L116.45 67.7502C116.38 67.8602 116.26 67.9302 116.13 67.9302H116.14Z" fill="white"/>
<path d="M118.41 63.8402C118.35 63.8402 118.29 63.8302 118.24 63.8002C118.06 63.7102 117.99 63.4802 118.09 63.3002L119.3 60.9802C119.39 60.8002 119.62 60.7302 119.8 60.8302C119.98 60.9202 120.05 61.1502 119.95 61.3302L118.74 63.6502C118.67 63.7802 118.55 63.8502 118.41 63.8502V63.8402Z" fill="white"/>
<path d="M116.21 64.8002C116.15 64.8002 116.09 64.7902 116.04 64.7602C115.86 64.6702 115.79 64.4402 115.89 64.2602L117.1 61.9402C117.19 61.7602 117.42 61.6902 117.6 61.7902C117.78 61.8802 117.85 62.1102 117.75 62.2902L116.54 64.6102C116.47 64.7402 116.35 64.8102 116.21 64.8102V64.8002Z" fill="white"/>
<path d="M105.46 60.6903C105.46 60.6903 105.42 60.6903 105.4 60.6903C105.2 60.6503 105.07 60.4603 105.1 60.2603L105.56 57.6803C105.6 57.4803 105.79 57.3503 105.99 57.3803C106.19 57.4203 106.32 57.6103 106.29 57.8103L105.83 60.3903C105.8 60.5703 105.64 60.6903 105.47 60.6903H105.46Z" fill="white"/>
<path d="M162.47 30.9001C162.42 30.9001 162.36 30.8901 162.31 30.8601C162.13 30.7701 162.05 30.5501 162.14 30.3701L163.3 28.0201C163.39 27.8401 163.61 27.7601 163.79 27.8501C163.97 27.9401 164.05 28.1601 163.96 28.3401L162.8 30.6901C162.74 30.8201 162.61 30.8901 162.47 30.8901V30.9001Z" fill="white"/>
<path d="M160.22 32.3701C160.17 32.3701 160.11 32.3601 160.06 32.3301C159.88 32.2401 159.8 32.0201 159.89 31.8401L161.06 29.4901C161.15 29.3101 161.37 29.2301 161.55 29.3201C161.73 29.4101 161.81 29.6301 161.72 29.8101L160.55 32.1601C160.49 32.2901 160.36 32.3601 160.22 32.3601V32.3701Z" fill="white"/>
<path d="M160.8 35.1001C160.8 35.1001 160.71 35.1001 160.67 35.0801C160.48 35.0101 160.38 34.8001 160.45 34.6101L161.37 32.1601C161.44 31.9701 161.65 31.8701 161.84 31.9401C162.03 32.0101 162.13 32.2201 162.06 32.4101L161.14 34.8601C161.08 35.0101 160.94 35.1001 160.8 35.1001Z" fill="white"/>
<path d="M26.39 44.6102C26.22 44.6102 26.07 44.4902 26.03 44.3202L25.51 41.7502C25.47 41.5502 25.6 41.3602 25.8 41.3202C26 41.2802 26.19 41.4102 26.23 41.6102L26.75 44.1802C26.79 44.3802 26.66 44.5702 26.46 44.6102C26.44 44.6102 26.41 44.6102 26.39 44.6102Z" fill="white"/>
<path d="M25.26 27.8901C25.26 27.8901 25.18 27.8901 25.14 27.8701C24.95 27.8001 24.85 27.5901 24.92 27.4001L25.8 24.9301C25.87 24.7401 26.08 24.6401 26.27 24.7101C26.46 24.7801 26.56 24.9901 26.49 25.1801L25.61 27.6501C25.56 27.8001 25.42 27.8901 25.26 27.8901Z" fill="white"/>
<path d="M55.87 33.1402C55.7 33.1402 55.55 33.0302 55.51 32.8602L54.9 30.3102C54.85 30.1102 54.97 29.9102 55.17 29.8702C55.37 29.8202 55.57 29.9402 55.61 30.1402L56.22 32.6902C56.27 32.8902 56.15 33.0902 55.95 33.1302C55.92 33.1302 55.89 33.1402 55.86 33.1402H55.87Z" fill="white"/>
<path d="M22.3 29.0901C22.3 29.0901 22.2 29.0901 22.15 29.0601C21.96 28.9801 21.88 28.7601 21.96 28.5801L23 26.1801C23.08 25.9901 23.3 25.9101 23.48 25.9901C23.67 26.0701 23.75 26.2901 23.67 26.4701L22.63 28.8701C22.57 29.0101 22.43 29.0901 22.29 29.0901H22.3Z" fill="white"/>
<path d="M44.43 14.0801C44.43 14.0801 44.34 14.0801 44.3 14.0501C44.11 13.9801 44.02 13.7601 44.09 13.5701C44.13 13.4601 45.12 10.9601 46.16 9.89015C46.3 9.74015 46.53 9.74015 46.68 9.88015C46.83 10.0201 46.83 10.2501 46.69 10.4001C45.76 11.3701 44.79 13.8201 44.78 13.8401C44.72 13.9801 44.58 14.0701 44.44 14.0701L44.43 14.0801Z" fill="white"/>
<path d="M9.47999 24.1601C9.47999 24.1601 9.39999 24.1601 9.35999 24.1401C9.16999 24.0701 9.06999 23.8601 9.13999 23.6701L10.02 21.2001C10.09 21.0101 10.3 20.9101 10.49 20.9801C10.68 21.0501 10.78 21.2601 10.71 21.4501L9.82999 23.9201C9.77999 24.0701 9.63999 24.1601 9.47999 24.1601Z" fill="white"/>
<path d="M12.19 48.04C12.13 48.04 12.06 48.02 12 47.99C11.83 47.89 11.77 47.66 11.87 47.49L13.2 45.24C13.3 45.07 13.53 45.01 13.7 45.11C13.87 45.21 13.93 45.44 13.83 45.61L12.5 47.86C12.43 47.98 12.31 48.04 12.18 48.04H12.19Z" fill="white"/>
<path d="M5.02999 32.4902C5.02999 32.4902 4.96999 32.4902 4.93999 32.4802C4.73999 32.4302 4.61999 32.2302 4.67999 32.0302L5.16999 30.1302C5.21999 29.9302 5.41999 29.8102 5.61999 29.8702C5.81999 29.9202 5.93999 30.1202 5.87999 30.3202L5.38999 32.2202C5.34999 32.3902 5.19999 32.5002 5.02999 32.5002V32.4902Z" fill="white"/>
<path d="M24.45 24.1003C24.4 24.1003 24.35 24.0903 24.3 24.0703C24.12 23.9903 24.03 23.7703 24.12 23.5803L24.93 21.7903C25.01 21.6103 25.23 21.5203 25.42 21.6103C25.6 21.6903 25.69 21.9103 25.6 22.1003L24.79 23.8903C24.73 24.0303 24.6 24.1103 24.46 24.1103L24.45 24.1003Z" fill="white"/>
<path d="M6.23002 34.6902C6.23002 34.6902 6.19002 34.6902 6.17002 34.6902C5.97002 34.6602 5.84002 34.4602 5.87002 34.2602L6.21002 32.3302C6.24002 32.1302 6.43002 32.0002 6.64002 32.0302C6.84002 32.0602 6.97002 32.2602 6.94002 32.4602L6.60002 34.3902C6.57002 34.5702 6.41002 34.6902 6.24002 34.6902H6.23002Z" fill="white"/>
<path d="M45.43 16.0201C45.43 16.0201 45.34 16.0201 45.29 15.9901C45.1 15.9101 45.01 15.7001 45.09 15.5101L46.08 13.1101C46.16 12.9201 46.37 12.8301 46.56 12.9101C46.75 12.9901 46.84 13.2001 46.76 13.3901L45.77 15.7901C45.71 15.9301 45.57 16.0201 45.43 16.0201Z" fill="white"/>
<path d="M42.94 17.9503C42.94 17.9503 42.85 17.9503 42.81 17.9203C42.62 17.8503 42.53 17.6303 42.6 17.4403L43.35 15.5103C43.42 15.3203 43.64 15.2303 43.83 15.3003C44.02 15.3703 44.11 15.5902 44.04 15.7802L43.29 17.7102C43.23 17.8602 43.09 17.9403 42.95 17.9403L42.94 17.9503Z" fill="white"/>
<path d="M40.44 30.5901C40.44 30.5901 40.36 30.5901 40.32 30.5701C40.13 30.5001 40.03 30.2901 40.1 30.1001L41.34 26.6401C41.41 26.4501 41.62 26.3501 41.81 26.4201C42 26.4901 42.1 26.7001 42.03 26.8901L40.79 30.3501C40.74 30.5001 40.59 30.5901 40.44 30.5901Z" fill="white"/>
<path d="M43.07 38.1501C42.91 38.1501 42.76 38.0401 42.71 37.8701C42.7 37.8101 42.38 36.4901 42.71 34.2701C42.74 34.0701 42.93 33.9301 43.13 33.9601C43.33 33.9901 43.47 34.1801 43.44 34.3801C43.14 36.4501 43.44 37.6901 43.44 37.7001C43.49 37.9001 43.37 38.1001 43.17 38.1401C43.14 38.1401 43.11 38.1501 43.08 38.1501H43.07Z" fill="white"/>
<path d="M45.92 40.4501C45.82 40.4501 45.72 40.4101 45.65 40.3301C44.3 38.8101 44.32 36.7701 44.32 36.6801C44.32 36.4801 44.48 36.3201 44.69 36.3201C44.89 36.3201 45.05 36.4901 45.05 36.6901C45.05 36.7101 45.05 38.5401 46.2 39.8401C46.33 39.9901 46.32 40.2201 46.17 40.3601C46.1 40.4201 46.01 40.4501 45.93 40.4501H45.92Z" fill="white"/>
<path d="M131.57 55.9501C131.51 55.9501 131.45 55.9401 131.4 55.9101C131.22 55.8201 131.15 55.5901 131.25 55.4101L132.46 53.0901C132.55 52.9101 132.78 52.8401 132.96 52.9401C133.14 53.0301 133.21 53.2601 133.11 53.4401L131.9 55.7601C131.83 55.8901 131.71 55.9601 131.57 55.9601V55.9501Z" fill="white"/>
<path d="M130.96 53.6603C130.9 53.6603 130.84 53.6503 130.79 53.6203C130.61 53.5303 130.54 53.3003 130.64 53.1203L131.85 50.8003C131.94 50.6203 132.17 50.5503 132.35 50.6503C132.53 50.7403 132.6 50.9703 132.5 51.1503L131.29 53.4703C131.22 53.6003 131.1 53.6703 130.96 53.6703V53.6603Z" fill="white"/>
<path d="M140.65 49.2201C140.59 49.2201 140.53 49.2101 140.48 49.1801C140.3 49.0901 140.23 48.8601 140.33 48.6801L141.54 46.3601C141.63 46.1801 141.86 46.1101 142.04 46.2101C142.22 46.3001 142.29 46.5301 142.19 46.7101L140.98 49.0301C140.91 49.1601 140.79 49.2301 140.65 49.2301V49.2201Z" fill="white"/>
<path d="M140.77 52.2403C140.77 52.2403 140.68 52.2403 140.63 52.2103C140.44 52.1303 140.35 51.9203 140.43 51.7303L141.41 49.3003C141.49 49.1103 141.7 49.0203 141.89 49.1003C142.08 49.1803 142.17 49.3903 142.09 49.5803L141.11 52.0103C141.05 52.1503 140.91 52.2403 140.77 52.2403Z" fill="white"/>
<path d="M98.84 52.6301C98.76 52.6301 98.68 52.6301 98.6 52.6401C95.39 53.0201 92.68 60.0301 92.68 64.2301C92.68 65.6301 93.02 66.4401 93.35 66.7301C93.5 66.8601 93.6 66.8501 93.63 66.8501C94.33 66.7701 95.78 65.3201 98.74 58.9001C99.97 56.2301 100.18 55.4601 100.18 54.6101C100.18 53.7601 99.99 53.2201 99.64 52.9001C99.44 52.7201 99.17 52.6301 98.83 52.6301H98.84Z" fill="white"/>
<path d="M149.72 45.63C149.4 44.95 149.25 44.76 148.99 44.76C148.96 44.76 148.93 44.76 148.9 44.76C147.39 44.94 145.21 49.13 144.05 53.76C144.58 52.57 145.04 51.95 145.07 51.9C145.19 51.74 145.42 51.71 145.58 51.83C145.74 51.95 145.77 52.18 145.65 52.34C145.63 52.36 143.91 54.7 143.26 59.38C143.26 59.42 143.26 59.47 143.26 59.51C143.26 61.58 143.68 62.11 143.8 62.23C143.86 62.29 143.92 62.3 143.99 62.29C145.17 62.15 147.91 58.13 151.78 47.25C150.51 47.32 150.03 46.3 149.7 45.61L149.72 45.63Z" fill="white"/>
<path d="M172.05 60.6001L166.8 55.3001C168.33 50.9301 170.9 48.4601 170.93 48.4401C171.08 48.3001 171.08 48.0701 170.95 47.9201C170.81 47.7701 170.58 47.7601 170.43 47.9001C170.39 47.9401 170.01 48.3101 169.47 48.9701C170.6 46.6601 171.56 44.9701 171.57 44.9301C171.67 44.7501 171.61 44.5301 171.43 44.4301C171.25 44.3301 171.03 44.3901 170.93 44.5701C170.91 44.6001 170.07 46.0901 169.03 48.1801C170.8 43.4901 172 40.6701 172.8 38.7701C172.95 38.4101 173.09 38.0801 173.22 37.7801C173.77 36.4501 174.11 35.3901 174.11 34.2201C174.11 32.8001 173.57 31.5401 172.58 30.6601L166.5 24.8801C166.25 24.4101 165.94 23.9701 165.54 23.6201C165.21 23.3301 164.83 23.1001 164.44 22.9301L164.42 22.9101C163.89 22.6901 163.32 22.5501 162.72 22.5501C162.55 22.5501 162.37 22.5601 162.2 22.5801C159.25 22.9301 157.74 26.0701 155.93 30.4701C155.26 32.1101 154.57 34.0901 153.83 36.1901C153.4 37.4101 152.96 38.6501 152.51 39.9001C151.54 38.5201 150.7 37.7201 150.66 37.6801C150.51 37.5401 150.28 37.5501 150.14 37.6901C150 37.8401 150.01 38.0701 150.15 38.2101C150.15 38.2101 150.31 38.3701 150.56 38.6401C149.47 38.1401 148.44 37.9301 148.36 37.9101C148.16 37.8701 147.97 38.0001 147.93 38.2001C147.89 38.4001 148.02 38.5901 148.22 38.6301C148.23 38.6301 148.81 38.7501 149.53 39.0101C149.14 38.9601 148.74 38.9301 148.33 38.9301C148 38.9301 147.66 38.9501 147.33 38.9901C143.48 39.4501 140.47 42.6101 138.43 46.5501C136.84 45.5701 136.65 43.8601 136.65 43.7801C136.63 43.5801 136.46 43.4301 136.25 43.4501C136.05 43.4701 135.9 43.6401 135.91 43.8501C135.91 43.8801 135.94 44.2101 136.09 44.6601C135.43 43.9801 134.99 43.4301 134.98 43.4201C134.86 43.2601 134.62 43.2301 134.46 43.3601C134.3 43.4801 134.27 43.7101 134.4 43.8801C134.43 43.9101 134.68 44.2301 135.07 44.6601L133.58 43.8001C133.39 43.6801 133.2 43.5701 133 43.4701L132.77 43.3401H132.74C131.95 43.0101 131.08 42.8101 130.14 42.8101C129.83 42.8101 129.51 42.8301 129.19 42.8701C127.25 43.1001 125.67 43.9301 124.36 45.0201C124.22 43.4901 123.55 42.5801 122.98 42.0701C122.31 41.4801 121.45 41.1501 120.54 41.1501C120.39 41.1501 120.24 41.1501 120.08 41.1801C118.4 41.3801 117 42.7001 115.83 44.5901C116.31 43.6401 116.76 42.9701 116.77 42.9501C116.88 42.7801 116.84 42.5501 116.67 42.4401C116.5 42.3301 116.27 42.3701 116.16 42.5401C116.11 42.6101 115.48 43.5601 114.9 44.8301C114.97 44.2401 115.03 43.9001 115.03 43.8901C115.06 43.6901 114.93 43.5001 114.73 43.4701C114.53 43.4401 114.34 43.5701 114.31 43.7701C114.3 43.8301 114.09 45.1001 113.97 47.1101L111.55 45.3001C111.37 45.0501 111.17 44.8101 110.93 44.6101C110.89 44.5801 110.85 44.5501 110.81 44.5201C112.15 43.1901 113 41.5801 113 40.0101C113 39.1401 112.76 38.3501 112.31 37.7001V37.6801C112.13 37.4501 111.95 37.2301 111.73 37.0401C111.65 36.9701 111.56 36.9101 111.47 36.8501L110.69 36.0601C111.17 36.3001 111.46 36.4501 111.47 36.4601C111.52 36.4901 111.58 36.5001 111.64 36.5001C111.77 36.5001 111.9 36.4301 111.97 36.3001C112.06 36.1201 111.99 35.9001 111.81 35.8001C111.81 35.8001 111.4 35.5901 110.78 35.2701C111.01 35.3401 111.15 35.3601 111.17 35.3701C111.19 35.3701 111.21 35.3701 111.24 35.3701C111.41 35.3701 111.57 35.2501 111.6 35.0701C111.64 34.8701 111.51 34.6801 111.31 34.6401C111.29 34.6401 109.75 34.3301 107.64 32.9601L107.29 32.6101C108.03 30.8601 108.66 29.3301 108.66 27.7801C108.66 26.4001 108.15 25.1901 107.23 24.3701C110.2 23.8701 112.94 20.8301 112.94 17.9501C112.94 17.2301 112.79 16.7401 112.7 16.4101C112.63 16.1601 112.59 16.0301 112.59 15.5701C112.59 14.5701 112.24 13.6601 111.64 12.9501V12.9301L111.45 12.7301C110.5 11.1401 109.05 8.58007 108.81 7.33007C108.77 7.13007 108.58 7.00007 108.38 7.04007C108.18 7.08007 108.05 7.27007 108.09 7.47007C108.2 8.05007 108.54 8.87007 108.97 9.74007L106.22 5.98007C106.1 5.82007 105.87 5.78007 105.71 5.90007C105.55 6.02007 105.51 6.25007 105.63 6.41007L106.93 8.19007L104.24 5.50007C103.54 4.88007 102.63 4.54007 101.67 4.54007C101.51 4.54007 101.34 4.54007 101.18 4.57007C100.37 4.67007 99.58 4.99007 98.84 5.47007L93.83 2.19007C92.51 1.02007 90.76 0.350069 89.01 0.350069C88.74 0.350069 88.48 0.370069 88.21 0.400069C85.8 0.690069 83.66 2.12007 81.67 4.76007L77.91 1.95007C77.91 1.95007 77.88 1.93007 77.87 1.92007L77.41 1.58007C76.78 1.19007 76.05 0.970069 75.25 0.970069C75.07 0.970069 74.88 0.980069 74.69 1.00007C74.2 1.06007 73.75 1.18007 73.32 1.38007C73.68 1.13007 74.07 0.890069 74.53 0.680069C74.72 0.600069 74.8 0.380069 74.71 0.190069C74.63 6.92457e-05 74.41 -0.0799308 74.22 6.92457e-05C72.6 0.730069 71.65 1.70007 70.95 2.79007C71.15 1.96007 71.28 1.41007 71.28 1.39007C71.33 1.19007 71.2 0.990069 71.01 0.950069C70.81 0.900069 70.61 1.03007 70.57 1.22007C70.57 1.25007 70.06 3.42007 69.46 5.69007C69.31 6.00007 69.16 6.31007 68.99 6.62007C68.96 6.67007 68.95 6.72007 68.95 6.77007C68.62 7.41007 68.27 8.10007 67.91 8.85007C64.81 15.2801 62.38 21.2301 60.78 26.3001C60.71 26.3001 60.65 26.2901 60.58 26.2901C60.3 26.2901 60 26.3101 59.7 26.3401C59.32 25.7701 58.79 25.2301 58.03 24.9201C58.23 24.3601 58.28 23.8401 58.28 23.4601C58.28 23.1501 58.25 22.8601 58.18 22.5701C59.29 20.4101 59.98 18.7101 59.98 17.1201C59.98 15.6501 59.43 14.3501 58.42 13.4601L57.08 12.1201C55.69 10.3101 55.21 8.47007 55.21 8.45007C55.16 8.25007 54.96 8.13007 54.77 8.18007C54.57 8.23007 54.45 8.43007 54.5 8.62007C54.5 8.65007 54.6 9.00007 54.79 9.52007C53.77 8.02007 53.11 6.65007 53.1 6.64007C53.01 6.46007 52.79 6.38007 52.61 6.47007C52.43 6.56007 52.35 6.78007 52.44 6.96007C52.46 7.00007 52.67 7.44007 53.02 8.06007L51.38 6.41007C50.55 5.68007 49.45 5.27007 48.27 5.27007C48.06 5.27007 47.85 5.28007 47.63 5.31007C44.9 5.63007 43.19 7.72007 40.86 13.5601L40.77 13.7901C39.33 17.3901 38.13 20.3901 36.75 24.0601L35.03 22.2401C34.26 21.0201 33.59 19.2201 33.59 19.2001C33.52 19.0101 33.31 18.9101 33.12 18.9801C32.93 19.0501 32.83 19.2601 32.9 19.4501C32.92 19.4901 33.05 19.8601 33.27 20.3701L31 17.9701L30.98 17.9901C30.89 17.8901 30.81 17.7801 30.71 17.6901C30.06 17.1201 29.26 16.7301 28.38 16.5701C28.38 16.5501 28.38 16.5301 28.38 16.5101C28.38 15.1301 27.83 13.8801 26.83 12.9901L20.18 6.34007H20.15C20.03 6.21007 19.92 6.07007 19.78 5.94007C18.95 5.20007 17.87 4.79007 16.74 4.79007C16.55 4.79007 16.37 4.80007 16.18 4.82007C13.72 5.11007 12.37 6.87007 11.72 7.71007C9.96 10.0001 8.07 13.5301 6.33 17.6301C6.32 16.6201 6.03 16.2401 5.94 16.1501C5.79 16.0101 5.55 16.0001 5.41 16.1501C5.27 16.3001 5.26 16.5201 5.41 16.6601C5.41 16.6601 5.61 16.9401 5.6 17.7801C5.49 17.5101 5.36 17.3701 5.29 17.3201C5.13 17.1901 4.9 17.2101 4.77 17.3601C4.64 17.5201 4.65 17.7401 4.81 17.8701C4.81 17.8701 5.58 18.7301 4.51 22.3101C1.92 29.5701 0 37.6501 0 43.7201C0 48.4101 1.17 51.9201 3.39 53.9001C3.42 53.9301 3.46 53.9501 3.5 53.9801C3.51 53.9901 3.5 54.0201 3.52 54.0301C5.47 55.9301 4.95 57.4901 4.92 57.5601C4.85 57.7501 4.95 57.9601 5.14 58.0301C5.18 58.0501 5.23 58.0501 5.27 58.0501C5.42 58.0501 5.56 57.9601 5.61 57.8101C5.63 57.7601 5.87 57.0601 5.61 56.0301C6.66 57.5201 7.05 59.7901 7.06 59.8201C7.09 60.0001 7.25 60.1301 7.42 60.1301C7.44 60.1301 7.46 60.1301 7.48 60.1301C7.68 60.1001 7.82 59.9101 7.78 59.7101C7.77 59.6401 7.61 58.7401 7.24 57.6801L10.43 60.9401C11.68 62.0501 13.23 62.6401 14.9 62.6401C15.18 62.6401 15.47 62.6201 15.76 62.5901C19.16 62.1901 22.09 59.9101 27.19 49.9701C27.38 50.0101 27.57 50.0401 27.77 50.0601C28.39 52.2001 29.34 53.9201 30.65 55.1501C32.06 56.4701 33.83 57.1701 35.77 57.1701C36.09 57.1701 36.42 57.1501 36.75 57.1101C41.26 56.5801 44.27 52.7301 47.14 46.5301C47.4 47.8401 47.89 49.0001 48.55 50.0101C49.96 53.0501 50.6 54.3701 50.6 54.3801C50.66 54.5101 50.79 54.5901 50.93 54.5901C50.98 54.5901 51.04 54.5801 51.09 54.5501C51.27 54.4601 51.35 54.2401 51.26 54.0601C51.26 54.0601 51.1 53.7201 50.77 53.0401C51.94 54.2601 52.97 54.9001 53.04 54.9401C53.1 54.9801 53.17 54.9901 53.23 54.9901C53.35 54.9901 53.47 54.9301 53.54 54.8201C53.65 54.6501 53.59 54.4201 53.42 54.3101C53.4 54.3101 52.56 53.7701 51.54 52.7601C52.61 53.3001 53.79 53.5901 55.05 53.5901C55.39 53.5901 55.74 53.5701 56.09 53.5301C59.82 53.0901 63.21 50.4101 65.5 46.2301C65.62 46.2401 65.73 46.2601 65.85 46.2701C65.98 47.0201 66.18 47.7301 66.45 48.3901C66.38 48.6601 66.3 48.9401 66.24 49.1901C65.27 52.7601 64.81 55.2101 64.81 56.6601C64.81 57.9001 65.18 58.9601 65.82 59.7601V59.7901L66 59.9701C66.08 60.0501 66.14 60.1501 66.23 60.2301C66.3 60.2901 66.38 60.3401 66.46 60.4001L69.42 63.1901C68.61 62.8401 68.03 62.6701 67.97 62.6501C67.78 62.5901 67.57 62.7101 67.52 62.9001C67.46 63.0901 67.58 63.3001 67.77 63.3501C67.79 63.3501 69.21 63.7701 70.71 64.6701C70.06 64.4801 69.71 64.6001 69.6 64.6601C69.42 64.7501 69.34 64.9801 69.43 65.1601C69.52 65.3401 69.74 65.4101 69.91 65.3201C69.91 65.3201 70.8 65.0501 73.04 67.0301C73.11 67.1101 73.17 67.2001 73.25 67.2701C73.31 67.3201 73.38 67.3601 73.44 67.4101C73.46 67.7901 73.5 68.1601 73.54 68.5101C73.88 71.2101 74.98 73.4501 76.67 74.9301L78.11 76.2501C79.37 77.7701 81.35 80.3901 81.52 81.7401C81.54 81.9301 81.7 82.0601 81.88 82.0601C81.9 82.0601 81.91 82.0601 81.93 82.0601C82.13 82.0401 82.27 81.8501 82.25 81.6501C82.22 81.4301 82.15 81.1901 82.06 80.9401C82.65 81.8501 83.04 82.6601 83.04 83.2401C83.04 83.4401 83.2 83.6101 83.41 83.6101C83.62 83.6101 83.78 83.4501 83.78 83.2401C83.78 82.7501 83.58 82.1601 83.26 81.5201C83.62 81.8901 84.01 82.2401 84.43 82.5301C84.83 82.8101 85.27 83.0201 85.71 83.2101L85.74 83.2401V83.2201C86.63 83.6001 87.58 83.8101 88.56 83.8101C89.17 83.8101 89.78 83.7301 90.39 83.5801C92.57 83.0401 94.49 81.6101 96.21 79.2201C97.23 79.8501 98.41 80.1801 99.62 80.1801C99.89 80.1801 100.16 80.1601 100.42 80.1301C102.14 79.9301 103.56 79.1301 104.75 78.0601C104.35 78.7301 104.07 79.1701 104.06 79.1901C103.95 79.3601 104 79.5901 104.17 79.7001C104.23 79.7401 104.3 79.7601 104.37 79.7601C104.49 79.7601 104.61 79.7001 104.68 79.5901C104.74 79.5001 105.33 78.5601 106.05 77.3301C105.92 77.6801 105.84 77.9001 105.84 77.9101C105.77 78.1001 105.87 78.3101 106.06 78.3801C106.1 78.4001 106.14 78.4001 106.19 78.4001C106.34 78.4001 106.48 78.3101 106.53 78.1601C106.54 78.1301 107.35 75.9501 108 73.9201C108.14 73.6901 108.28 73.4601 108.4 73.2401C109.33 74.8401 110.96 76.5401 113.99 76.5401C114.32 76.5401 114.66 76.5201 115 76.4801C116.2 76.3401 117.28 76.0001 118.31 75.4201C118.65 76.3601 119.14 77.1301 119.76 77.6801C120.44 78.2801 121.24 78.6001 122.09 78.6001C122.22 78.6001 122.35 78.6001 122.48 78.5801C124.93 78.2901 126.46 75.6201 128.93 70.2201C128.94 70.2201 128.95 70.2401 128.97 70.2401C129 70.2501 132.38 71.3401 133.27 73.5201C133.33 73.6601 133.47 73.7501 133.61 73.7501C133.66 73.7501 133.7 73.7501 133.75 73.7201C133.94 73.6401 134.03 73.4301 133.95 73.2401C133.89 73.0801 133.81 72.9301 133.73 72.7901C134.18 73.1601 134.53 73.5201 134.71 73.8701C134.78 73.9901 134.9 74.0601 135.03 74.0601C135.09 74.0601 135.15 74.0501 135.2 74.0201C135.38 73.9201 135.45 73.7001 135.35 73.5201C135.23 73.3101 135.06 73.0901 134.87 72.8701C135.38 73.1801 135.92 73.4401 136.51 73.6101H136.53C137.2 73.8001 137.91 73.9001 138.66 73.9001C139.02 73.9001 139.39 73.8801 139.76 73.8301C141.31 73.6501 142.76 73.1001 144.13 72.1801C144.54 72.8201 145.01 73.3901 145.56 73.8701C146.79 74.9601 148.35 75.5701 149.95 75.5701C150.21 75.5701 150.47 75.5501 150.72 75.5201C154.48 75.0801 156.89 71.8001 158.43 69.1301C158.49 69.1901 158.55 69.2401 158.62 69.3001C161.71 72.8901 165.44 73.2001 165.6 73.2201H165.63C165.82 73.2201 165.98 73.0701 166 72.8801C166.01 72.6801 165.86 72.5001 165.66 72.4901C165.64 72.4901 165 72.4301 164.06 72.1201C164.73 72.2501 165.35 72.2901 165.87 72.2901C166.95 72.2901 167.65 72.1101 167.73 72.0901C167.93 72.0401 168.04 71.8301 167.99 71.6401C167.94 71.4401 167.73 71.3301 167.54 71.3801C167.52 71.3801 166.28 71.7101 164.51 71.4301C164.78 71.4301 165.05 71.4101 165.33 71.3801C169.63 70.8701 173.55 67.2201 173.55 63.7301C173.55 62.5401 173.1 61.4901 172.29 60.7601C172.21 60.6901 172.13 60.6401 172.05 60.5801V60.6001ZM98.27 8.45007C99.15 7.37007 100.27 6.54007 101.38 6.41007C102 6.34007 102.58 6.51007 103.01 6.89007C103.46 7.29007 103.7 7.87007 103.7 8.53007C103.7 9.25007 103.8 9.58007 103.89 9.89007C103.97 10.1701 104.06 10.4501 104.06 10.9101C104.06 12.9501 101.88 15.2901 99.73 15.5401C99.62 15.5501 99.5 15.5601 99.39 15.5601C98.71 15.5601 98.07 15.3201 97.56 14.8601C97.17 14.5201 96.9 14.0701 96.74 13.5801C96.76 14.4001 96.92 14.9701 96.93 15.0301C96.99 15.2201 96.88 15.4301 96.68 15.4901C96.64 15.5001 96.61 15.5101 96.57 15.5101C96.41 15.5101 96.27 15.4101 96.22 15.2501C96.21 15.2101 95.07 11.2501 98.26 8.46007L98.27 8.45007ZM97.11 18.1601C97.82 18.0801 98.48 18.2701 98.97 18.7001C99.5 19.1701 99.79 19.8901 99.79 20.7401C99.79 21.9601 99.19 23.3701 98.49 25.0101C98.45 25.1201 98.4 25.2201 98.35 25.3301C98.84 24.6501 99.21 24.2001 99.25 24.1501C99.38 24.0001 99.61 23.9801 99.77 24.1101C99.92 24.2401 99.94 24.4701 99.81 24.6301C99.79 24.6601 97.67 27.1801 96.84 29.6801C96.78 29.9301 96.73 30.1801 96.68 30.4301C97.13 29.3701 97.55 28.8101 97.58 28.7701C97.71 28.6101 97.94 28.5801 98.1 28.7101C98.26 28.8301 98.29 29.0701 98.16 29.2301C98.14 29.2501 97.04 30.7001 96.57 33.4801C96.57 33.4801 96.57 33.4801 96.57 33.5001C96.68 34.3601 96.92 34.7701 97.14 34.9601C97.26 35.0701 97.47 35.2001 97.89 35.1501C98.76 35.0501 99.25 34.1401 99.77 33.1901C100.33 32.1601 100.92 31.0901 102.08 30.9501C102.61 30.8901 103.1 31.0301 103.47 31.3601C103.89 31.7301 104.12 32.3001 104.12 32.9601C104.12 35.2101 101.02 38.3001 97.16 38.7601C96.86 38.8001 96.56 38.8101 96.28 38.8101C94.88 38.8101 93.67 38.3901 92.74 37.5601C91.3 36.2801 90.57 34.1201 90.57 31.1601C90.57 24.9901 93.81 18.5501 97.1 18.1601H97.11ZM38.67 39.4001C38.84 39.2901 39.07 39.3501 39.18 39.5201C39.29 39.6901 39.24 39.9201 39.06 40.0301C39.05 40.0301 37.91 40.7701 36.76 42.2601C37.39 41.9801 37.89 41.8501 37.93 41.8401C38.13 41.7901 38.33 41.9101 38.37 42.1101C38.42 42.3101 38.3 42.5101 38.1 42.5501C38.08 42.5501 36.71 42.9101 35.65 43.7901C33.86 46.3901 31.91 47.9601 29.5 48.2501C27.73 48.4601 26.13 47.9501 24.87 46.7701C22.68 44.7301 21.61 40.8301 21.73 35.4601C18.07 43.4201 15.48 47.9901 13.36 50.5701C12.5 52.1901 12.34 53.7801 12.34 53.8001C12.32 53.9901 12.16 54.1301 11.97 54.1301H11.94C11.74 54.1101 11.59 53.9301 11.61 53.7301C11.61 53.6701 11.68 52.9801 11.96 52.0501C11.73 52.2601 11.51 52.4401 11.28 52.6001C9.9 53.8801 8.31 54.9001 8.22 54.9601C8.16 55.0001 8.09 55.0201 8.02 55.0201C7.9 55.0201 7.78 54.9601 7.71 54.8501C7.6 54.6801 7.65 54.4501 7.82 54.3401C7.82 54.3401 8.22 54.0901 8.77 53.6901C8.68 53.7001 8.59 53.7201 8.5 53.7301C8.28 53.7601 8.07 53.7701 7.86 53.7701C6.65 53.7701 5.53 53.3501 4.61 52.5301C2.79 50.9201 1.83 47.8701 1.83 43.7301C1.83 33.1201 8.18 15.4201 13.18 8.91007C13.92 7.95007 14.84 6.91007 16.4 6.73007C17.21 6.64007 17.98 6.87007 18.57 7.40007C19.17 7.94007 19.5 8.70007 19.5 9.55007C19.5 10.5201 19.13 11.5901 18.29 13.0201C17.11 15.0201 15.9 17.4401 14.74 20.0701C15.24 19.5201 15.62 19.1601 15.66 19.1301C15.81 18.9901 16.04 19.0101 16.18 19.1601C16.32 19.3101 16.3 19.5401 16.15 19.6801C16.13 19.7001 14.54 21.1501 13.58 22.9201C13.94 22.6501 14.21 22.5301 14.23 22.5201C14.42 22.4401 14.63 22.5301 14.71 22.7201C14.79 22.9101 14.7 23.1201 14.51 23.2001C14.48 23.2101 13.36 23.7001 12.68 25.2301C12.66 25.2601 12.63 25.2801 12.61 25.3101C9.96 32.3701 7.97 39.9801 7.97 44.9901C7.97 47.7201 8.53 48.4301 8.7 48.5801C8.8 48.6701 8.86 48.6701 8.92 48.6601C10.52 48.4701 14.68 40.9601 21.29 26.3301C21.54 25.7801 21.77 25.2701 21.99 24.7801C23.7 20.9801 24.73 18.6801 26.99 18.4201C27.95 18.3101 28.83 18.5601 29.48 19.1301C30.15 19.7301 30.52 20.6301 30.52 21.6801C30.52 22.7801 30.11 24.0501 29.58 25.6501C28.79 28.0701 27.74 31.3101 27.56 35.8001C28.02 34.7901 28.53 34.1601 28.58 34.1101C28.71 33.9501 28.94 33.9301 29.1 34.0701C29.26 34.2001 29.28 34.4301 29.15 34.5901C29.14 34.6101 28.09 35.8901 27.69 37.8101C28.02 37.2901 28.35 37.0201 28.38 37.0001C28.54 36.8801 28.77 36.9101 28.89 37.0801C29.01 37.2401 28.98 37.4701 28.81 37.5901C28.76 37.6301 27.67 38.5101 27.75 40.5701C28.04 42.4501 28.56 43.2201 28.91 43.5301C29.15 43.7401 29.4 43.8301 29.68 43.7901C31.73 43.5501 34.22 36.4901 35.41 33.1001C38.36 24.7301 40.08 20.4501 42.44 14.5301L42.53 14.3101C44.8 8.62007 46.19 7.40007 47.81 7.21007C48.71 7.10007 49.53 7.34007 50.12 7.86007C50.73 8.40007 51.06 9.21007 51.06 10.1501C51.06 11.7601 50.02 13.7801 48.43 16.6901C45.77 21.5701 42.85 27.8901 40.21 34.4701C39.37 36.5601 38.56 38.4501 37.73 40.1101C38.23 39.6701 38.59 39.4401 38.62 39.4201L38.67 39.4001ZM68.91 59.3001C68.83 59.3101 68.74 59.3101 68.66 59.3101C68.21 59.3101 67.8 59.1601 67.46 58.8601C66.94 58.4001 66.65 57.6201 66.65 56.6701C66.65 55.4001 67.11 53.0501 68.02 49.6801C68.47 47.9401 69.03 45.8701 69.67 43.5701C68.83 44.0401 67.98 44.3301 67.12 44.4301C66.89 44.4601 66.66 44.4701 66.43 44.4701C65.07 44.4701 63.8 43.9901 62.77 43.0801C61.27 41.7501 60.45 39.6101 60.45 37.0601C60.45 36.1701 60.55 35.1501 60.73 34.0101C60.35 34.1101 59.96 34.1801 59.57 34.2301C58.76 34.3301 58.51 34.6701 57.95 35.9901C57.54 37.0501 57.05 38.0301 56.52 38.9201C56.83 38.7401 57.04 38.6501 57.06 38.6401C57.25 38.5601 57.46 38.6401 57.54 38.8301C57.62 39.0201 57.54 39.2301 57.35 39.3101C57.34 39.3101 56.41 39.7401 55.28 40.7101C53.46 42.9801 51.21 44.4001 48.82 44.6801C48.54 44.7101 48.26 44.7301 47.99 44.7301C46.5 44.7301 45.16 44.2301 44.08 43.2701C42.52 41.8801 41.66 39.6301 41.66 36.9401C41.66 33.0301 43.53 28.3901 46.32 25.1501C46.33 25.1001 46.35 25.0501 46.38 25.0101C48.07 22.7201 51.75 18.8301 51.9 18.6601C52.04 18.5101 52.27 18.5101 52.42 18.6501C52.57 18.7901 52.57 19.0201 52.43 19.1701C52.41 19.1901 51.67 19.9701 50.7 21.0401C51.36 20.6001 51.96 20.2601 52.09 20.1901C52.27 20.0901 52.49 20.1601 52.59 20.3401C52.69 20.5201 52.62 20.7401 52.44 20.8401C52.17 20.9901 51.71 21.2501 51.23 21.5701C51.75 21.3901 52.27 21.2501 52.8 21.1801C54.03 21.0301 55.03 21.2601 55.68 21.8401C56.16 22.2601 56.41 22.8401 56.41 23.5101C56.41 24.2501 56.09 25.3201 54.56 26.1701L54.32 26.3101C53.2 26.9701 52.14 27.5901 50.88 29.1201C48.98 31.4601 48.02 34.2301 48.02 37.3801C48.02 39.1401 48.39 39.8301 48.69 40.1001C48.84 40.2301 49.1 40.4001 49.68 40.3301C52.09 40.0401 54.74 36.5201 54.74 33.6001C54.74 32.6301 54.44 31.8901 54.15 31.1601C53.9 30.5401 53.67 29.9501 53.67 29.3101C53.67 27.9001 54.74 26.7001 56.15 26.5401C57.93 26.3301 58.42 27.7701 58.78 28.8201C59.2 30.0601 59.47 30.7001 60.63 30.5601C60.9 30.5301 61.19 30.4601 61.49 30.3201C62.91 24.8201 65.69 17.6201 69.51 9.70007C72 4.57007 73.2 3.03007 74.85 2.83007C75.56 2.75007 76.17 2.92007 76.63 3.32007C77.13 3.76007 77.39 4.44007 77.39 5.28007V5.30007C77.7 4.60007 77.9 4.14007 77.9 4.13007C77.98 3.94007 78.19 3.86007 78.38 3.93007C78.57 4.01007 78.65 4.22007 78.58 4.41007C78.57 4.44007 77.58 6.77007 76.37 9.08007C77.04 8.25007 77.55 7.71007 77.59 7.66007C77.73 7.51007 77.96 7.50007 78.11 7.64007C78.26 7.78007 78.27 8.01007 78.13 8.16007C78.1 8.19007 75.73 10.7401 74.22 13.4701C74.19 13.5301 74.17 13.5801 74.14 13.6401L73.68 14.6201C72.04 18.1501 70.49 21.4801 69.46 24.3201C67.03 30.5701 65.79 35.1901 65.79 38.0901C65.79 39.1201 65.97 39.7901 66.32 40.1101C66.56 40.3201 66.93 40.4001 67.45 40.3401C68.65 40.2001 69.99 39.0501 71.56 36.7501C72.04 35.1001 72.53 33.4001 73.04 31.6701C72.68 31.7001 72.34 31.7101 72.03 31.7101C71.05 31.7101 70.39 31.6101 70.34 31.6001C70.14 31.5701 70 31.3801 70.03 31.1801C70.06 30.9801 70.25 30.8401 70.45 30.8701C70.46 30.8701 71.1 30.9601 72.03 30.9601C71.99 30.9401 71.94 30.9101 71.9 30.8901C70.51 30.6401 69.53 30.2601 69.47 30.2401C69.28 30.1601 69.19 29.9501 69.27 29.7601C69.35 29.5701 69.56 29.4801 69.75 29.5601C69.75 29.5601 70.08 29.6901 70.6 29.8401C70.25 29.3501 70.15 28.8801 70.15 28.5501C70.15 27.5501 70.8 26.8501 71.85 26.7201C72.46 26.6501 73.27 26.7501 74.33 27.0301H74.36C74.36 27.0301 74.45 26.8901 74.51 26.6701C76.97 18.5101 79.7 10.3501 82.99 5.93007C84.68 3.65007 86.44 2.43007 88.35 2.21007C89.82 2.04007 91.39 2.54007 92.53 3.55007C93.48 4.39007 94.02 5.49007 94.02 6.57007C94.02 7.95007 93.16 8.94007 91.83 9.10007C90.39 9.27007 89.96 8.19007 89.73 7.62007C89.67 7.46007 89.54 7.15007 89.47 7.11007C89.47 7.11007 89.45 7.11007 89.4 7.11007C88.25 7.25007 86.47 10.4201 84.08 16.5601C84.66 15.6401 85.06 15.0901 85.07 15.0701C85.19 14.9101 85.42 14.8701 85.58 14.9901C85.74 15.1101 85.78 15.3401 85.66 15.5001C85.65 15.5201 84.7 16.8101 83.62 18.7601C83.77 18.6201 83.91 18.5201 84.02 18.5001C84.22 18.4701 84.41 18.6001 84.44 18.8001C84.47 18.9801 84.37 19.1501 84.2 19.2101C84.1 19.2701 83.22 19.9601 81.08 24.9801C80.94 25.4301 80.75 25.9301 80.51 26.5201L80.49 26.5701C80.34 27.0201 80.19 27.4901 80.03 27.9601C80.03 27.9801 80.02 28.0001 80.01 28.0201C80.14 28.0401 80.4 28.0501 80.93 27.9901C83.91 27.6401 85.63 25.4001 88.07 21.5201C88.51 20.8101 88.83 20.3001 89.47 20.2201C89.81 20.1801 90.14 20.2801 90.4 20.5101C90.75 20.8201 90.94 21.3501 90.94 22.0201C90.94 22.8601 90.49 24.3601 89.63 25.6101C87.08 29.2401 84.78 31.1301 79.64 31.7401C79.0867 31.8067 78.7667 31.9734 78.68 32.2401C77.15 37.2801 75.81 42.3901 74.35 48.7901C72.98 54.8501 71.52 58.9601 68.83 59.2801L68.91 59.3001ZM165.13 59.4201C165.05 59.4801 164 60.2401 162.63 60.9901C163.41 60.7901 163.93 60.6301 163.94 60.6301C164.13 60.5701 164.34 60.6801 164.4 60.8701C164.46 61.0601 164.35 61.2701 164.16 61.3301C164.04 61.3701 161.39 62.1901 158.83 62.4001C158.58 62.4601 158.33 62.5001 158.08 62.5301C154.16 62.9901 152.5 59.9801 151.7 58.5401C151.63 58.4101 151.55 58.2601 151.47 58.1401C151.28 58.4501 151.03 58.9301 150.8 59.3801C149.47 61.9401 147.25 66.2401 143.49 66.6801C143.3 66.7001 143.12 66.7101 142.93 66.7101C141.78 66.7101 140.67 66.2801 139.76 65.4801C139.56 65.3001 139.37 65.1001 139.19 64.8901C140.18 66.1201 141.42 66.8501 141.44 66.8601C141.62 66.9601 141.68 67.1901 141.57 67.3601C141.5 67.4801 141.38 67.5401 141.25 67.5401C141.19 67.5401 141.12 67.5201 141.07 67.4901C140.93 67.4101 137.85 65.5801 137.32 62.6601C135.78 64.0501 134.22 64.7901 132.53 64.9901C130.74 65.2001 129.2 64.7901 128.08 63.7901C126.86 62.7101 126.22 61.0301 126.22 58.9301C126.22 57.2901 126.62 55.4801 126.98 53.8801C127.25 52.6601 127.5 51.5101 127.5 50.7401C127.5 50.3501 127.44 50.2001 127.42 50.1601C127.42 50.1601 127.38 50.1601 127.33 50.1601C125.63 50.3601 123.17 55.8801 121.19 60.3101C118.64 66.0201 116.99 69.5301 115.24 69.7401C115.18 69.7401 115.13 69.7501 115.07 69.7501C114.68 69.7501 114.3 69.5901 113.96 69.2901C113.13 68.5501 112.63 67.0301 112.57 65.0901C110.84 66.8401 109.37 67.4501 107.77 67.6401C103.9 68.0901 102.82 65.2501 102.17 63.5401C102.02 63.1501 101.82 62.6201 101.68 62.4601C101.34 62.6301 100.63 63.8501 100.11 64.7501C99.73 65.4101 99.31 66.1301 98.84 66.8401C99.48 66.2301 99.9 65.7701 99.91 65.7601C100.05 65.6101 100.28 65.6001 100.43 65.7401C100.58 65.8801 100.59 66.1101 100.45 66.2601C100.38 66.3301 99.59 67.1901 98.52 68.1401C99.3 67.7101 99.84 67.4001 99.86 67.3901C100.04 67.2901 100.26 67.3501 100.36 67.5201C100.46 67.7001 100.4 67.9201 100.23 68.0201C100.09 68.1001 97.22 69.7601 94.97 70.7201C94.73 70.8401 94.47 70.9401 94.22 71.0301H94.19C93.87 71.1401 93.54 71.2301 93.19 71.2701C92.99 71.2901 92.8 71.3101 92.6 71.3101C91.45 71.3101 90.36 70.9001 89.49 70.1301C89.27 69.9301 89.03 69.6801 88.8 69.3901C87.01 72.5101 85.09 74.2201 82.92 74.7601C82.46 74.8701 81.99 74.9301 81.54 74.9301C80.44 74.9301 79.37 74.6001 78.44 73.9701C76.96 72.9501 75.93 71.2201 75.51 69.0301C74.94 67.0701 73.81 61.5701 73.76 61.3101C73.72 61.1101 73.85 60.9201 74.05 60.8801C74.25 60.8401 74.44 60.9701 74.48 61.1701C74.48 61.2001 74.7 62.2601 74.99 63.6101C74.82 61.3301 74.69 58.7801 74.68 58.6101C74.67 58.4101 74.83 58.2301 75.03 58.2201C75.23 58.2101 75.41 58.3701 75.42 58.5701C75.42 58.6001 75.49 59.9301 75.59 61.5301C76.3 55.8901 78.16 48.3701 80.97 40.0101C82.8 34.6101 83.79 32.9301 85.41 32.5301C86.1 32.3601 86.73 32.4501 87.24 32.8001C87.79 33.1801 88.13 33.8101 88.24 34.6501C88.44 36.2201 87.66 38.5501 86.76 41.2401C86.53 41.9301 86.29 42.6401 86.06 43.3601L85.73 44.4001C84.55 48.1101 83.43 51.6101 82.76 54.5601C81.13 61.0601 80.49 65.8101 80.85 68.6801C80.98 69.7001 81.24 70.3501 81.63 70.6101C81.9 70.7901 82.27 70.8201 82.78 70.6901C84.14 70.3501 85.54 69.0001 87.33 64.7901C87.32 64.5501 87.31 64.3001 87.31 64.0401C87.31 58.0401 90.99 49.2401 96.97 48.5301C99.39 48.2401 101.08 49.5401 102.09 50.3101L102.11 50.3301C102.67 48.8101 103.49 46.8101 103.53 46.7101C103.61 46.5201 103.82 46.4301 104.01 46.5101C104.2 46.5901 104.29 46.8001 104.21 46.9901C104.21 47.0001 103.97 47.5701 103.67 48.3301C104.47 46.9501 105.31 45.6301 105.37 45.5301C105.48 45.3601 105.71 45.3101 105.88 45.4201C106.05 45.5301 106.1 45.7601 105.99 45.9301C105.98 45.9501 105.24 47.1001 104.49 48.3801C105.44 46.9901 106.57 45.6201 107.99 45.4501C108.62 45.3701 109.24 45.5601 109.71 45.9801C110.22 46.4301 110.53 47.1301 110.53 47.8301C110.53 48.8301 109.92 50.2901 109.15 52.1301C108.71 53.1701 108.26 54.2501 107.87 55.3601C107.03 57.8501 106.48 60.4201 106.48 61.8901C106.48 62.6701 106.64 63.2301 106.96 63.5101C107.18 63.7101 107.5 63.7801 107.93 63.7301C109.27 63.5701 110.69 62.5501 113.16 58.7401C112.92 55.8001 113.29 51.6301 113.3 51.4401C113.32 51.2401 113.49 51.0901 113.7 51.1101C113.9 51.1301 114.05 51.3101 114.03 51.5101C114.03 51.5101 114.01 51.6901 113.99 51.9701C114.19 50.9001 114.36 50.1401 114.38 50.0601C114.42 49.8601 114.62 49.7401 114.82 49.7801C115.02 49.8201 115.14 50.0201 115.1 50.2201C115.1 50.2401 114.89 51.1701 114.66 52.4401C116.03 47.5901 118 43.2501 120.31 42.9801C120.86 42.9201 121.38 43.0701 121.77 43.4201C122.13 43.7401 122.56 44.3801 122.56 45.6101C122.56 47.0301 121.94 48.3901 121.35 49.7101C121.25 49.9301 121.07 50.3901 121.07 50.4101C120.61 51.6601 120.29 53.1401 120.29 53.1401C120.29 53.3001 120.3 53.4201 120.31 53.5001C120.63 53.2001 121.16 52.3001 121.59 51.5601C123.1 49.0101 125.38 45.1501 129.41 44.6701C130.86 44.5001 132.1 44.8301 132.99 45.6201C133.76 46.3101 134.2 47.3101 134.31 48.5201C134.47 47.9501 134.56 47.6001 134.57 47.5901C134.62 47.3901 134.82 47.2701 135.02 47.3201C135.22 47.3701 135.34 47.5701 135.29 47.7701C135.29 47.7901 134.99 48.9401 134.47 50.5501C134.74 50.0201 134.91 49.7001 134.92 49.6801C135.01 49.5001 135.24 49.4301 135.42 49.5301C135.6 49.6201 135.67 49.8501 135.57 50.0301C135.55 50.0701 133.74 53.5101 132.22 56.8501C131.98 57.7101 131.81 58.5601 131.81 59.3801C131.81 60.1201 131.94 60.6301 132.2 60.8501C132.39 61.0201 132.69 61.0701 133.12 61.0201C134.36 60.8701 135.69 59.7901 137.28 57.5401C137.6 50.8901 141.53 41.5301 147.56 40.8101C150 40.5201 152.24 41.6301 153.3 42.7801C153.32 42.8001 153.34 42.8201 153.35 42.8301C153.39 42.7601 153.44 42.6501 153.51 42.4701C154.24 40.5601 154.91 38.6501 155.57 36.8001C156.3 34.7201 156.99 32.7601 157.64 31.1601C159.46 26.7501 160.64 24.6101 162.43 24.4001C163.14 24.3201 163.82 24.5301 164.34 24.9901C164.93 25.5101 165.25 26.2901 165.25 27.1801C165.25 27.9401 165.05 28.7201 164.5 30.0401C164.38 30.3301 164.24 30.6501 164.09 31.0201C163.23 33.0401 161.94 36.1001 159.96 41.3801C157.6 47.6101 156.3 52.5401 156.3 55.2801C156.3 56.8101 156.63 57.9501 157.23 58.4901C157.54 58.7701 157.93 58.8801 158.39 58.8301C159.41 58.7101 159.93 57.7801 160.47 56.7901C161 55.8201 161.56 54.8201 162.66 54.6901C163.18 54.6301 163.68 54.7801 164.05 55.1101C164.47 55.4801 164.7 56.0501 164.7 56.7101C164.7 57.6701 164.17 58.7801 163.3 59.7701C164.13 59.2601 164.7 58.8501 164.72 58.8401C164.88 58.7201 165.11 58.7601 165.23 58.9201C165.35 59.0801 165.31 59.3101 165.15 59.4301L165.13 59.4201Z" fill="white"/>
</g>
<defs>
<clipPath id="clip0_3_797">
<rect width="174.12" height="83.82" fill="white"/>
</clipPath>
</defs>
</svg>
