<svg width="259" height="125" viewBox="0 0 259 125" fill="none" xmlns="http://www.w3.org/2000/svg">
<g clip-path="url(#clip0_3_192)">
<path d="M11.68 82.61C9.2 82.61 6.91 81.73 5.05 80.08C1.75 77.15 0.0100023 71.92 0.0100023 64.96C2.32086e-06 48.42 9.59 21.77 17.44 11.55C18.4 10.3 20.41 7.68999 24.06 7.25999C24.34 7.22999 24.62 7.20999 24.9 7.20999C26.58 7.20999 28.18 7.81999 29.42 8.91999C30.91 10.24 31.72 12.1 31.72 14.15C31.72 16.2 31.05 18.13 29.54 20.69C22.63 32.41 14.6 55.11 14.6 66.81C14.6 66.87 14.6 66.92 14.6 66.98C16.89 63.46 21.22 55.58 29.17 37.98C29.54 37.16 29.89 36.4 30.21 35.68C32.94 29.6 34.92 25.21 39.81 24.63C40.14 24.59 40.47 24.57 40.79 24.57C42.62 24.57 44.34 25.2 45.64 26.36C47.23 27.77 48.11 29.84 48.11 32.19C48.11 34.26 47.44 36.32 46.59 38.93C45.36 42.7 43.67 47.85 43.67 55.13C43.67 58.55 44.03 60.48 44.35 61.52C45.45 59.99 47.24 56.35 50.1 48.25C54.51 35.76 57.06 29.39 60.59 20.56L60.73 20.21C64.19 11.53 66.73 8.43999 70.79 7.95999C71.11 7.91999 71.42 7.89999 71.73 7.89999C73.48 7.89999 75.12 8.49999 76.35 9.58999C77.84 10.92 78.66 12.85 78.66 15.03C78.66 18.06 76.98 21.37 74.42 26.06C70.51 33.22 66.22 42.5 62.34 52.19C57.14 65.18 52.28 73.43 44.14 74.39C43.65 74.45 43.17 74.48 42.69 74.48C39.81 74.48 37.18 73.44 35.08 71.48C32.89 69.44 31.35 66.52 30.45 62.78C22.54 78.43 18.11 81.92 12.95 82.53C12.52 82.58 12.1 82.61 11.68 82.61Z" fill="#3D0E1A"/>
<path d="M102.01 90.87C100.66 90.87 99.42 90.4 98.42 89.51C97.06 88.3 96.31 86.42 96.31 84.21C96.31 82 97.01 78.42 98.44 73.11C98.78 71.8 99.17 70.35 99.59 68.78C99.3 68.8 99 68.81 98.72 68.81C96.05 68.81 93.47 67.83 91.48 66.06C89.19 64.03 87.74 61.07 87.28 57.57C83.87 64.18 78.66 68.42 72.9 69.1C72.38 69.16 71.86 69.19 71.35 69.19C68.47 69.19 65.83 68.2 63.72 66.33C60.81 63.74 59.21 59.68 59.21 54.89C59.21 44.08 67.68 30.01 78.2 28.77C78.66 28.72 79.12 28.69 79.55 28.69C81.58 28.69 83.33 29.29 84.6 30.42C85.89 31.56 86.6 33.17 86.6 34.94C86.6 35.51 86.52 36.28 86.23 37.12C88.23 37.95 89.18 39.82 89.69 41.16C92.04 33.22 95.88 23.65 100.9 13.25C104.73 5.36999 106.97 1.99999 110.97 1.51999C111.25 1.48999 111.53 1.46999 111.8 1.46999C113.31 1.46999 114.68 1.96999 115.75 2.91999C117.07 4.08999 117.79 5.84999 117.79 7.86999C117.79 10.84 116.09 14.39 114.11 18.49C113.65 19.45 113.17 20.44 112.71 21.45L112.03 22.92C109.62 28.11 107.34 33.01 105.85 37.13V37.17C106.06 37.12 106.3 37.08 106.54 37.05C106.83 37.02 107.14 37 107.46 37C107.87 37 108.3 37.03 108.77 37.09C112.36 25.33 116.35 13.81 121.25 7.24999C124.24 3.22999 127.45 1.06999 131.08 0.639992C131.47 0.589992 131.87 0.569992 132.26 0.569992C134.85 0.569992 137.46 1.56999 139.42 3.30999C141.41 5.07999 142.55 7.44999 142.55 9.82999C142.55 13.24 140.22 15.9 136.88 16.3C136.62 16.33 136.37 16.35 136.12 16.35C134.67 16.35 133.45 15.87 132.49 14.92C131.01 17.36 128.25 23.13 123.6 36.67C123.51 37.07 123.4 37.48 123.26 37.93C125.75 36.62 128.17 34.14 130.39 30.6C131.15 29.38 132.2 27.68 134.46 27.41C134.65 27.39 134.82 27.38 135 27.38C136.1 27.38 137.16 27.78 137.98 28.51C138.76 29.21 139.7 30.52 139.7 32.79C139.7 34.8 138.73 37.56 137.28 39.67C133.13 45.57 127.43 48.81 119.34 49.88C117.23 56.94 115.34 64.19 113.29 73.17C111.36 81.71 108.96 90.12 102.74 90.85C102.51 90.88 102.28 90.89 102.05 90.89L102.01 90.87ZM102.71 45.91C100.98 51.47 100.54 54.75 100.54 56.64C100.54 56.78 100.54 56.91 100.54 57.03C101.17 56.67 102.27 55.76 103.89 53.45C104.38 51.75 104.89 50.02 105.4 48.26C104.13 47.55 103.27 46.73 102.7 45.91H102.71ZM77.34 45.53C75.2 48.38 74.12 51.75 74.12 55.54C74.12 56.2 74.16 56.68 74.21 57.02C76.18 56.15 78.65 52.7 78.65 49.93C78.65 49.02 78.35 48.27 77.97 47.32C77.75 46.77 77.51 46.17 77.34 45.52V45.53Z" fill="#3D0E1A"/>
<path d="M143.06 60.39C140.31 60.39 137.87 59.51 135.99 57.85C133.24 55.4 131.84 51.52 131.84 46.3C131.84 36.58 137.02 25.09 143.95 24.27C144.22 24.24 144.49 24.22 144.75 24.22C146.29 24.22 147.74 24.76 148.85 25.74C150.22 26.96 150.98 28.76 150.98 30.81C150.98 33.18 149.99 35.52 148.84 38.22C147.6 41.15 146.31 44.17 146.14 47.45C147.09 45.76 148.53 43.6 151.35 43.27C151.58 43.24 151.8 43.23 152.02 43.23C153.33 43.23 154.59 43.7 155.55 44.55C156.76 45.63 157.43 47.2 157.43 48.97C157.43 54.11 151.35 59.5 144.68 60.29C144.13 60.36 143.58 60.39 143.05 60.39H143.06Z" fill="#3D0E1A"/>
<path d="M147.68 25.85C146.01 25.85 144.4 25.23 143.14 24.12C141.59 22.74 140.73 20.78 140.73 18.61C140.73 13.91 145.24 7.42 150.31 6.82C150.56 6.79 150.8 6.78 151.04 6.78C152.47 6.78 153.82 7.29 154.86 8.21C156.12 9.33 156.81 10.92 156.81 12.69C156.81 13.37 156.87 13.57 156.98 13.94C157.12 14.42 157.34 15.16 157.34 16.22C157.34 20.61 153.04 25.27 148.5 25.81C148.23 25.84 147.95 25.86 147.68 25.86V25.85Z" fill="#3D0E1A"/>
<path d="M121.16 114.08C118.97 114.08 116.84 113.42 115.02 112.17C111.92 110.04 109.89 106.37 109.31 101.81C108.25 93.44 111.32 77.68 117.73 58.59C120.54 50.29 122.34 46.67 126.25 45.69C126.8 45.55 127.35 45.48 127.88 45.48C129.07 45.48 130.21 45.83 131.16 46.48C132.61 47.48 133.56 49.13 133.81 51.14C134.18 54.09 132.94 57.82 131.49 62.14C131.15 63.15 130.8 64.19 130.47 65.24L129.98 66.78C128.24 72.23 126.6 77.38 125.63 81.65V81.71C122.7 93.33 122.5 98.98 122.84 101.68C122.86 101.84 122.88 101.99 122.91 102.12C123.84 101.53 125.2 99.87 127.01 95.74C127.01 95.54 127.01 95.34 127.01 95.14C127.01 85.43 132.98 70.67 143.78 69.39C144.22 69.34 144.67 69.31 145.11 69.31C148.18 69.31 150.53 70.57 152.14 71.67C153.93 68.91 156.37 65.25 160.17 64.8C160.41 64.77 160.65 64.76 160.89 64.76C162.35 64.76 163.76 65.3 164.85 66.27C166.18 67.46 166.98 69.25 166.98 71.06C166.98 73.1 165.98 75.49 164.71 78.51C164.08 80.02 163.42 81.58 162.87 83.16C161.64 86.81 161.04 89.96 160.96 91.64C162.16 90.91 163.72 89.06 165.69 86.05C167.36 76.87 171.18 62.02 178.45 61.16C178.68 61.13 178.9 61.12 179.13 61.12C180.48 61.12 181.76 61.61 182.75 62.49C183.6 63.24 184.59 64.6 184.8 66.87C186.74 65.25 189.1 64.02 191.98 63.68C192.46 63.62 192.93 63.6 193.39 63.6C195.75 63.6 197.84 64.35 199.43 65.76C201.37 67.48 202.39 69.98 202.39 73C202.39 76.02 201.28 79.04 200.3 81.69C199.57 83.65 198.83 85.67 198.63 87.43C199.27 86.96 200.15 86.11 201.3 84.56C202.09 73.92 208.46 59.19 218.93 57.95C219.42 57.89 219.92 57.86 220.42 57.86C222.79 57.86 224.89 58.5 226.58 59.37C227.27 57.49 227.93 55.61 228.58 53.78C229.68 50.67 230.72 47.73 231.7 45.28C234.4 38.73 236.64 34.07 241.02 33.55C241.28 33.52 241.54 33.5 241.79 33.5C243.34 33.5 244.83 34.07 245.99 35.09C247.45 36.39 248.26 38.27 248.26 40.38C248.26 42.13 247.75 43.7 246.93 45.67C246.75 46.11 246.54 46.6 246.31 47.14C245.04 50.13 243.13 54.65 240.21 62.43C236.86 71.26 234.94 78.44 234.94 82.13C234.94 83.27 235.08 83.98 235.21 84.39C235.47 84.02 235.8 83.44 236.01 83.05C236.92 81.4 238.3 78.9 241.33 78.55C241.55 78.52 241.77 78.51 242 78.51C243.31 78.51 244.57 78.98 245.54 79.84C246.75 80.92 247.42 82.48 247.42 84.25C247.42 89.44 241.59 94.86 235.2 95.62C234.69 95.68 234.19 95.71 233.7 95.71C229.65 95.71 227.01 93.76 225.29 91.74C223.03 95.81 219.37 101.09 213.53 101.78C213.15 101.83 212.76 101.85 212.38 101.85C210 101.85 207.69 100.95 205.86 99.33C205.05 98.61 204.35 97.77 203.74 96.82C201.7 98.19 199.56 99 197.25 99.27C196.7 99.34 196.14 99.37 195.61 99.37C192.84 99.37 190.39 98.49 188.5 96.82C186.1 94.68 184.82 91.48 184.82 87.56C184.82 86.91 184.86 86.24 184.92 85.58C184.02 87.5 183.18 89.36 182.57 90.73C178.01 100.93 175.64 105.85 171.55 106.33C171.36 106.35 171.17 106.36 170.97 106.36C169.72 106.36 168.52 105.89 167.51 104.99C166.58 104.17 165.86 103.03 165.35 101.63C163.82 102.48 162.22 102.99 160.44 103.2C159.93 103.26 159.42 103.29 158.94 103.29C154.43 103.29 152 100.76 150.63 98.38C148.25 102.44 144.72 107.91 138.78 108.61C138.38 108.66 137.98 108.68 137.59 108.68C135.79 108.68 134.04 108.18 132.52 107.25C129.96 110.79 127.11 112.92 123.87 113.72C122.97 113.94 122.06 114.06 121.16 114.06V114.08ZM146.13 81.2C143.97 82.52 141.13 88.44 140.54 93.63C141.45 92.08 142.67 89.77 144.23 86.38C145.94 82.65 146.12 81.84 146.12 81.2H146.13ZM220.78 70.41C218.92 73.21 216.19 79.93 215.68 86.41C217.17 83.78 219.3 79.32 222.06 71.84C221.52 71.41 221.1 70.9 220.78 70.42V70.41Z" fill="#3D0E1A"/>
<path d="M256 90.31C255.03 89.45 253.78 88.98 252.46 88.98C252.24 88.98 252.01 88.99 251.79 89.02C248.76 89.38 247.39 91.87 246.47 93.52C246.25 93.91 245.93 94.49 245.67 94.86C245.54 94.45 245.4 93.74 245.4 92.6C245.4 88.9 247.32 81.73 250.67 72.9C253.59 65.12 255.5 60.61 256.77 57.61C257 57.07 257.2 56.58 257.39 56.14C258.21 54.17 258.72 52.59 258.72 50.85C258.72 48.74 257.91 46.86 256.45 45.56C255.3 44.53 253.8 43.97 252.25 43.97C252 43.97 251.74 43.99 251.48 44.02C247.1 44.54 244.86 49.2 242.16 55.75C241.17 58.19 240.13 61.13 239.04 64.25C238.39 66.08 237.73 67.96 237.04 69.84C235.35 68.97 233.25 68.33 230.88 68.33C230.38 68.33 229.88 68.36 229.39 68.42C218.92 69.66 212.55 84.39 211.76 95.03C210.61 96.57 209.73 97.43 209.09 97.9C209.28 96.15 210.03 94.13 210.76 92.16C211.74 89.51 212.85 86.51 212.85 83.47C212.85 80.43 211.83 77.95 209.89 76.23C208.3 74.81 206.21 74.07 203.85 74.07C203.39 74.07 202.92 74.1 202.44 74.15C199.56 74.49 197.21 75.73 195.26 77.34C195.05 75.06 194.06 73.71 193.21 72.96C192.22 72.08 190.93 71.59 189.59 71.59C189.37 71.59 189.14 71.6 188.91 71.63C181.65 72.49 177.83 87.34 176.15 96.52C174.17 99.54 172.61 101.38 171.42 102.11C171.49 100.43 172.09 97.28 173.33 93.63C173.89 92.05 174.54 90.49 175.17 88.98C176.44 85.96 177.44 83.57 177.44 81.53C177.44 79.72 176.64 77.93 175.31 76.74C174.22 75.77 172.81 75.23 171.35 75.23C171.11 75.23 170.86 75.24 170.63 75.27C166.83 75.72 164.39 79.38 162.6 82.14C161 81.04 158.64 79.78 155.57 79.78C155.13 79.78 154.68 79.81 154.24 79.86C143.44 81.14 137.47 95.9 137.47 105.61C137.47 105.82 137.47 106.02 137.47 106.21C135.65 110.34 134.3 111.99 133.37 112.59C133.35 112.46 133.32 112.32 133.3 112.15C132.96 109.45 133.16 103.79 136.07 92.18V92.12C137.05 87.85 138.7 82.7 140.43 77.25L140.92 75.71C141.25 74.66 141.6 73.62 141.94 72.61C142.84 69.91 143.67 67.44 144.07 65.24C144.7 66.44 145.49 67.47 146.45 68.32C148.32 69.98 150.77 70.86 153.52 70.86C154.05 70.86 154.6 70.83 155.15 70.76C161.82 69.97 167.9 64.57 167.9 59.44C167.9 57.67 167.23 56.1 166.02 55.02C165.06 54.17 163.81 53.7 162.49 53.7C162.27 53.7 162.05 53.71 161.82 53.74C159 54.07 157.56 56.23 156.61 57.92C156.78 54.65 158.07 51.62 159.31 48.69C160.46 45.98 161.45 43.65 161.45 41.28C161.45 39.23 160.69 37.43 159.32 36.21C163.73 35.47 167.8 30.95 167.8 26.68C167.8 25.61 167.58 24.88 167.44 24.4C167.33 24.03 167.27 23.83 167.27 23.15C167.27 21.37 166.58 19.78 165.32 18.67C164.29 17.75 162.93 17.24 161.5 17.24C161.26 17.24 161.01 17.25 160.77 17.28C155.7 17.88 151.19 24.37 151.19 29.07C151.19 31.24 152.05 33.2 153.6 34.58C153.7 34.66 153.8 34.74 153.9 34.82C151.77 35.24 149.82 36.67 148.15 38.73C147.37 38.14 146.42 37.81 145.43 37.81C145.26 37.81 145.08 37.82 144.89 37.84C142.63 38.11 141.58 39.8 140.82 41.03C138.6 44.57 136.18 47.05 133.69 48.36C133.83 47.92 133.94 47.5 134.03 47.1C138.68 33.55 141.45 27.79 142.92 25.35C143.88 26.3 145.09 26.78 146.55 26.78C146.8 26.78 147.05 26.76 147.31 26.73C150.65 26.34 152.98 23.68 152.98 20.26C152.98 17.88 151.84 15.51 149.85 13.74C147.89 12 145.28 11 142.69 11C142.29 11 141.9 11.02 141.51 11.07C137.89 11.5 134.67 13.66 131.68 17.68C126.79 24.24 122.79 35.76 119.2 47.52C118.74 47.46 118.3 47.43 117.89 47.43C117.57 47.43 117.27 47.45 116.97 47.48C116.73 47.51 116.49 47.55 116.27 47.6V47.56C117.78 43.45 120.06 38.55 122.47 33.35L123.15 31.88C123.61 30.88 124.09 29.89 124.55 28.92C126.52 24.82 128.23 21.28 128.23 18.3C128.23 16.28 127.5 14.52 126.19 13.35C125.12 12.4 123.75 11.9 122.24 11.9C121.97 11.9 121.69 11.92 121.41 11.95C117.41 12.42 115.17 15.79 111.34 23.68C106.32 34.08 102.48 43.65 100.13 51.59C99.62 50.25 98.67 48.37 96.67 47.55C96.97 46.71 97.04 45.95 97.04 45.37C97.04 43.6 96.33 42 95.04 40.85C93.76 39.72 92.02 39.12 89.99 39.12C89.55 39.12 89.1 39.15 88.64 39.2C86.38 39.47 84.21 40.33 82.2 41.63C83.1 39.83 84 38.12 84.87 36.51C87.43 31.82 89.11 28.51 89.11 25.48C89.11 23.3 88.29 21.37 86.8 20.04C85.57 18.95 83.93 18.35 82.18 18.35C81.87 18.35 81.55 18.37 81.24 18.41C77.18 18.89 74.64 21.98 71.18 30.66L71.04 31.01C67.51 39.83 64.96 46.21 60.55 58.7C57.69 66.8 55.9 70.44 54.8 71.97C54.48 70.93 54.12 68.99 54.12 65.58C54.12 58.3 55.81 53.15 57.04 49.38C57.89 46.77 58.56 44.72 58.56 42.64C58.56 40.3 57.68 38.23 56.09 36.81C54.79 35.66 53.07 35.02 51.24 35.02C50.92 35.02 50.59 35.04 50.26 35.08C45.37 35.66 43.4 40.05 40.66 46.13C40.34 46.85 39.99 47.61 39.62 48.43C31.67 66.03 27.34 73.91 25.05 77.43C25.05 77.37 25.05 77.32 25.05 77.26C25.05 65.56 33.08 42.86 39.99 31.14C41.5 28.57 42.17 26.56 42.17 24.6C42.17 22.64 41.35 20.69 39.87 19.37C38.63 18.27 37.02 17.66 35.35 17.66C35.07 17.66 34.8 17.68 34.51 17.71C30.86 18.14 28.85 20.75 27.89 22C20.04 32.22 10.45 58.86 10.45 75.4C10.45 82.36 12.19 87.59 15.49 90.52C17.35 92.18 19.65 93.05 22.12 93.05C22.54 93.05 22.97 93.02 23.39 92.97C28.55 92.36 32.98 88.87 40.89 73.22C41.79 76.97 43.33 79.88 45.52 81.92C47.62 83.89 50.25 84.92 53.13 84.92C53.61 84.92 54.09 84.89 54.58 84.83C61.27 84.04 65.75 78.33 70.01 69.11C70.64 72.24 72.05 74.88 74.16 76.75C76.27 78.62 78.9 79.61 81.79 79.61C82.3 79.61 82.82 79.58 83.34 79.52C89.1 78.84 94.31 74.61 97.72 67.99C98.18 71.49 99.63 74.45 101.92 76.48C103.92 78.26 106.49 79.23 109.16 79.23C109.45 79.23 109.74 79.22 110.03 79.2C109.6 80.78 109.22 82.23 108.88 83.53C107.45 88.84 106.75 92.47 106.75 94.63C106.75 96.79 107.5 98.72 108.86 99.93C109.86 100.82 111.1 101.29 112.45 101.29C112.68 101.29 112.91 101.28 113.14 101.25C118.32 100.64 120.85 94.71 122.66 87.81C120.1 98.31 119.06 106.82 119.75 112.23C120.33 116.78 122.35 120.46 125.46 122.59C127.28 123.84 129.41 124.5 131.6 124.5C132.51 124.5 133.42 124.39 134.31 124.16C137.55 123.35 140.4 121.23 142.96 117.69C144.47 118.62 146.22 119.12 148.03 119.12C148.42 119.12 148.83 119.1 149.22 119.05C155.16 118.35 158.69 112.87 161.07 108.82C162.45 111.19 164.87 113.73 169.38 113.73C169.86 113.73 170.37 113.7 170.88 113.64C172.66 113.43 174.27 112.92 175.79 112.07C176.29 113.47 177.02 114.61 177.95 115.43C178.96 116.33 180.15 116.8 181.41 116.8C181.6 116.8 181.8 116.79 181.99 116.77C185.7 116.33 188 112.22 191.79 103.86L199.47 107.69C200.47 108.45 201.6 109.02 202.84 109.37H202.87C203.87 109.66 204.92 109.81 206.04 109.81C206.57 109.81 207.13 109.78 207.68 109.71C209.99 109.44 212.13 108.63 214.17 107.26C214.77 108.22 215.48 109.06 216.29 109.77C218.12 111.39 220.43 112.29 222.81 112.29C223.19 112.29 223.58 112.27 223.96 112.22C229.8 111.53 233.46 106.24 235.72 102.18C237.44 104.2 240.08 106.15 244.13 106.15C244.62 106.15 245.12 106.12 245.63 106.06C252.03 105.3 257.85 99.89 257.85 94.69C257.85 92.92 257.18 91.36 255.97 90.28L256 90.31ZM84.67 67.48C84.62 67.14 84.58 66.65 84.58 66C84.58 62.21 85.67 58.84 87.8 55.99C87.98 56.64 88.21 57.23 88.43 57.79C88.81 58.74 89.11 59.49 89.11 60.4C89.11 63.17 86.64 66.62 84.67 67.49V67.48ZM114.36 63.9C112.74 66.21 111.64 67.12 111.01 67.48C111.01 67.36 111.01 67.23 111.01 67.09C111.01 65.2 111.45 61.93 113.18 56.36C113.75 57.17 114.61 57.99 115.88 58.71C115.36 60.47 114.86 62.2 114.37 63.9H114.36ZM142.34 55.63C142.32 56.01 142.31 56.38 142.31 56.76C142.31 57.02 142.31 57.27 142.32 57.53C142.1 57.32 141.87 57.12 141.61 56.95C141.4 56.81 141.18 56.68 140.95 56.56C141.42 56.27 141.88 55.96 142.33 55.64L142.34 55.63ZM128.19 69.04C126.22 74.92 124.56 80.48 123.25 85.6C123.41 84.93 123.56 84.26 123.72 83.59C125.77 74.6 127.65 67.35 129.77 60.3C130.54 60.2 131.27 60.07 132 59.93C130.73 61.99 129.59 64.94 128.21 69.04H128.19ZM154.7 96.82C153.13 100.22 151.92 102.52 151.01 104.07C151.59 98.88 154.44 92.96 156.6 91.64C156.6 92.28 156.42 93.09 154.71 96.82H154.7ZM226.14 96.85C226.65 90.38 229.38 83.66 231.24 80.85C231.56 81.33 231.98 81.84 232.52 82.27C229.76 89.75 227.63 94.21 226.14 96.84V96.85Z" fill="#3D0E1A"/>
<path d="M77.96 50.57L99.12 48.49L114.99 2.37L124.56 9.51L139.39 3.29L151.2 11.02L154.87 8.21L165.88 19.23L155.57 44.56L166.89 56L164.01 65.99L175.54 74.61L197.31 64.4L208.55 70.87L225.57 63.93L244.35 34.05L256.48 45.57L245.57 79.85L256.48 90.87L244.84 100.33C244.84 100.33 232.22 100.09 231.74 100.33C231.26 100.57 217.42 105.18 216.94 105.31C216.46 105.44 194.25 96.87 194.25 96.87L167.95 109.07L159.54 105.07L127.03 118.17L127.47 123.7L114.01 111.36L109.68 99.34L107.43 97.88L97.84 88.87L103.02 67.5C103.02 67.5 96.09 61.89 95.72 61.94C95.35 61.99 82.37 76.55 82.37 76.55L74.15 72.91L78 50.58L77.96 50.57Z" fill="#3D0E1A"/>
<path d="M76.35 9.6L86.81 20.06L56.21 77.07C56.21 77.07 49.54 77.38 49.13 76.55C48.72 75.72 38.61 67.49 38.61 67.49L22.88 81.19L15.52 90.54L6.06 80.86C6.06 80.86 22.03 11.96 23.39 11.75C24.75 11.54 30.01 9.5 30.01 9.5L39.89 19.38L40.38 32.49L46.08 26.78L54.62 35.82L67.36 18.84L76.35 9.6Z" fill="#3D0E1A"/>
<path d="M75.93 15.04C75.93 13.65 75.43 12.44 74.53 11.64C73.65 10.86 72.43 10.52 71.1 10.67C68.68 10.96 66.62 12.78 63.25 21.23L63.12 21.56C59.6 30.36 57.06 36.71 52.67 49.15C50.89 54.19 47.19 64.67 44.15 65.03C43.73 65.08 43.36 64.95 43.01 64.64C42.24 63.96 40.95 61.81 40.95 55.13C40.95 47.42 42.71 42.02 44 38.08C44.78 35.7 45.39 33.83 45.39 32.19C45.39 30.64 44.84 29.29 43.84 28.4C42.88 27.55 41.57 27.18 40.14 27.34C36.79 27.74 35.25 31.15 32.71 36.79C32.38 37.52 32.04 38.29 31.67 39.1C21.85 60.83 15.67 71.99 13.29 72.27C13.21 72.27 13.11 72.27 12.97 72.14C12.71 71.91 11.88 70.86 11.88 66.8C11.88 54.48 19.97 31.56 27.2 19.3C28.45 17.18 29 15.59 29 14.14C29 12.88 28.51 11.74 27.61 10.95C26.73 10.17 25.59 9.81999 24.38 9.95999C22.06 10.23 20.7 11.78 19.6 13.21C12.16 22.89 2.73 49.2 2.73 64.96C2.73 71.12 4.16 75.64 6.86 78.04C8.23 79.25 9.88 79.88 11.68 79.88C11.99 79.88 12.31 79.86 12.63 79.82C17.53 79.24 22.14 74.71 32.27 52.68C32.09 60.66 33.69 66.45 36.94 69.49C38.81 71.24 41.19 72 43.81 71.69C50.62 70.88 54.98 63.25 59.8 51.18C63.72 41.4 68.06 32.01 72.02 24.76C74.38 20.44 75.93 17.42 75.93 15.04Z" fill="#EC408B"/>
<path d="M118.45 47.2C126.09 46.29 129.5 43.49 133.3 38.09C134.57 36.24 135.24 34.01 135.24 32.76C135.24 31.76 134.96 30.98 134.44 30.51C134.06 30.17 133.57 30.02 133.06 30.08C132.11 30.19 131.63 30.96 130.98 32.01C127.36 37.77 124.8 41.09 120.37 41.62C119.58 41.71 119.19 41.69 119 41.67C119 41.64 119.02 41.61 119.03 41.58C119.26 40.88 119.49 40.2 119.71 39.52L119.74 39.44C120.36 37.98 120.74 36.84 120.93 35.91C126.59 19.38 130.63 10.87 132.93 10.6C133 10.6 133.03 10.6 133.03 10.6C133.14 10.65 133.31 11.11 133.41 11.35C133.75 12.21 134.38 13.81 136.52 13.55C138.5 13.32 139.78 11.84 139.78 9.78999C139.78 8.18999 138.97 6.55999 137.57 5.30999C135.87 3.79999 133.55 3.04999 131.36 3.30999C128.52 3.64999 125.92 5.45999 123.4 8.83999C118.5 15.4 114.45 27.52 110.8 39.65C110.7 39.98 110.62 40.14 110.57 40.2H110.53C108.95 39.77 107.74 39.61 106.84 39.72C105.29 39.9 104.32 40.95 104.32 42.44C104.32 43.51 104.89 45.47 108.71 46.69C108.71 46.71 108.7 46.74 108.69 46.77C107.9 49.44 107.13 52.07 106.4 54.61C104.06 58.03 102.08 59.74 100.29 59.95C99.52 60.04 98.97 59.93 98.61 59.61C98.09 59.15 97.82 58.14 97.82 56.61C97.82 52.31 99.65 45.43 103.27 36.15C104.81 31.93 107.11 26.97 109.54 21.73L110.22 20.27C110.69 19.25 111.17 18.25 111.64 17.28C113.47 13.48 115.05 10.2 115.05 7.84999C115.05 6.59999 114.66 5.58999 113.92 4.93999C113.24 4.33999 112.33 4.07999 111.28 4.20999C108.83 4.49999 107.05 6.78999 103.34 14.41C97.66 26.17 93.53 36.87 91.42 45.04C90.96 45.25 90.54 45.35 90.14 45.4C88.41 45.61 88.01 44.65 87.38 42.81C86.85 41.25 86.13 39.11 83.48 39.42C81.38 39.67 79.8 41.44 79.8 43.54C79.8 44.49 80.15 45.36 80.51 46.29C80.94 47.36 81.38 48.48 81.38 49.91C81.38 54.25 77.44 59.48 73.86 59.9C73 60 72.61 59.75 72.39 59.56C71.94 59.16 71.39 58.13 71.39 55.51C71.39 50.84 72.82 46.71 75.64 43.24C77.51 40.96 79.09 40.03 80.75 39.06L81.11 38.85C83.38 37.59 83.86 36.01 83.86 34.9C83.86 33.91 83.49 33.05 82.78 32.42C81.81 31.56 80.33 31.22 78.51 31.44C69.58 32.5 61.93 45.2 61.93 54.85C61.93 58.85 63.21 62.19 65.53 64.25C67.14 65.68 69.13 66.42 71.34 66.42C71.74 66.42 72.15 66.4 72.57 66.35C78.16 65.69 83.23 60.85 86.12 53.44C86.95 51.48 87.32 50.97 88.53 50.82C89.11 50.75 89.68 50.64 90.25 50.5C89.98 52.19 89.84 53.72 89.84 55.03C89.84 58.83 91.06 62.01 93.29 63.98C94.81 65.33 96.71 66.05 98.72 66.05C99.06 66.05 99.4 66.03 99.74 65.99C101.02 65.84 102.28 65.42 103.53 64.71C102.58 68.13 101.74 71.21 101.07 73.79C99.72 78.79 99.03 82.29 99.03 84.18C99.03 85.6 99.46 86.75 100.23 87.44C100.73 87.88 101.34 88.11 102.01 88.11C102.13 88.11 102.25 88.11 102.38 88.09C106.38 87.62 108.56 81.52 110.59 72.51C112.76 63 114.74 55.42 117.02 47.92C117.147 47.52 117.623 47.2733 118.45 47.18V47.2Z" fill="#EC408B"/>
<path d="M137.81 55.81C139.19 57.03 140.98 57.66 143.06 57.66C143.48 57.66 143.92 57.63 144.37 57.58C150.1 56.9 154.71 52.31 154.71 48.97C154.71 47.99 154.37 47.14 153.74 46.59C153.19 46.1 152.46 45.89 151.68 45.98C149.95 46.19 149.08 47.77 148.24 49.3C147.46 50.72 146.73 52.06 145.44 52.21C144.81 52.29 144.5 52.08 144.32 51.93C143.9 51.55 143.39 50.6 143.39 48.2C143.39 44.08 144.95 40.41 146.33 37.16C147.36 34.73 148.25 32.63 148.25 30.81C148.25 29.55 147.82 28.48 147.04 27.78C146.31 27.13 145.33 26.85 144.27 26.97C139.37 27.55 134.56 37.12 134.56 46.29C134.56 50.7 135.65 53.89 137.79 55.8L137.81 55.81Z" fill="#EC408B"/>
<path d="M144.95 22.08C145.72 22.76 146.67 23.12 147.68 23.12C147.85 23.12 148.01 23.12 148.18 23.09C151.37 22.71 154.61 19.24 154.61 16.21C154.61 15.54 154.48 15.11 154.36 14.7C154.22 14.23 154.08 13.75 154.08 12.68C154.08 11.7 153.71 10.83 153.05 10.24C152.41 9.66999 151.55 9.41999 150.63 9.52999C147.07 9.94999 143.46 15.17 143.46 18.61C143.46 19.99 143.99 21.23 144.95 22.08Z" fill="#EC408B"/>
<path d="M241.66 81.26C240.02 81.45 239.2 82.94 238.41 84.37C237.6 85.83 236.84 87.22 235.32 87.4C234.64 87.48 234.07 87.31 233.6 86.9C232.71 86.11 232.22 84.42 232.22 82.14C232.22 78.07 234.15 70.73 237.66 61.48C240.6 53.64 242.53 49.1 243.8 46.09C244.03 45.55 244.23 45.07 244.41 44.64C245.23 42.68 245.53 41.53 245.53 40.39C245.53 39.07 245.05 37.92 244.17 37.14C243.39 36.45 242.39 36.14 241.33 36.26C238.67 36.57 236.92 39.75 234.22 46.3C233.26 48.68 232.23 51.6 231.14 54.68C230.17 57.43 229.17 60.27 228.08 63.11C227.98 63.38 227.9 63.55 227.84 63.65C227.82 63.63 227.79 63.6 227.76 63.58C226.2 61.87 222.86 60.23 219.24 60.65C210.28 61.71 204.43 75.63 203.96 85.51C201.6 88.85 199.62 90.46 197.78 90.68C197.14 90.76 196.69 90.68 196.42 90.43C196.04 90.09 195.84 89.34 195.84 88.24C195.84 85.82 196.8 83.24 197.72 80.74C198.67 78.19 199.64 75.54 199.64 72.99C199.64 70.78 198.93 68.98 197.6 67.79C196.28 66.61 194.44 66.13 192.28 66.38C186.29 67.09 182.9 72.82 180.65 76.61C180 77.71 179.21 79.04 178.74 79.49C178.72 79.37 178.71 79.19 178.71 78.95C178.71 78.95 179.19 76.76 179.87 74.9C179.88 74.87 180.14 74.18 180.29 73.85C181.18 71.89 182.09 69.87 182.09 67.76C182.09 65.94 181.45 64.99 180.91 64.51C180.32 63.99 179.56 63.76 178.74 63.85C173.85 64.43 169.99 77.23 168.25 87.05C164.49 92.89 162.36 94.44 160.35 94.68C159.71 94.76 159.24 94.65 158.91 94.35C158.45 93.94 158.2 93.11 158.2 91.94C158.2 89.75 159.01 85.94 160.27 82.23C160.85 80.57 161.52 78.97 162.17 77.42C163.32 74.68 164.23 72.52 164.23 71.03C164.23 69.99 163.78 68.96 163.02 68.28C162.32 67.66 161.41 67.37 160.47 67.49C157.87 67.8 155.89 70.84 154.31 73.29C153.79 74.09 153.09 75.17 152.74 75.46C152.51 75.35 152.06 75.01 151.69 74.73C150.19 73.58 147.67 71.65 144.08 72.08C135.18 73.13 129.72 86.21 129.72 95.12C129.72 95.51 129.73 95.87 129.75 96.23C127.08 102.48 125.01 104.5 122.99 105C122.24 105.19 121.68 105.15 121.28 104.88C120.7 104.48 120.31 103.52 120.12 102.01C119.58 97.75 120.53 90.69 122.95 81.03C123.95 76.65 125.6 71.45 127.36 65.94L127.85 64.4C128.19 63.33 128.54 62.28 128.88 61.25C130.22 57.25 131.37 53.79 131.08 51.46C130.92 50.22 130.41 49.27 129.6 48.71C128.85 48.2 127.91 48.06 126.89 48.31C124.49 48.91 123.01 51.4 120.3 59.43C114.11 77.87 111.01 93.58 112 101.44C112.48 105.21 114.09 108.21 116.54 109.89C117.92 110.84 119.51 111.32 121.14 111.32C121.82 111.32 122.51 111.24 123.2 111.06C126.43 110.26 129.28 107.72 131.94 103.08C132.28 103.52 132.63 103.89 132.96 104.19C134.25 105.33 135.86 105.94 137.58 105.94C137.87 105.94 138.16 105.92 138.45 105.89C143.44 105.3 146.5 100.04 148.73 96.19C149.51 94.85 150.56 93.04 151.07 92.78C151.28 93.02 151.58 93.8 151.8 94.38C152.76 96.91 154.38 101.14 160.12 100.47C162.49 100.19 164.67 99.29 167.25 96.68C167.34 99.57 168.09 101.83 169.32 102.93C169.82 103.38 170.39 103.61 170.96 103.61C171.04 103.61 171.13 103.61 171.21 103.6C173.81 103.29 176.26 98.08 180.06 89.59C183 83.01 186.66 74.81 189.19 74.51C189.26 74.51 189.3 74.51 189.32 74.5C189.35 74.56 189.44 74.77 189.44 75.36C189.44 76.5 189.06 78.21 188.66 80.02C188.13 82.4 187.54 85.1 187.54 87.53C187.54 90.65 188.49 93.15 190.3 94.75C191.97 96.23 194.25 96.85 196.91 96.54C199.68 96.21 202.21 94.93 204.72 92.44C205.35 94.45 206.34 96.1 207.65 97.27C209 98.47 210.64 99.1 212.36 99.1C212.63 99.1 212.91 99.08 213.19 99.05C218.77 98.39 222.07 92.01 224.05 88.2C224.39 87.54 224.77 86.81 225.05 86.36C225.16 86.55 225.28 86.76 225.39 86.96C226.57 89.11 229.03 93.58 234.86 92.89C240.3 92.25 244.67 87.63 244.67 84.23C244.67 83.25 244.33 82.41 243.71 81.86C243.15 81.37 242.42 81.14 241.64 81.24L241.66 81.26ZM221.24 66.51C221.24 66.51 221.33 66.51 221.37 66.51C221.77 66.51 221.98 66.78 222.46 67.8C222.94 68.82 223.65 70.33 225.54 70.23C219.79 86.4 215.71 92.38 213.96 92.58C213.85 92.59 213.77 92.57 213.67 92.49C213.48 92.32 212.86 91.53 212.86 88.46C212.86 79.22 218.05 66.9 221.23 66.52L221.24 66.51ZM148.86 81.14C148.86 82.39 148.54 83.54 146.72 87.51C142.32 97.05 140.16 99.2 139.12 99.33C139.07 99.33 138.92 99.35 138.7 99.16C138.22 98.74 137.71 97.54 137.71 95.45C137.71 89.21 141.73 78.79 146.5 78.22C146.62 78.21 146.74 78.2 146.86 78.2C147.35 78.2 147.76 78.34 148.06 78.61C148.59 79.08 148.86 79.96 148.86 81.15V81.14Z" fill="#EC408B"/>
<path d="M12.43 31.83C12.37 31.83 12.31 31.82 12.25 31.8C11.97 31.7 11.82 31.39 11.92 31.1L13.22 27.43C13.32 27.15 13.63 27 13.92 27.1C14.2 27.2 14.35 27.51 14.25 27.8L12.95 31.47C12.87 31.69 12.66 31.83 12.44 31.83H12.43Z" fill="#3D0E1A"/>
<path d="M35.72 63.65C35.47 63.65 35.24 63.47 35.19 63.21L34.42 59.4C34.36 59.1 34.55 58.82 34.85 58.76C35.14 58.7 35.43 58.89 35.49 59.19L36.26 63C36.32 63.3 36.13 63.58 35.83 63.64C35.79 63.64 35.76 63.65 35.72 63.65Z" fill="#3D0E1A"/>
<path d="M98.97 34.06C98.9 34.06 98.83 34.05 98.77 34.02C98.49 33.91 98.35 33.59 98.47 33.31L99.92 29.7C100.03 29.42 100.35 29.28 100.63 29.4C100.91 29.51 101.05 29.83 100.93 30.11L99.48 33.72C99.39 33.93 99.19 34.06 98.97 34.06Z" fill="#3D0E1A"/>
<path d="M95.99 36.06C95.92 36.06 95.85 36.05 95.79 36.02C95.51 35.91 95.37 35.59 95.49 35.31L96.94 31.7C97.05 31.42 97.37 31.28 97.65 31.4C97.93 31.51 98.07 31.83 97.95 32.11L96.5 35.72C96.41 35.93 96.21 36.06 95.99 36.06Z" fill="#3D0E1A"/>
<path d="M98.58 29.55C98.51 29.55 98.44 29.54 98.38 29.51C98.1 29.4 97.96 29.08 98.08 28.8L99.53 25.19C99.64 24.91 99.96 24.77 100.24 24.89C100.52 25.01 100.66 25.32 100.54 25.6L99.09 29.21C99 29.42 98.8 29.55 98.58 29.55Z" fill="#3D0E1A"/>
<path d="M105.37 74.34C105.32 74.34 105.27 74.34 105.22 74.32C104.93 74.24 104.77 73.93 104.85 73.64L105.95 69.91C106.03 69.62 106.34 69.46 106.63 69.54C106.92 69.62 107.08 69.93 107 70.22L105.9 73.95C105.83 74.19 105.61 74.34 105.38 74.34H105.37Z" fill="#3D0E1A"/>
<path d="M112.89 39.9C112.84 39.9 112.79 39.9 112.74 39.88C112.45 39.8 112.29 39.49 112.37 39.2L113.47 35.47C113.56 35.18 113.86 35.02 114.15 35.1C114.44 35.18 114.6 35.49 114.52 35.78L113.42 39.51C113.35 39.75 113.13 39.9 112.9 39.9H112.89Z" fill="#3D0E1A"/>
<path d="M113.27 55.19C113.22 55.19 113.17 55.19 113.12 55.17C112.83 55.09 112.67 54.78 112.75 54.49L113.85 50.76C113.94 50.47 114.24 50.31 114.53 50.39C114.82 50.47 114.98 50.78 114.9 51.07L113.8 54.8C113.73 55.04 113.51 55.19 113.28 55.19H113.27Z" fill="#3D0E1A"/>
<path d="M120.48 24.51C120.42 24.51 120.35 24.5 120.29 24.47C120.01 24.36 119.87 24.05 119.97 23.77L121.34 20.13C121.45 19.85 121.76 19.71 122.04 19.81C122.32 19.92 122.46 20.23 122.36 20.51L120.99 24.15C120.91 24.37 120.7 24.5 120.48 24.5V24.51Z" fill="#3D0E1A"/>
<path d="M117.06 27.49C117 27.49 116.93 27.48 116.87 27.45C116.59 27.34 116.45 27.03 116.55 26.75L117.92 23.11C118.03 22.83 118.34 22.69 118.62 22.79C118.9 22.9 119.04 23.21 118.94 23.49L117.57 27.13C117.49 27.35 117.28 27.48 117.06 27.48V27.49Z" fill="#3D0E1A"/>
<path d="M137.5 50.21C137.26 50.21 137.05 50.06 136.98 49.82C136.45 48 136.65 45.83 136.66 45.73C136.69 45.43 136.96 45.21 137.26 45.24C137.56 45.27 137.78 45.54 137.75 45.84C137.75 45.86 137.56 47.9 138.03 49.51C138.11 49.8 137.95 50.1 137.66 50.19C137.61 50.2 137.56 50.21 137.51 50.21H137.5Z" fill="#3D0E1A"/>
<path d="M140.55 55.72C140.42 55.72 140.29 55.67 140.18 55.58C138.78 54.29 137.84 52.33 137.8 52.25C137.67 51.98 137.79 51.65 138.06 51.52C138.33 51.39 138.66 51.51 138.79 51.78C138.79 51.8 139.69 53.64 140.93 54.78C141.15 54.98 141.17 55.33 140.96 55.55C140.85 55.67 140.71 55.73 140.56 55.73L140.55 55.72Z" fill="#3D0E1A"/>
<path d="M140.98 52.01C140.81 52.01 140.63 51.93 140.53 51.77C139.46 50.2 138.99 48.07 138.97 47.98C138.91 47.69 139.09 47.4 139.39 47.33C139.68 47.27 139.98 47.45 140.04 47.75C140.04 47.77 140.49 49.77 141.44 51.16C141.61 51.41 141.55 51.75 141.3 51.92C141.21 51.98 141.1 52.01 140.99 52.01H140.98Z" fill="#3D0E1A"/>
<path d="M102.59 76.62C102.54 76.62 102.49 76.62 102.44 76.6C102.15 76.52 101.99 76.21 102.07 75.92L103.17 72.19C103.25 71.9 103.56 71.74 103.85 71.82C104.14 71.9 104.3 72.21 104.22 72.5L103.12 76.23C103.05 76.47 102.83 76.62 102.6 76.62H102.59Z" fill="#3D0E1A"/>
<path d="M104.55 69.89C104.5 69.89 104.45 69.89 104.4 69.87C104.11 69.79 103.95 69.48 104.03 69.19L105.13 65.46C105.21 65.17 105.52 65.01 105.81 65.09C106.1 65.17 106.26 65.48 106.18 65.77L105.08 69.5C105.01 69.74 104.79 69.89 104.56 69.89H104.55Z" fill="#3D0E1A"/>
<path d="M114.05 90.6C114.05 90.6 113.99 90.6 113.96 90.6C113.66 90.55 113.46 90.27 113.51 89.97L114.14 86.13C114.19 85.83 114.47 85.63 114.77 85.68C115.07 85.73 115.27 86.01 115.22 86.31L114.59 90.15C114.55 90.42 114.31 90.61 114.05 90.61V90.6Z" fill="#3D0E1A"/>
<path d="M131.85 93.33C131.85 93.33 131.79 93.33 131.76 93.33C131.46 93.28 131.26 93 131.31 92.7L131.94 88.86C131.99 88.56 132.27 88.36 132.57 88.41C132.87 88.46 133.07 88.74 133.02 89.04L132.39 92.88C132.35 93.15 132.11 93.34 131.85 93.34V93.33Z" fill="#3D0E1A"/>
<path d="M116.67 87.95C116.67 87.95 116.61 87.95 116.58 87.95C116.28 87.9 116.08 87.62 116.13 87.32L116.76 83.48C116.81 83.18 117.09 82.98 117.39 83.03C117.69 83.08 117.89 83.36 117.84 83.66L117.21 87.5C117.17 87.77 116.93 87.96 116.67 87.96V87.95Z" fill="#3D0E1A"/>
<path d="M115.56 94.92C115.56 94.92 115.5 94.92 115.47 94.92C115.17 94.87 114.97 94.59 115.02 94.29L115.65 90.45C115.7 90.15 115.98 89.95 116.28 90C116.58 90.05 116.78 90.33 116.73 90.63L116.1 94.47C116.06 94.74 115.82 94.93 115.56 94.93V94.92Z" fill="#3D0E1A"/>
<path d="M125.1 67.62C125.05 67.62 124.99 67.62 124.94 67.6C124.65 67.51 124.49 67.21 124.58 66.92L125.71 63.2C125.8 62.91 126.1 62.75 126.39 62.84C126.68 62.93 126.84 63.23 126.75 63.52L125.62 67.24C125.55 67.48 125.33 67.63 125.1 67.63V67.62Z" fill="#3D0E1A"/>
<path d="M134.16 90.6C134.16 90.6 134.1 90.6 134.07 90.6C133.77 90.55 133.57 90.27 133.62 89.97L134.28 86.13C134.33 85.83 134.61 85.63 134.91 85.68C135.21 85.73 135.41 86.01 135.36 86.31L134.7 90.15C134.65 90.42 134.42 90.6 134.16 90.6Z" fill="#3D0E1A"/>
<path d="M158.01 83.61C158.01 83.61 157.91 83.61 157.86 83.59C157.57 83.51 157.4 83.2 157.49 82.92L158.56 79.18C158.64 78.89 158.95 78.72 159.23 78.81C159.52 78.89 159.69 79.2 159.6 79.48L158.53 83.22C158.46 83.46 158.24 83.62 158.01 83.62V83.61Z" fill="#3D0E1A"/>
<path d="M155.11 86.35C155.11 86.35 155.01 86.35 154.96 86.33C154.67 86.25 154.5 85.94 154.59 85.66L155.66 81.92C155.74 81.63 156.05 81.46 156.33 81.55C156.62 81.63 156.79 81.94 156.7 82.22L155.63 85.96C155.56 86.2 155.34 86.36 155.11 86.36V86.35Z" fill="#3D0E1A"/>
<path d="M172.57 100.94C172.47 100.94 172.38 100.91 172.29 100.86C172.03 100.7 171.95 100.37 172.1 100.11L174.1 96.77C174.25 96.51 174.59 96.43 174.85 96.58C175.11 96.73 175.19 97.07 175.04 97.33L173.04 100.67C172.94 100.84 172.76 100.93 172.57 100.93V100.94Z" fill="#3D0E1A"/>
<path d="M175.94 94.85C175.85 94.85 175.77 94.83 175.69 94.79C175.42 94.65 175.32 94.32 175.46 94.05L177.26 90.6C177.4 90.33 177.73 90.23 178 90.37C178.27 90.51 178.37 90.84 178.23 91.11L176.43 94.56C176.33 94.75 176.14 94.85 175.95 94.85H175.94Z" fill="#3D0E1A"/>
<path d="M172.67 96.29C172.58 96.29 172.5 96.27 172.42 96.23C172.15 96.09 172.05 95.76 172.19 95.49L173.99 92.04C174.13 91.77 174.46 91.67 174.73 91.81C175 91.95 175.1 92.28 174.96 92.55L173.16 96C173.06 96.19 172.87 96.29 172.68 96.29H172.67Z" fill="#3D0E1A"/>
<path d="M156.7 90.18C156.7 90.18 156.64 90.18 156.6 90.18C156.3 90.13 156.11 89.84 156.16 89.55L156.84 85.72C156.89 85.42 157.18 85.22 157.47 85.28C157.77 85.33 157.96 85.62 157.91 85.91L157.23 89.74C157.18 90 156.95 90.19 156.69 90.19L156.7 90.18Z" fill="#3D0E1A"/>
<path d="M241.41 45.92C241.33 45.92 241.25 45.9 241.17 45.86C240.9 45.73 240.79 45.4 240.92 45.13L242.65 41.65C242.78 41.38 243.11 41.27 243.38 41.4C243.65 41.53 243.76 41.86 243.63 42.13L241.9 45.61C241.8 45.8 241.61 45.91 241.41 45.91V45.92Z" fill="#3D0E1A"/>
<path d="M238.06 48.09C237.98 48.09 237.9 48.07 237.82 48.03C237.55 47.9 237.44 47.57 237.57 47.3L239.3 43.82C239.43 43.55 239.76 43.44 240.03 43.57C240.3 43.7 240.41 44.03 240.28 44.3L238.55 47.78C238.45 47.97 238.26 48.08 238.06 48.08V48.09Z" fill="#3D0E1A"/>
<path d="M238.93 52.15C238.87 52.15 238.8 52.14 238.74 52.12C238.46 52.01 238.31 51.7 238.42 51.42L239.78 47.78C239.89 47.5 240.2 47.36 240.48 47.46C240.76 47.57 240.91 47.88 240.8 48.16L239.44 51.8C239.36 52.02 239.15 52.15 238.93 52.15Z" fill="#3D0E1A"/>
<path d="M39.22 66.29C38.97 66.29 38.74 66.11 38.69 65.85L37.92 62.04C37.86 61.74 38.05 61.46 38.35 61.4C38.64 61.34 38.93 61.53 38.99 61.83L39.76 65.64C39.82 65.94 39.63 66.22 39.33 66.28C39.29 66.28 39.26 66.29 39.22 66.29Z" fill="#3D0E1A"/>
<path d="M37.54 41.44C37.48 41.44 37.42 41.43 37.36 41.41C37.08 41.31 36.93 41 37.03 40.71L38.33 37.04C38.43 36.76 38.74 36.61 39.03 36.71C39.31 36.81 39.46 37.12 39.36 37.41L38.06 41.08C37.98 41.3 37.77 41.44 37.55 41.44H37.54Z" fill="#3D0E1A"/>
<path d="M83.02 49.24C82.77 49.24 82.55 49.07 82.49 48.82L81.59 45.03C81.52 44.74 81.7 44.44 81.99 44.37C82.28 44.3 82.58 44.48 82.65 44.77L83.55 48.56C83.62 48.85 83.44 49.15 83.15 49.22C83.11 49.23 83.07 49.23 83.02 49.23V49.24Z" fill="#3D0E1A"/>
<path d="M33.13 43.23C33.06 43.23 32.98 43.22 32.91 43.18C32.63 43.06 32.51 42.74 32.63 42.46L34.18 38.89C34.3 38.61 34.62 38.49 34.9 38.61C35.18 38.73 35.3 39.05 35.18 39.33L33.63 42.9C33.54 43.11 33.34 43.23 33.13 43.23Z" fill="#3D0E1A"/>
<path d="M66.02 20.92C65.95 20.92 65.89 20.91 65.82 20.88C65.54 20.77 65.4 20.45 65.51 20.17C65.57 20.01 67.04 16.3 68.58 14.7C68.79 14.48 69.13 14.48 69.35 14.68C69.57 14.89 69.57 15.23 69.37 15.45C67.98 16.89 66.54 20.53 66.53 20.56C66.45 20.77 66.24 20.91 66.02 20.91V20.92Z" fill="#3D0E1A"/>
<path d="M14.08 35.89C14.02 35.89 13.96 35.88 13.9 35.86C13.62 35.76 13.47 35.45 13.57 35.16L14.87 31.49C14.97 31.21 15.28 31.06 15.57 31.16C15.85 31.26 16 31.57 15.9 31.86L14.6 35.53C14.52 35.75 14.31 35.89 14.09 35.89H14.08Z" fill="#3D0E1A"/>
<path d="M18.11 71.39C18.02 71.39 17.92 71.37 17.83 71.31C17.57 71.16 17.48 70.82 17.64 70.56L19.62 67.21C19.77 66.95 20.11 66.86 20.37 67.02C20.63 67.17 20.72 67.51 20.56 67.77L18.58 71.12C18.48 71.29 18.3 71.39 18.11 71.39Z" fill="#3D0E1A"/>
<path d="M7.47001 48.28C7.47001 48.28 7.38001 48.28 7.33001 48.26C7.04001 48.19 6.86001 47.89 6.94001 47.6L7.66001 44.77C7.73001 44.48 8.03001 44.3 8.32001 44.38C8.61001 44.45 8.79001 44.75 8.71001 45.04L7.99001 47.87C7.93001 48.12 7.71001 48.28 7.46001 48.28H7.47001Z" fill="#3D0E1A"/>
<path d="M36.33 35.81C36.25 35.81 36.18 35.79 36.1 35.76C35.83 35.64 35.7 35.31 35.83 35.04L37.04 32.38C37.16 32.11 37.49 31.98 37.76 32.11C38.03 32.23 38.16 32.56 38.03 32.83L36.82 35.49C36.73 35.69 36.53 35.81 36.32 35.81H36.33Z" fill="#3D0E1A"/>
<path d="M9.26001 51.55C9.26001 51.55 9.20001 51.55 9.17001 51.55C8.87001 51.5 8.67 51.22 8.73 50.92L9.23 48.05C9.28 47.75 9.56 47.55 9.86 47.61C10.16 47.66 10.36 47.94 10.3 48.24L9.80001 51.11C9.75001 51.37 9.52001 51.56 9.26001 51.56V51.55Z" fill="#3D0E1A"/>
<path d="M67.5 23.81C67.43 23.81 67.36 23.8 67.29 23.77C67.01 23.65 66.88 23.34 66.99 23.06L68.47 19.49C68.59 19.21 68.9 19.08 69.18 19.19C69.46 19.31 69.59 19.62 69.48 19.9L68 23.47C67.91 23.68 67.71 23.81 67.5 23.81Z" fill="#3D0E1A"/>
<path d="M63.8 26.67C63.73 26.67 63.67 26.66 63.6 26.63C63.32 26.52 63.18 26.2 63.29 25.92L64.41 23.05C64.52 22.77 64.84 22.63 65.12 22.74C65.4 22.85 65.54 23.17 65.43 23.45L64.31 26.32C64.23 26.54 64.02 26.67 63.8 26.67Z" fill="#3D0E1A"/>
<path d="M60.09 45.45C60.03 45.45 59.97 45.44 59.91 45.42C59.63 45.32 59.48 45.01 59.58 44.72L61.42 39.58C61.52 39.3 61.84 39.15 62.12 39.25C62.4 39.35 62.55 39.66 62.45 39.95L60.61 45.09C60.53 45.31 60.32 45.45 60.1 45.45H60.09Z" fill="#3D0E1A"/>
<path d="M64 56.69C63.75 56.69 63.53 56.52 63.47 56.28C63.45 56.2 62.98 54.23 63.46 50.93C63.5 50.63 63.78 50.43 64.08 50.47C64.38 50.51 64.58 50.79 64.54 51.09C64.09 54.17 64.53 56.01 64.53 56.03C64.6 56.32 64.42 56.62 64.13 56.69C64.09 56.7 64.04 56.71 64 56.71V56.69Z" fill="#3D0E1A"/>
<path d="M19.1 35.64C19.04 35.64 18.97 35.63 18.91 35.6C18.63 35.49 18.49 35.18 18.59 34.9C19.89 31.47 23.15 28.51 23.29 28.39C23.51 28.19 23.86 28.21 24.06 28.43C24.26 28.65 24.24 29 24.02 29.2C23.99 29.23 20.82 32.11 19.61 35.29C19.53 35.51 19.32 35.64 19.1 35.64Z" fill="#EC408B"/>
<path d="M18.37 37.78C18.3 37.78 18.22 37.76 18.15 37.73C17.87 37.61 17.75 37.29 17.87 37.01C19.07 34.3 21.09 33.46 21.18 33.43C21.46 33.32 21.78 33.45 21.89 33.73C22 34.01 21.87 34.33 21.59 34.44C21.55 34.46 19.88 35.19 18.87 37.46C18.78 37.66 18.58 37.78 18.37 37.78Z" fill="#EC408B"/>
<path d="M11.91 81.74C11.73 81.74 11.55 81.65 11.45 81.49C11.29 81.24 11.37 80.9 11.62 80.74C11.66 80.72 15.32 78.39 17.35 75.97C17.54 75.74 17.89 75.71 18.12 75.9C18.35 76.09 18.38 76.44 18.19 76.67C16.05 79.22 12.36 81.56 12.21 81.66C12.12 81.72 12.02 81.74 11.92 81.74H11.91Z" fill="#EC408B"/>
<path d="M17.76 80.42C17.76 80.42 17.73 80.42 17.71 80.42C17.41 80.39 17.19 80.13 17.22 79.83C17.24 79.65 17.65 75.41 20.49 72.25C20.69 72.03 21.04 72.01 21.26 72.21C21.48 72.41 21.5 72.76 21.3 72.98C18.7 75.86 18.31 79.88 18.3 79.92C18.27 80.2 18.04 80.42 17.76 80.42Z" fill="#EC408B"/>
<path d="M40.51 60.36C40.24 60.36 40.01 60.17 39.97 59.89C39.2 54.66 42.37 50.81 42.5 50.65C42.69 50.42 43.04 50.39 43.27 50.58C43.5 50.77 43.53 51.12 43.34 51.35C43.31 51.39 40.35 54.99 41.05 59.73C41.09 60.03 40.89 60.31 40.59 60.35C40.56 60.35 40.54 60.35 40.51 60.35V60.36Z" fill="#EC408B"/>
<path d="M40.74 61.28C40.46 61.28 40.22 61.07 40.2 60.78C39.83 56.73 42.1 55.01 42.2 54.93C42.44 54.75 42.78 54.8 42.96 55.04C43.14 55.28 43.09 55.62 42.85 55.8C42.77 55.86 40.98 57.27 41.29 60.67C41.32 60.97 41.1 61.24 40.8 61.26C40.78 61.26 40.77 61.26 40.75 61.26L40.74 61.28Z" fill="#EC408B"/>
<path d="M53.43 64.03C53.33 64.03 53.22 64 53.13 63.94C52.88 63.77 52.81 63.44 52.98 63.18C55.03 60.07 57.35 58.6 57.45 58.54C57.7 58.38 58.04 58.46 58.2 58.71C58.36 58.96 58.28 59.3 58.03 59.46C58.01 59.47 55.8 60.88 53.89 63.78C53.79 63.94 53.61 64.02 53.43 64.02V64.03Z" fill="#EC408B"/>
<path d="M80.12 62.27C79.99 62.27 79.86 62.22 79.76 62.13C79.53 61.93 79.51 61.59 79.71 61.36C82.18 58.58 84.69 57.45 84.79 57.4C85.07 57.28 85.39 57.4 85.51 57.68C85.63 57.96 85.51 58.28 85.23 58.4C85.21 58.41 82.82 59.49 80.52 62.08C80.41 62.2 80.26 62.26 80.11 62.26L80.12 62.27Z" fill="#EC408B"/>
<path d="M51.36 66.56C51.26 66.56 51.16 66.53 51.07 66.47C50.82 66.31 50.74 65.97 50.9 65.72C52.57 63.1 56.19 62.19 56.34 62.15C56.63 62.08 56.93 62.26 57 62.55C57.07 62.84 56.89 63.14 56.6 63.21C56.57 63.21 53.25 64.05 51.82 66.3C51.72 66.46 51.54 66.55 51.36 66.55V66.56Z" fill="#EC408B"/>
<path d="M69.38 38.03C69.27 38.03 69.15 38 69.06 37.92C68.82 37.74 68.77 37.4 68.95 37.16C71.47 33.76 76.93 27.98 77.16 27.73C77.37 27.51 77.71 27.5 77.93 27.71C78.15 27.92 78.16 28.26 77.95 28.48C77.89 28.54 72.3 34.46 69.83 37.81C69.72 37.95 69.56 38.03 69.39 38.03H69.38Z" fill="#EC408B"/>
<path d="M72.88 34.81C72.8 34.81 72.72 34.79 72.64 34.75C72.37 34.62 72.26 34.29 72.39 34.02C73.24 32.31 77.01 30.23 77.44 30C77.7 29.86 78.04 29.95 78.18 30.22C78.32 30.48 78.23 30.82 77.96 30.96C76.88 31.54 73.96 33.32 73.36 34.51C73.26 34.7 73.07 34.81 72.87 34.81H72.88Z" fill="#EC408B"/>
<path d="M68.24 60.1C68.09 60.1 67.94 60.04 67.83 59.92C65.82 57.67 65.85 54.63 65.85 54.5C65.85 54.2 66.09 53.97 66.4 53.96C66.7 53.96 66.94 54.21 66.94 54.51C66.94 54.54 66.93 57.26 68.64 59.19C68.84 59.42 68.82 59.76 68.6 59.96C68.5 60.05 68.37 60.1 68.24 60.1Z" fill="#3D0E1A"/>
<path d="M82.61 17.28C82.45 17.28 82.3 17.21 82.19 17.08C79.71 14.1 77.99 10.55 77.92 10.4C77.79 10.13 77.9 9.8 78.18 9.67C78.45 9.54 78.78 9.65 78.91 9.93C78.93 9.97 80.64 13.51 83.03 16.38C83.22 16.61 83.19 16.96 82.96 17.15C82.86 17.23 82.73 17.28 82.61 17.28Z" fill="#3D0E1A"/>
<path d="M84.74 19.41C84.58 19.41 84.43 19.34 84.32 19.21C81.8 16.19 81.01 13.01 80.98 12.88C80.91 12.59 81.09 12.29 81.38 12.22C81.67 12.15 81.97 12.33 82.04 12.62C82.04 12.65 82.81 15.69 85.16 18.51C85.35 18.74 85.32 19.09 85.09 19.28C84.99 19.36 84.86 19.41 84.74 19.41Z" fill="#3D0E1A"/>
<path d="M52.58 35.25C52.44 35.25 52.3 35.2 52.2 35.09C50.57 33.48 48.96 29.16 48.89 28.98C48.79 28.7 48.93 28.38 49.21 28.28C49.49 28.18 49.81 28.32 49.91 28.6C49.93 28.64 51.51 32.88 52.96 34.31C53.17 34.52 53.18 34.87 52.96 35.08C52.85 35.19 52.71 35.24 52.57 35.24L52.58 35.25Z" fill="#3D0E1A"/>
<path d="M11.03 89.34C10.77 89.34 10.54 89.15 10.49 88.88C10.49 88.83 9.69001 84.23 7.46001 82.25C7.23001 82.05 7.21001 81.71 7.41001 81.48C7.61001 81.26 7.95001 81.23 8.18001 81.43C10.7 83.67 11.52 88.5 11.56 88.7C11.61 89 11.41 89.28 11.11 89.33C11.08 89.33 11.05 89.33 11.02 89.33L11.03 89.34Z" fill="#3D0E1A"/>
<path d="M7.83 86.25C7.77 86.25 7.7 86.24 7.64 86.21C7.36 86.1 7.22 85.79 7.32 85.51C7.36 85.41 8.14 83.08 5.24 80.26C5.02 80.05 5.02 79.7 5.23 79.49C5.44 79.27 5.79 79.27 6 79.48C9.44 82.83 8.39 85.77 8.35 85.89C8.27 86.11 8.06 86.24 7.84 86.24L7.83 86.25Z" fill="#3D0E1A"/>
<path d="M79.09 81.74C78.99 81.74 78.89 81.71 78.81 81.66C78.62 81.54 74.18 78.77 71.74 73.5C71.61 73.23 71.74 72.9 72.01 72.78C72.28 72.65 72.61 72.78 72.73 73.05C75.02 78.01 79.33 80.71 79.38 80.74C79.64 80.9 79.72 81.23 79.56 81.49C79.46 81.66 79.28 81.75 79.09 81.75V81.74Z" fill="#3D0E1A"/>
<path d="M75.67 81.12C75.47 81.12 75.27 81.01 75.18 80.81C75.17 80.79 74.11 78.62 71.75 73.49C71.62 73.22 71.75 72.89 72.02 72.77C72.29 72.64 72.62 72.77 72.74 73.04C75.1 78.16 76.15 80.32 76.16 80.34C76.29 80.61 76.18 80.94 75.91 81.07C75.83 81.11 75.75 81.13 75.67 81.13V81.12Z" fill="#3D0E1A"/>
<path d="M111.32 16.86C111.22 16.86 111.12 16.83 111.03 16.78C110.77 16.62 110.7 16.28 110.85 16.03C113.32 12.06 115.78 6.21999 115.81 6.15999C115.93 5.87999 116.25 5.74999 116.52 5.86999C116.8 5.98999 116.93 6.30999 116.81 6.57999C116.78 6.63999 114.29 12.55 111.78 16.6C111.68 16.77 111.5 16.86 111.32 16.86Z" fill="#EC408B"/>
<path d="M109.3 21.39C109.22 21.39 109.14 21.37 109.06 21.33C108.79 21.2 108.68 20.87 108.81 20.6C111.04 16.04 115.18 11.59 115.35 11.4C115.56 11.18 115.9 11.17 116.12 11.37C116.34 11.57 116.35 11.92 116.15 12.14C116.11 12.18 111.95 16.66 109.79 21.07C109.7 21.26 109.5 21.38 109.3 21.38V21.39Z" fill="#EC408B"/>
<path d="M102.98 10.72C102.89 10.72 102.8 10.7 102.72 10.65C102.45 10.51 102.36 10.18 102.5 9.90999C102.95 9.07999 103.33 8.25 103.7 7.45999C105.06 4.54999 106.34 1.80999 110.27 0.0499946C110.54 -0.0700054 110.87 0.0499945 110.99 0.319995C111.11 0.589995 110.99 0.919994 110.72 1.03999C107.16 2.63999 106.01 5.08999 104.69 7.91999C104.31 8.72999 103.92 9.55999 103.46 10.43C103.36 10.61 103.17 10.72 102.98 10.72Z" fill="#3D0E1A"/>
<path d="M102.7 12.96C102.65 12.96 102.6 12.96 102.55 12.94C102.26 12.86 102.09 12.55 102.18 12.26C103.41 8.03 104.84 1.93 104.85 1.87C104.92 1.58 105.21 1.39 105.51 1.46C105.8 1.53 105.99 1.82 105.92 2.12C105.91 2.18 104.48 8.3 103.23 12.56C103.16 12.8 102.94 12.95 102.71 12.95L102.7 12.96Z" fill="#3D0E1A"/>
<path d="M110.19 46.25C106.49 46.25 103.43 45.03 103.3 44.98C103.02 44.87 102.89 44.55 103 44.27C103.11 43.99 103.43 43.86 103.71 43.97C103.74 43.98 106.7 45.17 110.19 45.17C110.21 45.17 110.24 45.17 110.26 45.17C110.56 45.17 110.8 45.41 110.81 45.71C110.81 46.01 110.57 46.26 110.27 46.26H110.2L110.19 46.25Z" fill="#EC408B"/>
<path d="M107.1 47.15C105.64 47.15 104.66 47 104.59 46.99C104.29 46.94 104.09 46.66 104.13 46.37C104.18 46.07 104.45 45.87 104.75 45.91C104.78 45.91 107.98 46.39 111.39 45.57C111.68 45.5 111.98 45.68 112.05 45.97C112.12 46.26 111.94 46.56 111.65 46.63C109.97 47.03 108.36 47.15 107.1 47.15Z" fill="#EC408B"/>
<path d="M121.57 32.92C121.5 32.92 121.43 32.91 121.36 32.88C121.08 32.76 120.95 32.44 121.07 32.17C123.36 26.72 126.47 22.48 126.5 22.44C126.68 22.2 127.02 22.15 127.26 22.32C127.5 22.5 127.55 22.84 127.38 23.08C127.35 23.12 124.31 27.26 122.08 32.59C121.99 32.8 121.79 32.92 121.58 32.92H121.57Z" fill="#EC408B"/>
<path d="M120.06 37.55C119.99 37.55 119.92 37.54 119.85 37.51C119.57 37.39 119.44 37.07 119.56 36.79C121.98 31.07 123.95 27.7 124.94 27.53C125.24 27.48 125.52 27.68 125.57 27.98C125.62 28.24 125.46 28.5 125.22 28.58C125.08 28.67 123.75 29.69 120.56 37.22C120.47 37.43 120.27 37.55 120.06 37.55Z" fill="#EC408B"/>
<path d="M112.46 99.88C112.2 99.88 111.97 99.7 111.92 99.44C111.49 97.18 110.99 87.52 110.97 87.11C110.95 86.81 111.19 86.55 111.49 86.54C111.78 86.52 112.05 86.76 112.06 87.06C112.06 87.16 112.58 97.06 113 99.25C113.06 99.55 112.86 99.83 112.57 99.89C112.54 99.89 112.5 99.89 112.47 99.89L112.46 99.88Z" fill="#EC408B"/>
<path d="M112.9 103.53C112.67 103.53 112.46 103.39 112.38 103.16C111.62 100.99 109.68 91.51 109.6 91.11C109.54 90.81 109.73 90.53 110.03 90.47C110.32 90.41 110.61 90.6 110.67 90.9C110.69 91 112.68 100.71 113.41 102.81C113.51 103.09 113.36 103.41 113.08 103.51C113.02 103.53 112.96 103.54 112.9 103.54V103.53Z" fill="#EC408B"/>
<path d="M108.52 98.64C108.38 98.64 108.23 98.58 108.13 98.47C105.27 95.47 100.76 94.16 100.71 94.14C100.42 94.06 100.25 93.76 100.33 93.47C100.41 93.18 100.71 93.01 101 93.09C101.2 93.15 105.84 94.49 108.91 97.71C109.12 97.93 109.11 98.27 108.89 98.48C108.78 98.58 108.65 98.63 108.51 98.63L108.52 98.64Z" fill="#3D0E1A"/>
<path d="M110.14 100.88C110 100.88 109.86 100.83 109.76 100.72C105.54 96.55 103.93 97.06 103.92 97.06C103.65 97.2 103.34 97.09 103.2 96.82C103.06 96.55 103.18 96.22 103.45 96.08C103.8 95.9 105.76 95.23 110.54 99.94C110.75 100.15 110.76 100.5 110.54 100.71C110.43 100.82 110.29 100.87 110.15 100.87L110.14 100.88Z" fill="#3D0E1A"/>
<path d="M142.97 46.09C142.97 46.09 142.91 46.09 142.88 46.09C142.58 46.04 142.38 45.76 142.43 45.46C143.17 41.01 147.31 36.1 147.48 35.89C147.67 35.66 148.02 35.63 148.25 35.83C148.48 36.03 148.51 36.37 148.31 36.6C148.27 36.65 144.2 41.49 143.5 45.64C143.46 45.91 143.22 46.1 142.96 46.1L142.97 46.09Z" fill="#EC408B"/>
<path d="M142.97 50.2C142.97 50.2 142.91 50.2 142.88 50.2C142.58 50.15 142.38 49.87 142.43 49.57C143.17 45.13 144.93 42.85 145 42.76C145.19 42.52 145.53 42.48 145.77 42.67C146.01 42.86 146.05 43.2 145.86 43.44C145.83 43.47 144.19 45.63 143.5 49.76C143.46 50.03 143.22 50.22 142.96 50.22L142.97 50.2Z" fill="#EC408B"/>
<path d="M143.5 23.04C143.27 23.04 143.05 22.89 142.98 22.65C142.96 22.59 141.19 16.48 146.27 12.33C146.5 12.14 146.85 12.17 147.04 12.41C147.23 12.65 147.2 12.99 146.96 13.18C142.46 16.86 143.96 22.11 144.03 22.34C144.12 22.63 143.95 22.93 143.66 23.02C143.61 23.04 143.55 23.04 143.5 23.04Z" fill="#EC408B"/>
<path d="M164.87 20.04C164.7 20.04 164.54 19.96 164.43 19.82L156.92 9.54999C156.74 9.30999 156.8 8.96999 157.04 8.78999C157.28 8.60999 157.62 8.66999 157.8 8.90999L165.31 19.18C165.49 19.42 165.43 19.76 165.19 19.94C165.09 20.01 164.98 20.05 164.87 20.05V20.04Z" fill="#3D0E1A"/>
<path d="M166.38 21.82C166.2 21.82 166.02 21.73 165.92 21.57C165.73 21.27 161.16 14.1 160.58 11.11C160.52 10.81 160.72 10.53 161.01 10.47C161.3 10.41 161.59 10.61 161.65 10.9C162.19 13.68 166.79 20.9 166.83 20.97C166.99 21.22 166.92 21.56 166.66 21.72C166.57 21.78 166.47 21.81 166.37 21.81L166.38 21.82Z" fill="#3D0E1A"/>
<path d="M165.28 52.56C165.28 52.56 165.21 52.56 165.18 52.56C165.06 52.54 162.11 51.97 158.22 49.15C157.98 48.97 157.92 48.63 158.1 48.39C158.28 48.15 158.62 48.09 158.86 48.27C162.53 50.94 165.35 51.49 165.38 51.49C165.68 51.55 165.87 51.83 165.82 52.13C165.77 52.39 165.54 52.58 165.28 52.58V52.56Z" fill="#3D0E1A"/>
<path d="M165.88 54.22C165.8 54.22 165.71 54.2 165.63 54.16C165.6 54.14 162.41 52.49 158.91 50.85C158.64 50.72 158.52 50.4 158.65 50.12C158.78 49.85 159.1 49.73 159.38 49.86C162.9 51.51 166.1 53.17 166.14 53.19C166.41 53.33 166.51 53.66 166.37 53.93C166.27 54.12 166.08 54.22 165.89 54.22H165.88Z" fill="#3D0E1A"/>
<path d="M152.46 76.7C152.41 76.7 152.35 76.7 152.3 76.68C152.01 76.59 151.85 76.29 151.94 76C152.58 73.91 156.42 67.91 156.58 67.65C156.74 67.4 157.08 67.32 157.33 67.48C157.58 67.64 157.66 67.98 157.5 68.23C157.46 68.29 153.58 74.36 152.98 76.31C152.91 76.54 152.69 76.7 152.46 76.7Z" fill="#EC408B"/>
<path d="M151.7 77.09C151.65 77.09 151.59 77.09 151.54 77.07C151.25 76.98 151.09 76.68 151.18 76.39C151.81 74.34 153.76 69.59 153.84 69.39C153.96 69.11 154.27 68.98 154.55 69.09C154.83 69.2 154.96 69.52 154.85 69.8C154.83 69.85 152.83 74.7 152.22 76.7C152.15 76.93 151.93 77.09 151.7 77.09Z" fill="#EC408B"/>
<path d="M140.65 105.11C140.43 105.11 140.22 104.97 140.14 104.76C140.03 104.48 140.18 104.16 140.46 104.06C143.7 102.84 148.41 97.78 148.46 97.73C148.66 97.51 149.01 97.5 149.23 97.7C149.45 97.9 149.46 98.25 149.26 98.47C149.06 98.69 144.33 103.77 140.84 105.08C140.78 105.1 140.71 105.12 140.65 105.12V105.11Z" fill="#EC408B"/>
<path d="M139.78 105.61C139.56 105.61 139.35 105.47 139.27 105.26C139.16 104.98 139.31 104.66 139.59 104.56C142.91 103.31 148.33 100.19 148.38 100.16C148.64 100.01 148.97 100.1 149.13 100.36C149.29 100.62 149.19 100.95 148.93 101.11C148.71 101.24 143.38 104.31 139.98 105.59C139.92 105.61 139.85 105.63 139.79 105.63L139.78 105.61Z" fill="#EC408B"/>
<path d="M7.52001 33.37C7.46001 33.37 7.40001 33.37 7.35001 33.34C7.06001 33.24 6.91001 32.93 7.01001 32.65C9.14001 26.33 8.06001 24.85 8.05001 24.84C7.83001 24.63 7.84001 24.3 8.05001 24.08C8.26001 23.86 8.62001 23.87 8.83001 24.08C9.11001 24.35 10.37 26.06 8.04001 33C7.96001 33.23 7.75001 33.37 7.52001 33.37Z" fill="#3D0E1A"/>
<path d="M6.85 35.13C6.79 35.13 6.73 35.13 6.68 35.1C6.39 35 6.24 34.69 6.34 34.41C8.47 28.09 7.18 26.65 7.16 26.63C6.93 26.44 6.91 26.1 7.1 25.87C7.29 25.64 7.65 25.62 7.88 25.81C8.21 26.08 9.72 27.79 7.37 34.76C7.29 34.99 7.08 35.13 6.85 35.13Z" fill="#3D0E1A"/>
<path d="M168.84 86.77C168.54 86.77 168.29 86.53 168.29 86.22C168.29 81.84 169.89 74.69 169.95 74.39C170.02 74.1 170.31 73.91 170.6 73.98C170.89 74.05 171.08 74.34 171.01 74.63C170.99 74.7 169.37 81.97 169.37 86.22C169.37 86.52 169.13 86.77 168.82 86.77H168.84Z" fill="#EC408B"/>
<path d="M168.79 88.87C168.52 88.87 168.29 88.67 168.25 88.4C167.68 84.06 168.32 76.76 168.35 76.45C168.38 76.15 168.64 75.93 168.94 75.96C169.24 75.99 169.46 76.25 169.43 76.55C169.43 76.62 168.77 84.04 169.32 88.26C169.36 88.56 169.15 88.83 168.85 88.87C168.83 88.87 168.8 88.87 168.78 88.87H168.79Z" fill="#EC408B"/>
<path d="M196.62 82.61C196.55 82.61 196.47 82.59 196.4 82.56C196.12 82.44 196 82.12 196.12 81.84C198.44 76.6 199.94 70.78 199.96 70.72C200.03 70.43 200.33 70.25 200.62 70.33C200.91 70.4 201.09 70.7 201.01 70.99C200.99 71.05 199.48 76.96 197.11 82.28C197.02 82.48 196.82 82.6 196.61 82.6L196.62 82.61Z" fill="#EC408B"/>
<path d="M195.49 83.13C195.4 83.13 195.32 83.11 195.24 83.07C194.97 82.93 194.87 82.6 195.01 82.33L196.81 78.88C196.95 78.61 197.28 78.51 197.55 78.65C197.82 78.79 197.92 79.12 197.78 79.39L195.98 82.84C195.88 83.03 195.69 83.13 195.5 83.13H195.49Z" fill="#3D0E1A"/>
<path d="M194.59 79.73C194.5 79.73 194.42 79.71 194.34 79.67C194.07 79.53 193.97 79.2 194.11 78.93L195.91 75.48C196.05 75.21 196.38 75.11 196.65 75.25C196.92 75.39 197.02 75.72 196.88 75.99L195.08 79.44C194.98 79.63 194.79 79.73 194.6 79.73H194.59Z" fill="#3D0E1A"/>
<path d="M208.99 73.13C208.9 73.13 208.82 73.11 208.74 73.07C208.47 72.93 208.37 72.6 208.51 72.33L210.31 68.88C210.45 68.61 210.78 68.51 211.05 68.65C211.32 68.79 211.42 69.12 211.28 69.39L209.48 72.84C209.38 73.03 209.19 73.13 209 73.13H208.99Z" fill="#3D0E1A"/>
<path d="M209.16 77.63C209.09 77.63 209.02 77.62 208.96 77.59C208.68 77.48 208.55 77.16 208.66 76.88L210.12 73.27C210.23 72.99 210.55 72.85 210.83 72.97C211.11 73.08 211.24 73.4 211.13 73.68L209.67 77.29C209.58 77.5 209.38 77.63 209.16 77.63Z" fill="#3D0E1A"/>
<path d="M195.49 85.84C195.42 85.84 195.34 85.82 195.27 85.79C194.99 85.67 194.87 85.35 194.99 85.07C197.34 79.77 200.44 73.89 200.47 73.83C200.61 73.56 200.94 73.46 201.21 73.6C201.48 73.74 201.58 74.07 201.44 74.34C201.41 74.4 198.33 80.25 195.99 85.51C195.9 85.71 195.7 85.83 195.49 85.83V85.84Z" fill="#EC408B"/>
<path d="M205.65 70.36C205.56 70.36 205.47 70.34 205.39 70.29C202.44 68.66 199.83 65.33 199.73 65.19C199.55 64.95 199.59 64.61 199.83 64.42C200.07 64.23 200.41 64.28 200.6 64.52C200.63 64.55 203.18 67.81 205.93 69.33C206.19 69.48 206.29 69.81 206.14 70.07C206.04 70.25 205.85 70.35 205.66 70.35L205.65 70.36Z" fill="#3D0E1A"/>
<path d="M205.65 70.36C205.56 70.36 205.47 70.34 205.39 70.29C202.28 68.57 201.98 65.31 201.97 65.17C201.95 64.87 202.17 64.61 202.47 64.58C202.77 64.55 203.03 64.78 203.06 65.08C203.07 65.2 203.34 67.91 205.92 69.34C206.18 69.49 206.28 69.82 206.13 70.08C206.03 70.26 205.84 70.36 205.65 70.36Z" fill="#3D0E1A"/>
<path d="M169.83 72.37H169.81C169.51 72.36 169.27 72.1 169.29 71.8C169.44 67.94 172.49 63.37 172.62 63.18C172.79 62.93 173.13 62.86 173.38 63.03C173.63 63.2 173.7 63.54 173.53 63.79C173.5 63.83 170.52 68.3 170.39 71.84C170.38 72.13 170.14 72.36 169.84 72.36L169.83 72.37Z" fill="#3D0E1A"/>
<path d="M169.83 71.84H169.81C169.51 71.83 169.27 71.57 169.29 71.27C169.43 67.53 169.84 65.11 169.85 65.01C169.9 64.71 170.18 64.51 170.48 64.56C170.78 64.61 170.98 64.89 170.93 65.19C170.93 65.21 170.52 67.65 170.38 71.31C170.37 71.6 170.13 71.83 169.83 71.83V71.84Z" fill="#3D0E1A"/>
<path d="M155.11 118.53C155.01 118.53 154.91 118.5 154.82 118.44C154.57 118.28 154.49 117.94 154.65 117.69C154.7 117.62 159.26 110.44 160.19 107.18C160.27 106.89 160.58 106.72 160.86 106.81C161.15 106.89 161.32 107.19 161.23 107.48C160.26 110.89 155.76 117.98 155.56 118.28C155.46 118.44 155.28 118.53 155.1 118.53H155.11Z" fill="#3D0E1A"/>
<path d="M157.8 116.52C157.74 116.52 157.67 116.51 157.61 116.49C157.33 116.39 157.18 116.07 157.29 115.79C157.31 115.74 159.24 110.5 160.19 107.18C160.27 106.89 160.58 106.72 160.86 106.81C161.15 106.89 161.32 107.19 161.23 107.48C160.27 110.83 158.33 116.11 158.31 116.16C158.23 116.38 158.02 116.52 157.8 116.52Z" fill="#3D0E1A"/>
<path d="M212.24 89.4C212.24 89.4 212.2 89.4 212.17 89.4C211.87 89.36 211.66 89.09 211.69 88.79C212.62 81.05 215.43 77.29 215.55 77.13C215.73 76.89 216.07 76.84 216.31 77.03C216.55 77.21 216.6 77.55 216.42 77.79C216.39 77.83 213.67 81.51 212.77 88.92C212.74 89.2 212.5 89.4 212.23 89.4H212.24Z" fill="#EC408B"/>
<path d="M226.63 60.82C226.45 60.82 226.28 60.73 226.17 60.58C224.69 58.35 220.29 57.43 220.25 57.42C219.95 57.36 219.76 57.07 219.82 56.78C219.88 56.49 220.17 56.29 220.46 56.35C220.66 56.39 225.35 57.37 227.07 59.97C227.24 60.22 227.17 60.56 226.92 60.73C226.83 60.79 226.72 60.82 226.62 60.82H226.63Z" fill="#3D0E1A"/>
<path d="M226.63 60.82C226.45 60.82 226.28 60.73 226.17 60.58C224.6 58.21 223.13 56.8 223.12 56.79C222.9 56.58 222.89 56.24 223.1 56.02C223.31 55.8 223.65 55.79 223.87 56C223.93 56.06 225.45 57.51 227.08 59.98C227.25 60.23 227.18 60.57 226.93 60.74C226.84 60.8 226.73 60.83 226.63 60.83V60.82Z" fill="#3D0E1A"/>
<path d="M235.53 92.75C235.24 92.75 235 92.53 234.99 92.24C234.97 91.94 235.2 91.68 235.5 91.66C239.19 91.43 244.66 87.45 244.71 87.41C244.95 87.23 245.29 87.28 245.47 87.53C245.65 87.77 245.6 88.11 245.35 88.29C245.12 88.46 239.57 92.49 235.56 92.75H235.53Z" fill="#EC408B"/>
<path d="M235.53 92.75C235.24 92.75 235 92.53 234.99 92.24C234.97 91.94 235.2 91.68 235.5 91.66C239.29 91.42 243.55 90.1 243.59 90.08C243.88 89.99 244.18 90.15 244.27 90.44C244.36 90.73 244.2 91.03 243.91 91.12C243.73 91.18 239.48 92.5 235.56 92.74H235.53V92.75Z" fill="#EC408B"/>
<path d="M246.94 83.71C246.89 83.71 246.83 83.71 246.78 83.69C246.49 83.6 246.33 83.3 246.42 83.01C248.68 75.59 253.93 66.33 253.98 66.24C254.13 65.98 254.46 65.89 254.72 66.04C254.98 66.19 255.07 66.52 254.92 66.78C254.87 66.87 249.68 76.02 247.45 83.33C247.38 83.57 247.16 83.72 246.93 83.72L246.94 83.71Z" fill="#3D0E1A"/>
<path d="M246.94 83.71C246.89 83.71 246.83 83.71 246.78 83.69C246.49 83.6 246.33 83.3 246.42 83.01C248.71 75.51 253.05 71.37 253.23 71.19C253.45 70.98 253.79 70.99 254 71.21C254.21 71.43 254.2 71.77 253.98 71.98C253.94 72.02 249.66 76.11 247.46 83.32C247.39 83.56 247.17 83.71 246.94 83.71Z" fill="#3D0E1A"/>
<path d="M209.89 100.36C209.8 100.36 209.7 100.34 209.62 100.29C209.39 100.16 203.92 96.93 203.92 91.85C203.92 91.55 204.16 91.3 204.47 91.3C204.78 91.3 205.02 91.54 205.02 91.85C205.02 96.3 210.12 99.31 210.18 99.34C210.44 99.49 210.53 99.82 210.38 100.09C210.28 100.26 210.1 100.36 209.91 100.36H209.89Z" fill="#EC408B"/>
<path d="M246.48 107.43C243.61 107.43 238.93 106.55 234.56 101.85C234.35 101.63 234.37 101.28 234.59 101.08C234.81 100.87 235.16 100.89 235.36 101.11C241.72 107.96 248.88 106.1 248.95 106.08C249.24 106 249.54 106.17 249.62 106.46C249.7 106.75 249.53 107.05 249.24 107.13C249.13 107.16 248.08 107.43 246.48 107.43Z" fill="#3D0E1A"/>
<path d="M246.13 108.82H246.09C245.84 108.8 239.97 108.33 235.32 102.55C235.13 102.32 235.17 101.97 235.4 101.78C235.63 101.59 235.98 101.63 236.17 101.86C240.51 107.25 246.11 107.72 246.17 107.73C246.47 107.75 246.7 108.01 246.67 108.31C246.65 108.6 246.41 108.82 246.13 108.82Z" fill="#3D0E1A"/>
<path d="M200.67 110.07C200.48 110.07 200.29 109.97 200.19 109.78C198.99 107.55 193.04 104.63 190.85 103.69C190.57 103.57 190.44 103.25 190.56 102.97C190.68 102.69 191 102.56 191.28 102.68C191.62 102.82 199.53 106.24 201.15 109.26C201.29 109.53 201.19 109.86 200.93 110C200.85 110.04 200.76 110.06 200.67 110.06V110.07Z" fill="#3D0E1A"/>
<path d="M198.56 109.61C198.35 109.61 198.14 109.48 198.06 109.27C196.73 106.03 191.72 104.42 191.67 104.4C191.38 104.31 191.22 104 191.31 103.72C191.4 103.44 191.71 103.27 191.99 103.36C192.22 103.43 197.54 105.14 199.07 108.85C199.18 109.13 199.05 109.45 198.77 109.56C198.7 109.59 198.63 109.6 198.56 109.6V109.61Z" fill="#3D0E1A"/>
<path d="M123.97 124.23C123.67 124.23 123.42 123.99 123.42 123.68C123.42 120.7 116.61 113.55 113.98 111.04C113.76 110.83 113.75 110.49 113.96 110.27C114.17 110.05 114.51 110.04 114.73 110.25C115.73 111.2 124.5 119.69 124.5 123.68C124.5 123.98 124.26 124.23 123.95 124.23H123.97Z" fill="#3D0E1A"/>
<path d="M121.71 121.94C121.44 121.94 121.2 121.74 121.17 121.46C120.87 119.07 116.72 113.96 115.15 112.2C114.95 111.98 114.97 111.63 115.19 111.43C115.41 111.23 115.76 111.25 115.96 111.47C116.2 111.74 121.85 118.11 122.25 121.32C122.29 121.62 122.08 121.89 121.78 121.93C121.76 121.93 121.73 121.93 121.71 121.93V121.94Z" fill="#3D0E1A"/>
</g>
<defs>
<clipPath id="clip0_3_192">
<rect width="258.72" height="124.54" fill="white"/>
</clipPath>
</defs>
</svg>
