<svg width="139" height="67" viewBox="0 0 139 67" fill="none" xmlns="http://www.w3.org/2000/svg">
<g clip-path="url(#clip0_2_6)">
<path d="M6.26002 44.26C4.93002 44.26 3.70002 43.79 2.71002 42.9C0.940024 41.33 0.0100243 38.53 0.0100243 34.8C2.43345e-05 25.94 5.14003 11.66 9.34002 6.18999C9.86003 5.51999 10.93 4.11999 12.89 3.88999C13.04 3.86999 13.19 3.85999 13.34 3.85999C14.24 3.85999 15.1 4.17999 15.76 4.76999C16.56 5.47999 16.99 6.46999 16.99 7.56999C16.99 8.66999 16.63 9.69999 15.82 11.08C12.12 17.36 7.81002 29.52 7.81002 35.79V35.88C9.04002 33.99 11.36 29.77 15.62 20.34C15.82 19.9 16 19.49 16.18 19.11C17.64 15.85 18.7 13.5 21.32 13.19C21.5 13.17 21.67 13.16 21.84 13.16C22.82 13.16 23.74 13.5 24.44 14.12C25.29 14.88 25.76 15.99 25.76 17.24C25.76 18.35 25.4 19.45 24.94 20.85C24.28 22.87 23.38 25.63 23.38 29.53C23.38 31.36 23.57 32.39 23.74 32.95C24.33 32.13 25.29 30.18 26.82 25.84C29.18 19.15 30.55 15.73 32.44 11.01L32.51 10.83C34.37 6.17999 35.73 4.51999 37.9 4.26999C38.07 4.24999 38.24 4.23999 38.41 4.23999C39.35 4.23999 40.23 4.55999 40.88 5.14999C41.68 5.85999 42.12 6.89999 42.12 8.05999C42.12 9.67999 41.22 11.45 39.85 13.97C37.76 17.81 35.46 22.78 33.38 27.97C30.6 34.93 27.99 39.35 23.63 39.86C23.37 39.89 23.11 39.91 22.85 39.91C21.31 39.91 19.9 39.35 18.77 38.3C17.6 37.21 16.77 35.65 16.29 33.64C12.05 42.03 9.68002 43.89 6.92002 44.22C6.69002 44.25 6.46002 44.26 6.24002 44.26H6.26002Z" fill="#3D0E1A"/>
<path d="M54.65 48.68C53.93 48.68 53.26 48.43 52.73 47.95C52 47.3 51.6 46.29 51.6 45.11C51.6 43.93 51.97 42.01 52.74 39.16C52.92 38.46 53.13 37.68 53.36 36.84C53.2 36.85 53.05 36.86 52.89 36.86C51.46 36.86 50.08 36.34 49.01 35.38C47.79 34.29 47.01 32.71 46.76 30.83C44.93 34.37 42.14 36.64 39.06 37.01C38.78 37.04 38.5 37.06 38.23 37.06C36.69 37.06 35.27 36.53 34.14 35.53C32.58 34.14 31.72 31.97 31.72 29.4C31.72 23.61 36.26 16.07 41.89 15.41C42.14 15.38 42.38 15.37 42.62 15.37C43.71 15.37 44.64 15.69 45.33 16.3C46.02 16.91 46.4 17.77 46.4 18.72C46.4 19.03 46.36 19.44 46.2 19.89C47.27 20.33 47.78 21.34 48.05 22.06C49.31 17.81 51.37 12.68 54.06 7.10999C56.11 2.88999 57.31 1.07999 59.46 0.829988C59.61 0.809988 59.76 0.799988 59.9 0.799988C60.71 0.799988 61.44 1.06999 62.02 1.57999C62.73 2.20999 63.12 3.14999 63.12 4.22999C63.12 5.81999 62.21 7.71999 61.15 9.91999C60.9 10.44 60.65 10.97 60.4 11.5L60.04 12.29C58.75 15.07 57.53 17.7 56.73 19.9V19.92C56.84 19.89 56.97 19.87 57.1 19.85C57.26 19.83 57.42 19.82 57.59 19.82C57.81 19.82 58.04 19.84 58.29 19.87C60.21 13.57 62.35 7.39999 64.98 3.87999C66.58 1.72999 68.3 0.569988 70.24 0.339988C70.45 0.319988 70.66 0.299988 70.87 0.299988C72.26 0.299988 73.66 0.829988 74.71 1.76999C75.77 2.71999 76.38 3.98999 76.38 5.25999C76.38 7.08999 75.13 8.50999 73.34 8.71999C73.2 8.73999 73.07 8.73999 72.93 8.73999C72.15 8.73999 71.5 8.47999 70.99 7.96999C70.2 9.27999 68.72 12.37 66.23 19.62C66.18 19.83 66.12 20.06 66.05 20.29C67.38 19.59 68.68 18.26 69.87 16.37C70.28 15.71 70.84 14.81 72.05 14.66C72.15 14.65 72.24 14.64 72.34 14.64C72.93 14.64 73.5 14.85 73.93 15.25C74.35 15.62 74.85 16.32 74.85 17.54C74.85 18.62 74.33 20.1 73.55 21.22C71.33 24.38 68.27 26.12 63.94 26.69C62.81 30.47 61.8 34.36 60.7 39.17C59.67 43.75 58.38 48.25 55.05 48.64C54.93 48.65 54.8 48.66 54.68 48.66L54.65 48.68ZM55.03 24.59C54.1 27.57 53.87 29.33 53.87 30.34C53.87 30.42 53.87 30.49 53.87 30.55C54.21 30.36 54.8 29.87 55.66 28.63C55.92 27.72 56.19 26.79 56.47 25.85C55.79 25.47 55.33 25.03 55.02 24.59H55.03ZM41.44 24.39C40.29 25.92 39.71 27.72 39.71 29.75C39.71 30.1 39.73 30.36 39.76 30.55C40.82 30.08 42.14 28.23 42.14 26.75C42.14 26.26 41.98 25.86 41.78 25.35C41.66 25.05 41.54 24.74 41.44 24.39Z" fill="#3D0E1A"/>
<path d="M76.65 32.36C75.18 32.36 73.87 31.89 72.86 31C71.39 29.69 70.64 27.61 70.64 24.81C70.64 19.6 73.42 13.45 77.13 13.01C77.27 12.99 77.42 12.98 77.56 12.98C78.38 12.98 79.16 13.27 79.76 13.8C80.5 14.45 80.9 15.42 80.9 16.51C80.9 17.78 80.37 19.03 79.75 20.48C79.08 22.05 78.4 23.67 78.3 25.42C78.81 24.51 79.58 23.36 81.09 23.18C81.21 23.17 81.33 23.16 81.45 23.16C82.15 23.16 82.83 23.41 83.34 23.87C83.99 24.45 84.35 25.29 84.35 26.24C84.35 28.99 81.09 31.88 77.52 32.31C77.22 32.34 76.93 32.36 76.65 32.36Z" fill="#3D0E1A"/>
<path d="M79.12 13.85C78.23 13.85 77.36 13.52 76.69 12.92C75.86 12.18 75.4 11.13 75.4 9.96997C75.4 7.44997 77.82 3.96997 80.53 3.64997C80.66 3.62997 80.79 3.62997 80.92 3.62997C81.69 3.62997 82.41 3.89997 82.97 4.38997C83.64 4.98997 84.01 5.83997 84.01 6.78997C84.01 7.14997 84.04 7.25997 84.1 7.45997C84.18 7.71997 84.29 8.10997 84.29 8.67997C84.29 11.03 81.99 13.53 79.55 13.82C79.4 13.84 79.26 13.85 79.11 13.85H79.12Z" fill="#3D0E1A"/>
<path d="M64.91 61.12C63.74 61.12 62.6 60.77 61.62 60.1C59.96 58.96 58.87 56.99 58.56 54.55C57.99 50.06 59.64 41.62 63.07 31.39C64.57 26.94 65.54 25 67.63 24.48C67.92 24.41 68.22 24.37 68.5 24.37C69.14 24.37 69.75 24.56 70.26 24.91C71.04 25.44 71.54 26.33 71.68 27.4C71.88 28.98 71.21 30.98 70.44 33.29C70.26 33.83 70.07 34.39 69.89 34.95L69.63 35.78C68.7 38.7 67.82 41.46 67.3 43.74V43.77C65.73 49.99 65.62 53.02 65.81 54.47C65.82 54.56 65.83 54.64 65.85 54.7C66.35 54.38 67.08 53.5 68.05 51.28C68.05 51.17 68.05 51.07 68.05 50.96C68.05 45.76 71.25 37.85 77.03 37.16C77.27 37.13 77.51 37.12 77.74 37.12C79.38 37.12 80.65 37.8 81.5 38.39C82.46 36.91 83.76 34.95 85.8 34.71C85.93 34.69 86.06 34.69 86.19 34.69C86.97 34.69 87.73 34.98 88.31 35.5C89.02 36.14 89.45 37.09 89.45 38.06C89.45 39.15 88.91 40.43 88.23 42.05C87.89 42.86 87.54 43.69 87.24 44.54C86.58 46.49 86.26 48.18 86.22 49.08C86.86 48.69 87.7 47.7 88.76 46.08C89.66 41.16 91.7 33.21 95.59 32.75C95.71 32.74 95.83 32.73 95.95 32.73C96.67 32.73 97.36 32.99 97.89 33.46C98.34 33.86 98.88 34.59 98.99 35.81C100.03 34.94 101.29 34.28 102.83 34.1C103.09 34.07 103.34 34.05 103.59 34.05C104.85 34.05 105.97 34.45 106.83 35.21C107.87 36.13 108.41 37.47 108.41 39.09C108.41 40.71 107.81 42.33 107.29 43.75C106.9 44.8 106.5 45.88 106.4 46.82C106.74 46.57 107.22 46.11 107.83 45.28C108.25 39.58 111.67 31.69 117.28 31.03C117.54 31 117.81 30.98 118.08 30.98C119.35 30.98 120.48 31.32 121.38 31.79C121.75 30.78 122.1 29.78 122.45 28.8C123.04 27.13 123.59 25.56 124.12 24.25C125.57 20.74 126.77 18.24 129.11 17.97C129.25 17.95 129.39 17.95 129.52 17.95C130.35 17.95 131.15 18.25 131.77 18.8C132.55 19.5 132.99 20.5 132.99 21.63C132.99 22.57 132.72 23.41 132.28 24.47C132.18 24.71 132.07 24.97 131.95 25.26C131.27 26.86 130.25 29.28 128.68 33.45C126.88 38.18 125.86 42.03 125.86 44.01C125.86 44.62 125.94 45 126.01 45.22C126.15 45.02 126.32 44.71 126.44 44.5C126.93 43.62 127.67 42.28 129.29 42.09C129.41 42.08 129.53 42.07 129.65 42.07C130.35 42.07 131.03 42.32 131.54 42.78C132.19 43.36 132.55 44.2 132.55 45.14C132.55 47.92 129.43 50.82 126 51.23C125.73 51.26 125.46 51.28 125.2 51.28C123.03 51.28 121.62 50.23 120.69 49.15C119.48 51.33 117.52 54.16 114.39 54.53C114.19 54.55 113.98 54.57 113.77 54.57C112.5 54.57 111.26 54.09 110.28 53.22C109.85 52.84 109.47 52.39 109.15 51.87C108.06 52.61 106.91 53.04 105.67 53.19C105.37 53.23 105.08 53.24 104.79 53.24C103.31 53.24 101.99 52.77 100.98 51.87C99.69 50.73 99.01 49.01 99.01 46.91C99.01 46.56 99.03 46.2 99.06 45.85C98.58 46.88 98.13 47.88 97.8 48.61C95.36 54.07 94.09 56.71 91.9 56.97C91.8 56.98 91.69 56.99 91.59 56.99C90.92 56.99 90.28 56.74 89.74 56.26C89.24 55.82 88.86 55.21 88.59 54.46C87.77 54.92 86.91 55.19 85.96 55.3C85.68 55.33 85.41 55.35 85.15 55.35C82.73 55.35 81.43 53.99 80.7 52.72C79.42 54.89 77.53 57.83 74.35 58.2C74.14 58.23 73.92 58.24 73.71 58.24C72.74 58.24 71.81 57.97 71 57.47C69.63 59.37 68.1 60.51 66.36 60.94C65.88 61.06 65.39 61.12 64.91 61.12ZM78.29 43.5C77.13 44.21 75.61 47.38 75.3 50.16C75.79 49.33 76.44 48.09 77.28 46.27C78.2 44.27 78.29 43.84 78.29 43.5ZM118.28 37.72C117.28 39.22 115.82 42.82 115.55 46.29C116.35 44.88 117.49 42.49 118.97 38.48C118.68 38.25 118.46 37.98 118.28 37.72Z" fill="#3D0E1A"/>
<path d="M137.15 48.39C136.63 47.93 135.96 47.68 135.26 47.68C135.14 47.68 135.02 47.68 134.9 47.7C133.28 47.89 132.54 49.23 132.05 50.11C131.93 50.32 131.76 50.63 131.62 50.83C131.55 50.61 131.47 50.23 131.47 49.62C131.47 47.64 132.5 43.79 134.29 39.06C135.85 34.89 136.88 32.47 137.56 30.87C137.68 30.58 137.79 30.32 137.89 30.08C138.33 29.02 138.6 28.18 138.6 27.24C138.6 26.11 138.17 25.1 137.38 24.41C136.76 23.86 135.96 23.56 135.13 23.56C134.99 23.56 134.85 23.56 134.72 23.58C132.38 23.86 131.17 26.36 129.73 29.86C129.2 31.17 128.64 32.74 128.06 34.41C127.71 35.39 127.36 36.4 126.99 37.4C126.09 36.93 124.96 36.59 123.69 36.59C123.42 36.59 123.16 36.61 122.89 36.64C117.28 37.3 113.87 45.2 113.44 50.89C112.82 51.72 112.35 52.17 112.01 52.43C112.11 51.49 112.51 50.41 112.9 49.36C113.43 47.94 114.02 46.33 114.02 44.7C114.02 43.07 113.47 41.74 112.44 40.82C111.59 40.06 110.47 39.66 109.2 39.66C108.95 39.66 108.7 39.68 108.44 39.71C106.9 39.89 105.64 40.55 104.6 41.42C104.49 40.2 103.95 39.47 103.5 39.07C102.97 38.6 102.28 38.34 101.56 38.34C101.44 38.34 101.32 38.34 101.2 38.36C97.31 38.82 95.26 46.78 94.37 51.69C93.3101 53.31 92.48 54.29 91.83 54.69C91.87 53.79 92.19 52.1 92.85 50.15C93.15 49.3 93.5 48.47 93.84 47.66C94.52 46.04 95.06 44.76 95.06 43.67C95.06 42.7 94.63 41.74 93.92 41.11C93.33 40.59 92.58 40.3 91.8 40.3C91.6701 40.3 91.54 40.3 91.41 40.32C89.37 40.56 88.07 42.52 87.11 44C86.25 43.41 84.99 42.73 83.35 42.73C83.11 42.73 82.87 42.74 82.64 42.77C76.86 43.46 73.66 51.36 73.66 56.57C73.66 56.68 73.66 56.79 73.66 56.89C72.69 59.1 71.96 59.99 71.46 60.31C71.45 60.24 71.44 60.16 71.42 60.08C71.24 58.63 71.3501 55.6 72.91 49.38V49.35C73.44 47.06 74.32 44.31 75.25 41.39L75.51 40.56C75.69 40 75.87 39.44 76.06 38.9C76.54 37.45 76.99 36.13 77.2 34.95C77.54 35.59 77.96 36.14 78.47 36.6C79.47 37.49 80.78 37.96 82.26 37.96C82.54 37.96 82.84 37.94 83.13 37.91C86.7 37.49 89.96 34.6 89.96 31.84C89.96 30.89 89.6 30.05 88.95 29.47C88.44 29.01 87.76 28.76 87.06 28.76C86.94 28.76 86.82 28.76 86.7 28.78C85.19 28.96 84.4201 30.12 83.91 31.02C84 29.27 84.69 27.65 85.36 26.08C85.98 24.63 86.51 23.38 86.51 22.11C86.51 21.01 86.1001 20.05 85.37 19.4C87.73 19 89.91 16.58 89.91 14.29C89.91 13.72 89.79 13.33 89.72 13.07C89.66 12.87 89.63 12.76 89.63 12.4C89.63 11.45 89.26 10.6 88.59 9.99998C88.04 9.50998 87.31 9.23998 86.54 9.23998C86.41 9.23998 86.28 9.23998 86.15 9.25998C83.43 9.57998 81.02 13.06 81.02 15.58C81.02 16.74 81.48 17.79 82.31 18.53C82.36 18.58 82.42 18.62 82.47 18.66C81.33 18.89 80.28 19.65 79.39 20.75C78.97 20.43 78.46 20.26 77.93 20.26C77.84 20.26 77.74 20.26 77.64 20.28C76.43 20.42 75.87 21.33 75.46 21.99C74.27 23.89 72.97 25.21 71.64 25.91C71.71 25.67 71.77 25.45 71.82 25.24C74.31 17.98 75.79 14.89 76.58 13.59C77.09 14.1 77.74 14.36 78.52 14.36C78.65 14.36 78.79 14.36 78.93 14.34C80.72 14.13 81.97 12.7 81.97 10.88C81.97 9.60998 81.36 8.32998 80.3 7.38998C79.25 6.45998 77.85 5.91998 76.46 5.91998C76.25 5.91998 76.03 5.92998 75.83 5.95998C73.89 6.18998 72.17 7.34998 70.57 9.49998C67.95 13.01 65.81 19.18 63.88 25.49C63.63 25.46 63.4 25.44 63.18 25.44C63.01 25.44 62.85 25.44 62.69 25.47C62.56 25.49 62.43 25.51 62.31 25.54V25.52C63.12 23.32 64.34 20.69 65.63 17.91L65.99 17.12C66.24 16.58 66.49 16.05 66.74 15.54C67.8 13.34 68.71 11.45 68.71 9.84998C68.71 8.76998 68.32 7.81998 67.61 7.19998C67.04 6.68998 66.31 6.41998 65.49 6.41998C65.35 6.41998 65.2001 6.41998 65.05 6.44998C62.91 6.69998 61.7 8.50998 59.65 12.73C56.96 18.3 54.9 23.43 53.64 27.68C53.37 26.96 52.86 25.96 51.79 25.51C51.95 25.06 51.99 24.65 51.99 24.34C51.99 23.39 51.61 22.53 50.92 21.92C50.24 21.31 49.3 20.99 48.21 20.99C47.98 20.99 47.73 21 47.48 21.03C46.27 21.17 45.11 21.64 44.03 22.33C44.51 21.37 44.99 20.45 45.46 19.59C46.83 17.08 47.73 15.31 47.73 13.68C47.73 12.51 47.29 11.48 46.49 10.77C45.83 10.18 44.95 9.85998 44.02 9.85998C43.85 9.85998 43.68 9.86998 43.51 9.88998C41.33 10.15 39.97 11.8 38.12 16.45L38.05 16.63C36.16 21.36 34.79 24.77 32.43 31.46C30.9 35.8 29.94 37.75 29.35 38.57C29.18 38.01 28.99 36.98 28.99 35.15C28.99 31.25 29.89 28.49 30.55 26.47C31.01 25.07 31.37 23.97 31.37 22.86C31.37 21.6 30.9 20.5 30.05 19.74C29.36 19.12 28.43 18.78 27.45 18.78C27.28 18.78 27.1 18.79 26.93 18.81C24.31 19.12 23.25 21.47 21.79 24.73C21.62 25.12 21.43 25.53 21.23 25.96C16.97 35.39 14.65 39.61 13.42 41.5V41.41C13.42 35.14 17.72 22.98 21.43 16.7C22.24 15.33 22.6 14.24 22.6 13.19C22.6 12.14 22.16 11.09 21.37 10.39C20.71 9.79998 19.85 9.47998 18.95 9.47998C18.8 9.47998 18.65 9.47998 18.5 9.50998C16.54 9.73998 15.47 11.14 14.95 11.81C10.74 17.28 5.61005 31.56 5.61005 40.42C5.61005 44.15 6.54005 46.95 8.31005 48.52C9.31005 49.41 10.54 49.88 11.86 49.88C12.08 49.88 12.31 49.87 12.54 49.84C15.31 49.51 17.68 47.64 21.91 39.26C22.39 41.27 23.22 42.83 24.39 43.92C25.52 44.97 26.93 45.53 28.47 45.53C28.73 45.53 28.99 45.51 29.25 45.48C32.84 45.06 35.23 42 37.52 37.06C37.86 38.74 38.61 40.15 39.74 41.16C40.87 42.16 42.28 42.69 43.83 42.69C44.1 42.69 44.38 42.67 44.66 42.64C47.74 42.27 50.54 40.01 52.36 36.46C52.61 38.34 53.39 39.92 54.61 41.01C55.68 41.96 57.06 42.49 58.49 42.49C58.64 42.49 58.8 42.49 58.96 42.47C58.73 43.32 58.52 44.09 58.34 44.79C57.57 47.63 57.2 49.58 57.2 50.74C57.2 51.9 57.6 52.93 58.33 53.58C58.87 54.06 59.53 54.31 60.25 54.31C60.37 54.31 60.49 54.31 60.62 54.29C63.39 53.96 64.75 50.78 65.72 47.09C64.35 52.71 63.7901 57.27 64.16 60.18C64.4701 62.62 65.56 64.59 67.22 65.73C68.2 66.4 69.34 66.75 70.51 66.75C70.9901 66.75 71.48 66.69 71.96 66.57C73.7 66.14 75.22 65 76.6 63.1C77.41 63.6 78.35 63.87 79.31 63.87C79.52 63.87 79.74 63.86 79.95 63.83C83.13 63.45 85.0201 60.52 86.3 58.35C87.04 59.62 88.34 60.98 90.75 60.98C91.01 60.98 91.28 60.96 91.56 60.93C92.51 60.82 93.37 60.55 94.19 60.09C94.46 60.84 94.85 61.45 95.34 61.89C95.88 62.37 96.5201 62.62 97.19 62.62C97.29 62.62 97.4 62.62 97.5 62.6C99.49 62.36 100.72 60.16 102.75 55.68L106.87 57.73C107.4 58.14 108.01 58.44 108.67 58.63H108.69C109.22 58.78 109.79 58.86 110.39 58.86C110.68 58.86 110.97 58.84 111.27 58.81C112.51 58.66 113.66 58.23 114.75 57.49C115.07 58 115.45 58.45 115.88 58.84C116.86 59.71 118.1 60.19 119.37 60.19C119.57 60.19 119.78 60.18 119.99 60.15C123.12 59.78 125.08 56.95 126.29 54.77C127.21 55.85 128.63 56.9 130.8 56.9C131.06 56.9 131.33 56.88 131.6 56.85C135.03 56.44 138.15 53.54 138.15 50.76C138.15 49.81 137.79 48.97 137.14 48.4L137.15 48.39ZM45.36 36.16C45.33 35.98 45.31 35.72 45.31 35.36C45.31 33.33 45.89 31.53 47.04 30C47.13 30.35 47.26 30.66 47.38 30.96C47.58 31.47 47.74 31.87 47.74 32.36C47.74 33.84 46.42 35.69 45.36 36.16ZM61.27 34.24C60.4 35.48 59.81 35.96 59.48 36.16C59.48 36.1 59.48 36.03 59.48 35.95C59.48 34.94 59.72 33.18 60.64 30.2C60.95 30.64 61.4 31.07 62.09 31.46C61.81 32.4 61.54 33.33 61.28 34.24H61.27ZM76.26 29.81C76.26 30.01 76.25 30.21 76.25 30.41C76.25 30.55 76.25 30.68 76.25 30.82C76.13 30.71 76.01 30.6 75.87 30.51C75.76 30.43 75.64 30.36 75.52 30.3C75.77 30.14 76.0201 29.98 76.26 29.81ZM68.68 36.99C67.62 40.14 66.74 43.12 66.03 45.86C66.12 45.5 66.2 45.14 66.28 44.78C67.38 39.97 68.39 36.08 69.52 32.3C69.93 32.25 70.32 32.18 70.71 32.1C70.03 33.2 69.42 34.79 68.68 36.98V36.99ZM82.88 51.87C82.04 53.69 81.39 54.92 80.9 55.76C81.21 52.98 82.74 49.81 83.89 49.1C83.89 49.44 83.79 49.88 82.88 51.87ZM121.16 51.88C121.43 48.41 122.89 44.81 123.89 43.31C124.06 43.57 124.29 43.84 124.58 44.07C123.1 48.08 121.96 50.47 121.16 51.88Z" fill="#3D0E1A"/>
<path d="M41.77 27.09L53.11 25.98L61.61 1.26999L66.73 5.08999L74.67 1.75999L81 5.89999L82.97 4.39999L88.87 10.3L83.35 23.87L89.42 30L87.87 35.35L94.05 39.97L105.71 34.5L111.73 37.97L120.85 34.25L130.91 18.24L137.41 24.41L131.56 42.78L137.41 48.68L131.17 53.75C131.17 53.75 124.41 53.62 124.15 53.75C123.89 53.88 116.48 56.35 116.22 56.42C115.96 56.49 104.06 51.9 104.06 51.9L89.97 58.44L85.46 56.29L68.04 63.31L68.28 66.27L61.07 59.66L58.75 53.22L57.55 52.44L52.41 47.61L55.18 36.16C55.18 36.16 51.46 33.16 51.27 33.18C51.08 33.2 44.12 41.01 44.12 41.01L39.72 39.06L41.78 27.1L41.77 27.09Z" fill="#3D0E1A"/>
<path d="M40.9 5.14L46.51 10.75L30.11 41.29C30.11 41.29 26.54 41.46 26.31 41.01C26.08 40.56 20.67 36.15 20.67 36.15L12.24 43.49L8.30004 48.5L3.23004 43.32C3.23004 43.32 11.81 6.41 12.53 6.3C13.25 6.19 16.07 5.09 16.07 5.09L21.36 10.38L21.62 17.4L24.67 14.34L29.25 19.18L36.08 10.08L40.9 5.13V5.14Z" fill="#3D0E1A"/>
<path d="M40.68 8.05998C40.68 7.30998 40.41 6.66998 39.93 6.23998C39.46 5.81998 38.81 5.63998 38.09 5.71998C36.79 5.86998 35.69 6.84998 33.88 11.38L33.81 11.56C31.93 16.27 30.56 19.68 28.21 26.34C27.26 29.04 25.28 34.65 23.64 34.85C23.42 34.88 23.22 34.81 23.03 34.64C22.62 34.27 21.92 33.12 21.92 29.54C21.92 25.41 22.86 22.52 23.55 20.41C23.97 19.14 24.29 18.13 24.29 17.25C24.29 16.42 23.99 15.7 23.46 15.22C22.95 14.76 22.24 14.56 21.48 14.65C19.68 14.86 18.86 16.69 17.5 19.72C17.32 20.11 17.14 20.52 16.94 20.96C11.68 32.6 8.37002 38.58 7.09002 38.73C7.05002 38.73 6.99002 38.73 6.92002 38.66C6.78002 38.54 6.34002 37.97 6.34002 35.8C6.34002 29.2 10.67 16.92 14.55 10.35C15.22 9.20998 15.52 8.35998 15.52 7.57998C15.52 6.89998 15.26 6.29998 14.78 5.86998C14.31 5.44998 13.7 5.26998 13.05 5.33998C11.81 5.48998 11.08 6.30998 10.49 7.07998C6.52002 12.27 1.46002 26.36 1.46002 34.8C1.46002 38.1 2.22002 40.52 3.67002 41.81C4.40002 42.46 5.29002 42.8 6.25002 42.8C6.42002 42.8 6.59002 42.79 6.76002 42.77C9.39002 42.46 11.86 40.03 17.28 28.23C17.18 32.51 18.04 35.61 19.78 37.24C20.78 38.18 22.06 38.59 23.46 38.42C27.11 37.99 29.44 33.9 32.03 27.43C34.13 22.19 36.46 17.16 38.58 13.28C39.84 10.96 40.67 9.34998 40.67 8.06998L40.68 8.05998Z" fill="#EC408B"/>
<path d="M63.46 25.29C67.56 24.8 69.38 23.3 71.41 20.41C72.09 19.42 72.45 18.22 72.45 17.56C72.45 17.02 72.3 16.61 72.02 16.36C71.82 16.18 71.56 16.1 71.28 16.13C70.77 16.19 70.52 16.6 70.17 17.16C68.23 20.25 66.86 22.03 64.49 22.31C64.07 22.36 63.86 22.35 63.75 22.33C63.75 22.32 63.75 22.3 63.76 22.28C63.88 21.91 64.01 21.54 64.13 21.18L64.15 21.14C64.48 20.36 64.68 19.75 64.79 19.25C67.82 10.4 69.98 5.83999 71.22 5.68999C71.26 5.68999 71.27 5.68999 71.27 5.68999C71.33 5.71999 71.42 5.95999 71.47 6.08999C71.65 6.54999 71.99 7.40999 73.14 7.26999C74.2 7.13999 74.89 6.34999 74.89 5.25999C74.89 4.39999 74.46 3.52999 73.71 2.85999C72.8 2.04999 71.55 1.64999 70.38 1.78999C68.86 1.96999 67.46 2.93999 66.12 4.75999C63.5 8.27999 61.32 14.77 59.37 21.27C59.32 21.45 59.27 21.53 59.25 21.56H59.23C58.38 21.33 57.74 21.25 57.25 21.3C56.42 21.4 55.9 21.96 55.9 22.76C55.9 23.33 56.2 24.39 58.25 25.03C58.25 25.04 58.25 25.06 58.24 25.08C57.82 26.51 57.41 27.92 57.01 29.28C55.76 31.11 54.69 32.03 53.74 32.14C53.33 32.19 53.03 32.13 52.84 31.96C52.56 31.71 52.42 31.17 52.42 30.36C52.42 28.06 53.4 24.37 55.34 19.4C56.16 17.14 57.4 14.48 58.7 11.67L59.06 10.89C59.31 10.35 59.57 9.80999 59.82 9.28999C60.8 7.24999 61.65 5.49999 61.65 4.23999C61.65 3.56999 61.44 3.02999 61.05 2.67999C60.69 2.35999 60.2 2.21999 59.64 2.28999C58.32 2.44999 57.37 3.66999 55.39 7.75999C52.35 14.06 50.13 19.8 49 24.17C48.75 24.28 48.53 24.34 48.31 24.36C47.38 24.47 47.17 23.96 46.83 22.97C46.55 22.13 46.16 20.99 44.74 21.15C43.62 21.28 42.77 22.23 42.77 23.36C42.77 23.87 42.96 24.34 43.15 24.83C43.38 25.41 43.62 26 43.62 26.77C43.62 29.09 41.51 31.9 39.59 32.12C39.13 32.18 38.92 32.04 38.8 31.94C38.56 31.72 38.27 31.17 38.27 29.77C38.27 27.27 39.04 25.06 40.55 23.2C41.55 21.98 42.4 21.48 43.29 20.96L43.48 20.85C44.7 20.17 44.95 19.33 44.95 18.73C44.95 18.2 44.75 17.74 44.37 17.4C43.85 16.94 43.06 16.76 42.08 16.87C37.3 17.44 33.2 24.24 33.2 29.41C33.2 31.55 33.88 33.34 35.13 34.45C35.99 35.22 37.06 35.61 38.24 35.61C38.46 35.61 38.68 35.6 38.9 35.57C41.9 35.22 44.61 32.63 46.16 28.65C46.6 27.6 46.8 27.32 47.45 27.25C47.76 27.21 48.07 27.15 48.37 27.08C48.22 27.99 48.15 28.8 48.15 29.51C48.15 31.54 48.81 33.25 50 34.31C50.81 35.03 51.83 35.42 52.91 35.42C53.09 35.42 53.27 35.41 53.46 35.39C54.15 35.31 54.82 35.08 55.49 34.7C54.98 36.53 54.53 38.18 54.17 39.56C53.45 42.24 53.08 44.11 53.08 45.13C53.08 45.89 53.31 46.51 53.72 46.88C53.99 47.12 54.31 47.24 54.67 47.24C54.73 47.24 54.8 47.24 54.87 47.23C57.01 46.98 58.18 43.71 59.27 38.88C60.43 33.79 61.5 29.72 62.71 25.71C62.7767 25.4967 63.0333 25.3633 63.48 25.31L63.46 25.29Z" fill="#EC408B"/>
<path d="M73.83 29.9C74.57 30.56 75.53 30.89 76.65 30.89C76.88 30.89 77.11 30.88 77.35 30.85C80.42 30.49 82.89 28.03 82.89 26.24C82.89 25.71 82.71 25.26 82.37 24.96C82.08 24.7 81.68 24.58 81.26 24.63C80.33 24.74 79.87 25.59 79.42 26.41C79 27.17 78.61 27.89 77.92 27.97C77.58 28.01 77.42 27.9 77.32 27.82C77.09 27.62 76.82 27.11 76.82 25.82C76.82 23.61 77.66 21.64 78.39 19.91C78.94 18.61 79.42 17.48 79.42 16.51C79.42 15.84 79.19 15.26 78.77 14.89C78.38 14.54 77.85 14.39 77.29 14.46C74.67 14.77 72.09 19.9 72.09 24.81C72.09 27.17 72.67 28.88 73.82 29.91L73.83 29.9Z" fill="#EC408B"/>
<path d="M77.66 11.83C78.07 12.2 78.58 12.39 79.12 12.39C79.21 12.39 79.3 12.39 79.39 12.37C81.1 12.17 82.84 10.31 82.84 8.68C82.84 8.32 82.77 8.09 82.71 7.87C82.64 7.62 82.56 7.36 82.56 6.79C82.56 6.26 82.36 5.8 82.01 5.48C81.67 5.18 81.21 5.04 80.71 5.1C78.8 5.33 76.87 8.12 76.87 9.97C76.87 10.71 77.15 11.37 77.67 11.83H77.66Z" fill="#EC408B"/>
<path d="M129.47 43.54C128.59 43.64 128.15 44.44 127.73 45.21C127.3 45.99 126.89 46.74 126.07 46.83C125.71 46.87 125.4 46.78 125.15 46.56C124.67 46.14 124.41 45.23 124.41 44.01C124.41 41.83 125.45 37.9 127.33 32.94C128.91 28.74 129.94 26.31 130.62 24.69C130.74 24.4 130.85 24.14 130.95 23.91C131.39 22.86 131.55 22.24 131.55 21.64C131.55 20.93 131.29 20.32 130.82 19.9C130.4 19.53 129.86 19.36 129.3 19.43C127.88 19.6 126.94 21.3 125.49 24.81C124.97 26.09 124.42 27.65 123.84 29.3C123.32 30.77 122.78 32.3 122.2 33.82C122.14 33.97 122.1 34.06 122.07 34.11C122.06 34.1 122.04 34.09 122.03 34.07C121.19 33.15 119.41 32.27 117.46 32.5C112.66 33.07 109.53 40.52 109.28 45.82C108.01 47.61 106.95 48.47 105.97 48.59C105.63 48.63 105.39 48.59 105.24 48.45C105.04 48.27 104.93 47.86 104.93 47.28C104.93 45.98 105.44 44.6 105.94 43.26C106.45 41.89 106.97 40.48 106.97 39.11C106.97 37.92 106.59 36.96 105.88 36.33C105.17 35.7 104.18 35.44 103.03 35.58C99.82 35.96 98 39.03 96.8 41.06C96.45 41.65 96.03 42.36 95.78 42.6C95.77 42.53 95.76 42.44 95.76 42.31C95.76 42.31 96.02 41.14 96.38 40.14C96.38 40.12 96.53 39.75 96.61 39.58C97.08 38.53 97.57 37.45 97.57 36.32C97.57 35.34 97.23 34.83 96.94 34.58C96.63 34.3 96.21 34.18 95.78 34.23C93.16 34.54 91.09 41.4 90.16 46.66C88.15 49.79 87 50.62 85.92 50.75C85.58 50.79 85.32 50.73 85.15 50.58C84.9 50.36 84.77 49.91 84.77 49.29C84.77 48.12 85.21 46.08 85.88 44.09C86.19 43.2 86.55 42.34 86.9 41.52C87.52 40.05 88 38.89 88 38.09C88 37.53 87.76 36.98 87.35 36.62C86.97 36.29 86.49 36.13 85.98 36.19C84.59 36.36 83.53 37.99 82.68 39.3C82.4 39.73 82.03 40.31 81.84 40.46C81.72 40.4 81.48 40.22 81.28 40.07C80.48 39.45 79.13 38.42 77.2 38.65C72.43 39.21 69.51 46.22 69.51 51C69.51 51.21 69.51 51.4 69.53 51.6C68.1 54.95 66.99 56.03 65.91 56.3C65.51 56.4 65.21 56.38 64.99 56.23C64.68 56.02 64.47 55.5 64.37 54.69C64.08 52.41 64.59 48.63 65.89 43.45C66.42 41.1 67.31 38.32 68.25 35.37L68.51 34.55C68.69 33.98 68.88 33.41 69.06 32.86C69.78 30.72 70.4 28.86 70.24 27.61C70.16 26.95 69.88 26.44 69.44 26.14C69.04 25.86 68.54 25.79 67.99 25.93C66.71 26.25 65.91 27.59 64.46 31.89C61.14 41.77 59.48 50.19 60.02 54.4C60.28 56.42 61.14 58.03 62.45 58.93C63.19 59.44 64.04 59.7 64.91 59.7C65.27 59.7 65.64 59.65 66.01 59.56C67.74 59.13 69.27 57.77 70.69 55.28C70.87 55.52 71.06 55.71 71.24 55.87C71.93 56.48 72.79 56.81 73.71 56.81C73.86 56.81 74.02 56.81 74.18 56.78C76.85 56.46 78.49 53.64 79.69 51.58C80.11 50.86 80.67 49.89 80.94 49.75C81.05 49.88 81.21 50.29 81.33 50.61C81.85 51.97 82.71 54.23 85.79 53.87C87.06 53.72 88.23 53.24 89.61 51.84C89.66 53.39 90.06 54.6 90.72 55.19C90.99 55.43 91.29 55.55 91.6 55.55C91.65 55.55 91.69 55.55 91.74 55.55C93.13 55.38 94.45 52.59 96.48 48.05C98.06 44.52 100.02 40.13 101.37 39.97C101.41 39.97 101.43 39.97 101.44 39.97C101.46 40 101.5 40.12 101.5 40.43C101.5 41.04 101.3 41.96 101.08 42.93C100.8 44.21 100.48 45.65 100.48 46.95C100.48 48.62 100.99 49.96 101.96 50.82C102.85 51.61 104.08 51.95 105.5 51.78C106.98 51.6 108.34 50.92 109.68 49.58C110.02 50.66 110.55 51.54 111.25 52.17C111.97 52.81 112.85 53.15 113.77 53.15C113.92 53.15 114.07 53.15 114.21 53.12C117.2 52.77 118.97 49.35 120.03 47.31C120.21 46.95 120.42 46.57 120.57 46.32C120.63 46.42 120.69 46.54 120.75 46.64C121.38 47.79 122.7 50.19 125.83 49.82C128.74 49.48 131.09 47 131.09 45.18C131.09 44.66 130.91 44.21 130.58 43.91C130.28 43.65 129.89 43.53 129.47 43.58V43.54ZM118.53 35.64C118.53 35.64 118.58 35.64 118.6 35.64C118.81 35.64 118.93 35.79 119.18 36.33C119.44 36.87 119.82 37.69 120.83 37.63C117.75 46.29 115.56 49.5 114.63 49.61C114.57 49.61 114.53 49.61 114.48 49.56C114.38 49.47 114.05 49.05 114.05 47.4C114.05 42.45 116.83 35.85 118.53 35.65V35.64ZM79.75 43.48C79.75 44.15 79.58 44.77 78.6 46.89C76.24 52 75.09 53.16 74.53 53.22C74.5 53.22 74.42 53.23 74.3 53.13C74.04 52.9 73.77 52.26 73.77 51.14C73.77 47.79 75.93 42.21 78.48 41.91C78.55 41.91 78.61 41.9 78.67 41.9C78.93 41.9 79.15 41.97 79.31 42.12C79.59 42.37 79.74 42.84 79.74 43.48H79.75Z" fill="#EC408B"/>
<path d="M6.66005 17.05C6.66005 17.05 6.59005 17.05 6.56005 17.03C6.41005 16.98 6.33005 16.81 6.38005 16.66L7.08005 14.7C7.13005 14.55 7.30005 14.47 7.45005 14.52C7.60005 14.57 7.68005 14.74 7.63005 14.89L6.93005 16.85C6.89005 16.97 6.77005 17.04 6.65005 17.04L6.66005 17.05Z" fill="#3D0E1A"/>
<path d="M19.13 34.1C18.99 34.1 18.87 34 18.84 33.87L18.43 31.83C18.4 31.67 18.5 31.52 18.66 31.49C18.82 31.46 18.97 31.56 19 31.72L19.41 33.76C19.44 33.92 19.34 34.07 19.18 34.1C19.16 34.1 19.14 34.1 19.12 34.1H19.13Z" fill="#3D0E1A"/>
<path d="M53.02 18.25C53.02 18.25 52.95 18.25 52.91 18.23C52.76 18.17 52.69 18 52.75 17.85L53.53 15.92C53.59 15.77 53.76 15.7 53.91 15.76C54.06 15.82 54.13 15.99 54.07 16.14L53.29 18.07C53.24 18.18 53.13 18.25 53.02 18.25Z" fill="#3D0E1A"/>
<path d="M51.43 19.32C51.43 19.32 51.36 19.32 51.32 19.3C51.17 19.24 51.1 19.07 51.16 18.92L51.94 16.99C52 16.84 52.17 16.77 52.32 16.83C52.47 16.89 52.54 17.06 52.48 17.21L51.7 19.14C51.65 19.25 51.54 19.32 51.43 19.32Z" fill="#3D0E1A"/>
<path d="M52.81 15.83C52.81 15.83 52.74 15.83 52.7 15.81C52.55 15.75 52.48 15.58 52.54 15.43L53.32 13.5C53.38 13.35 53.55 13.28 53.7 13.34C53.85 13.4 53.92 13.57 53.86 13.72L53.08 15.65C53.03 15.76 52.92 15.83 52.81 15.83Z" fill="#3D0E1A"/>
<path d="M56.45 39.83C56.45 39.83 56.39 39.83 56.37 39.82C56.22 39.77 56.13 39.61 56.17 39.46L56.76 37.46C56.81 37.31 56.97 37.22 57.12 37.26C57.27 37.31 57.36 37.47 57.32 37.62L56.73 39.62C56.69 39.75 56.58 39.83 56.45 39.83Z" fill="#3D0E1A"/>
<path d="M60.48 21.37C60.48 21.37 60.42 21.37 60.4 21.36C60.25 21.31 60.16 21.15 60.2 21L60.79 19C60.84 18.85 61 18.76 61.15 18.8C61.3 18.85 61.39 19.01 61.35 19.16L60.76 21.16C60.72 21.29 60.61 21.37 60.48 21.37Z" fill="#3D0E1A"/>
<path d="M60.68 29.57C60.68 29.57 60.62 29.57 60.6 29.56C60.45 29.51 60.36 29.35 60.4 29.2L60.99 27.2C61.04 27.05 61.2 26.96 61.35 27C61.5 27.05 61.59 27.21 61.55 27.36L60.96 29.36C60.92 29.49 60.81 29.57 60.68 29.57Z" fill="#3D0E1A"/>
<path d="M64.55 13.13C64.55 13.13 64.48 13.13 64.45 13.11C64.3 13.05 64.22 12.88 64.28 12.73L65.01 10.78C65.07 10.63 65.24 10.55 65.39 10.61C65.54 10.67 65.62 10.84 65.56 10.99L64.83 12.94C64.79 13.06 64.67 13.13 64.56 13.13H64.55Z" fill="#3D0E1A"/>
<path d="M62.72 14.73C62.72 14.73 62.65 14.73 62.62 14.71C62.47 14.65 62.39 14.48 62.45 14.33L63.18 12.38C63.24 12.23 63.41 12.15 63.56 12.21C63.71 12.27 63.79 12.44 63.73 12.59L63 14.54C62.96 14.66 62.84 14.73 62.73 14.73H62.72Z" fill="#3D0E1A"/>
<path d="M73.67 26.9C73.54 26.9 73.43 26.82 73.39 26.69C73.1 25.71 73.21 24.55 73.22 24.5C73.24 24.34 73.38 24.22 73.54 24.24C73.7 24.26 73.82 24.4 73.8 24.56C73.8 24.57 73.7 25.66 73.95 26.53C74 26.68 73.91 26.85 73.75 26.89C73.72 26.89 73.7 26.9 73.67 26.9Z" fill="#3D0E1A"/>
<path d="M75.3 29.85C75.23 29.85 75.16 29.82 75.1 29.77C74.35 29.08 73.84 28.03 73.82 27.98C73.75 27.83 73.82 27.66 73.96 27.59C74.11 27.52 74.28 27.59 74.35 27.73C74.35 27.73 74.83 28.73 75.5 29.34C75.62 29.45 75.63 29.63 75.52 29.75C75.46 29.81 75.38 29.84 75.3 29.84V29.85Z" fill="#3D0E1A"/>
<path d="M75.53 27.87C75.44 27.87 75.34 27.83 75.29 27.74C74.72 26.9 74.46 25.76 74.45 25.71C74.42 25.55 74.52 25.4 74.67 25.36C74.83 25.33 74.98 25.42 75.02 25.58C75.02 25.59 75.26 26.66 75.77 27.41C75.86 27.54 75.83 27.73 75.69 27.82C75.64 27.85 75.58 27.87 75.53 27.87Z" fill="#3D0E1A"/>
<path d="M54.96 41.05C54.96 41.05 54.9 41.05 54.88 41.04C54.73 40.99 54.64 40.83 54.68 40.68L55.27 38.68C55.32 38.53 55.48 38.44 55.63 38.48C55.78 38.53 55.87 38.69 55.83 38.84L55.24 40.84C55.2 40.97 55.09 41.05 54.96 41.05Z" fill="#3D0E1A"/>
<path d="M56.01 37.44C56.01 37.44 55.95 37.44 55.93 37.43C55.78 37.38 55.69 37.22 55.73 37.07L56.32 35.07C56.37 34.92 56.53 34.83 56.68 34.87C56.83 34.92 56.92 35.08 56.88 35.23L56.29 37.23C56.25 37.36 56.14 37.44 56.01 37.44Z" fill="#3D0E1A"/>
<path d="M61.1 48.54C61.1 48.54 61.07 48.54 61.05 48.54C60.89 48.51 60.78 48.36 60.81 48.2L61.15 46.14C61.18 45.98 61.33 45.87 61.49 45.9C61.65 45.93 61.76 46.08 61.73 46.24L61.39 48.3C61.37 48.44 61.24 48.54 61.1 48.54Z" fill="#3D0E1A"/>
<path d="M70.64 50C70.64 50 70.61 50 70.59 50C70.43 49.97 70.32 49.82 70.35 49.66L70.69 47.6C70.72 47.44 70.87 47.33 71.03 47.36C71.19 47.39 71.3 47.54 71.27 47.7L70.93 49.76C70.91 49.9 70.78 50 70.64 50Z" fill="#3D0E1A"/>
<path d="M62.51 47.12C62.51 47.12 62.48 47.12 62.46 47.12C62.3 47.09 62.19 46.94 62.22 46.78L62.56 44.72C62.59 44.56 62.74 44.45 62.9 44.48C63.06 44.51 63.17 44.66 63.14 44.82L62.8 46.88C62.78 47.02 62.65 47.12 62.51 47.12Z" fill="#3D0E1A"/>
<path d="M61.91 50.86C61.91 50.86 61.88 50.86 61.86 50.86C61.7 50.83 61.59 50.68 61.62 50.52L61.96 48.46C61.99 48.3 62.13 48.19 62.3 48.22C62.46 48.25 62.57 48.4 62.54 48.56L62.2 50.62C62.18 50.76 62.05 50.86 61.91 50.86Z" fill="#3D0E1A"/>
<path d="M67.03 36.23C67.03 36.23 66.97 36.23 66.95 36.22C66.8 36.17 66.71 36.01 66.75 35.86L67.35 33.86C67.4 33.71 67.56 33.62 67.71 33.66C67.86 33.71 67.95 33.87 67.91 34.02L67.31 36.02C67.27 36.15 67.16 36.23 67.03 36.23Z" fill="#3D0E1A"/>
<path d="M71.87 48.54C71.87 48.54 71.84 48.54 71.82 48.54C71.66 48.51 71.55 48.36 71.58 48.2L71.93 46.15C71.96 45.99 72.11 45.88 72.27 45.91C72.43 45.94 72.54 46.09 72.51 46.25L72.16 48.3C72.14 48.44 72.01 48.54 71.87 48.54Z" fill="#3D0E1A"/>
<path d="M84.66 44.79C84.66 44.79 84.61 44.79 84.58 44.78C84.42 44.74 84.33 44.57 84.38 44.42L84.95 42.42C84.99 42.26 85.16 42.17 85.31 42.22C85.47 42.26 85.56 42.43 85.51 42.58L84.94 44.58C84.9 44.71 84.79 44.79 84.66 44.79Z" fill="#3D0E1A"/>
<path d="M83.1 46.26C83.1 46.26 83.05 46.26 83.02 46.25C82.86 46.21 82.77 46.04 82.82 45.89L83.39 43.89C83.43 43.73 83.6 43.64 83.75 43.69C83.91 43.73 84 43.9 83.95 44.05L83.38 46.05C83.34 46.18 83.23 46.26 83.1 46.26Z" fill="#3D0E1A"/>
<path d="M92.46 54.08C92.41 54.08 92.36 54.07 92.31 54.04C92.17 53.96 92.13 53.78 92.21 53.64L93.28 51.85C93.36 51.71 93.54 51.67 93.68 51.75C93.82 51.83 93.86 52.01 93.78 52.15L92.71 53.94C92.66 54.03 92.56 54.08 92.46 54.08Z" fill="#3D0E1A"/>
<path d="M94.26 50.82C94.26 50.82 94.17 50.81 94.12 50.79C93.98 50.72 93.92 50.54 94 50.4L94.97 48.55C95.04 48.41 95.22 48.35 95.36 48.43C95.5 48.5 95.56 48.68 95.48 48.82L94.51 50.67C94.46 50.77 94.36 50.83 94.25 50.83L94.26 50.82Z" fill="#3D0E1A"/>
<path d="M92.51 51.59C92.51 51.59 92.42 51.58 92.37 51.56C92.23 51.49 92.17 51.31 92.25 51.17L93.22 49.32C93.29 49.18 93.47 49.12 93.61 49.2C93.75 49.27 93.81 49.45 93.73 49.59L92.76 51.44C92.71 51.54 92.61 51.6 92.5 51.6L92.51 51.59Z" fill="#3D0E1A"/>
<path d="M83.95 48.32C83.95 48.32 83.92 48.32 83.9 48.32C83.74 48.29 83.64 48.14 83.66 47.98L84.02 45.93C84.05 45.77 84.2 45.66 84.36 45.69C84.52 45.72 84.62 45.87 84.6 46.03L84.24 48.08C84.21 48.22 84.09 48.32 83.95 48.32Z" fill="#3D0E1A"/>
<path d="M129.34 24.6C129.34 24.6 129.25 24.6 129.21 24.57C129.07 24.5 129.01 24.32 129.08 24.18L130.01 22.31C130.08 22.17 130.26 22.11 130.4 22.18C130.54 22.25 130.6 22.43 130.53 22.57L129.6 24.44C129.55 24.54 129.45 24.6 129.34 24.6Z" fill="#3D0E1A"/>
<path d="M127.54 25.76C127.54 25.76 127.45 25.76 127.41 25.73C127.27 25.66 127.21 25.48 127.28 25.34L128.21 23.47C128.28 23.33 128.46 23.27 128.6 23.34C128.74 23.41 128.8 23.59 128.73 23.73L127.8 25.6C127.75 25.7 127.65 25.76 127.54 25.76Z" fill="#3D0E1A"/>
<path d="M128.01 27.94C128.01 27.94 127.94 27.94 127.91 27.92C127.76 27.86 127.68 27.69 127.74 27.54L128.47 25.59C128.53 25.44 128.7 25.36 128.85 25.42C129 25.48 129.08 25.65 129.02 25.8L128.29 27.75C128.25 27.87 128.13 27.94 128.02 27.94H128.01Z" fill="#3D0E1A"/>
<path d="M21.0101 35.52C20.8701 35.52 20.7501 35.42 20.7201 35.29L20.3101 33.25C20.2801 33.09 20.3801 32.94 20.5401 32.91C20.7001 32.88 20.8501 32.98 20.8801 33.14L21.2901 35.18C21.3201 35.34 21.2201 35.49 21.0601 35.52C21.0401 35.52 21.0201 35.52 21.0001 35.52H21.0101Z" fill="#3D0E1A"/>
<path d="M20.11 22.2C20.11 22.2 20.04 22.2 20.01 22.18C19.86 22.13 19.78 21.96 19.83 21.81L20.53 19.85C20.58 19.7 20.75 19.62 20.9 19.67C21.05 19.72 21.13 19.89 21.08 20.04L20.38 22C20.34 22.12 20.22 22.19 20.1 22.19L20.11 22.2Z" fill="#3D0E1A"/>
<path d="M44.48 26.38C44.35 26.38 44.23 26.29 44.2 26.16L43.72 24.13C43.68 23.97 43.78 23.82 43.94 23.78C44.1 23.74 44.25 23.84 44.29 24L44.77 26.03C44.81 26.19 44.71 26.34 44.55 26.38C44.53 26.38 44.5 26.38 44.48 26.38Z" fill="#3D0E1A"/>
<path d="M17.75 23.16C17.75 23.16 17.67 23.16 17.63 23.14C17.48 23.08 17.41 22.9 17.48 22.76L18.31 20.85C18.37 20.7 18.55 20.63 18.69 20.7C18.84 20.76 18.91 20.94 18.84 21.08L18.01 22.99C17.96 23.1 17.85 23.17 17.74 23.17L17.75 23.16Z" fill="#3D0E1A"/>
<path d="M35.37 11.21C35.37 11.21 35.3 11.21 35.26 11.19C35.11 11.13 35.04 10.96 35.09 10.81C35.12 10.73 35.91 8.72998 36.73 7.87998C36.84 7.75998 37.03 7.75998 37.14 7.87998C37.26 7.98998 37.26 8.17998 37.14 8.28998C36.4 9.05998 35.63 11.01 35.62 11.03C35.57 11.15 35.46 11.22 35.35 11.22L35.37 11.21Z" fill="#3D0E1A"/>
<path d="M7.54 19.23C7.54 19.23 7.47 19.23 7.44 19.21C7.29 19.16 7.21 18.99 7.26 18.84L7.96 16.88C8.01 16.73 8.18 16.65 8.33 16.7C8.48 16.75 8.56 16.92 8.51 17.07L7.81 19.03C7.77 19.15 7.65 19.22 7.53 19.22L7.54 19.23Z" fill="#3D0E1A"/>
<path d="M9.7 38.25C9.65 38.25 9.6 38.24 9.55 38.21C9.41 38.13 9.36 37.95 9.45 37.81L10.51 36.02C10.59 35.88 10.77 35.84 10.91 35.92C11.05 36 11.1 36.18 11.01 36.32L9.95 38.11C9.9 38.2 9.8 38.25 9.7 38.25Z" fill="#3D0E1A"/>
<path d="M4.00003 25.87C4.00003 25.87 3.95003 25.87 3.93003 25.87C3.77003 25.83 3.68003 25.67 3.72003 25.51L4.11003 24C4.15003 23.84 4.31003 23.75 4.47003 23.79C4.63003 23.83 4.72003 23.99 4.68003 24.15L4.29003 25.66C4.26003 25.79 4.14003 25.88 4.01003 25.88L4.00003 25.87Z" fill="#3D0E1A"/>
<path d="M19.46 19.18C19.46 19.18 19.38 19.18 19.34 19.15C19.19 19.08 19.13 18.91 19.19 18.76L19.84 17.34C19.91 17.19 20.08 17.13 20.23 17.19C20.38 17.26 20.44 17.43 20.38 17.58L19.73 19C19.68 19.11 19.57 19.17 19.46 19.17V19.18Z" fill="#3D0E1A"/>
<path d="M4.96004 27.62C4.96004 27.62 4.93004 27.62 4.91004 27.62C4.75004 27.59 4.64004 27.44 4.67004 27.28L4.94004 25.74C4.97004 25.58 5.12004 25.47 5.28004 25.5C5.44004 25.53 5.55004 25.68 5.52004 25.84L5.25004 27.38C5.23004 27.52 5.10004 27.62 4.96004 27.62Z" fill="#3D0E1A"/>
<path d="M36.16 12.75C36.16 12.75 36.08 12.75 36.05 12.73C35.9 12.67 35.83 12.5 35.89 12.35L36.68 10.44C36.74 10.29 36.91 10.22 37.06 10.28C37.21 10.34 37.28 10.51 37.22 10.66L36.43 12.57C36.38 12.68 36.27 12.75 36.16 12.75Z" fill="#3D0E1A"/>
<path d="M34.18 14.29C34.18 14.29 34.11 14.29 34.07 14.27C33.92 14.21 33.85 14.04 33.9 13.89L34.5 12.35C34.56 12.2 34.73 12.13 34.88 12.18C35.03 12.24 35.1 12.41 35.05 12.56L34.45 14.1C34.4 14.22 34.29 14.29 34.18 14.29Z" fill="#3D0E1A"/>
<path d="M32.19 24.35C32.19 24.35 32.12 24.35 32.09 24.33C31.94 24.28 31.86 24.11 31.91 23.96L32.89 21.2C32.94 21.05 33.11 20.97 33.26 21.02C33.41 21.07 33.49 21.24 33.44 21.39L32.46 24.15C32.42 24.27 32.3 24.34 32.18 24.34L32.19 24.35Z" fill="#3D0E1A"/>
<path d="M34.29 30.37C34.16 30.37 34.04 30.28 34.01 30.15C34 30.11 33.75 29.05 34.01 27.28C34.03 27.12 34.18 27.01 34.34 27.03C34.5 27.05 34.61 27.2 34.59 27.36C34.35 29.01 34.59 29.99 34.59 30C34.63 30.16 34.53 30.31 34.38 30.35C34.36 30.35 34.33 30.35 34.31 30.35L34.29 30.37Z" fill="#3D0E1A"/>
<path d="M10.23 19.09C10.23 19.09 10.16 19.09 10.13 19.07C9.98004 19.01 9.90004 18.84 9.96004 18.69C10.66 16.85 12.4 15.27 12.48 15.2C12.6 15.09 12.78 15.1 12.89 15.22C13 15.34 12.99 15.52 12.87 15.63C12.85 15.65 11.15 17.19 10.51 18.89C10.47 19.01 10.35 19.08 10.24 19.08L10.23 19.09Z" fill="#EC408B"/>
<path d="M9.84005 20.24C9.84005 20.24 9.76005 20.24 9.72005 20.21C9.57005 20.14 9.51005 19.97 9.57005 19.82C10.2101 18.37 11.3001 17.92 11.3401 17.9C11.4901 17.84 11.6601 17.91 11.7201 18.06C11.7801 18.21 11.7101 18.38 11.5601 18.44C11.5401 18.44 10.6401 18.84 10.1001 20.06C10.0501 20.17 9.94005 20.23 9.83005 20.23L9.84005 20.24Z" fill="#EC408B"/>
<path d="M6.38003 43.79C6.28003 43.79 6.19003 43.74 6.13003 43.65C6.04003 43.51 6.08003 43.33 6.22003 43.25C6.24003 43.24 8.20003 41.99 9.29003 40.7C9.39003 40.58 9.58003 40.56 9.70003 40.66C9.82003 40.76 9.84003 40.95 9.74003 41.07C8.59003 42.44 6.62003 43.69 6.54003 43.74C6.49003 43.77 6.44003 43.78 6.38003 43.78V43.79Z" fill="#EC408B"/>
<path d="M9.52003 43.09H9.49003C9.33003 43.07 9.21003 42.93 9.23003 42.77C9.23003 42.67 9.46003 40.4 10.98 38.71C11.09 38.59 11.27 38.58 11.39 38.69C11.51 38.8 11.52 38.98 11.41 39.1C10.02 40.64 9.81003 42.8 9.80003 42.82C9.79003 42.97 9.66003 43.09 9.51003 43.09H9.52003Z" fill="#EC408B"/>
<path d="M21.71 32.34C21.57 32.34 21.44 32.24 21.42 32.09C21.01 29.29 22.7 27.23 22.78 27.14C22.88 27.02 23.07 27 23.19 27.1C23.31 27.2 23.33 27.39 23.23 27.51C23.21 27.53 21.63 29.46 22 32C22.02 32.16 21.91 32.31 21.75 32.33C21.74 32.33 21.72 32.33 21.71 32.33V32.34Z" fill="#EC408B"/>
<path d="M21.83 32.83C21.68 32.83 21.55 32.72 21.54 32.56C21.34 30.39 22.56 29.47 22.61 29.43C22.74 29.33 22.92 29.36 23.02 29.49C23.12 29.62 23.09 29.8 22.96 29.9C22.92 29.93 21.96 30.69 22.12 32.51C22.13 32.67 22.02 32.81 21.86 32.83H21.83Z" fill="#EC408B"/>
<path d="M28.62 34.3C28.56 34.3 28.51 34.28 28.46 34.25C28.33 34.16 28.29 33.98 28.38 33.84C29.48 32.18 30.72 31.39 30.78 31.35C30.92 31.26 31.1 31.31 31.18 31.44C31.27 31.58 31.22 31.76 31.09 31.84C31.08 31.84 29.9 32.6 28.87 34.15C28.81 34.24 28.72 34.28 28.63 34.28L28.62 34.3Z" fill="#EC408B"/>
<path d="M42.92 33.36C42.85 33.36 42.78 33.34 42.73 33.29C42.61 33.18 42.6 33 42.71 32.88C44.03 31.39 45.38 30.79 45.43 30.76C45.58 30.69 45.75 30.76 45.82 30.91C45.89 31.06 45.82 31.23 45.67 31.3C45.66 31.3 44.38 31.88 43.15 33.27C43.09 33.34 43.01 33.37 42.93 33.37L42.92 33.36Z" fill="#EC408B"/>
<path d="M27.52 35.66C27.47 35.66 27.41 35.65 27.36 35.61C27.22 35.52 27.18 35.34 27.27 35.21C28.16 33.8 30.1 33.32 30.18 33.3C30.34 33.26 30.49 33.36 30.53 33.51C30.57 33.67 30.47 33.82 30.32 33.86C30.3 33.86 28.53 34.31 27.76 35.52C27.7 35.61 27.61 35.66 27.51 35.66H27.52Z" fill="#EC408B"/>
<path d="M37.17 20.37C37.11 20.37 37.05 20.35 37 20.31C36.87 20.21 36.84 20.03 36.94 19.9C38.29 18.08 41.21 14.98 41.34 14.85C41.45 14.73 41.64 14.73 41.75 14.84C41.87 14.95 41.87 15.14 41.76 15.25C41.73 15.28 38.73 18.45 37.41 20.25C37.35 20.33 37.26 20.37 37.17 20.37Z" fill="#EC408B"/>
<path d="M39.05 18.65C39.05 18.65 38.96 18.65 38.92 18.62C38.78 18.55 38.72 18.37 38.79 18.23C39.25 17.31 41.27 16.2 41.5 16.07C41.64 15.99 41.82 16.05 41.9 16.19C41.98 16.33 41.92 16.51 41.78 16.59C41.2 16.9 39.64 17.86 39.32 18.49C39.27 18.59 39.17 18.65 39.06 18.65H39.05Z" fill="#EC408B"/>
<path d="M36.56 32.2C36.48 32.2 36.4 32.17 36.34 32.1C35.26 30.89 35.28 29.26 35.28 29.19C35.28 29.03 35.41 28.9 35.58 28.9C35.74 28.9 35.87 29.03 35.87 29.2C35.87 29.21 35.87 30.67 36.78 31.71C36.89 31.83 36.88 32.02 36.76 32.12C36.7 32.17 36.63 32.19 36.57 32.19L36.56 32.2Z" fill="#3D0E1A"/>
<path d="M44.26 9.25999C44.18 9.25999 44.09 9.21999 44.04 9.14999C42.71 7.55999 41.79 5.64999 41.75 5.56999C41.68 5.41999 41.75 5.24999 41.89 5.17999C42.04 5.10999 42.21 5.17999 42.28 5.31999C42.28 5.33999 43.21 7.23999 44.49 8.77999C44.59 8.89999 44.58 9.08999 44.45 9.18999C44.4 9.23999 44.33 9.25999 44.26 9.25999Z" fill="#3D0E1A"/>
<path d="M45.4 10.4C45.32 10.4 45.23 10.36 45.18 10.29C43.83 8.66999 43.41 6.96999 43.39 6.89999C43.35 6.73999 43.45 6.58999 43.6 6.54999C43.76 6.50999 43.91 6.60999 43.95 6.75999C43.95 6.77999 44.36 8.40999 45.62 9.91999C45.72 10.04 45.71 10.23 45.58 10.33C45.53 10.38 45.46 10.4 45.39 10.4H45.4Z" fill="#3D0E1A"/>
<path d="M28.17 18.88C28.1 18.88 28.02 18.85 27.96 18.8C27.09 17.94 26.22 15.63 26.19 15.53C26.13 15.38 26.21 15.21 26.36 15.15C26.51 15.09 26.68 15.17 26.74 15.32C26.74 15.34 27.6 17.61 28.38 18.38C28.5 18.49 28.5 18.68 28.38 18.79C28.32 18.85 28.25 18.88 28.17 18.88Z" fill="#3D0E1A"/>
<path d="M5.91 47.86C5.77 47.86 5.65 47.76 5.62 47.62C5.62 47.6 5.19 45.13 4 44.07C3.88 43.96 3.87 43.78 3.98 43.66C4.09 43.54 4.27 43.53 4.39 43.64C5.74 44.84 6.18 47.43 6.2 47.53C6.23 47.69 6.12 47.84 5.96 47.87C5.94 47.87 5.93 47.87 5.91 47.87V47.86Z" fill="#3D0E1A"/>
<path d="M4.20003 46.21C4.20003 46.21 4.13003 46.21 4.10003 46.19C3.95003 46.13 3.87003 45.97 3.93003 45.82C3.95003 45.77 4.37003 44.52 2.81003 43.01C2.69003 42.9 2.69003 42.71 2.81003 42.6C2.92003 42.48 3.11003 42.48 3.22003 42.6C5.06003 44.39 4.50003 45.97 4.48003 46.03C4.44003 46.15 4.32003 46.22 4.21003 46.22L4.20003 46.21Z" fill="#3D0E1A"/>
<path d="M42.38 43.79C42.33 43.79 42.28 43.78 42.23 43.75C42.13 43.69 39.75 42.2 38.44 39.38C38.37 39.23 38.44 39.06 38.58 38.99C38.73 38.92 38.9 38.99 38.97 39.13C40.2 41.79 42.51 43.24 42.53 43.25C42.67 43.33 42.71 43.51 42.63 43.65C42.57 43.74 42.48 43.79 42.38 43.79Z" fill="#3D0E1A"/>
<path d="M40.54 43.46C40.43 43.46 40.33 43.4 40.28 43.3C40.28 43.29 39.71 42.13 38.44 39.38C38.37 39.23 38.44 39.06 38.58 38.99C38.73 38.92 38.9 38.99 38.97 39.13C40.23 41.87 40.8 43.03 40.8 43.04C40.87 43.19 40.81 43.36 40.67 43.43C40.63 43.45 40.59 43.46 40.54 43.46Z" fill="#3D0E1A"/>
<path d="M59.64 9.02999C59.59 9.02999 59.53 9.01999 59.49 8.98999C59.35 8.89999 59.31 8.71999 59.4 8.58999C60.72 6.45999 62.04 3.33999 62.06 3.29999C62.12 3.14999 62.29 3.07999 62.44 3.13999C62.59 3.19999 62.66 3.36999 62.6 3.51999C62.59 3.54999 61.25 6.71999 59.9 8.88999C59.84 8.97999 59.75 9.02999 59.65 9.02999H59.64Z" fill="#EC408B"/>
<path d="M58.56 11.46C58.56 11.46 58.47 11.46 58.43 11.43C58.28 11.36 58.22 11.18 58.3 11.04C59.5 8.6 61.71 6.21 61.81 6.11C61.92 5.99 62.11 5.99 62.22 6.1C62.33 6.21 62.34 6.4 62.23 6.51C62.21 6.53 59.98 8.93 58.82 11.3C58.77 11.4 58.67 11.46 58.56 11.46Z" fill="#EC408B"/>
<path d="M55.17 5.73999C55.17 5.73999 55.08 5.72999 55.03 5.70999C54.89 5.62999 54.83 5.45999 54.91 5.30999C55.15 4.85999 55.36 4.41999 55.55 3.99999C56.28 2.43999 56.96 0.969988 59.07 0.0299881C59.22 -0.0400119 59.39 0.0299881 59.46 0.179988C59.53 0.329988 59.46 0.499988 59.31 0.569988C57.4 1.42999 56.79 2.73999 56.08 4.25999C55.88 4.68999 55.67 5.13999 55.42 5.59999C55.37 5.69999 55.27 5.74999 55.16 5.74999L55.17 5.73999Z" fill="#3D0E1A"/>
<path d="M55.02 6.95C55.02 6.95 54.97 6.95 54.94 6.94C54.78 6.89 54.7 6.73 54.74 6.58C55.4 4.31 56.16 1.05 56.17 1.01C56.21 0.849998 56.36 0.759998 56.52 0.789998C56.68 0.829998 56.77 0.979998 56.74 1.14C56.74 1.17 55.97 4.45 55.3 6.74C55.26 6.87 55.15 6.95 55.02 6.95Z" fill="#3D0E1A"/>
<path d="M59.04 24.78C57.06 24.78 55.42 24.12 55.35 24.1C55.2 24.04 55.13 23.87 55.19 23.72C55.25 23.57 55.42 23.5 55.57 23.56C55.59 23.56 57.17 24.2 59.04 24.2C59.05 24.2 59.06 24.2 59.08 24.2C59.24 24.2 59.37 24.33 59.37 24.49C59.37 24.65 59.24 24.78 59.08 24.78H59.04Z" fill="#EC408B"/>
<path d="M57.38 25.26C56.6 25.26 56.07 25.18 56.03 25.17C55.87 25.15 55.76 25 55.79 24.84C55.81 24.68 55.96 24.57 56.12 24.6C56.14 24.6 57.85 24.86 59.68 24.42C59.84 24.38 59.99 24.48 60.03 24.64C60.07 24.8 59.97 24.95 59.81 24.99C58.91 25.21 58.05 25.27 57.37 25.27L57.38 25.26Z" fill="#EC408B"/>
<path d="M65.13 17.64C65.13 17.64 65.05 17.64 65.02 17.62C64.87 17.56 64.8 17.39 64.86 17.24C66.08 14.32 67.75 12.05 67.77 12.02C67.87 11.89 68.05 11.86 68.18 11.96C68.31 12.06 68.34 12.24 68.24 12.37C68.22 12.39 66.6 14.61 65.4 17.46C65.35 17.57 65.24 17.64 65.13 17.64Z" fill="#EC408B"/>
<path d="M64.32 20.12C64.32 20.12 64.24 20.12 64.21 20.1C64.06 20.04 63.99 19.87 64.05 19.72C65.35 16.66 66.4 14.85 66.93 14.76C67.09 14.73 67.24 14.84 67.27 15C67.29 15.14 67.21 15.28 67.08 15.32C67 15.37 66.29 15.92 64.58 19.95C64.53 20.06 64.42 20.13 64.31 20.13L64.32 20.12Z" fill="#EC408B"/>
<path d="M60.25 53.51C60.11 53.51 59.99 53.41 59.96 53.27C59.73 52.06 59.46 46.88 59.45 46.66C59.45 46.5 59.57 46.36 59.73 46.35C59.89 46.34 60.03 46.47 60.04 46.63C60.04 46.68 60.32 51.99 60.54 53.16C60.57 53.32 60.47 53.47 60.31 53.5C60.29 53.5 60.27 53.5 60.26 53.5L60.25 53.51Z" fill="#EC408B"/>
<path d="M60.49 55.47C60.37 55.47 60.26 55.39 60.21 55.27C59.8 54.11 58.76 49.03 58.72 48.81C58.69 48.65 58.79 48.5 58.95 48.46C59.11 48.43 59.26 48.53 59.3 48.69C59.31 48.74 60.37 53.94 60.77 55.07C60.82 55.22 60.74 55.39 60.59 55.44C60.56 55.45 60.53 55.46 60.49 55.46V55.47Z" fill="#EC408B"/>
<path d="M58.14 52.85C58.06 52.85 57.99 52.82 57.93 52.76C56.4 51.15 53.98 50.45 53.96 50.44C53.8 50.4 53.71 50.23 53.76 50.08C53.8 49.92 53.97 49.83 54.12 49.88C54.23 49.91 56.71 50.63 58.36 52.36C58.47 52.48 58.47 52.66 58.36 52.77C58.3 52.82 58.23 52.85 58.16 52.85H58.14Z" fill="#3D0E1A"/>
<path d="M59.01 54.05C58.94 54.05 58.86 54.02 58.8 53.97C56.54 51.74 55.68 52.01 55.67 52.01C55.53 52.09 55.36 52.03 55.28 51.88C55.2 51.73 55.27 51.56 55.41 51.48C55.6 51.38 56.65 51.02 59.21 53.55C59.32 53.66 59.33 53.85 59.21 53.96C59.15 54.02 59.08 54.05 59 54.05H59.01Z" fill="#3D0E1A"/>
<path d="M76.6 24.69C76.6 24.69 76.57 24.69 76.55 24.69C76.39 24.66 76.28 24.51 76.31 24.35C76.71 21.97 78.92 19.34 79.02 19.22C79.12 19.1 79.31 19.08 79.43 19.19C79.55 19.29 79.57 19.48 79.46 19.6C79.44 19.63 77.26 22.22 76.88 24.44C76.86 24.58 76.73 24.68 76.59 24.68L76.6 24.69Z" fill="#EC408B"/>
<path d="M76.6 26.89C76.6 26.89 76.57 26.89 76.55 26.89C76.39 26.86 76.28 26.71 76.31 26.55C76.71 24.17 77.65 22.95 77.69 22.9C77.79 22.77 77.97 22.75 78.1 22.85C78.23 22.95 78.25 23.13 78.15 23.26C78.14 23.28 77.26 24.43 76.89 26.65C76.87 26.79 76.74 26.89 76.6 26.89Z" fill="#EC408B"/>
<path d="M76.88 12.34C76.75 12.34 76.64 12.26 76.6 12.13C76.6 12.1 75.64 8.81998 78.36 6.59998C78.49 6.49998 78.67 6.51998 78.77 6.63998C78.87 6.75998 78.85 6.94998 78.73 7.04998C76.32 9.01998 77.12 11.84 77.16 11.96C77.21 12.11 77.12 12.28 76.96 12.32C76.93 12.32 76.9 12.33 76.88 12.33V12.34Z" fill="#EC408B"/>
<path d="M88.33 10.74C88.24 10.74 88.15 10.7 88.09 10.62L84.07 5.11998C83.97 4.98998 84 4.80998 84.13 4.70998C84.26 4.60998 84.44 4.63998 84.54 4.76998L88.56 10.27C88.66 10.4 88.63 10.58 88.5 10.68C88.45 10.72 88.39 10.74 88.33 10.74Z" fill="#3D0E1A"/>
<path d="M89.14 11.69C89.04 11.69 88.95 11.64 88.89 11.56C88.79 11.4 86.34 7.55999 86.03 5.95999C86 5.79999 86.1 5.64999 86.26 5.61999C86.42 5.58999 86.57 5.68999 86.6 5.84999C86.89 7.33999 89.35 11.21 89.38 11.25C89.47 11.39 89.43 11.57 89.29 11.65C89.24 11.68 89.19 11.7 89.13 11.7L89.14 11.69Z" fill="#3D0E1A"/>
<path d="M88.55 28.16C88.55 28.16 88.51 28.16 88.5 28.16C88.43 28.15 86.86 27.84 84.77 26.33C84.64 26.24 84.61 26.05 84.71 25.92C84.81 25.79 84.99 25.76 85.12 25.86C87.09 27.29 88.6 27.58 88.61 27.59C88.77 27.62 88.87 27.77 88.84 27.93C88.81 28.07 88.69 28.17 88.55 28.17V28.16Z" fill="#3D0E1A"/>
<path d="M88.87 29.05C88.87 29.05 88.78 29.04 88.74 29.02C88.72 29.02 87.01 28.12 85.14 27.25C84.99 27.18 84.93 27.01 85 26.86C85.07 26.71 85.24 26.65 85.39 26.72C87.27 27.6 88.99 28.49 89.01 28.5C89.15 28.57 89.21 28.75 89.13 28.89C89.08 28.99 88.98 29.05 88.87 29.05Z" fill="#3D0E1A"/>
<path d="M81.68 41.09C81.68 41.09 81.62 41.09 81.59 41.08C81.44 41.03 81.35 40.87 81.4 40.71C81.74 39.59 83.8 36.37 83.89 36.24C83.98 36.1 84.16 36.06 84.29 36.15C84.43 36.24 84.47 36.42 84.38 36.55C84.36 36.58 82.28 39.83 81.96 40.88C81.92 41.01 81.81 41.09 81.68 41.09Z" fill="#EC408B"/>
<path d="M81.27 41.3C81.27 41.3 81.21 41.3 81.18 41.29C81.03 41.24 80.94 41.08 80.99 40.92C81.33 39.82 82.37 37.28 82.42 37.17C82.48 37.02 82.65 36.95 82.8 37.01C82.95 37.07 83.02 37.24 82.96 37.39C82.95 37.42 81.88 40.02 81.55 41.09C81.51 41.22 81.4 41.3 81.27 41.3Z" fill="#EC408B"/>
<path d="M75.36 56.31C75.24 56.31 75.13 56.24 75.09 56.12C75.03 55.97 75.11 55.8 75.26 55.74C77 55.09 79.52 52.37 79.55 52.35C79.66 52.23 79.84 52.22 79.96 52.33C80.08 52.44 80.09 52.62 79.98 52.74C79.87 52.86 77.34 55.58 75.47 56.28C75.44 56.29 75.4 56.3 75.37 56.3L75.36 56.31Z" fill="#EC408B"/>
<path d="M74.89 56.58C74.77 56.58 74.66 56.51 74.62 56.39C74.56 56.24 74.64 56.07 74.79 56.01C76.57 55.34 79.47 53.67 79.5 53.65C79.64 53.57 79.82 53.62 79.9 53.76C79.98 53.9 79.93 54.08 79.79 54.16C79.67 54.23 76.82 55.88 74.99 56.56C74.96 56.57 74.92 56.58 74.89 56.58Z" fill="#EC408B"/>
<path d="M4.03001 17.88C4.03001 17.88 3.97 17.88 3.94 17.86C3.79 17.81 3.7 17.64 3.76 17.49C4.9 14.1 4.32 13.31 4.32 13.3C4.2 13.19 4.21 13.01 4.32 12.89C4.43001 12.77 4.62 12.78 4.74 12.89C4.89 13.04 5.57 13.95 4.31 17.67C4.27 17.79 4.15001 17.87 4.03001 17.87V17.88Z" fill="#3D0E1A"/>
<path d="M3.67002 18.82C3.67002 18.82 3.61002 18.82 3.58002 18.8C3.43002 18.75 3.34002 18.58 3.40002 18.43C4.54002 15.05 3.85002 14.27 3.84002 14.26C3.72002 14.16 3.70002 13.98 3.81002 13.85C3.91002 13.73 4.10002 13.71 4.23002 13.82C4.41002 13.97 5.21002 14.88 3.96002 18.61C3.92002 18.73 3.80002 18.81 3.68002 18.81L3.67002 18.82Z" fill="#3D0E1A"/>
<path d="M90.46 46.49C90.3 46.49 90.17 46.36 90.17 46.2C90.17 43.85 91.02 40.02 91.06 39.86C91.1 39.7 91.25 39.6 91.41 39.64C91.57 39.68 91.67 39.83 91.63 39.99C91.63 40.03 90.75 43.92 90.75 46.2C90.75 46.36 90.62 46.49 90.46 46.49Z" fill="#EC408B"/>
<path d="M90.43 47.61C90.29 47.61 90.16 47.5 90.14 47.36C89.83 45.03 90.18 41.12 90.19 40.96C90.2 40.8 90.34 40.68 90.51 40.7C90.67 40.71 90.79 40.86 90.77 41.02C90.77 41.06 90.41 45.03 90.71 47.29C90.73 47.45 90.62 47.6 90.46 47.62C90.45 47.62 90.43 47.62 90.42 47.62L90.43 47.61Z" fill="#EC408B"/>
<path d="M105.34 44.26C105.34 44.26 105.26 44.26 105.22 44.23C105.07 44.16 105.01 43.99 105.07 43.84C106.32 41.03 107.12 37.91 107.13 37.88C107.17 37.72 107.33 37.63 107.49 37.67C107.65 37.71 107.74 37.87 107.7 38.03C107.7 38.06 106.88 41.23 105.61 44.08C105.56 44.19 105.45 44.25 105.34 44.25V44.26Z" fill="#EC408B"/>
<path d="M104.73 44.54C104.73 44.54 104.64 44.53 104.59 44.51C104.45 44.44 104.39 44.26 104.47 44.12L105.44 42.27C105.51 42.13 105.69 42.07 105.83 42.15C105.97 42.22 106.03 42.4 105.95 42.54L104.98 44.39C104.93 44.49 104.83 44.55 104.72 44.55L104.73 44.54Z" fill="#3D0E1A"/>
<path d="M104.25 42.72C104.25 42.72 104.16 42.71 104.11 42.69C103.97 42.62 103.91 42.44 103.99 42.3L104.96 40.45C105.03 40.31 105.21 40.25 105.35 40.33C105.49 40.4 105.55 40.58 105.47 40.72L104.5 42.57C104.45 42.67 104.35 42.73 104.24 42.73L104.25 42.72Z" fill="#3D0E1A"/>
<path d="M111.97 39.18C111.97 39.18 111.88 39.17 111.83 39.15C111.69 39.08 111.63 38.9 111.71 38.76L112.68 36.91C112.75 36.77 112.93 36.71 113.07 36.79C113.21 36.86 113.27 37.04 113.19 37.18L112.22 39.03C112.17 39.13 112.07 39.19 111.96 39.19L111.97 39.18Z" fill="#3D0E1A"/>
<path d="M112.06 41.59C112.06 41.59 111.99 41.59 111.95 41.57C111.8 41.51 111.73 41.34 111.79 41.19L112.57 39.26C112.63 39.11 112.8 39.04 112.95 39.1C113.1 39.16 113.17 39.33 113.11 39.48L112.33 41.41C112.28 41.52 112.17 41.59 112.06 41.59Z" fill="#3D0E1A"/>
<path d="M104.73 45.99C104.73 45.99 104.65 45.99 104.61 45.96C104.46 45.89 104.4 45.72 104.46 45.57C105.72 42.73 107.38 39.58 107.4 39.55C107.48 39.41 107.65 39.35 107.8 39.43C107.94 39.51 108 39.68 107.92 39.83C107.9 39.86 106.25 42.99 105 45.81C104.95 45.92 104.84 45.98 104.73 45.98V45.99Z" fill="#EC408B"/>
<path d="M110.18 37.7C110.18 37.7 110.08 37.69 110.04 37.66C108.46 36.78 107.06 35 107.01 34.93C106.91 34.8 106.93 34.62 107.06 34.52C107.19 34.42 107.37 34.44 107.47 34.57C107.48 34.59 108.85 36.33 110.33 37.15C110.47 37.23 110.52 37.41 110.44 37.55C110.39 37.65 110.29 37.7 110.18 37.7Z" fill="#3D0E1A"/>
<path d="M110.18 37.7C110.18 37.7 110.08 37.69 110.04 37.66C108.38 36.74 108.21 34.99 108.21 34.92C108.2 34.76 108.32 34.62 108.48 34.6C108.64 34.59 108.78 34.71 108.8 34.87C108.8 34.94 108.95 36.39 110.33 37.15C110.47 37.23 110.52 37.41 110.44 37.55C110.39 37.65 110.29 37.7 110.18 37.7Z" fill="#3D0E1A"/>
<path d="M90.99 38.77H90.98C90.82 38.77 90.69 38.63 90.7 38.47C90.78 36.4 92.41 33.95 92.48 33.85C92.57 33.72 92.75 33.68 92.89 33.77C93.02 33.86 93.06 34.04 92.97 34.18C92.95 34.2 91.36 36.6 91.29 38.49C91.29 38.65 91.15 38.77 91 38.77H90.99Z" fill="#3D0E1A"/>
<path d="M90.99 38.49H90.98C90.82 38.49 90.69 38.35 90.7 38.19C90.78 36.19 90.99 34.89 91 34.83C91.03 34.67 91.18 34.56 91.34 34.59C91.5 34.62 91.61 34.77 91.58 34.93C91.58 34.94 91.36 36.25 91.29 38.21C91.29 38.37 91.15 38.49 91 38.49H90.99Z" fill="#3D0E1A"/>
<path d="M83.1 63.5C83.05 63.5 82.99 63.49 82.94 63.45C82.8 63.36 82.76 63.18 82.85 63.05C82.87 63.01 85.32 59.16 85.82 57.42C85.86 57.26 86.03 57.18 86.18 57.22C86.34 57.26 86.43 57.43 86.38 57.58C85.86 59.41 83.45 63.2 83.34 63.36C83.28 63.45 83.19 63.5 83.09 63.5H83.1Z" fill="#3D0E1A"/>
<path d="M84.54 62.43C84.54 62.43 84.47 62.43 84.44 62.41C84.29 62.35 84.21 62.19 84.27 62.03C84.28 62 85.32 59.19 85.82 57.42C85.86 57.26 86.03 57.18 86.18 57.22C86.34 57.26 86.43 57.43 86.38 57.58C85.87 59.38 84.82 62.2 84.81 62.23C84.77 62.35 84.65 62.42 84.54 62.42V62.43Z" fill="#3D0E1A"/>
<path d="M113.71 47.9C113.71 47.9 113.69 47.9 113.67 47.9C113.51 47.88 113.4 47.74 113.41 47.57C113.91 43.43 115.41 41.41 115.48 41.32C115.58 41.19 115.76 41.17 115.89 41.26C116.02 41.36 116.04 41.54 115.95 41.67C115.94 41.69 114.47 43.66 114 47.63C113.98 47.78 113.86 47.89 113.71 47.89V47.9Z" fill="#EC408B"/>
<path d="M121.42 32.59C121.33 32.59 121.23 32.54 121.18 32.46C120.39 31.26 118.03 30.77 118.01 30.77C117.85 30.74 117.75 30.58 117.78 30.43C117.81 30.28 117.97 30.17 118.12 30.2C118.23 30.22 120.74 30.75 121.66 32.14C121.75 32.27 121.71 32.46 121.58 32.55C121.53 32.58 121.47 32.6 121.42 32.6V32.59Z" fill="#3D0E1A"/>
<path d="M121.42 32.59C121.33 32.59 121.23 32.54 121.18 32.46C120.34 31.19 119.55 30.44 119.54 30.43C119.42 30.32 119.42 30.13 119.53 30.02C119.64 29.9 119.83 29.9 119.94 30.01C119.97 30.04 120.79 30.82 121.66 32.14C121.75 32.27 121.71 32.46 121.58 32.55C121.53 32.58 121.47 32.6 121.42 32.6V32.59Z" fill="#3D0E1A"/>
<path d="M126.19 49.69C126.04 49.69 125.91 49.57 125.9 49.42C125.89 49.26 126.01 49.12 126.17 49.11C128.15 48.99 131.08 46.86 131.11 46.83C131.24 46.73 131.42 46.76 131.52 46.89C131.62 47.02 131.59 47.2 131.46 47.3C131.33 47.39 128.36 49.55 126.21 49.69H126.19Z" fill="#EC408B"/>
<path d="M126.19 49.69C126.04 49.69 125.91 49.57 125.9 49.42C125.89 49.26 126.01 49.12 126.17 49.11C128.2 48.98 130.48 48.27 130.5 48.27C130.65 48.22 130.82 48.31 130.87 48.46C130.92 48.61 130.83 48.78 130.68 48.83C130.58 48.86 128.31 49.57 126.21 49.7H126.19V49.69Z" fill="#EC408B"/>
<path d="M132.3 44.85C132.3 44.85 132.24 44.85 132.21 44.84C132.06 44.79 131.97 44.63 132.02 44.47C133.23 40.5 136.04 35.54 136.07 35.49C136.15 35.35 136.33 35.3 136.47 35.38C136.61 35.46 136.66 35.64 136.58 35.78C136.55 35.83 133.77 40.73 132.58 44.64C132.54 44.77 132.43 44.85 132.3 44.85Z" fill="#3D0E1A"/>
<path d="M132.3 44.85C132.3 44.85 132.24 44.85 132.21 44.84C132.06 44.79 131.97 44.63 132.02 44.47C133.25 40.45 135.57 38.23 135.67 38.14C135.79 38.03 135.97 38.03 136.08 38.15C136.19 38.27 136.19 38.45 136.07 38.56C136.05 38.58 133.76 40.77 132.58 44.64C132.54 44.77 132.43 44.85 132.3 44.85Z" fill="#3D0E1A"/>
<path d="M112.45 53.77C112.45 53.77 112.35 53.76 112.3 53.73C112.18 53.66 109.25 51.93 109.25 49.21C109.25 49.05 109.38 48.92 109.54 48.92C109.7 48.92 109.83 49.05 109.83 49.21C109.83 51.59 112.56 53.21 112.59 53.22C112.73 53.3 112.78 53.48 112.7 53.62C112.65 53.71 112.55 53.77 112.45 53.77Z" fill="#EC408B"/>
<path d="M132.05 57.56C130.51 57.56 128 57.09 125.66 54.57C125.55 54.45 125.56 54.27 125.68 54.16C125.8 54.05 125.98 54.06 126.09 54.18C129.5 57.85 133.33 56.85 133.37 56.84C133.53 56.8 133.69 56.89 133.73 57.04C133.77 57.2 133.68 57.36 133.53 57.4C133.47 57.42 132.91 57.56 132.05 57.56Z" fill="#3D0E1A"/>
<path d="M131.87 58.3H131.85C131.72 58.3 128.57 58.04 126.08 54.94C125.98 54.81 126 54.63 126.12 54.53C126.25 54.43 126.43 54.45 126.53 54.57C128.86 57.46 131.86 57.71 131.89 57.71C132.05 57.72 132.17 57.86 132.16 58.02C132.15 58.17 132.02 58.29 131.87 58.29V58.3Z" fill="#3D0E1A"/>
<path d="M107.51 58.97C107.41 58.97 107.3 58.91 107.25 58.82C106.61 57.63 103.42 56.06 102.25 55.56C102.1 55.5 102.03 55.32 102.1 55.18C102.16 55.03 102.34 54.96 102.48 55.03C102.66 55.11 106.9 56.93 107.77 58.55C107.85 58.69 107.79 58.87 107.65 58.95C107.61 58.97 107.56 58.98 107.51 58.98V58.97Z" fill="#3D0E1A"/>
<path d="M106.38 58.72C106.26 58.72 106.16 58.65 106.11 58.54C105.4 56.8 102.71 55.94 102.68 55.93C102.53 55.88 102.44 55.72 102.49 55.56C102.54 55.4 102.7 55.32 102.86 55.37C102.98 55.41 105.83 56.32 106.65 58.31C106.71 58.46 106.65 58.63 106.49 58.69C106.45 58.7 106.42 58.71 106.38 58.71V58.72Z" fill="#3D0E1A"/>
<path d="M66.42 66.56C66.26 66.56 66.13 66.43 66.13 66.27C66.13 64.67 62.48 60.84 61.07 59.5C60.95 59.39 60.95 59.2 61.07 59.09C61.19 58.98 61.37 58.97 61.48 59.09C62.02 59.6 66.72 64.15 66.72 66.28C66.72 66.44 66.59 66.57 66.43 66.57L66.42 66.56Z" fill="#3D0E1A"/>
<path d="M65.21 65.33C65.06 65.33 64.94 65.22 64.92 65.07C64.76 63.79 62.54 61.05 61.69 60.11C61.58 59.99 61.59 59.8 61.71 59.7C61.83 59.59 62.02 59.6 62.12 59.72C62.25 59.86 65.27 63.28 65.49 65C65.51 65.16 65.4 65.31 65.24 65.33C65.23 65.33 65.22 65.33 65.2 65.33H65.21Z" fill="#3D0E1A"/>
</g>
<defs>
<clipPath id="clip0_2_6">
<rect width="138.61" height="66.72" fill="white"/>
</clipPath>
</defs>
</svg>
