<svg width="175" height="29" viewBox="0 0 175 29" fill="none" xmlns="http://www.w3.org/2000/svg">
<g clip-path="url(#clip0_3_331)">
<path d="M14.5 0H159.7C167.7 0 174.2 6.5 174.2 14.5C174.2 22.5 167.7 29 159.7 29H14.5C6.5 28.9 0 22.5 0 14.5C0 6.5 6.5 0 14.5 0Z" fill="#FFE154"/>
<path d="M64.2 7.6H65.6V22.7H63.2V15.2L61.3 20.3H59.9L58 15.1V22.6H55.6V7.6H57L60.6 15.9L64.2 7.6Z" fill="black"/>
<path d="M67.3 22.6V7.6H69.7V22.7H67.3V22.6Z" fill="black"/>
<path d="M78.6 7.6V22.7H77.2L73.6 15V22.6H71.2V7.6H72.6L76.2 15.2V7.6H78.6Z" fill="black"/>
<path d="M86.8 7.6V10H84.4V22.7H82V9.9H79.6V7.6H86.8Z" fill="black"/>
<path d="M98.5 7.6V22.7H97.1L93.5 15V22.6H91.1V7.6H92.5L96.1 15.2V7.6H98.5Z" fill="black"/>
<path d="M103.5 22.8C102.5 22.8 101.6 22.5 101 21.9C100.3 21.2 99.9 20.3 99.9 19.1V11.1C99.9 9.9 100.3 9 101 8.3C101.6 7.7 102.5 7.4 103.5 7.4C104.5 7.4 105.4 7.7 106 8.3C106.7 9 107.1 9.9 107.1 11.1V19.1C107.1 20.3 106.7 21.2 106 21.9C105.3 22.5 104.5 22.8 103.5 22.8ZM103.5 9.8C103.1 9.8 102.8 9.9 102.6 10.1C102.4 10.3 102.3 10.7 102.3 11.2V19.2C102.3 19.7 102.4 20.1 102.6 20.3C102.8 20.5 103.1 20.6 103.5 20.6C103.9 20.6 104.2 20.5 104.4 20.3C104.6 20.1 104.7 19.8 104.7 19.2V11.2C104.7 10.7 104.6 10.3 104.4 10.1C104.2 9.9 103.9 9.8 103.5 9.8Z" fill="black"/>
<path d="M116.1 7.6H118.5L116.7 22.7H115.4L113.3 15.2L111.2 22.7H109.9L108 7.6H110.4L111.2 15.1L112.6 10H114L115.4 15.1L116.1 7.6Z" fill="black"/>
</g>
<defs>
<clipPath id="clip0_3_331">
<rect width="174.1" height="28.9" fill="white"/>
</clipPath>
</defs>
</svg>
