<?xml version="1.0" encoding="utf-8"?>
<!-- Generator: Adobe Illustrator 22.0.0, SVG Export Plug-In . SVG Version: 6.00 Build 0)  -->
<svg version="1.1" id="Layer_1" xmlns="http://www.w3.org/2000/svg" xmlns:xlink="http://www.w3.org/1999/xlink" x="0px" y="0px"
	 viewBox="0 0 94.2 24.2" style="enable-background:new 0 0 94.2 24.2;" xml:space="preserve">
<style type="text/css">
	.st0{fill:#EC408B;}
	.st1{fill:#FFFFFF;}
</style>
<path class="st0" d="M82.1,0h-70C5.4,0,0,5.4,0,12.1c0,6.7,5.4,12.1,12.1,12.1h70c6.7,0,12.1-5.4,12.1-12.1C94.2,5.4,88.8,0,82.1,0z
	"/>
<g id="ktg7Vd.tif">
	<g>
		<path class="st1" d="M25.2,6.1c0-0.1,0-0.2,0-0.3c0-0.6-0.3-0.8-0.9-0.9c-0.1,0-0.1,0-0.2,0c-0.3,0-0.6,0.1-0.9,0.2
			c-1.8,0.6-3.5,1.4-5.2,2.1c-2.5,1.1-5,2.1-7.5,3.2c-0.8,0.3-1.6,0.7-2.4,1c-0.3,0.1-0.5,0.3-0.7,0.4C7,12.3,7,12.7,7.4,12.9
			c0.1,0.1,0.3,0.2,0.4,0.2c0.9,0.3,1.9,0.6,2.8,0.8c0.9,0.2,1.8,0.1,2.6-0.5c0.6-0.4,1.2-0.8,1.8-1.2c1.7-1.1,3.4-2.3,5.1-3.4
			c0.1-0.1,0.2-0.1,0.4-0.1c0.2,0,0.4,0.2,0.3,0.4c0,0.1-0.1,0.1-0.1,0.2C20.5,9.6,20.2,9.8,20,10c-1.4,1.4-2.9,2.8-4.4,4.2
			c-0.2,0.2-0.4,0.4-0.5,0.6c-0.2,0.3-0.2,0.5,0,0.8c0.1,0.1,0.2,0.3,0.4,0.4c0.4,0.3,0.9,0.6,1.4,1c1.3,0.9,2.5,1.7,3.8,2.6
			c0.3,0.2,0.7,0.4,1.1,0.5c0.6,0.1,1-0.1,1.3-0.6c0.1-0.1,0.1-0.2,0.2-0.4c0.2-0.5,0.2-1,0.3-1.5c0.6-3.1,1.1-6.2,1.5-9.4
			C25.1,7.4,25.2,6.8,25.2,6.1z"/>
	</g>
</g>
<g>
	<path class="st1" d="M36.9,7v1.3H35v7.1h-1.9V8.3h-1.9V7H36.9z"/>
	<path class="st1" d="M42.8,8.3h-3.1v2.1h2.1v1.3h-2.1v2.3h3.1v1.3h-5V7h5V8.3z"/>
	<path class="st1" d="M44,15.4V7h1.9v7.1H49v1.3H44z"/>
	<path class="st1" d="M54.9,8.3h-3.1v2.1h2.1v1.3h-2.1v2.3h3.1v1.3h-5V7h5V8.3z"/>
	<path class="st1" d="M58.6,15.5c-0.8,0-1.5-0.2-2-0.5c-0.6-0.4-0.9-0.9-0.9-1.6V9c0-0.6,0.3-1.2,0.9-1.6c0.5-0.3,1.2-0.5,2-0.5
		c0.8,0,1.5,0.2,2,0.5c0.6,0.4,0.9,0.9,0.9,1.6v0.7h-1.9V9c0-0.3-0.1-0.5-0.2-0.6c-0.2-0.1-0.4-0.1-0.7-0.1c-0.3,0-0.6,0-0.7,0.1
		c-0.2,0.1-0.3,0.3-0.3,0.6v4.5c0,0.3,0.1,0.5,0.3,0.6c0.1,0.1,0.4,0.1,0.7,0.1c0.3,0,0.6,0,0.7-0.1c0.2-0.1,0.2-0.3,0.2-0.6v-1.6
		h-1v-1.3h2.9v2.9c0,0.7-0.3,1.2-0.9,1.6C60.1,15.3,59.4,15.5,58.6,15.5z"/>
	<path class="st1" d="M68.4,15.4h-1.9l-1-3.4h-0.9v3.4h-1.9V7h2.9c0.8,0,1.5,0.2,2,0.5c0.6,0.4,0.9,0.9,0.9,1.6V10
		c0,0.7-0.3,1.2-0.9,1.6c-0.1,0.1-0.2,0.1-0.3,0.2L68.4,15.4z M66.6,9.1c0-0.3-0.1-0.5-0.3-0.6c-0.1-0.1-0.4-0.1-0.7-0.1h-1v2.4h1
		c0.3,0,0.6,0,0.7-0.1c0.2-0.1,0.3-0.3,0.3-0.6V9.1z"/>
	<path class="st1" d="M73.9,15.4l-0.3-1.3h-2.2l-0.3,1.3h-1.9L71.6,7h1.9l2.4,8.4H73.9z M71.8,12.8h1.5l-0.8-3L71.8,12.8z"/>
	<path class="st1" d="M83.7,7h1.1v8.4h-1.9v-4.2l-1.5,2.9h-1.1l-1.5-2.9v4.2h-1.9V7h1.1l2.9,4.7L83.7,7z"/>
</g>
</svg>
