<?xml version="1.0" encoding="utf-8"?>
<!-- Generator: Adobe Illustrator 22.0.0, SVG Export Plug-In . SVG Version: 6.00 Build 0)  -->
<svg version="1.1" id="Layer_1" xmlns="http://www.w3.org/2000/svg" xmlns:xlink="http://www.w3.org/1999/xlink" x="0px" y="0px"
	 viewBox="0 0 47 37" style="enable-background:new 0 0 47 37;" xml:space="preserve">
<style type="text/css">
	.st0{fill:#FFFFFF;}
</style>
<g id="ktg7Vd.tif">
	<g>
		<path class="st0" d="M45.8,2.7c0-0.2,0-0.4,0-0.6C45.7,0.7,45,0,43.6,0c-0.2,0-0.3,0-0.5,0c-0.8,0.1-1.5,0.3-2.3,0.6
			C36.5,2.1,32.2,4,27.9,5.7c-6.2,2.6-12.3,5.3-18.5,8c-2,0.8-3.9,1.7-5.9,2.5c-0.7,0.3-1.3,0.6-1.8,1.1C0.9,18,1,18.9,1.9,19.5
			c0.3,0.2,0.7,0.4,1.1,0.5c2.3,0.8,4.6,1.5,6.9,2.1c2.3,0.6,4.4,0.2,6.4-1.2c1.5-1,3-2,4.5-3c4.2-2.8,8.3-5.6,12.5-8.3
			c0.3-0.2,0.6-0.3,0.9-0.4c0.5,0,0.9,0.5,0.7,1c-0.1,0.1-0.2,0.3-0.3,0.4c-0.5,0.6-1.1,1.2-1.7,1.7c-3.5,3.5-7.2,6.8-10.8,10.3
			c-0.5,0.5-0.9,0.9-1.3,1.5c-0.4,0.7-0.4,1.3,0.1,2c0.2,0.4,0.5,0.7,0.9,0.9c1.1,0.9,2.3,1.6,3.4,2.4c3.1,2.1,6.2,4.2,9.3,6.3
			c0.8,0.5,1.7,1,2.6,1.2c1.5,0.3,2.5-0.1,3.2-1.5c0.1-0.3,0.3-0.6,0.4-0.9c0.4-1.2,0.6-2.5,0.8-3.8c1.4-7.7,2.7-15.4,3.8-23.1
			C45.5,6,45.7,4.4,45.8,2.7z"/>
	</g>
</g>
</svg>
