<svg width="84" height="25" viewBox="0 0 84 25" fill="none" xmlns="http://www.w3.org/2000/svg">
<g clip-path="url(#clip0_2_147)">
<path d="M70.92 0H12.12C5.42631 0 0 5.42631 0 12.12C0 18.8137 5.42631 24.24 12.12 24.24H70.92C77.6137 24.24 83.04 18.8137 83.04 12.12C83.04 5.42631 77.6137 0 70.92 0Z" fill="#EC408B"/>
<path d="M35.0298 6.86874V15.4H33.3248V6.86874H35.0298ZM37.1509 6.86874V8.29257H31.2447V6.86874H37.1509ZM39.981 14.1227L41.3463 6.86874H42.2486L42.5181 7.99374L41.0533 15.4H40.0748L39.981 14.1227ZM39.5123 6.86874L40.6138 14.1402L40.4263 15.4H39.3482L37.8189 6.86874H39.5123ZM43.5084 14.1109L44.6041 6.86874H46.2916L44.774 15.4H43.69L43.5084 14.1109ZM42.7701 6.86874L44.147 14.1637L44.0357 15.4H43.0572L41.5982 7.98203L41.8736 6.86874H42.7701ZM49.022 6.86874V15.4H47.317V6.86874H49.022ZM53.7095 6.86874V15.4H52.0045V6.86874H53.7095ZM55.8306 6.86874V8.29257H49.9244V6.86874H55.8306ZM60.3189 6.86874V15.4H58.6138V6.86874H60.3189ZM62.44 6.86874V8.29257H56.5338V6.86874H62.44ZM68.3287 13.982V15.4H64.6197V13.982H68.3287ZM65.1529 6.86874V15.4H63.4361V6.86874H65.1529ZM67.8306 10.3258V11.7027H64.6197V10.3258H67.8306ZM68.317 6.86874V8.29257H64.6197V6.86874H68.317ZM69.3365 6.86874H72.0728C72.6431 6.86874 73.1295 6.9664 73.5318 7.16171C73.9341 7.35703 74.2427 7.64609 74.4576 8.0289C74.6724 8.41171 74.7798 8.88437 74.7798 9.44687C74.7798 9.90781 74.7173 10.3023 74.5923 10.6305C74.4673 10.9547 74.2896 11.2262 74.0591 11.4449C73.8287 11.6598 73.5533 11.8316 73.233 11.9605L72.7115 12.2711H70.4908L70.4849 10.8473H72.0259C72.2603 10.8473 72.4537 10.7965 72.606 10.6949C72.7623 10.5894 72.8775 10.443 72.9517 10.2555C73.0298 10.0641 73.0689 9.8414 73.0689 9.58749C73.0689 9.31796 73.0338 9.08749 72.9634 8.89609C72.897 8.70078 72.7896 8.55234 72.6412 8.45078C72.4966 8.34531 72.3072 8.29257 72.0728 8.29257H71.0533V15.4H69.3365V6.86874ZM73.2095 15.4L71.6451 11.5973L73.4439 11.5914L75.0435 15.318V15.4H73.2095Z" fill="white"/>
<path d="M10.6 18.1C10.64 18.22 10.73 18.24 10.8 18.28C12.55 19.29 14.44 19.77 16.46 19.74C19.33 19.69 21.81 18.67 23.87 16.69C26.11 14.53 27.21 11.85 27.23 8.73001C27.23 8.44001 27.32 8.26001 27.54 8.08001C28.05 7.67001 28.53 7.22001 28.94 6.70001C28.98 6.64001 29.06 6.57001 29.01 6.50001C28.96 6.43001 28.87 6.50001 28.81 6.52001C28.4 6.67001 27.97 6.79001 27.54 6.88001C27.39 6.91001 27.24 6.96001 27.08 6.92001C27.11 6.80001 27.22 6.76001 27.29 6.70001C27.82 6.25001 28.31 5.77001 28.56 5.10001C28.58 5.04001 28.63 4.97001 28.57 4.91001C28.51 4.86001 28.45 4.92001 28.39 4.95001C27.78 5.24001 27.15 5.47001 26.52 5.69001C26.32 5.76001 26.17 5.73001 26.01 5.58001C25.01 4.69001 23.85 4.37001 22.55 4.67001C20.59 5.12001 19.35 6.96001 19.63 8.95001C19.67 9.25001 19.64 9.28001 19.34 9.25001C18.79 9.19001 18.24 9.09001 17.7 8.95001C15.46 8.36001 13.53 7.27001 11.98 5.52001C11.78 5.29001 11.74 5.30001 11.61 5.58001C11.2 6.43001 11.1 7.31001 11.38 8.21001C11.62 8.97001 12.08 9.60001 12.65 10.14C12.7 10.19 12.8 10.23 12.76 10.31C12.72 10.39 12.62 10.34 12.56 10.33C12.17 10.28 11.8 10.16 11.44 10C11.26 9.92001 11.2 9.97001 11.21 10.16C11.3 11.86 12.26 13.08 13.89 13.57C13.97 13.6 14.07 13.6 14.13 13.68C14.09 13.76 14 13.75 13.93 13.77C13.59 13.84 13.24 13.83 12.89 13.81C12.57 13.79 12.55 13.81 12.68 14.11C13.28 15.44 14.31 16.18 15.75 16.39C15.83 16.4 15.95 16.39 15.98 16.46C16.02 16.57 15.89 16.61 15.83 16.65C14.58 17.57 13.19 18.09 11.63 18.13C11.3 18.13 10.98 18.13 10.63 18.08L10.6 18.1Z" fill="white"/>
</g>
<defs>
<clipPath id="clip0_2_147">
<rect width="83.04" height="24.24" fill="white"/>
</clipPath>
</defs>
</svg>
