<svg width="26" height="21" viewBox="0 0 26 21" fill="none" xmlns="http://www.w3.org/2000/svg">
<path d="M0.0100012 18.3801C0.140001 18.3801 0.280001 18.4001 0.410001 18.4101C0.450001 18.4101 0.500001 18.4101 0.550001 18.4101C0.910001 18.4401 1.28 18.4401 1.65 18.4301C2.5 18.3901 3.34 18.2601 4.16 18.0201C4.7 17.8601 5.23 17.6601 5.74 17.4201C6.4 17.1101 7.01 16.7301 7.59 16.2901C7.62 16.2701 7.66 16.2501 7.67 16.2101C7.65 16.1801 7.63 16.1901 7.61 16.1901C7.3 16.1901 6.99 16.1401 6.69 16.0801C6.24 15.9801 5.82 15.8301 5.41 15.6201C5.03 15.4201 4.68 15.1801 4.35 14.9001C3.94 14.5401 3.6 14.1201 3.31 13.6601C3.12 13.3401 2.96 13.0001 2.84 12.6401C2.84 12.6401 2.84 12.6201 2.84 12.6101C2.84 12.5801 2.84 12.5601 2.88 12.5701C2.96 12.5801 3.04 12.5901 3.12 12.6101C3.42 12.6601 3.73 12.6701 4.04 12.6601C4.39 12.6401 4.74 12.6001 5.08 12.5101C5.1 12.5101 5.11 12.5101 5.12 12.4801C3.62 12.1201 2.46 11.2901 1.68 9.9501C1.2 9.1301 0.990001 8.2401 0.990001 7.2801C1.72 7.6801 2.49 7.9001 3.3 7.9301C2.03 7.0001 1.26 5.7801 1.07 4.2101C0.930001 3.0601 1.16 1.9701 1.74 0.950098C3.08 2.5801 4.68 3.8801 6.55 4.8301C8.42 5.7801 10.41 6.3001 12.51 6.4201C12.44 6.0801 12.39 5.7501 12.39 5.4201C12.39 5.3001 12.39 5.1801 12.39 5.0601C12.39 4.3801 12.56 3.7201 12.83 3.1001C13.05 2.5901 13.36 2.1301 13.73 1.7201C14.21 1.1901 14.77 0.780098 15.42 0.480098C15.92 0.250098 16.45 0.100098 17 0.0400977C17.29 0.0100977 17.59 9.76564e-05 17.88 0.0100977C18.48 0.0400977 19.07 0.170098 19.62 0.410098C20.15 0.630098 20.63 0.930098 21.06 1.3201C21.17 1.4201 21.28 1.5101 21.38 1.6301C21.41 1.6601 21.44 1.6601 21.48 1.6501C21.69 1.6101 21.9 1.5601 22.11 1.5001C22.68 1.3501 23.22 1.1501 23.76 0.910098C24.07 0.770098 24.38 0.610098 24.67 0.440098C24.69 0.430098 24.7 0.410098 24.73 0.410098C24.6 1.0001 23.94 2.3801 22.52 3.2601C22.64 3.2901 23.22 3.1801 24 2.9801C24.49 2.8501 24.96 2.6801 25.43 2.4701C25.44 2.5001 25.43 2.5201 25.41 2.5301C25.17 2.8801 24.91 3.2201 24.63 3.5501C24.48 3.7301 24.32 3.9001 24.16 4.0601C23.78 4.4401 23.38 4.8001 22.94 5.1101C22.87 5.1601 22.84 5.2201 22.85 5.3101C22.87 5.7101 22.87 6.1101 22.85 6.5101C22.82 7.0401 22.77 7.5701 22.69 8.0901C22.58 8.8001 22.42 9.4901 22.21 10.1701C22.01 10.8101 21.78 11.4401 21.5 12.0501C21.21 12.6901 20.88 13.3101 20.5 13.9101C20.13 14.5001 19.72 15.0701 19.27 15.6101C18.92 16.0301 18.55 16.4201 18.16 16.8001C17.69 17.2501 17.18 17.6701 16.65 18.0601C16.18 18.4001 15.69 18.7101 15.18 18.9801C14.56 19.3201 13.92 19.6101 13.25 19.8501C12.72 20.0401 12.18 20.2001 11.64 20.3301C11.15 20.4501 10.67 20.5401 10.17 20.6001C9.83 20.6401 9.5 20.6801 9.16 20.7001C8.86 20.7201 8.56 20.7401 8.26 20.7401C7.93 20.7401 7.6 20.7401 7.27 20.7401C6.98 20.7301 6.7 20.7101 6.41 20.6701C6.19 20.6501 5.98 20.6201 5.76 20.5901C5.41 20.5401 5.07 20.4801 4.73 20.4001C4.2 20.2801 3.67 20.1401 3.16 19.9601C2.69 19.8001 2.23 19.6201 1.78 19.4101C1.18 19.1401 0.610001 18.8201 0.0500012 18.4701C0.0200012 18.4501 1.22003e-06 18.4301 -0.0299988 18.4101H0.0100012V18.3801Z" fill="white"/>
</svg>
