<?xml version="1.0" encoding="UTF-8"?>
<svg xmlns="http://www.w3.org/2000/svg" xmlns:xlink="http://www.w3.org/1999/xlink" width="4560px" height="714px" viewBox="0 0 4558 714" version="1.1">
<g id="surface1">
<path style=" stroke:none;fill-rule:nonzero;fill:rgb(92.54902%,25.098039%,54.509804%);fill-opacity:1;" d="M -36.324219 553.359375 C 146.234375 497.660156 279.746094 310.640625 273.738281 119.503906 C 373.085938 177.097656 447.433594 277.097656 473.699219 389.121094 C 542.035156 293.867188 647.394531 226.464844 762.242188 204.3125 C 754.332031 277.410156 746.421875 353.363281 770.785156 422.664062 C 795.148438 491.964844 861.902344 552.089844 934.667969 543.546875 C 1032.117188 532.15625 1080.839844 415.066406 1170.378906 374.242188 C 1237.453125 343.550781 1315.917969 360.957031 1385.835938 384.054688 C 1455.757812 407.15625 1527.582031 435.953125 1600.347656 427.089844 C 1673.433594 418.230469 1746.207031 353.675781 1733.230469 280.894531 C 1828.152344 339.117188 1891.105469 446.714844 1895.539062 558.105469 C 2008.488281 541.335938 2108.46875 455.574219 2142.003906 346.085938 C 2183.765625 447.035156 2272.671875 539.113281 2381.511719 541.648438 C 2490.34375 544.5 2593.171875 417.597656 2539.070312 322.984375 C 2635.253906 321.714844 2731.429688 361.90625 2798.195312 431.207031 C 2832.679688 339.117188 2921.898438 269.816406 3019.664062 259.695312 C 2992.449219 343.234375 3021.558594 442.28125 3089.265625 497.980469 C 3144.949219 385.636719 3260.429688 305.261719 3384.769531 291.96875 C 3381.925781 351.78125 3388.253906 415.703125 3424.953125 463.167969 C 3461.339844 510.636719 3536.324219 531.84375 3582.828125 494.183594 C 3629.339844 456.527344 3606.246094 360.957031 3546.449219 362.21875 C 3605.609375 310.320312 3698.949219 341.339844 3764.125 385.003906 C 3829.609375 428.992188 3896.054688 486.265625 3974.519531 480.890625 C 4129.863281 470.132812 4199.78125 227.09375 4355.132812 236.585938 C 4313.050781 292.597656 4320.328125 380.257812 4370.953125 428.671875 C 4421.570312 477.09375 4509.214844 480.257812 4562.996094 435.320312 L 4562.996094 727.09375 L -36.324219 727.09375 Z M -36.324219 553.359375 "/>
<path style=" stroke:none;fill-rule:nonzero;fill:rgb(94.901961%,47.843137%,68.235294%);fill-opacity:1;" d="M 3463.554688 512.539062 C 3499.9375 560 3574.917969 581.207031 3621.429688 543.546875 C 3661.929688 510.636719 3614.46875 381.839844 3561.949219 351.144531 C 3556.574219 354.308594 3551.195312 358.109375 3546.128906 362.539062 C 3605.929688 360.957031 3629.027344 456.527344 3582.515625 494.496094 C 3544.230469 525.824219 3486.332031 516.652344 3446.78125 485.636719 C 3451.214844 494.816406 3456.914062 503.988281 3463.554688 512.539062 Z M 3463.554688 512.539062 "/>
<path style=" stroke:none;fill-rule:nonzero;fill:rgb(94.901961%,47.843137%,68.235294%);fill-opacity:1;" d="M 3095.914062 514.433594 C 3145.898438 413.484375 3269.921875 364.75 3385.089844 346.398438 C 3383.828125 328.363281 3383.828125 310.007812 3384.457031 291.96875 C 3260.117188 304.945312 3144.636719 385.636719 3088.953125 497.980469 C 3074.394531 485.953125 3061.738281 472.027344 3050.984375 456.839844 C 3059.527344 477.414062 3074.085938 496.398438 3095.914062 514.433594 Z M 3095.914062 514.433594 "/>
<path style=" stroke:none;fill-rule:nonzero;fill:rgb(94.901961%,47.843137%,68.235294%);fill-opacity:1;" d="M 4012.800781 530.261719 C 4168.148438 519.496094 4214.019531 253.359375 4354.503906 236.585938 C 4199.152344 227.09375 4129.230469 470.132812 3973.886719 480.890625 C 3962.492188 481.519531 3951.105469 481.207031 3940.351562 479.308594 C 3960.28125 510.316406 3982.746094 532.472656 4012.800781 530.261719 Z M 4012.800781 530.261719 "/>
<path style=" stroke:none;fill-rule:nonzero;fill:rgb(94.901961%,47.843137%,68.235294%);fill-opacity:1;" d="M 4408.914062 477.726562 C 4448.785156 515.703125 4511.109375 525.824219 4562.050781 506.839844 L 4562.050781 435.320312 C 4510.476562 478.355469 4428.53125 477.414062 4376.960938 435.007812 C 4386.773438 452.09375 4397.847656 467.28125 4408.914062 477.726562 Z M 4408.914062 477.726562 "/>
<path style=" stroke:none;fill-rule:nonzero;fill:rgb(94.901961%,47.843137%,68.235294%);fill-opacity:1;" d="M 473.058594 413.171875 C 532.542969 329.945312 650.871094 287.222656 756.226562 262.859375 C 757.808594 243.234375 759.710938 223.617188 761.925781 204.3125 C 647.074219 226.464844 541.71875 293.867188 473.378906 389.121094 C 469.894531 374.5625 465.789062 360.324219 460.722656 346.085938 C 464.207031 367.914062 467.683594 390.382812 473.058594 413.171875 Z M 473.058594 413.171875 "/>
<path style=" stroke:none;fill-rule:nonzero;fill:rgb(94.901961%,47.843137%,68.235294%);fill-opacity:1;" d="M 2.59375 540.066406 C 170.59375 488.488281 340.816406 357.792969 361.691406 188.175781 C 335.429688 161.589844 306.011719 138.171875 273.417969 119.503906 C 279.433594 310.640625 145.601562 497.347656 -36.636719 553.359375 L -36.636719 727.09375 L 2.59375 727.09375 Z M 2.59375 540.066406 "/>
<path style=" stroke:none;fill-rule:nonzero;fill:rgb(94.901961%,47.843137%,68.235294%);fill-opacity:1;" d="M 973.589844 592.914062 C 1071.035156 581.519531 1119.757812 429.3125 1209.296875 388.488281 C 1276.367188 357.792969 1354.835938 410.320312 1424.757812 433.105469 C 1494.679688 456.207031 1566.492188 485.003906 1639.265625 476.144531 C 1712.351562 467.28125 1770.25 377.40625 1734.179688 287.222656 C 1820.242188 340.070312 1879.089844 428.042969 1892.6875 527.089844 C 1879.089844 427.089844 1819.289062 333.742188 1733.230469 280.894531 C 1746.207031 353.363281 1673.433594 417.917969 1600.347656 427.089844 C 1527.261719 435.953125 1455.757812 407.15625 1385.835938 384.054688 C 1315.917969 360.957031 1237.453125 343.863281 1170.378906 374.242188 C 1081.160156 415.066406 1032.4375 532.15625 934.667969 543.546875 C 893.855469 548.292969 854.625 531.523438 823.933594 503.359375 C 854.945312 558.417969 912.210938 600.191406 973.589844 592.914062 Z M 973.589844 592.914062 "/>
<path style=" stroke:none;fill-rule:nonzero;fill:rgb(94.901961%,47.843137%,68.235294%);fill-opacity:1;" d="M 2175.226562 410.320312 C 2161.9375 390.070312 2150.542969 368.554688 2141.691406 346.398438 C 2108.148438 455.886719 2008.175781 541.648438 1895.222656 558.417969 C 1984.757812 608.421875 2133.148438 514.121094 2175.226562 410.320312 Z M 2175.226562 410.320312 "/>
<path style=" stroke:none;fill-rule:nonzero;fill:rgb(94.901961%,47.843137%,68.235294%);fill-opacity:1;" d="M 2805.152344 460.003906 C 2833.941406 382.792969 2923.800781 336.273438 3009.539062 316.96875 C 3010.171875 297.664062 3013.335938 278.359375 3019.34375 259.695312 C 2921.585938 270.136719 2832.359375 339.117188 2797.875 431.207031 C 2730.800781 361.90625 2634.933594 322.035156 2538.757812 322.984375 C 2546.027344 335.953125 2550.460938 349.25 2552.675781 362.855469 C 2641.894531 370.449219 2748.203125 401.144531 2805.152344 460.003906 Z M 2805.152344 460.003906 "/>
<path style=" stroke:none;fill-rule:nonzero;fill:rgb(20.784314%,8.627451%,19.215686%);fill-opacity:1;" d="M -36.957031 551.777344 C 141.175781 492.601562 270.894531 308.109375 262.984375 119.816406 L 262.03125 100.511719 L 278.804688 110.011719 C 381.628906 168.550781 458.828125 270.449219 486.667969 385.957031 L 462.625 381.210938 C 497.421875 331.839844 542.035156 289.753906 592.65625 257.160156 C 648.976562 220.453125 713.199219 196.714844 779.328125 185.640625 C 768.882812 285.640625 751.167969 404.308594 826.148438 484.054688 C 862.855469 522.980469 916.636719 542.917969 967.574219 519.816406 C 1006.171875 502.726562 1034.332031 471.714844 1064.707031 441.96875 C 1122.605469 382.160156 1175.125 342.28125 1262.765625 347.347656 C 1379.507812 352.414062 1482.332031 432.476562 1600.667969 420.132812 C 1666.472656 412.21875 1739.558594 354.625 1727.851562 282.164062 L 1725.957031 269.816406 C 1827.511719 328.675781 1896.171875 440.386719 1900.917969 558.105469 L 1894.589844 553.039062 C 2005.011719 536.589844 2102.769531 451.78125 2134.730469 344.183594 L 2140.738281 324.246094 C 2179.019531 425.195312 2263.8125 526.457031 2378.347656 530.890625 C 2473.261719 535.636719 2577.988281 421.714844 2526.730469 329.945312 L 2514.707031 309.691406 L 2538.4375 309.058594 C 2638.730469 307.15625 2738.710938 348.296875 2808.949219 420.132812 L 2783.007812 425.507812 C 2824.136719 316.335938 2927.90625 245.449219 3043.074219 239.75 L 3035.164062 264.753906 C 3010.484375 341.339844 3037.699219 433.425781 3100.027344 484.054688 L 3072.503906 490.070312 C 3133.875 364.4375 3264.863281 279.628906 3403.441406 271.402344 C 3402.804688 288.171875 3401.542969 308.109375 3402.171875 324.878906 C 3403.441406 374.5625 3413.246094 428.359375 3449.632812 464.117188 C 3480.957031 494.183594 3536.636719 509.375 3572.074219 479.308594 C 3602.765625 453.992188 3590.738281 379.941406 3546.128906 379.308594 L 3500.890625 378.996094 L 3534.425781 349.878906 C 3567.648438 319.8125 3617.3125 313.804688 3659.078125 322.984375 C 3699.890625 331.207031 3737.230469 349.25 3771.394531 372.347656 C 3834.042969 413.484375 3892.574219 469.8125 3970.722656 467.914062 C 4123.851562 458.738281 4191.242188 218.234375 4354.8125 228.675781 L 4370.632812 229.945312 L 4361.140625 242.285156 C 4320.648438 294.820312 4326.34375 378.359375 4373.796875 425.195312 C 4422.210938 472.980469 4507.632812 477.09375 4561.101562 434.371094 L 4563.316406 436.902344 C 4522.820312 472.027344 4462.386719 479.9375 4412.398438 461.273438 C 4359.558594 442.597656 4325.074219 391.652344 4320.328125 336.59375 C 4316.851562 300.199219 4325.707031 261.90625 4347.542969 231.839844 L 4353.863281 245.449219 C 4223.511719 239.4375 4150.117188 428.992188 4033.367188 479.625 C 3972.617188 508.105469 3909.023438 495.128906 3853.339844 462.855469 C 3785.632812 425.507812 3730.269531 368.867188 3653.070312 354.945312 C 3619.214844 348.296875 3582.515625 352.09375 3556.886719 375.511719 L 3545.179688 345.765625 C 3621.117188 344.503906 3648.644531 453.675781 3599.28125 502.726562 C 3550.875 550.195312 3470.199219 534.6875 3424.640625 491.019531 C 3406.605469 474.25 3393.632812 452.410156 3384.140625 429.625 C 3366.425781 385.324219 3363.574219 338.175781 3365.785156 291.65625 L 3386.351562 310.960938 C 3268.339844 323.296875 3157.925781 399.875 3104.773438 506.210938 L 3094.644531 526.457031 L 3077.25 512.21875 C 3058.894531 497.027344 3043.074219 478.675781 3030.417969 458.738281 C 3005.105469 418.867188 2991.507812 372.03125 2991.820312 324.566406 C 2991.820312 300.828125 2995.613281 277.097656 3003.210938 254.628906 L 3020.925781 276.777344 C 2929.488281 285.957031 2845.015625 350.832031 2812.425781 437.222656 L 2803.570312 460.320312 C 2767.503906 419.820312 2723.839844 385.636719 2673.535156 364.75 C 2631.140625 346.714844 2584.949219 337.222656 2538.757812 337.222656 L 2550.460938 316.335938 C 2581.464844 369.183594 2564.699219 436.902344 2527.042969 481.519531 C 2466.933594 553.671875 2380.242188 571.714844 2295.453125 531.84375 C 2219.832031 495.765625 2165.734375 425.195312 2134.410156 349.25 L 2148.332031 348.609375 C 2112.894531 460.003906 2011.019531 547.03125 1895.539062 563.804688 L 1889.523438 564.746094 L 1889.210938 558.738281 C 1885.097656 448.929688 1823.40625 342.921875 1729.753906 285.957031 L 1737.976562 280.261719 C 1751.582031 359.691406 1674.070312 424.246094 1601.617188 434.058594 C 1482.972656 449.878906 1377.613281 372.660156 1261.183594 369.496094 C 1220.050781 367.914062 1178.605469 378.359375 1145.382812 403.359375 C 1086.535156 445.765625 1047.304688 515.382812 978.335938 546.710938 C 883.101562 590.378906 785.023438 516.964844 754.644531 425.828125 C 729.972656 354.308594 738.195312 276.464844 746.421875 202.730469 L 764.136719 219.183594 C 708.773438 229.628906 655.304688 251.144531 607.523438 281.523438 C 550.578125 316.648438 503.75 366.019531 466.417969 421.082031 L 459.773438 391.964844 C 434.777344 283.105469 363.59375 185.320312 267.730469 128.367188 L 283.863281 118.554688 C 286.707031 264.753906 209.824219 407.472656 92.132812 491.964844 C 53.21875 520.128906 9.554688 541.335938 -36.636719 554.304688 Z M -36.957031 551.777344 "/>
<path style="fill:none;stroke-width:2;stroke-linecap:round;stroke-linejoin:miter;stroke:rgb(20.784314%,8.627451%,19.215686%);stroke-opacity:1;stroke-miterlimit:10;" d="M 205.699816 161.498726 C 205.699816 161.498726 208.598756 185.099122 226.901093 192.699291 " transform="matrix(3.163872,0,0,3.164506,1.012439,0.834762)"/>
<path style="fill:none;stroke-width:2;stroke-linecap:round;stroke-linejoin:miter;stroke:rgb(20.784314%,8.627451%,19.215686%);stroke-opacity:1;stroke-miterlimit:10;" d="M 205.699816 192.699291 C 205.699816 192.699291 216.29922 209.39942 235.699154 212.099042 " transform="matrix(3.163872,0,0,3.164506,1.012439,0.834762)"/>
<path style="fill:none;stroke-width:2;stroke-linecap:round;stroke-linejoin:miter;stroke:rgb(20.784314%,8.627451%,19.215686%);stroke-opacity:1;stroke-miterlimit:10;" d="M 61.401001 157.100577 C 61.401001 157.100577 52.700477 174.699345 38.300845 183.700552 " transform="matrix(3.163872,0,0,3.164506,1.012439,0.834762)"/>
<path style="fill:none;stroke-width:2;stroke-linecap:round;stroke-linejoin:miter;stroke:rgb(20.784314%,8.627451%,19.215686%);stroke-opacity:1;stroke-miterlimit:10;" d="M 575.29862 163.799638 C 575.29862 163.799638 586.400523 183.099402 583.799132 202.400401 " transform="matrix(3.163872,0,0,3.164506,1.012439,0.834762)"/>
<path style="fill:none;stroke-width:2;stroke-linecap:round;stroke-linejoin:miter;stroke:rgb(20.784314%,8.627451%,19.215686%);stroke-opacity:1;stroke-miterlimit:10;" d="M 559.200119 163.799638 C 559.200119 163.799638 565.700511 168.398993 569.099481 187.600006 " transform="matrix(3.163872,0,0,3.164506,1.012439,0.834762)"/>
<path style="fill:none;stroke-width:2;stroke-linecap:round;stroke-linejoin:miter;stroke:rgb(20.784314%,8.627451%,19.215686%);stroke-opacity:1;stroke-miterlimit:10;" d="M 811.300488 163.799638 C 811.300488 163.799638 804.300067 177.698924 789.800428 186.098982 " transform="matrix(3.163872,0,0,3.164506,1.012439,0.834762)"/>
<path style="fill:none;stroke-width:2;stroke-linecap:round;stroke-linejoin:miter;stroke:rgb(20.784314%,8.627451%,19.215686%);stroke-opacity:1;stroke-miterlimit:10;" d="M 988.100026 186.501394 C 988.100026 186.501394 988.800068 170.999863 998.600658 157.400535 " transform="matrix(3.163872,0,0,3.164506,1.012439,0.834762)"/>
<path style="fill:none;stroke-width:2;stroke-linecap:round;stroke-linejoin:miter;stroke:rgb(20.784314%,8.627451%,19.215686%);stroke-opacity:1;stroke-miterlimit:10;" d="M 999.19946 205.799924 C 999.19946 205.799924 995.100447 191.500694 999.80073 176.199135 " transform="matrix(3.163872,0,0,3.164506,1.012439,0.834762)"/>
<path style="fill:none;stroke-width:2;stroke-linecap:round;stroke-linejoin:miter;stroke:rgb(20.784314%,8.627451%,19.215686%);stroke-opacity:1;stroke-miterlimit:10;" d="M 811.300488 178.401295 C 811.300488 178.401295 801.999928 196.799951 782.800006 208.00085 " transform="matrix(3.163872,0,0,3.164506,1.012439,0.834762)"/>
<path style="fill:none;stroke-width:2;stroke-linecap:round;stroke-linejoin:miter;stroke:rgb(20.784314%,8.627451%,19.215686%);stroke-opacity:1;stroke-miterlimit:10;" d="M 1306.99948 141.60028 C 1306.99948 141.60028 1300.001527 155.499566 1285.60066 163.899624 " transform="matrix(3.163872,0,0,3.164506,1.012439,0.834762)"/>
<path style="fill:none;stroke-width:2;stroke-linecap:round;stroke-linejoin:miter;stroke:rgb(20.784314%,8.627451%,19.215686%);stroke-opacity:1;stroke-miterlimit:10;" d="M 1306.99948 156.299454 C 1306.99948 156.299454 1297.700154 174.699345 1278.500232 185.900244 " transform="matrix(3.163872,0,0,3.164506,1.012439,0.834762)"/>
</g>
</svg>
