<?xml version="1.0" encoding="UTF-8"?>
<svg xmlns="http://www.w3.org/2000/svg" xmlns:xlink="http://www.w3.org/1999/xlink" width="8260px" height="1294px" viewBox="0 0 8260 1294" version="1.1">
<g id="surface1">
<path style=" stroke:none;fill-rule:nonzero;fill:rgb(92.54902%,25.098039%,54.509804%);fill-opacity:1;" d="M -65.828125 1002.867188 C 265.003906 901.921875 506.957031 562.980469 496.066406 216.582031 C 676.105469 320.960938 810.839844 502.191406 858.433594 705.214844 C 982.277344 532.585938 1173.207031 410.425781 1381.335938 370.285156 C 1367 502.757812 1352.667969 640.410156 1396.816406 766.003906 C 1440.964844 891.597656 1561.941406 1000.566406 1693.808594 985.085938 C 1870.398438 964.4375 1958.695312 752.234375 2120.957031 678.25 C 2242.511719 622.628906 2384.703125 654.167969 2511.414062 696.03125 C 2638.125 737.898438 2768.28125 790.085938 2900.148438 774.027344 C 3032.589844 757.96875 3164.46875 640.976562 3140.957031 509.070312 C 3312.972656 614.59375 3427.058594 809.589844 3435.09375 1011.46875 C 3639.777344 981.074219 3820.960938 825.652344 3881.734375 627.21875 C 3957.417969 810.171875 4118.53125 977.050781 4315.773438 981.640625 C 4513 986.808594 4699.339844 756.824219 4601.296875 585.355469 C 4775.601562 583.050781 4949.894531 655.890625 5070.882812 781.484375 C 5133.378906 614.59375 5295.058594 489 5472.230469 470.652344 C 5422.914062 622.050781 5475.664062 801.554688 5598.363281 902.5 C 5699.269531 698.898438 5908.546875 553.234375 6133.875 529.140625 C 6128.722656 637.542969 6140.1875 753.390625 6206.695312 839.410156 C 6272.632812 925.4375 6408.523438 963.871094 6492.796875 895.621094 C 6577.082031 827.375 6535.234375 654.167969 6426.871094 656.457031 C 6534.078125 562.402344 6703.226562 618.617188 6821.339844 697.753906 C 6940.015625 777.472656 7060.425781 881.273438 7202.617188 871.527344 C 7484.128906 852.035156 7610.839844 411.570312 7892.367188 428.773438 C 7816.101562 530.285156 7829.292969 689.152344 7921.035156 776.894531 C 8012.765625 864.648438 8171.589844 870.382812 8269.054688 788.941406 L 8269.054688 1317.726562 L -65.828125 1317.726562 Z M -65.828125 1002.867188 "/>
<path style=" stroke:none;fill-rule:nonzero;fill:rgb(94.901961%,47.843137%,68.235294%);fill-opacity:1;" d="M 6276.644531 928.886719 C 6342.585938 1014.902344 6478.460938 1053.335938 6562.746094 985.085938 C 6636.144531 925.4375 6550.136719 692.019531 6454.960938 636.386719 C 6445.214844 642.121094 6435.46875 649.011719 6426.292969 657.035156 C 6534.65625 654.167969 6576.515625 827.375 6492.230469 896.1875 C 6422.847656 952.96875 6317.925781 936.34375 6246.253906 880.128906 C 6254.289062 896.765625 6264.609375 913.390625 6276.644531 928.886719 Z M 6276.644531 928.886719 "/>
<path style=" stroke:none;fill-rule:nonzero;fill:rgb(94.901961%,47.843137%,68.235294%);fill-opacity:1;" d="M 5610.410156 932.316406 C 5700.992188 749.367188 5925.746094 661.046875 6134.453125 627.785156 C 6132.167969 595.101562 6132.167969 561.835938 6133.308594 529.140625 C 5907.980469 552.65625 5698.707031 698.898438 5597.796875 902.5 C 5571.414062 880.707031 5548.480469 855.46875 5528.988281 827.941406 C 5544.46875 865.226562 5570.851562 899.632812 5610.410156 932.316406 Z M 5610.410156 932.316406 "/>
<path style=" stroke:none;fill-rule:nonzero;fill:rgb(94.901961%,47.843137%,68.235294%);fill-opacity:1;" d="M 7271.988281 961.003906 C 7553.511719 941.5 7636.640625 459.167969 7891.222656 428.773438 C 7609.695312 411.570312 7482.984375 852.035156 7201.472656 871.527344 C 7180.824219 872.671875 7160.191406 872.105469 7140.699219 868.660156 C 7176.8125 924.859375 7217.527344 965.015625 7271.988281 961.003906 Z M 7271.988281 961.003906 "/>
<path style=" stroke:none;fill-rule:nonzero;fill:rgb(94.901961%,47.843137%,68.235294%);fill-opacity:1;" d="M 7989.828125 865.792969 C 8062.082031 934.621094 8175.023438 952.96875 8267.34375 918.558594 L 8267.34375 788.941406 C 8173.878906 866.9375 8025.375 865.226562 7931.925781 788.375 C 7949.703125 819.335938 7969.773438 846.867188 7989.828125 865.792969 Z M 7989.828125 865.792969 "/>
<path style=" stroke:none;fill-rule:nonzero;fill:rgb(94.901961%,47.843137%,68.235294%);fill-opacity:1;" d="M 857.277344 748.800781 C 965.078125 597.96875 1179.507812 520.539062 1370.433594 476.386719 C 1373.300781 440.820312 1376.746094 405.269531 1380.757812 370.285156 C 1172.628906 410.425781 981.699219 532.585938 857.855469 705.214844 C 851.542969 678.828125 844.097656 653.023438 834.921875 627.21875 C 841.234375 666.78125 847.53125 707.5 857.277344 748.800781 Z M 857.277344 748.800781 "/>
<path style=" stroke:none;fill-rule:nonzero;fill:rgb(94.901961%,47.843137%,68.235294%);fill-opacity:1;" d="M 4.703125 978.773438 C 309.152344 885.296875 617.625 648.433594 655.460938 341.03125 C 607.867188 292.855469 554.550781 250.410156 495.488281 216.582031 C 506.390625 562.980469 263.859375 901.355469 -66.390625 1002.867188 L -66.390625 1317.726562 L 4.703125 1317.726562 Z M 4.703125 978.773438 "/>
<path style=" stroke:none;fill-rule:nonzero;fill:rgb(94.901961%,47.843137%,68.235294%);fill-opacity:1;" d="M 1764.335938 1074.550781 C 1940.929688 1053.898438 2029.226562 778.050781 2191.484375 704.070312 C 2313.027344 648.433594 2455.230469 743.632812 2581.941406 784.929688 C 2708.652344 826.796875 2838.796875 878.984375 2970.675781 862.925781 C 3103.121094 846.867188 3208.039062 683.984375 3142.679688 520.539062 C 3298.636719 616.316406 3405.28125 775.75 3429.925781 955.257812 C 3405.28125 774.027344 3296.914062 604.847656 3140.957031 509.070312 C 3164.46875 640.410156 3032.589844 757.402344 2900.148438 774.027344 C 2767.703125 790.085938 2638.125 737.898438 2511.414062 696.03125 C 2384.703125 654.167969 2242.511719 623.195312 2120.957031 678.25 C 1959.273438 752.234375 1870.980469 964.4375 1693.808594 985.085938 C 1619.84375 993.6875 1548.75 963.292969 1493.132812 912.246094 C 1549.328125 1012.035156 1653.105469 1087.742188 1764.335938 1074.550781 Z M 1764.335938 1074.550781 "/>
<path style=" stroke:none;fill-rule:nonzero;fill:rgb(94.901961%,47.843137%,68.235294%);fill-opacity:1;" d="M 3941.9375 743.632812 C 3917.859375 706.9375 3897.210938 667.9375 3881.167969 627.785156 C 3820.382812 826.214844 3639.214844 981.640625 3434.515625 1012.035156 C 3596.773438 1102.65625 3865.6875 931.753906 3941.9375 743.632812 Z M 3941.9375 743.632812 "/>
<path style=" stroke:none;fill-rule:nonzero;fill:rgb(94.901961%,47.843137%,68.235294%);fill-opacity:1;" d="M 5083.496094 833.675781 C 5135.667969 693.742188 5298.503906 609.4375 5453.882812 574.449219 C 5455.027344 539.464844 5460.761719 504.480469 5471.652344 470.652344 C 5294.492188 489.578125 5132.800781 614.59375 5070.304688 781.484375 C 4948.75 655.890625 4775.023438 583.632812 4600.730469 585.355469 C 4613.910156 608.859375 4621.945312 632.953125 4625.957031 657.613281 C 4787.636719 671.371094 4980.285156 727.007812 5083.496094 833.675781 Z M 5083.496094 833.675781 "/>
<path style=" stroke:none;fill-rule:nonzero;fill:rgb(20.784314%,8.627451%,19.215686%);fill-opacity:1;" d="M -66.96875 1000 C 255.835938 892.753906 490.914062 558.390625 476.578125 217.148438 L 474.855469 182.164062 L 505.246094 199.378906 C 691.585938 305.46875 831.488281 490.144531 881.933594 699.480469 L 838.367188 690.875 C 901.425781 601.402344 982.277344 525.128906 1074.007812 466.058594 C 1176.074219 399.535156 1292.460938 356.511719 1412.292969 336.441406 C 1393.371094 517.671875 1361.265625 732.742188 1497.144531 877.261719 C 1563.664062 947.8125 1661.125 983.941406 1753.433594 942.078125 C 1823.386719 911.101562 1874.410156 854.902344 1929.460938 800.988281 C 2034.382812 692.597656 2129.554688 620.328125 2288.382812 629.507812 C 2499.945312 638.6875 2686.28125 783.785156 2900.726562 761.414062 C 3019.980469 747.078125 3152.425781 642.699219 3131.210938 511.371094 L 3127.777344 489 C 3311.816406 595.664062 3436.238281 798.121094 3444.839844 1011.46875 L 3433.371094 1002.289062 C 3633.480469 972.472656 3810.636719 818.773438 3868.554688 623.773438 L 3879.445312 587.640625 C 3948.816406 770.59375 4102.476562 954.113281 4310.039062 962.148438 C 4482.042969 970.75 4671.824219 764.28125 4578.941406 597.96875 L 4557.148438 561.257812 L 4600.152344 560.113281 C 4781.902344 556.667969 4963.085938 631.230469 5090.375 761.414062 L 5043.359375 771.160156 C 5117.898438 573.304688 5305.949219 444.832031 5514.65625 434.507812 L 5500.320312 479.816406 C 5455.59375 618.617188 5504.910156 785.507812 5617.867188 877.261719 L 5567.984375 888.164062 C 5679.203125 660.480469 5916.582031 506.78125 6167.714844 491.867188 C 6166.558594 522.261719 6164.269531 558.390625 6165.414062 588.785156 C 6167.714844 678.828125 6185.480469 776.328125 6251.421875 841.132812 C 6308.179688 895.621094 6409.089844 923.152344 6473.308594 868.660156 C 6528.921875 822.785156 6507.132812 688.574219 6426.292969 687.429688 L 6344.308594 686.863281 L 6405.078125 634.097656 C 6465.285156 579.605469 6555.292969 568.714844 6630.976562 585.355469 C 6704.9375 600.257812 6772.601562 632.953125 6834.515625 674.816406 C 6948.050781 749.367188 7054.113281 851.457031 7195.738281 848.011719 C 7473.238281 831.386719 7595.359375 395.511719 7891.785156 414.4375 L 7920.457031 416.738281 L 7903.253906 439.097656 C 7829.871094 534.308594 7840.195312 685.707031 7926.191406 770.59375 C 8013.921875 857.191406 8168.722656 864.648438 8265.621094 787.21875 L 8269.632812 791.808594 C 8196.25 855.46875 8086.726562 869.804688 7996.140625 835.976562 C 7900.386719 802.132812 7837.894531 709.804688 7829.292969 610.015625 C 7822.992188 544.054688 7839.039062 474.664062 7878.609375 420.171875 L 7890.0625 444.832031 C 7653.84375 433.941406 7520.832031 777.472656 7309.257812 869.238281 C 7199.171875 920.847656 7083.925781 897.332031 6983.019531 838.84375 C 6860.316406 771.160156 6759.988281 668.503906 6620.085938 643.277344 C 6558.738281 631.230469 6492.230469 638.109375 6445.78125 680.550781 L 6424.570312 626.640625 C 6562.183594 624.351562 6612.0625 822.207031 6522.609375 911.101562 C 6434.890625 997.132812 6288.691406 969.027344 6206.128906 889.886719 C 6173.449219 859.492188 6149.933594 819.917969 6132.730469 778.617188 C 6100.628906 698.335938 6095.460938 612.882812 6099.472656 528.574219 L 6136.742188 563.558594 C 5922.878906 585.917969 5722.785156 724.707031 5626.464844 917.414062 L 5608.109375 954.113281 L 5576.582031 928.304688 C 5543.324219 900.777344 5514.65625 867.515625 5491.71875 831.386719 C 5445.847656 759.125 5421.203125 674.238281 5421.769531 588.222656 C 5421.769531 545.199219 5428.648438 502.191406 5442.417969 461.46875 L 5474.519531 501.613281 C 5308.8125 518.25 5155.734375 635.820312 5096.671875 792.386719 L 5080.628906 834.253906 C 5015.269531 760.847656 4936.136719 698.898438 4844.972656 661.046875 C 4768.144531 628.363281 4684.4375 611.160156 4600.730469 611.160156 L 4621.945312 573.304688 C 4678.125 669.082031 4647.746094 791.808594 4579.503906 872.671875 C 4470.574219 1003.433594 4313.472656 1036.128906 4159.8125 963.871094 C 4022.777344 898.488281 3924.738281 770.59375 3867.976562 632.953125 L 3893.199219 631.796875 C 3828.984375 833.675781 3644.367188 991.398438 3435.09375 1021.792969 L 3424.191406 1023.503906 L 3423.625 1012.613281 C 3416.171875 813.601562 3304.371094 621.484375 3134.65625 518.25 L 3149.558594 507.925781 C 3174.214844 651.878906 3033.75 768.871094 2902.449219 786.652344 C 2687.441406 815.324219 2496.511719 675.382812 2285.515625 669.648438 C 2210.976562 666.78125 2135.867188 685.707031 2075.664062 731.019531 C 1969.019531 807.867188 1897.925781 934.042969 1772.9375 990.820312 C 1600.355469 1069.960938 1422.617188 936.910156 1367.566406 771.738281 C 1322.851562 642.121094 1337.753906 501.046875 1352.667969 367.417969 L 1384.769531 397.234375 C 1284.4375 416.160156 1187.539062 455.15625 1100.953125 510.214844 C 997.757812 573.871094 912.894531 663.347656 845.242188 763.136719 L 833.199219 710.367188 C 787.90625 513.082031 658.90625 335.863281 485.179688 232.640625 L 514.414062 214.859375 C 519.570312 479.816406 380.246094 738.476562 166.960938 891.597656 C 96.445312 942.644531 17.316406 981.074219 -66.390625 1004.578125 Z M -66.96875 1000 "/>
<path style="fill:none;stroke-width:2;stroke-linecap:round;stroke-linejoin:miter;stroke:rgb(20.784314%,8.627451%,19.215686%);stroke-opacity:1;stroke-miterlimit:10;" d="M 205.700302 161.498771 C 205.700302 161.498771 208.599213 185.099957 226.90085 192.699797 " transform="matrix(5.733563,0,0,5.735113,1.83474,1.51286)"/>
<path style="fill:none;stroke-width:2;stroke-linecap:round;stroke-linejoin:miter;stroke:rgb(20.784314%,8.627451%,19.215686%);stroke-opacity:1;stroke-miterlimit:10;" d="M 205.700302 192.699797 C 205.700302 192.699797 216.299213 209.399964 235.699779 212.099208 " transform="matrix(5.733563,0,0,5.735113,1.83474,1.51286)"/>
<path style="fill:none;stroke-width:2;stroke-linecap:round;stroke-linejoin:miter;stroke:rgb(20.784314%,8.627451%,19.215686%);stroke-opacity:1;stroke-miterlimit:10;" d="M 61.400588 157.100155 C 61.400588 157.100155 52.700447 174.699389 38.300588 183.700955 " transform="matrix(5.733563,0,0,5.735113,1.83474,1.51286)"/>
<path style="fill:none;stroke-width:2;stroke-linecap:round;stroke-linejoin:miter;stroke:rgb(20.784314%,8.627451%,19.215686%);stroke-opacity:1;stroke-miterlimit:10;" d="M 575.298931 163.798884 C 575.298931 163.798884 586.400638 183.099534 583.799453 202.400864 " transform="matrix(5.733563,0,0,5.735113,1.83474,1.51286)"/>
<path style="fill:none;stroke-width:2;stroke-linecap:round;stroke-linejoin:miter;stroke:rgb(20.784314%,8.627451%,19.215686%);stroke-opacity:1;stroke-miterlimit:10;" d="M 559.199241 163.798884 C 559.199241 163.798884 565.700161 168.399791 569.099143 187.599636 " transform="matrix(5.733563,0,0,5.735113,1.83474,1.51286)"/>
<path style="fill:none;stroke-width:2;stroke-linecap:round;stroke-linejoin:miter;stroke:rgb(20.784314%,8.627451%,19.215686%);stroke-opacity:1;stroke-miterlimit:10;" d="M 811.300996 163.798884 C 811.300996 163.798884 804.300687 177.699003 789.799997 186.099829 " transform="matrix(5.733563,0,0,5.735113,1.83474,1.51286)"/>
<path style="fill:none;stroke-width:2;stroke-linecap:round;stroke-linejoin:miter;stroke:rgb(20.784314%,8.627451%,19.215686%);stroke-opacity:1;stroke-miterlimit:10;" d="M 988.09986 186.501003 C 988.09986 186.501003 988.79955 171.000273 998.600665 157.400525 " transform="matrix(5.733563,0,0,5.735113,1.83474,1.51286)"/>
<path style="fill:none;stroke-width:2;stroke-linecap:round;stroke-linejoin:miter;stroke:rgb(20.784314%,8.627451%,19.215686%);stroke-opacity:1;stroke-miterlimit:10;" d="M 999.199523 205.79961 C 999.199523 205.79961 995.100851 191.50036 999.800426 176.199196 " transform="matrix(5.733563,0,0,5.735113,1.83474,1.51286)"/>
<path style="fill:none;stroke-width:2;stroke-linecap:round;stroke-linejoin:miter;stroke:rgb(20.784314%,8.627451%,19.215686%);stroke-opacity:1;stroke-miterlimit:10;" d="M 811.300996 178.400547 C 811.300996 178.400547 801.999952 196.800087 782.799687 208.000961 " transform="matrix(5.733563,0,0,5.735113,1.83474,1.51286)"/>
<path style="fill:none;stroke-width:2;stroke-linecap:round;stroke-linejoin:miter;stroke:rgb(20.784314%,8.627451%,19.215686%);stroke-opacity:1;stroke-miterlimit:10;" d="M 1306.999216 141.599425 C 1306.999216 141.599425 1300.00095 155.499543 1285.601092 163.90037 " transform="matrix(5.733563,0,0,5.735113,1.83474,1.51286)"/>
<path style="fill:none;stroke-width:2;stroke-linecap:round;stroke-linejoin:miter;stroke:rgb(20.784314%,8.627451%,19.215686%);stroke-opacity:1;stroke-miterlimit:10;" d="M 1306.999216 156.299849 C 1306.999216 156.299849 1297.700216 174.699389 1278.499951 185.900263 " transform="matrix(5.733563,0,0,5.735113,1.83474,1.51286)"/>
</g>
</svg>
