<svg width="263" height="96" viewBox="0 0 263 96" fill="none" xmlns="http://www.w3.org/2000/svg">
<g clip-path="url(#clip0_3_158)">
<path d="M21.27 78.98L15.07 23.95L62.01 19.2L55.81 75.49L21.27 78.98Z" fill="#3D0E1A"/>
<path d="M51.82 75.89V20.23L82.99 17.08V36.01L80.6 36.25V54.06L82.99 53.81V72.74L51.82 75.89Z" fill="#3D0E1A"/>
<path d="M74.35 73.62V17.96L93.89 15.98V52.71L104.97 51.59V70.52L74.35 73.62Z" fill="#3D0E1A"/>
<path d="M110.99 70.4C101 71.41 94.55 65.32 94.55 54.89V32.61C94.55 22.17 101 14.78 110.99 13.77C120.98 12.76 127.43 18.85 127.43 29.29V51.57C127.43 62 120.98 69.4 110.99 70.41V70.4Z" fill="#3D0E1A"/>
<path d="M134.81 67.99C124.71 69.01 118.18 62.93 118.18 52.49V30.21C118.18 19.77 124.71 12.37 134.81 11.35C144.91 10.33 151.44 16.41 151.44 26.85V49.13C151.44 59.56 144.91 66.97 134.81 67.99Z" fill="#3D0E1A"/>
<path d="M142.91 66.68V11.02L184 6.87V62.53L142.91 66.68Z" fill="#3D0E1A"/>
<path d="M176.09 63.33V7.66999L207.27 4.51999V23.44L204.88 23.69V41.49L207.27 41.25V60.18L176.09 63.33Z" fill="#3D0E1A"/>
<path d="M213.19 59.58V22.84L206.15 23.56V4.63L239.77 1.23V20.16L232.73 20.87V57.6L213.19 59.58Z" fill="#3D0E1A"/>
<path d="M245.98 56.75C235.88 57.77 229.35 51.69 229.35 41.25V18.97C229.35 8.52999 235.88 1.12999 245.98 0.109993C256.08 -0.910007 262.61 5.16999 262.61 15.61V37.89C262.61 48.32 256.08 55.73 245.98 56.75Z" fill="#3D0E1A"/>
<path d="M6.2 95.58L0 40.54L46.94 35.8L40.74 92.08L6.2 95.58Z" fill="#3D0E1A"/>
<path d="M36.75 92.49V36.83L67.92 33.67V52.6L65.53 52.84V70.65L67.92 70.41V89.33L36.75 92.49Z" fill="#3D0E1A"/>
<path d="M59.28 90.21V34.55L78.82 32.57V69.3L89.9 68.18V87.11L59.28 90.21Z" fill="#3D0E1A"/>
<path d="M95.92 86.99C85.93 88 79.48 81.91 79.48 71.48V49.2C79.48 38.76 85.93 31.37 95.92 30.36C105.91 29.35 112.36 35.44 112.36 45.88V68.16C112.36 78.59 105.91 85.99 95.92 87V86.99Z" fill="#3D0E1A"/>
<path d="M119.74 84.58C109.64 85.6 103.11 79.52 103.11 69.08V46.8C103.11 36.36 109.64 28.96 119.74 27.94C129.84 26.92 136.37 33 136.37 43.44V65.72C136.37 76.15 129.84 83.56 119.74 84.58Z" fill="#3D0E1A"/>
<path d="M127.84 83.28V27.62L168.93 23.46V79.12L127.84 83.28Z" fill="#3D0E1A"/>
<path d="M161.02 79.92V24.26L192.2 21.11V40.04L189.81 40.28V58.08L192.2 57.84V76.77L161.02 79.92Z" fill="#3D0E1A"/>
<path d="M198.12 76.17V39.44L191.08 40.15V21.22L224.7 17.82V36.75L217.66 37.46V74.19L198.12 76.17Z" fill="#3D0E1A"/>
<path d="M230.91 73.34C220.81 74.36 214.28 68.28 214.28 57.84V35.56C214.28 25.12 220.81 17.72 230.91 16.7C241.01 15.68 247.54 21.76 247.54 32.2V54.48C247.54 64.91 241.01 72.32 230.91 73.34Z" fill="#3D0E1A"/>
<path d="M15.07 23.95L0 40.54L23.47 68.02C23.47 68.02 98.32 73.57 99.03 73.24C99.74 72.91 198.12 56.66 198.12 56.66L222.96 60.71L239.77 70.27L259.51 48.98L166.22 28.6L23.47 38.17L15.07 23.95Z" fill="#3D0E1A"/>
<path d="M38.75 47.98H38.63L36.24 71.07L27 72L22.22 29.63L28.77 28.97L32.32 62.4H32.44L35.62 28.27L42.11 27.61L45.42 61.31H45.54L48.97 26.91L54.85 26.32L50.07 69.66L41.13 70.56L38.74 47.97L38.75 47.98Z" fill="#EC408B"/>
<path d="M64.96 43.37L74.2 42.44V48.56L64.96 49.49V62.04L76.59 60.86V66.98L58.22 68.84V25.99L76.59 24.13V30.25L64.96 31.43V43.37Z" fill="#EC408B"/>
<path d="M80.75 23.71L87.48 23.03V59.76L98.56 58.64V64.76L80.74 66.56V23.71H80.75Z" fill="#EC408B"/>
<path d="M121.03 46.51V52.2C121.03 59.06 117.6 63.32 110.99 63.99C104.38 64.66 100.95 61.09 100.95 54.23V31.95C100.95 25.09 104.38 20.83 110.99 20.16C117.6 19.49 121.03 23.06 121.03 29.92V34.08L114.66 34.72V30.13C114.66 27.07 113.31 26.04 111.17 26.26C109.03 26.48 107.68 27.78 107.68 30.84V53.98C107.68 57.04 109.03 58.01 111.17 57.79C113.31 57.57 114.66 56.34 114.66 53.27V47.15L121.03 46.51Z" fill="#EC408B"/>
<path d="M124.58 29.56C124.58 22.7 128.19 18.42 134.8 17.75C141.41 17.08 145.02 20.63 145.02 27.49V49.77C145.02 56.63 141.41 60.91 134.8 61.58C128.19 62.25 124.58 58.7 124.58 51.84V29.56ZM131.31 51.59C131.31 54.65 132.66 55.68 134.8 55.46C136.94 55.24 138.29 53.94 138.29 50.88V27.75C138.29 24.69 136.94 23.66 134.8 23.88C132.66 24.1 131.31 25.4 131.31 28.46V51.6V51.59Z" fill="#EC408B"/>
<path d="M163.58 45.76H163.7L168.23 14.86L177.6 13.91V56.77L171.23 57.41V26.68H171.11L166.58 57.88L160.21 58.52L155.31 28.71H155.19V59.03L149.31 59.62V16.78L158.68 15.83L163.58 45.76Z" fill="#EC408B"/>
<path d="M189.23 30.8L198.47 29.87V35.99L189.23 36.92V49.47L200.86 48.29V54.41L182.49 56.27V13.42L200.86 11.56V17.68L189.23 18.86V30.8Z" fill="#EC408B"/>
<path d="M212.56 10.38L233.37 8.27998V14.4L226.33 15.11V51.84L219.6 52.52V15.79L212.56 16.5V10.38Z" fill="#EC408B"/>
<path d="M235.76 18.32C235.76 11.46 239.37 7.17999 245.98 6.50999C252.59 5.83999 256.2 9.38999 256.2 16.25V38.53C256.2 45.39 252.59 49.67 245.98 50.34C239.37 51.01 235.76 47.46 235.76 40.6V18.32ZM242.49 40.35C242.49 43.41 243.84 44.44 245.98 44.22C248.12 44 249.47 42.7 249.47 39.64V16.51C249.47 13.45 248.12 12.42 245.98 12.64C243.84 12.86 242.49 14.16 242.49 17.22V40.36V40.35Z" fill="#EC408B"/>
</g>
<defs>
<clipPath id="clip0_3_158">
<rect width="262.61" height="95.58" fill="white"/>
</clipPath>
</defs>
</svg>
