<?xml version="1.0" encoding="UTF-8"?>
<svg xmlns="http://www.w3.org/2000/svg" xmlns:xlink="http://www.w3.org/1999/xlink" width="325px" height="114px" viewBox="0 0 324 114" version="1.1">
<g id="surface1">
<path style=" stroke:none;fill-rule:nonzero;fill:rgb(100%,88.235294%,32.941176%);fill-opacity:1;" d="M 20.878906 0 L 229.96875 0 C 241.488281 0 250.847656 9.378906 250.847656 20.925781 C 250.847656 32.46875 241.488281 41.847656 229.96875 41.847656 L 20.878906 41.847656 C 9.359375 41.703125 0 32.46875 0 20.925781 C 0 9.378906 9.359375 0 20.878906 0 Z M 20.878906 0 "/>
<path style=" stroke:none;fill-rule:nonzero;fill:rgb(0%,0%,0%);fill-opacity:1;" d="M 92.449219 10.96875 L 94.464844 10.96875 L 94.464844 32.757812 L 91.007812 32.757812 L 91.007812 21.933594 L 88.273438 29.292969 L 86.257812 29.292969 L 83.519531 21.789062 L 83.519531 32.613281 L 80.0625 32.613281 L 80.0625 10.96875 L 82.078125 10.96875 L 87.265625 22.945312 Z M 92.449219 10.96875 "/>
<path style=" stroke:none;fill-rule:nonzero;fill:rgb(0%,0%,0%);fill-opacity:1;" d="M 96.910156 32.613281 L 96.910156 10.96875 L 100.367188 10.96875 L 100.367188 32.757812 L 96.910156 32.757812 Z M 96.910156 32.613281 "/>
<path style=" stroke:none;fill-rule:nonzero;fill:rgb(0%,0%,0%);fill-opacity:1;" d="M 113.183594 10.96875 L 113.183594 32.757812 L 111.167969 32.757812 L 105.984375 21.644531 L 105.984375 32.613281 L 102.527344 32.613281 L 102.527344 10.96875 L 104.542969 10.96875 L 109.726562 21.933594 L 109.726562 10.96875 Z M 113.183594 10.96875 "/>
<path style=" stroke:none;fill-rule:nonzero;fill:rgb(0%,0%,0%);fill-opacity:1;" d="M 124.992188 10.96875 L 124.992188 14.429688 L 121.535156 14.429688 L 121.535156 32.757812 L 118.078125 32.757812 L 118.078125 14.285156 L 114.625 14.285156 L 114.625 10.96875 Z M 124.992188 10.96875 "/>
<path style=" stroke:none;fill-rule:nonzero;fill:rgb(0%,0%,0%);fill-opacity:1;" d="M 141.839844 10.96875 L 141.839844 32.757812 L 139.824219 32.757812 L 134.640625 21.644531 L 134.640625 32.613281 L 131.183594 32.613281 L 131.183594 10.96875 L 133.199219 10.96875 L 138.382812 21.933594 L 138.382812 10.96875 Z M 141.839844 10.96875 "/>
<path style=" stroke:none;fill-rule:nonzero;fill:rgb(0%,0%,0%);fill-opacity:1;" d="M 149.039062 32.902344 C 147.601562 32.902344 146.304688 32.46875 145.441406 31.601562 C 144.433594 30.59375 143.855469 29.292969 143.855469 27.5625 L 143.855469 16.019531 C 143.855469 14.285156 144.433594 12.988281 145.441406 11.976562 C 146.304688 11.113281 147.601562 10.679688 149.039062 10.679688 C 150.480469 10.679688 151.777344 11.113281 152.640625 11.976562 C 153.648438 12.988281 154.222656 14.285156 154.222656 16.019531 L 154.222656 27.5625 C 154.222656 29.292969 153.648438 30.59375 152.640625 31.601562 C 151.632812 32.46875 150.480469 32.902344 149.039062 32.902344 Z M 149.039062 14.140625 C 148.464844 14.140625 148.03125 14.285156 147.742188 14.574219 C 147.457031 14.863281 147.3125 15.441406 147.3125 16.160156 L 147.3125 27.707031 C 147.3125 28.429688 147.457031 29.003906 147.742188 29.292969 C 148.03125 29.582031 148.464844 29.726562 149.039062 29.726562 C 149.617188 29.726562 150.046875 29.582031 150.335938 29.292969 C 150.625 29.003906 150.769531 28.570312 150.769531 27.707031 L 150.769531 16.160156 C 150.769531 15.441406 150.625 14.863281 150.335938 14.574219 C 150.046875 14.285156 149.617188 14.140625 149.039062 14.140625 Z M 149.039062 14.140625 "/>
<path style=" stroke:none;fill-rule:nonzero;fill:rgb(0%,0%,0%);fill-opacity:1;" d="M 167.183594 10.96875 L 170.640625 10.96875 L 168.046875 32.757812 L 166.175781 32.757812 L 163.152344 21.933594 L 160.128906 32.757812 L 158.257812 32.757812 L 155.519531 10.96875 L 158.976562 10.96875 L 160.128906 21.789062 L 162.144531 14.429688 L 164.160156 14.429688 L 166.175781 21.789062 Z M 167.183594 10.96875 "/>
</g>
</svg>
