<svg width="219" height="115" viewBox="0 0 219 115" fill="none" xmlns="http://www.w3.org/2000/svg">
<path d="M5.41 91.04C1.73 88.2 0 85.24 0 81.27C0 75.47 3.57 66.84 6.22 60.13C9.21 52.52 10.71 48.42 12.9 43.31C14.86 38.88 16.93 35.92 20.04 35.92C22 35.92 23.38 37.17 23.38 39.1C23.38 42.06 20.16 46.26 16.7 53.42C15.89 55.13 16.24 55.47 17.39 55.24C18.08 55.13 20.27 54.9 22.92 54.67C36.39 53.53 44.1 45.46 44.1 38.3C44.1 32.5 39.38 28.75 30.52 28.75C19.35 28.75 15.79 34.89 12.22 34.89C10.84 34.89 10.03 33.87 10.03 32.62C10.03 28.53 17.86 22.28 29.25 22.28C35.81 22.28 40.65 24.33 44.1 27.62C47.21 30.58 49.39 34.33 49.39 39.55C49.39 47.62 44.1 55.01 35.46 58.19C34.54 58.53 34.31 59.21 35.23 59.67C40.3 62.51 43.52 67.4 43.52 73.88C43.52 85.47 30.74 95.02 17.39 95.02C11.98 95.02 8.87 93.77 5.42 91.04H5.41ZM37.41 71.83C37.41 66.26 33.61 62.4 26.01 60.69C24.63 60.35 24.17 60.46 22.79 60.8C21.98 61.03 20.6 61.37 19.22 61.37C16.92 61.37 15.42 60.58 14.73 59.33C14.5 58.76 14.27 58.65 14.04 59.22L12.31 63.77C9.78 70.25 7.02 78.66 7.02 83.09C7.02 86.84 8.75 88.43 14.73 88.43C27.62 88.43 37.41 80.47 37.41 71.84V71.83Z" fill="#FFE154"/>
<path d="M46.27 74.0999C46.27 63.5299 53.98 50.9199 64 50.9199C69.53 50.9199 73.67 54.7799 73.67 60.4699C73.67 68.9899 64.12 76.1499 55.83 73.0899C54.68 72.6299 54.68 74.1099 54.68 75.4799C54.68 81.6199 57.1 84.2299 61.47 84.2299C68.72 84.2299 75.86 77.7499 84.38 59.5699C84.84 58.6599 85.3 58.3199 85.88 58.3199C86.57 58.3199 87.26 59.1199 87.26 60.4799C87.26 61.3899 86.92 62.4099 86.22 64.2299C79.66 80.1399 70.34 88.6599 60.09 88.6599C52.03 88.6599 46.28 83.0899 46.28 74.1099L46.27 74.0999ZM67.1 57.8499C67.1 55.7999 66.52 55.2399 65.49 55.2399C62.73 55.2399 58.01 60.5799 55.82 67.8599C55.48 69.1099 55.82 69.6799 57.2 69.6799C62.03 69.6799 67.1 63.3199 67.1 57.8599V57.8499Z" fill="#FFE154"/>
<path d="M75.28 81.8299C75.28 73.1899 80.69 49.4399 87.02 49.4399C88.4 49.4399 89.67 50.5799 89.67 53.0799C89.67 57.1699 85.99 60.8099 85.99 64.6699C85.99 65.9199 86.34 66.3799 86.8 66.3799C89.22 66.3799 92.56 53.8799 101.76 53.8799C106.02 53.8799 108.78 56.6099 108.78 60.9299C108.78 66.1599 104.64 71.3899 104.64 76.8399C104.64 79.5699 105.68 80.6999 107.75 80.6999C111.66 80.6999 116.04 76.4899 124.56 59.5599C125.02 58.7699 125.48 58.3099 126.06 58.3099C126.75 58.3099 127.44 59.1099 127.44 60.4699C127.44 61.6099 126.98 62.8599 126.06 64.6799C118.23 80.5899 112.71 85.1399 106.61 85.1399C101.08 85.1399 97.4 81.3899 97.4 75.2499C97.4 70.6999 99.47 65.3599 99.47 62.4099C99.47 60.9299 99.01 60.4799 98.2 60.4799C91.98 60.4799 83.81 89.4599 78.63 89.4599C77.02 89.4599 75.29 86.7299 75.29 81.8499L75.28 81.8299Z" fill="#FFE154"/>
<path d="M115.45 74.0999C115.45 63.5299 123.16 50.9199 133.18 50.9199C138.71 50.9199 142.85 54.7799 142.85 60.4699C142.85 68.9899 133.3 76.1499 125.01 73.0899C123.86 72.6299 123.86 74.1099 123.86 75.4799C123.86 81.6199 126.28 84.2299 130.65 84.2299C137.9 84.2299 145.04 77.7499 153.56 59.5699C154.02 58.6599 154.48 58.3199 155.06 58.3199C155.75 58.3199 156.44 59.1199 156.44 60.4799C156.44 61.3899 156.1 62.4099 155.4 64.2299C148.84 80.1399 139.52 88.6599 129.27 88.6599C121.21 88.6599 115.46 83.0899 115.46 74.1099L115.45 74.0999ZM136.28 57.8499C136.28 55.7999 135.7 55.2399 134.67 55.2399C131.91 55.2399 127.19 60.5799 125 67.8599C124.66 69.1099 125 69.6799 126.38 69.6799C131.21 69.6799 136.28 63.3199 136.28 57.8599V57.8499Z" fill="#FFE154"/>
<path d="M134.22 111.15C134.22 109.1 135.03 105.35 136.41 100.47C138.48 92.8601 141.7 82.0601 144.7 72.4001C144.93 71.7201 144.7 71.3801 144.12 71.1501C141.47 70.0101 139.98 68.5401 139.98 66.9401C139.98 65.8001 140.67 65.1201 141.94 65.1201C142.86 65.1201 144.13 65.4601 145.62 66.0301C146.2 66.2601 146.66 66.1401 147 65.0101C151.03 52.2801 155.4 40.0101 160.58 33.7601C163.11 30.6901 165.76 29.1001 168.64 29.1001C172.78 29.1001 176.81 32.7401 176.81 36.1501C176.81 37.8601 175.77 38.9901 174.05 38.9901C171.06 38.9901 172.09 35.3501 170.14 35.3501C167.15 35.3501 162.66 43.1901 154.25 67.4001C153.91 68.4201 154.37 68.8801 156.67 68.8801C161.39 68.8801 166.34 66.1501 170.71 59.7901C171.4 58.7701 171.75 58.3101 172.32 58.3101C173.13 58.3101 173.7 59.1101 173.7 60.4701C173.7 61.4901 173.12 63.6501 171.74 65.4701C167.94 70.3601 162.88 72.8601 154.36 72.8601C152.63 72.8601 152.4 72.9701 152.06 74.0001C149.41 82.3001 147.23 90.4801 145.04 99.6801C142.85 109 140.55 114.8 136.87 114.8C135.26 114.8 134.22 113.32 134.22 111.16V111.15Z" fill="#FFE154"/>
<path d="M161.04 75.58C161.04 67.28 166.1 56.3699 170.94 56.3699C172.78 56.3699 174.28 57.7299 174.28 59.8899C174.28 64.0999 168.53 70.57 168.53 78.07C168.53 81.1399 169.45 82.5 171.18 82.5C175.09 82.5 180.5 76.93 188.22 60C188.8 58.86 189.26 58.29 190.06 58.29C190.75 58.29 191.33 59.09 191.33 60.56C191.33 61.35 191.21 62.04 190.52 63.63C183.15 80.56 176.71 86.6999 170.26 86.6999C164.5 86.6999 161.05 82.7199 161.05 75.5599L161.04 75.58ZM172.09 48.8699C172.09 48.1899 172.32 47.5099 172.32 46.82C172.32 45.8 171.74 45.23 171.74 44.09C171.74 41.59 174.73 37.95 177.84 37.95C180.03 37.95 181.52 39.77 181.52 42.5C181.52 46.71 177.95 51.25 174.38 51.25C173 51.25 172.08 50.34 172.08 48.86L172.09 48.8699Z" fill="#FFE154"/>
<path d="M179.34 77.6301C179.34 73.4201 181.18 66.2701 184.4 58.0801C184.75 57.1701 184.63 56.8301 183.48 57.1701C181.52 57.7401 179.91 58.0801 178.88 58.0801C177.38 58.0801 176.58 57.2901 176.58 56.0401C176.58 54.6801 177.5 53.5401 184.75 52.6301C186.59 52.4001 186.94 52.2901 187.74 50.5901C189.47 47.0701 191.42 43.5401 193.73 39.5701C196.61 34.6801 199.26 32.0701 201.79 32.0701C203.4 32.0701 204.55 33.2101 204.55 35.1401C204.55 36.5001 203.86 38.2101 202.02 41.6201C200.87 43.7801 199.03 47.1901 197.65 50.0301C197.19 51.0501 197.3 51.2801 198.23 51.2801C198.92 51.2801 200.19 51.1701 201.57 51.1701C205.6 51.1701 207.44 51.9601 207.44 53.2101C207.44 54.1201 206.4 54.6901 203.07 54.6901H198.24C195.59 54.6901 195.13 55.2601 194.44 56.7401C188.34 70.0401 186.61 76.8601 186.61 80.4901C186.61 83.5601 187.88 84.8101 190.18 84.8101C194.9 84.8101 200.19 80.4901 210.32 59.5801C210.78 58.6701 211.24 58.3301 211.82 58.3301C212.63 58.3301 213.2 59.1301 213.2 60.4901C213.2 61.5101 212.62 63.2201 211.47 65.7201C203.07 83.9001 195.81 89.4701 189.48 89.4701C183.95 89.4701 179.35 84.3601 179.35 77.6501L179.34 77.6301Z" fill="#FFE154"/>
<path d="M196.72 80.9201C196.72 79.3301 197.76 78.0801 199.37 78.0801C202.59 78.0801 200.98 83.3101 205.24 83.3101C208.23 83.3101 210.53 80.5801 210.53 76.7201C210.53 71.1501 205.7 61.9501 205.7 57.4001C205.7 53.9901 208.46 50.5801 212.38 50.5801C215.37 50.5801 216.87 52.5101 216.87 54.5601C216.87 57.6301 213.65 57.1701 213.65 61.2701C213.65 66.0401 218.02 70.4801 218.02 76.3901C218.02 82.7501 213.07 87.4101 206.28 87.4101C200.99 87.4101 196.73 84.2301 196.73 80.9301L196.72 80.9201Z" fill="#FFE154"/>
<path d="M98.7 0V39.42H95.1L85.64 19.43V39.42H79.45V0H83.05L92.51 19.93V0H98.7Z" fill="#FFE154"/>
<path d="M119.31 6.19H109.17V16.1H116.21V22.29H109.17V39.41H102.98V0H119.31V6.19Z" fill="#FFE154"/>
<path d="M139.75 0V6.19H133.44V39.42H127.25V6.19H120.94V0H139.75Z" fill="#FFE154"/>
</svg>
