<svg width="248" height="38" viewBox="0 0 248 38" fill="none" xmlns="http://www.w3.org/2000/svg">
<path d="M18.8 0H229C239.4 0 247.8 8.4 247.8 18.8C247.8 29.2 239.4 37.6 229 37.6H18.8C8.4 37.5 0 29.1 0 18.8C0 8.4 8.4 0 18.8 0Z" fill="#FFE154"/>
<path d="M55.5 29C54.2 29 53.1 28.6 52.2 27.8C51.2 26.8 50.8 25.6 50.8 24.1V13.4C50.8 11.9 51.3 10.6 52.2 9.7C53.1 8.9 54.2 8.5 55.5 8.5C56.9 8.5 58 8.9 58.8 9.7C59.8 10.6 60.2 11.9 60.2 13.4V15.2H57.1V13.4C57.1 12.7 57 12.2 56.7 12C56.5 11.8 56.1 11.7 55.5 11.7C55 11.7 54.6 11.8 54.3 12C54 12.3 53.9 12.7 53.9 13.4V24C53.9 24.7 54 25.2 54.3 25.4C54.5 25.6 54.9 25.7 55.5 25.7C56.1 25.7 56.5 25.6 56.7 25.4C57 25.2 57.1 24.7 57.1 24V21.4H60.2V24C60.2 25.6 59.7 26.8 58.8 27.7C57.9 28.6 56.8 29 55.5 29Z" fill="black"/>
<path d="M66.7 29C65.3 29 64.2 28.6 63.4 27.8C62.4 26.9 62 25.6 62 24.1V13.4C62 11.8 62.5 10.6 63.4 9.7C64.2 8.9 65.3 8.5 66.7 8.5C68.1 8.5 69.2 8.9 70 9.7C71 10.6 71.4 11.9 71.4 13.4V24C71.4 25.6 70.9 26.8 70 27.7C69.1 28.6 68 29 66.7 29ZM66.7 11.7C66.2 11.7 65.8 11.8 65.5 12C65.2 12.3 65.1 12.7 65.1 13.4V24C65.1 24.7 65.2 25.2 65.5 25.4C65.7 25.6 66.1 25.7 66.7 25.7C67.3 25.7 67.6 25.6 67.9 25.4C68.2 25.2 68.3 24.7 68.3 24V13.4C68.3 12.7 68.2 12.2 67.9 12C67.6 11.8 67.2 11.7 66.7 11.7Z" fill="black"/>
<path d="M83.1 8.80005V28.8H81.3L76.5 18.7V28.8H73.4V8.80005H75.2L80 18.9V8.80005H83.1Z" fill="black"/>
<path d="M94.9 8.80005V28.8H93.1L88.3 18.7V28.8H85.2V8.80005H87L91.8 18.9V8.80005H94.9Z" fill="black"/>
<path d="M105.3 11.9001H100.2V16.9001H103.7V20.0001H100.2V25.5001H105.3V28.6001H97V8.6001H105.3V11.9001Z" fill="black"/>
<path d="M111.5 29C110.2 29 109.1 28.6 108.2 27.8C107.2 26.8 106.8 25.6 106.8 24.1V13.4C106.8 11.9 107.3 10.6 108.2 9.7C109.1 8.9 110.2 8.5 111.5 8.5C112.9 8.5 114 8.9 114.8 9.7C115.8 10.6 116.2 11.9 116.2 13.4V15.2H113.1V13.4C113.1 12.7 113 12.2 112.7 12C112.5 11.8 112.1 11.7 111.5 11.7C111 11.7 110.6 11.8 110.3 12C110 12.3 109.9 12.7 109.9 13.4V24C109.9 24.7 110 25.2 110.3 25.4C110.5 25.6 110.9 25.7 111.5 25.7C112.1 25.7 112.5 25.6 112.7 25.4C113 25.2 113.1 24.7 113.1 24V21.4H116.2V24C116.2 25.6 115.7 26.8 114.8 27.7C114 28.6 112.9 29 111.5 29Z" fill="black"/>
<path d="M126.8 8.80005V11.9H123.6V28.7001H120.5V11.9H117.3V8.80005H126.8Z" fill="black"/>
<path d="M142.7 8.80005H145.9L143.4 28.8H141.7L138.9 18.9L136.1 28.8H134.4L131.9 8.80005H135.1L136.2 18.8L138 12H139.8L141.6 18.8L142.7 8.80005Z" fill="black"/>
<path d="M153.8 28.8L153.2 25.6H149.6L149 28.8H145.8L149.8 8.80005H152.9L156.9 28.8H153.8ZM150.2 22.4H152.7L151.4 15.2L150.2 22.4Z" fill="black"/>
<path d="M158.5 28.8V8.80005H161.6V25.6H166.7V28.7001H158.5V28.8Z" fill="black"/>
<path d="M168.3 28.8V8.80005H171.4V25.6H176.5V28.7001H168.3V28.8Z" fill="black"/>
<path d="M186.4 11.9001H181.3V16.9001H184.8V20.0001H181.3V25.5001H186.4V28.6001H178.1V8.6001H186.4V11.9001Z" fill="black"/>
<path d="M197 8.80005V11.9H193.8V28.7001H190.7V11.9H187.5V8.80005H197Z" fill="black"/>
</svg>
