<svg width="84" height="48" viewBox="0 0 84 48" fill="none" xmlns="http://www.w3.org/2000/svg">
<g clip-path="url(#clip0_165_2)">
<path d="M72.9 47.4H10.3C4.6 47.4 0 42.7 0 37V10.3C0 4.6 4.6 0 10.3 0H72.8C78.5 0 83.1 4.6 83.1 10.3V37C83.2 42.7 78.6 47.4 72.9 47.4Z" fill="#492F7A"/>
<path d="M71.4 41.7H11.9C8.1 41.7 5 38.6 5 34.8V12.6C5 8.80001 8.1 5.70001 11.9 5.70001H71.4C75.2 5.70001 78.3 8.80001 78.3 12.6V34.8C78.3 38.6 75.2 41.7 71.4 41.7Z" stroke="#FFE154" stroke-miterlimit="10"/>
<path d="M22 17H14.4C13.6 17 12.8 17.4 12.4 18.2C12 19 12 19.8 12.4 20.5C12.8 21.2 13.6 21.7 14.4 21.7H24.1V29.5H21.8V30.9H24.3C24.6 30.9 24.9 30.8 25.1 30.6C25.3 30.4 25.4 30.1 25.4 29.8V21.5C25.4 21.2 25.3 20.9 25.1 20.7C24.9 20.5 24.6 20.4 24.3 20.4H23.1V18.3C23.1 18 23 17.7 22.8 17.5C22.6 17.1 22.3 17 22 17ZM21.8 20.2H14.4C14.1 20.2 13.8 20 13.6 19.7C13.4 19.4 13.4 19.1 13.6 18.8C13.8 18.5 14.1 18.3 14.4 18.3H21.8V20.2Z" fill="white"/>
<path d="M22.9 25.5C22.9 25.9 22.6 26.2 22.2 26.2C21.8 26.2 21.5 25.9 21.5 25.5C21.5 25.1 21.8 24.8 22.2 24.8C22.6 24.8 22.9 25.2 22.9 25.5Z" fill="white"/>
<path d="M12.1 27.6H12.8C13.5 27.6 14.1 27.9 14.6 28.3C15.1 28.8 15.3 29.4 15.3 30.1V30.8H16.7V30.1C16.7 29.1 16.3 28.1 15.6 27.3C14.9 26.6 13.9 26.2 12.8 26.2H12.1V27.6Z" fill="white"/>
<path d="M12.1 24.4H12.8C14.3 24.4 15.8 25 16.9 26.1C18 27.2 18.6 28.6 18.6 30.2V30.9H20V30.2C20 28.3 19.2 26.5 17.9 25.2C16.6 23.9 14.7 23.1 12.9 23.1H12.2L12.1 24.4Z" fill="white"/>
<path d="M13.5 30.2C13.5 30.6 13.2 30.9 12.8 30.9C12.4 30.9 12.1 30.6 12.1 30.2C12.1 29.8 12.4 29.5 12.8 29.5C13.2 29.5 13.5 29.8 13.5 30.2Z" fill="white"/>
<path d="M35.1 22.6C34.4 22.6 33.8 22.4 33.3 22C32.8 21.5 32.5 20.8 32.5 20V14.3C32.5 13.5 32.8 12.8 33.3 12.3C33.8 11.9 34.4 11.7 35.1 11.7C35.8 11.7 36.4 11.9 36.9 12.3C37.4 12.8 37.7 13.5 37.7 14.3V15.3H36V14.3C36 13.9 35.9 13.7 35.8 13.5C35.7 13.4 35.4 13.3 35.2 13.3C34.9 13.3 34.7 13.4 34.6 13.5C34.4 13.6 34.4 13.9 34.4 14.3V20C34.4 20.4 34.5 20.6 34.6 20.8C34.7 20.9 34.9 21 35.2 21C35.5 21 35.7 20.9 35.8 20.8C35.9 20.7 36 20.4 36 20V18.6H37.7V20C37.7 20.9 37.4 21.5 36.9 22C36.4 22.4 35.8 22.6 35.1 22.6Z" fill="white"/>
<path d="M41.1 22.6C40.4 22.6 39.8 22.4 39.3 22C38.8 21.5 38.5 20.8 38.5 20V14.3C38.5 13.4 38.8 12.8 39.3 12.3C39.8 11.9 40.3 11.7 41.1 11.7C41.8 11.7 42.4 11.9 42.9 12.3C43.4 12.8 43.7 13.5 43.7 14.3V20C43.7 20.9 43.4 21.5 42.9 22C42.5 22.4 41.9 22.6 41.1 22.6ZM41.1 13.2C40.8 13.2 40.6 13.3 40.5 13.4C40.3 13.5 40.3 13.8 40.3 14.2V19.9C40.3 20.3 40.4 20.5 40.5 20.7C40.6 20.8 40.8 20.9 41.1 20.9C41.4 20.9 41.6 20.8 41.7 20.7C41.9 20.6 41.9 20.3 41.9 19.9V14.2C41.9 13.8 41.8 13.6 41.7 13.4C41.7 13.3 41.4 13.2 41.1 13.2Z" fill="white"/>
<path d="M50 11.7V22.5H49L46.4 17V22.5H44.7V11.7H45.7L48.3 17.2V11.7H50Z" fill="white"/>
<path d="M56.4 11.7V22.5H55.4L52.8 17V22.5H51.1V11.7H52.1L54.7 17.2V11.7H56.4Z" fill="white"/>
<path d="M62.1 13.4H59.3V16.1H61.2V17.8H59.3V20.8H62.1V22.5H57.6V11.7H62.1V13.4Z" fill="white"/>
<path d="M65.4 22.6C64.7 22.6 64.1 22.4 63.6 22C63.1 21.5 62.8 20.8 62.8 20V14.3C62.8 13.5 63.1 12.8 63.6 12.3C64.1 11.9 64.7 11.7 65.4 11.7C66.1 11.7 66.7 11.9 67.2 12.3C67.7 12.8 68 13.5 68 14.3V15.3H66.3V14.3C66.3 13.9 66.2 13.7 66.1 13.5C66 13.4 65.7 13.3 65.5 13.3C65.2 13.3 65 13.4 64.9 13.5C64.7 13.6 64.7 13.9 64.7 14.3V20C64.7 20.4 64.8 20.6 64.9 20.8C65 20.9 65.2 21 65.5 21C65.8 21 66 20.9 66.1 20.8C66.2 20.7 66.3 20.4 66.3 20V18.6H68V20C68 20.9 67.7 21.5 67.2 22C66.7 22.4 66.1 22.6 65.4 22.6Z" fill="white"/>
<path d="M73.7 11.7V13.4H72V22.5H70.3V13.4H68.6V11.7H73.7Z" fill="white"/>
<path d="M41.2 25H42.9L41.6 35.8H40.7L39.2 30.5L37.7 35.9H36.8L35.5 25.1H37.2L37.8 30.5L38.8 26.8H39.8L40.8 30.5L41.2 25Z" fill="white"/>
<path d="M47.2 35.9L46.9 34.2H45L44.7 35.9H43L45.2 25.1H46.9L49.1 35.9H47.2ZM45.2 32.4H46.6L45.9 28.5L45.2 32.4Z" fill="white"/>
<path d="M49.8 35.9V25H51.5V34.1H54.3V35.8H49.8V35.9Z" fill="white"/>
<path d="M55.1 35.9V25H56.8V34.1H59.6V35.8H55.1V35.9Z" fill="white"/>
<path d="M64.8 26.7H62V29.5H64V31.2H62.1V34.2H64.9V35.9H60.4V25H64.9L64.8 26.7Z" fill="white"/>
<path d="M70.6 25V26.7H68.9V35.8H67.2V26.7H65.5V25C65.5 25 70.6 25 70.6 25Z" fill="white"/>
</g>
<defs>
<clipPath id="clip0_165_2">
<rect width="83.2" height="47.4" fill="white"/>
</clipPath>
</defs>
</svg>
