<svg width="84" height="48" viewBox="0 0 84 48" fill="none" xmlns="http://www.w3.org/2000/svg">
<g clip-path="url(#clip0_165_25)">
<path d="M72.9 47.4H10.3C4.6 47.4 0 42.7 0 37V10.3C0 4.6 4.6 0 10.3 0H72.8C78.5 0 83.1 4.6 83.1 10.3V37C83.2 42.7 78.6 47.4 72.9 47.4Z" fill="#492F7A"/>
<path d="M71.3 41.7H11.9C8.1 41.7 5 38.6 5 34.8V12.6C5 8.80001 8.1 5.70001 11.9 5.70001H71.4C75.2 5.70001 78.3 8.80001 78.3 12.6V34.8C78.3 38.6 75.2 41.7 71.3 41.7Z" stroke="#FFE154" stroke-miterlimit="10"/>
<path d="M22 17H14.4C13.6 17 12.8 17.4 12.4 18.2C12 19 12 19.8 12.4 20.5C12.8 21.2 13.6 21.7 14.4 21.7H24.1V29.5H21.8V30.9H24.3C24.6 30.9 24.9 30.8 25.1 30.6C25.3 30.4 25.4 30.1 25.4 29.8V21.5C25.4 21.2 25.3 20.9 25.1 20.7C24.9 20.5 24.6 20.4 24.3 20.4H23.1V18.3C23.1 18 23 17.7 22.8 17.5C22.6 17.1 22.3 17 22 17ZM21.8 20.2H14.4C14.1 20.2 13.8 20 13.6 19.7C13.4 19.4 13.4 19.1 13.6 18.8C13.8 18.5 14.1 18.3 14.4 18.3H21.8V20.2Z" fill="white"/>
<path d="M22.9 25.5C22.9 25.9 22.6 26.2 22.2 26.2C21.8 26.2 21.5 25.9 21.5 25.5C21.5 25.1 21.8 24.8 22.2 24.8C22.6 24.9 22.9 25.2 22.9 25.5Z" fill="white"/>
<path d="M12.1 27.6H12.8C13.5 27.6 14.1 27.9 14.6 28.3C15.1 28.8 15.3 29.4 15.3 30.1V30.8H16.7V30.1C16.7 29.1 16.3 28.1 15.6 27.3C14.9 26.6 13.9 26.2 12.8 26.2H12.1V27.6Z" fill="white"/>
<path d="M12.1 24.4H12.8C14.3 24.4 15.8 25 16.9 26.1C18 27.2 18.6 28.6 18.6 30.2V30.9H20V30.2C20 28.3 19.2 26.5 17.9 25.2C16.6 23.9 14.7 23.1 12.9 23.1H12.2L12.1 24.4Z" fill="white"/>
<path d="M13.5 30.2C13.5 30.6 13.2 30.9 12.8 30.9C12.4 30.9 12.1 30.6 12.1 30.2C12.1 29.8 12.4 29.5 12.8 29.5C13.2 29.5 13.5 29.8 13.5 30.2Z" fill="white"/>
<path d="M44.7 19L46 11.7H47.7L45.5 22.5H43.8L41.6 11.7H43.3L44.7 19Z" fill="white"/>
<path d="M48.5 22.5V11.7H50.2V22.5H48.5Z" fill="white"/>
<path d="M55.9 13.4H53.1V16.1H55V17.8H53.1V20.8H55.9V22.5H51.4V11.7H55.9V13.4Z" fill="white"/>
<path d="M62.4 11.7H64.1L62.8 22.5H61.9L60.4 17.1L58.8 22.5H57.9L56.6 11.7H58.3L58.9 17.1L59.9 13.4H60.9L61.9 17.1L62.4 11.7Z" fill="white"/>
<path d="M41.2 25H42.9L41.6 35.8H40.7L39.1 30.5L37.6 35.9H36.7L35.4 25.1H37.1L37.7 30.5L38.7 26.8H39.7L40.7 30.5L41.2 25Z" fill="white"/>
<path d="M47.2 35.9L46.9 34.2H45L44.7 35.9H43L45 25H46.7L48.9 35.8H47.2V35.9ZM45.2 32.4H46.6L45.9 28.5L45.2 32.4Z" fill="white"/>
<path d="M49.7 35.9V25H51.4V34.1H54.2V35.8H49.7V35.9Z" fill="white"/>
<path d="M55 35.9V25H56.7V34.1H59.5V35.8H55V35.9Z" fill="white"/>
<path d="M64.8 26.7H62V29.5H63.9V31.2H62V34.2H64.8V35.9H60.3V25H64.8V26.7Z" fill="white"/>
<path d="M70.6 25V26.7H68.9V35.8H67.2V26.7H65.5V25C65.5 25 70.6 25 70.6 25Z" fill="white"/>
</g>
<defs>
<clipPath id="clip0_165_25">
<rect width="83.2" height="47.4" fill="white"/>
</clipPath>
</defs>
</svg>
