<?xml version="1.0" encoding="UTF-8"?><svg id="Layer_2" xmlns="http://www.w3.org/2000/svg" viewBox="0 0 923.19 70.9"><defs><style>.cls-1{letter-spacing:0em;}.cls-2{fill:#0040ff;}.cls-3{fill:#fd4131;}.cls-4{fill:#c2cbe7;}.cls-5{fill:#6bc3dc;}.cls-6{fill:#492f7a;}.cls-7{fill:#4bcc61;}.cls-8{fill:#fff;font-family:Roboto-Regular, Roboto;font-size:23.91px;}</style></defs><g id="Layer_1-2"><rect class="cls-4" x="0" y="0" width="923.19" height="70.9" rx="35.45" ry="35.45"/><rect class="cls-7" x="16.25" y="15.02" width="169.79" height="40.87" rx="20.43" ry="20.43"/><rect class="cls-5" x="196.99" y="15.02" width="169.79" height="40.87" rx="20.43" ry="20.43"/><rect class="cls-2" x="377.72" y="15.02" width="169.79" height="40.87" rx="20.43" ry="20.43"/><rect class="cls-3" x="558.18" y="15.02" width="169.79" height="40.87" rx="20.43" ry="20.43"/><rect class="cls-6" x="738.91" y="15.02" width="169.79" height="40.87" rx="20.43" ry="20.43"/><text class="cls-8" transform="translate(48.97 43.52)"><tspan x="0" y="0">Common</tspan></text><text class="cls-8" transform="translate(221.72 43.52)"><tspan x="0" y="0">Uncommon</tspan></text><text class="cls-8" transform="translate(436.98 43.52)"><tspan x="0" y="0">Ra</tspan><tspan class="cls-1" x="27.72" y="0">r</tspan><tspan x="35.59" y="0">e</tspan></text><text class="cls-8" transform="translate(787.19 43.52)"><tspan x="0" y="0">Mithic</tspan></text><text class="cls-8" transform="translate(622.91 43.52)"><tspan x="0" y="0">Epic</tspan></text></g></svg>