<?xml version="1.0" encoding="utf-8"?>
<!-- Generator: Adobe Illustrator 26.2.1, SVG Export Plug-In . SVG Version: 6.00 Build 0)  -->
<svg version="1.1" xmlns="http://www.w3.org/2000/svg" xmlns:xlink="http://www.w3.org/1999/xlink" x="0px" y="0px"
	 viewBox="0 0 248 38" style="enable-background:new 0 0 248 38;" xml:space="preserve">
<style type="text/css">
	.st0{fill:#FFE154;}
	.st1{font-family:'Bison-Bold';}
	.st2{font-size:30.5769px;}
	.st3{display:none;}
	.st4{display:inline;}
</style>
<g id="Layer_1">
	<path class="st0" d="M18.8,0H229c10.4,0,18.8,8.4,18.8,18.8s-8.4,18.8-18.8,18.8H18.8C8.4,37.5,0,29.1,0,18.8C0,8.4,8.4,0,18.8,0z"
		/>
	<text transform="matrix(1 0 0 1 40.9858 30.3891)" class="st1 st2">MINT AT JOEPEGS!</text>
</g>
<g id="Layer_2" class="st3">
	<path class="st4" d="M55.5,29c-1.3,0-2.4-0.4-3.3-1.2c-1-1-1.4-2.2-1.4-3.7V13.4c0-1.5,0.5-2.8,1.4-3.7c0.9-0.8,2-1.2,3.3-1.2
		c1.4,0,2.5,0.4,3.3,1.2c1,0.9,1.4,2.2,1.4,3.7v1.8h-3.1v-1.8c0-0.7-0.1-1.2-0.4-1.4c-0.2-0.2-0.6-0.3-1.2-0.3
		c-0.5,0-0.9,0.1-1.2,0.3c-0.3,0.3-0.4,0.7-0.4,1.4V24c0,0.7,0.1,1.2,0.4,1.4c0.2,0.2,0.6,0.3,1.2,0.3s1-0.1,1.2-0.3
		c0.3-0.2,0.4-0.7,0.4-1.4v-2.6h3.1V24c0,1.6-0.5,2.8-1.4,3.7C57.9,28.6,56.8,29,55.5,29z"/>
	<path class="st4" d="M66.7,29c-1.4,0-2.5-0.4-3.3-1.2c-1-0.9-1.4-2.2-1.4-3.7V13.4c0-1.6,0.5-2.8,1.4-3.7c0.8-0.8,1.9-1.2,3.3-1.2
		c1.4,0,2.5,0.4,3.3,1.2c1,0.9,1.4,2.2,1.4,3.7V24c0,1.6-0.5,2.8-1.4,3.7C69.1,28.6,68,29,66.7,29z M66.7,11.7
		c-0.5,0-0.9,0.1-1.2,0.3c-0.3,0.3-0.4,0.7-0.4,1.4V24c0,0.7,0.1,1.2,0.4,1.4c0.2,0.2,0.6,0.3,1.2,0.3c0.6,0,0.9-0.1,1.2-0.3
		c0.3-0.2,0.4-0.7,0.4-1.4V13.4c0-0.7-0.1-1.2-0.4-1.4C67.6,11.8,67.2,11.7,66.7,11.7z"/>
	<path class="st4" d="M83.1,8.8v20h-1.8l-4.8-10.1v10.1h-3.1v-20h1.8L80,18.9V8.8H83.1z"/>
	<path class="st4" d="M94.9,8.8v20h-1.8l-4.8-10.1v10.1h-3.1v-20H87l4.8,10.1V8.8H94.9z"/>
	<path class="st4" d="M105.3,11.9h-5.1v5h3.5V20h-3.5v5.5h5.1v3.1H97v-20h8.3V11.9z"/>
	<path class="st4" d="M111.5,29c-1.3,0-2.4-0.4-3.3-1.2c-1-1-1.4-2.2-1.4-3.7V13.4c0-1.5,0.5-2.8,1.4-3.7c0.9-0.8,2-1.2,3.3-1.2
		c1.4,0,2.5,0.4,3.3,1.2c1,0.9,1.4,2.2,1.4,3.7v1.8h-3.1v-1.8c0-0.7-0.1-1.2-0.4-1.4c-0.2-0.2-0.6-0.3-1.2-0.3
		c-0.5,0-0.9,0.1-1.2,0.3c-0.3,0.3-0.4,0.7-0.4,1.4V24c0,0.7,0.1,1.2,0.4,1.4c0.2,0.2,0.6,0.3,1.2,0.3s1-0.1,1.2-0.3
		c0.3-0.2,0.4-0.7,0.4-1.4v-2.6h3.1V24c0,1.6-0.5,2.8-1.4,3.7C114,28.6,112.9,29,111.5,29z"/>
	<path class="st4" d="M126.8,8.8v3.1h-3.2v16.8h-3.1V11.9h-3.2V8.8H126.8z"/>
	<path class="st4" d="M142.7,8.8h3.2l-2.5,20h-1.7l-2.8-9.9l-2.8,9.9h-1.7l-2.5-20h3.2l1.1,10L138,12h1.8l1.8,6.8L142.7,8.8z"/>
	<path class="st4" d="M153.8,28.8l-0.6-3.2h-3.6l-0.6,3.2h-3.2l4-20h3.1l4,20H153.8z M150.2,22.4h2.5l-1.3-7.2L150.2,22.4z"/>
	<path class="st4" d="M158.5,28.8v-20h3.1v16.8h5.1v3.1L158.5,28.8L158.5,28.8z"/>
	<path class="st4" d="M168.3,28.8v-20h3.1v16.8h5.1v3.1L168.3,28.8L168.3,28.8z"/>
	<path class="st4" d="M186.4,11.9h-5.1v5h3.5V20h-3.5v5.5h5.1v3.1h-8.3v-20h8.3V11.9z"/>
	<path class="st4" d="M197,8.8v3.1h-3.2v16.8h-3.1V11.9h-3.2V8.8H197z"/>
</g>
</svg>
