<?xml version="1.0" encoding="utf-8"?>
<!-- Generator: Adobe Illustrator 26.2.1, SVG Export Plug-In . SVG Version: 6.00 Build 0)  -->
<svg version="1.1" id="Layer_1" xmlns="http://www.w3.org/2000/svg" xmlns:xlink="http://www.w3.org/1999/xlink" x="0px" y="0px"
	 viewBox="0 0 248 38" style="enable-background:new 0 0 248 38;" xml:space="preserve">
<style type="text/css">
	.st0{fill:#FFE154;}
	.st1{enable-background:new    ;}
	.st2{display:none;}
	.st3{display:inline;}
</style>
<g id="Layer_1_00000085215815360809208410000005993206144865338040_">
	<path class="st0" d="M18.8,0H229c10.4,0,18.8,8.4,18.8,18.8s-8.4,18.8-18.8,18.8H18.8C8.4,37.5,0,29.1,0,18.8C0,8.4,8.4,0,18.8,0z"
		/>
	<g class="st1">
		<path d="M56.3,9v21.4H53V19.7L50.3,27h-2l-2.7-7.3v10.7h-3.4V9h1.9l5.1,11.9L54.4,9H56.3z"/>
		<path d="M62.1,30.4h-3.4V9h3.4V30.4z"/>
		<path d="M74.9,30.4h-2l-5.1-10.9v10.9h-3.4V9h2l5.1,10.8V9h3.4V30.4z"/>
		<path d="M86.5,12.3h-3.4v18h-3.4v-18h-3.4V9h10.2V12.3z"/>
		<path d="M99.8,27H96l-0.6,3.4H92L96.2,9h3.4l4.3,21.4h-3.4L99.8,27z M99.3,23.6L97.9,16l-1.3,7.7H99.3z"/>
		<path d="M113.6,12.3h-3.4v18h-3.4v-18h-3.4V9h10.2V12.3z"/>
		<path d="M124.2,30.6c-1.5,0-2.6-0.4-3.5-1.3c-1-1-1.5-2.3-1.5-4v-2.7h3.4v2.7c0,0.8,0.1,1.3,0.4,1.5c0.3,0.2,0.7,0.4,1.3,0.4
			c0.6,0,1-0.1,1.3-0.4c0.3-0.3,0.5-0.8,0.5-1.5V9h3.4v16.4c0,1.7-0.5,3-1.5,4C126.8,30.2,125.6,30.6,124.2,30.6z"/>
		<path d="M136.3,30.6c-1.5,0-2.6-0.4-3.5-1.3c-1-1-1.5-2.3-1.5-4V14c0-1.7,0.5-3,1.5-4c0.9-0.8,2.1-1.3,3.5-1.3
			c1.5,0,2.7,0.4,3.5,1.3c1,1,1.5,2.3,1.5,4v11.4c0,1.7-0.5,3-1.5,4C139,30.2,137.8,30.6,136.3,30.6z M136.3,12.1
			c-0.6,0-1,0.1-1.3,0.4c-0.3,0.3-0.5,0.8-0.5,1.5v11.4c0,0.7,0.2,1.2,0.5,1.5c0.3,0.2,0.7,0.4,1.3,0.4c0.6,0,1-0.1,1.3-0.4
			c0.3-0.3,0.5-0.8,0.5-1.5V14c0-0.8-0.2-1.3-0.5-1.5C137.3,12.2,136.9,12.1,136.3,12.1z"/>
		<path d="M146.9,12.3v5.4h3.8v3.4h-3.8V27h5.5v3.4h-8.9V9h8.9v3.4H146.9z"/>
		<path d="M157.9,30.4h-3.4V9h5.1c1.4,0,2.6,0.4,3.5,1.3c1,0.9,1.5,2.3,1.5,4v2.3c0,1.7-0.5,3.1-1.5,4c-0.9,0.8-2.1,1.3-3.5,1.3
			h-1.7V30.4z M157.9,18.5h1.7c0.6,0,1-0.1,1.3-0.4c0.3-0.3,0.5-0.8,0.5-1.5v-2.3c0-0.7-0.2-1.2-0.5-1.5c-0.3-0.2-0.7-0.4-1.3-0.4
			h-1.7V18.5z"/>
		<path d="M169.9,12.3v5.4h3.8v3.4h-3.8V27h5.5v3.4h-8.9V9h8.9v3.4H169.9z"/>
		<path d="M181.9,30.6c-1.4,0-2.6-0.4-3.5-1.3c-1-1-1.5-2.4-1.5-4V14c0-1.7,0.5-3,1.5-4c0.9-0.8,2.1-1.3,3.5-1.3
			c1.5,0,2.6,0.4,3.5,1.3c1,1,1.5,2.3,1.5,4v1.9h-3.4V14c0-0.8-0.1-1.3-0.4-1.5c-0.3-0.2-0.7-0.4-1.3-0.4c-0.6,0-1,0.1-1.3,0.4
			c-0.3,0.3-0.5,0.8-0.5,1.5v11.4c0,0.7,0.2,1.2,0.5,1.5c0.3,0.2,0.7,0.4,1.3,0.4c0.6,0,1-0.1,1.3-0.4c0.3-0.3,0.4-0.8,0.4-1.5v-4
			H182V18h5v7.4c0,1.7-0.5,3-1.5,4C184.6,30.2,183.4,30.6,181.9,30.6z"/>
		<path d="M193.8,30.6c-1.5,0-2.7-0.4-3.5-1.3c-1-1-1.5-2.3-1.5-4v-2.8h3.4v2.8c0,0.7,0.2,1.2,0.5,1.5c0.3,0.2,0.7,0.4,1.3,0.4
			c0.6,0,1-0.1,1.3-0.4c0.3-0.3,0.5-0.8,0.5-1.5V24c0-0.9-0.4-1.8-1.1-2.4c-0.2-0.1-0.6-0.4-1.3-0.8c-1-0.5-1.7-1-2.1-1.3
			c-0.7-0.7-1.3-1.4-1.7-2.2c-0.4-0.8-0.6-1.7-0.6-2.7V14c0-1.7,0.5-3,1.5-4c0.9-0.8,2.1-1.3,3.5-1.3s2.6,0.4,3.5,1.3
			c1,1,1.5,2.3,1.5,4v1.9h-3.4V14c0-0.8-0.2-1.3-0.5-1.5c-0.2-0.2-0.7-0.4-1.3-0.4c-0.6,0-1,0.1-1.3,0.4c-0.3,0.3-0.5,0.8-0.5,1.5
			v0.5c0,0.9,0.4,1.7,1.1,2.4c0.2,0.2,0.6,0.4,1.2,0.7c1.1,0.6,1.8,1,2.2,1.4c1.5,1.3,2.3,3,2.3,5v1.3c0,1.7-0.5,3-1.5,4
			C196.5,30.2,195.3,30.6,193.8,30.6z"/>
		<path d="M204.3,28.7c0,0.5-0.2,0.9-0.5,1.2c-0.3,0.3-0.7,0.5-1.2,0.5c-0.5,0-0.9-0.2-1.2-0.5c-0.3-0.3-0.5-0.7-0.5-1.2
			s0.2-0.9,0.5-1.2c0.3-0.3,0.7-0.5,1.2-0.5c0.5,0,0.9,0.2,1.2,0.5C204.1,27.8,204.3,28.2,204.3,28.7z M203.8,25.5h-2.5l-0.4-5.7V9
			h3.4v10.7L203.8,25.5z"/>
	</g>
</g>
<g id="Layer_2_00000116217844552098994830000006297580496583856783_" class="st2">
	<path class="st3" d="M55.5,29c-1.3,0-2.4-0.4-3.3-1.2c-1-1-1.4-2.2-1.4-3.7V13.4c0-1.5,0.5-2.8,1.4-3.7c0.9-0.8,2-1.2,3.3-1.2
		c1.4,0,2.5,0.4,3.3,1.2c1,0.9,1.4,2.2,1.4,3.7v1.8h-3.1v-1.8c0-0.7-0.1-1.2-0.4-1.4c-0.2-0.2-0.6-0.3-1.2-0.3
		c-0.5,0-0.9,0.1-1.2,0.3c-0.3,0.3-0.4,0.7-0.4,1.4V24c0,0.7,0.1,1.2,0.4,1.4c0.2,0.2,0.6,0.3,1.2,0.3s1-0.1,1.2-0.3
		c0.3-0.2,0.4-0.7,0.4-1.4v-2.6h3.1V24c0,1.6-0.5,2.8-1.4,3.7C57.9,28.6,56.8,29,55.5,29z"/>
	<path class="st3" d="M66.7,29c-1.4,0-2.5-0.4-3.3-1.2c-1-0.9-1.4-2.2-1.4-3.7V13.4c0-1.6,0.5-2.8,1.4-3.7c0.8-0.8,1.9-1.2,3.3-1.2
		s2.5,0.4,3.3,1.2c1,0.9,1.4,2.2,1.4,3.7V24c0,1.6-0.5,2.8-1.4,3.7C69.1,28.6,68,29,66.7,29z M66.7,11.7c-0.5,0-0.9,0.1-1.2,0.3
		c-0.3,0.3-0.4,0.7-0.4,1.4V24c0,0.7,0.1,1.2,0.4,1.4c0.2,0.2,0.6,0.3,1.2,0.3s0.9-0.1,1.2-0.3c0.3-0.2,0.4-0.7,0.4-1.4V13.4
		c0-0.7-0.1-1.2-0.4-1.4C67.6,11.8,67.2,11.7,66.7,11.7z"/>
	<path class="st3" d="M83.1,8.8v20h-1.8l-4.8-10.1v10.1h-3.1v-20h1.8L80,18.9V8.8H83.1z"/>
	<path class="st3" d="M94.9,8.8v20h-1.8l-4.8-10.1v10.1h-3.1v-20H87l4.8,10.1V8.8H94.9z"/>
	<path class="st3" d="M105.3,11.9h-5.1v5h3.5V20h-3.5v5.5h5.1v3.1H97v-20h8.3V11.9z"/>
	<path class="st3" d="M111.5,29c-1.3,0-2.4-0.4-3.3-1.2c-1-1-1.4-2.2-1.4-3.7V13.4c0-1.5,0.5-2.8,1.4-3.7c0.9-0.8,2-1.2,3.3-1.2
		c1.4,0,2.5,0.4,3.3,1.2c1,0.9,1.4,2.2,1.4,3.7v1.8h-3.1v-1.8c0-0.7-0.1-1.2-0.4-1.4c-0.2-0.2-0.6-0.3-1.2-0.3
		c-0.5,0-0.9,0.1-1.2,0.3c-0.3,0.3-0.4,0.7-0.4,1.4V24c0,0.7,0.1,1.2,0.4,1.4c0.2,0.2,0.6,0.3,1.2,0.3s1-0.1,1.2-0.3
		c0.3-0.2,0.4-0.7,0.4-1.4v-2.6h3.1V24c0,1.6-0.5,2.8-1.4,3.7C114,28.6,112.9,29,111.5,29z"/>
	<path class="st3" d="M126.8,8.8v3.1h-3.2v16.8h-3.1V11.9h-3.2V8.8H126.8z"/>
	<path class="st3" d="M142.7,8.8h3.2l-2.5,20h-1.7l-2.8-9.9l-2.8,9.9h-1.7l-2.5-20h3.2l1.1,10L138,12h1.8l1.8,6.8L142.7,8.8z"/>
	<path class="st3" d="M153.8,28.8l-0.6-3.2h-3.6l-0.6,3.2h-3.2l4-20h3.1l4,20H153.8z M150.2,22.4h2.5l-1.3-7.2L150.2,22.4z"/>
	<path class="st3" d="M158.5,28.8v-20h3.1v16.8h5.1v3.1L158.5,28.8L158.5,28.8z"/>
	<path class="st3" d="M168.3,28.8v-20h3.1v16.8h5.1v3.1L168.3,28.8L168.3,28.8z"/>
	<path class="st3" d="M186.4,11.9h-5.1v5h3.5V20h-3.5v5.5h5.1v3.1h-8.3v-20h8.3V11.9z"/>
	<path class="st3" d="M197,8.8v3.1h-3.2v16.8h-3.1V11.9h-3.2V8.8H197z"/>
</g>
</svg>
