<svg width="114" height="19" viewBox="0 0 114 19" fill="none" xmlns="http://www.w3.org/2000/svg">
<g clip-path="url(#clip0_91_40)">
<path d="M9.49454 0H104.571C109.809 0 114.065 4.27336 114.065 9.53287C114.065 14.7924 109.809 19.0657 104.571 19.0657H9.49454C4.25617 19 0 14.7924 0 9.53287C0 4.27336 4.25617 0 9.49454 0Z" fill="#FFE154"/>
<path d="M42.0379 4.99655H42.9546V14.9239H41.3831V9.99309L40.139 13.346H39.2222L37.9781 9.92735V14.8581H36.4066V4.99655H37.3233L39.6806 10.4533L42.0379 4.99655Z" fill="black"/>
<path d="M44.0677 14.8581V4.99655H45.6393V14.9239H44.0677V14.8581Z" fill="black"/>
<path d="M51.467 4.99655V14.9239H50.5502L48.193 9.8616V14.8581H46.6215V4.99655H47.5382L49.8954 9.99309V4.99655H51.467Z" fill="black"/>
<path d="M56.8362 4.99655V6.57441H55.2647V14.9239H53.6932V6.50866H52.1217V4.99655H56.8362Z" fill="black"/>
<path d="M64.4973 4.99655V14.9239H63.5806L61.2234 9.8616V14.8581H59.6519V4.99655H60.5686L62.9258 9.99309V4.99655H64.4973Z" fill="black"/>
<path d="M67.7713 14.9896C67.1165 14.9896 66.5272 14.7924 66.1343 14.3979C65.676 13.9377 65.4141 13.346 65.4141 12.5571V7.29758C65.4141 6.50865 65.676 5.91695 66.1343 5.45675C66.5272 5.06228 67.1165 4.86505 67.7713 4.86505C68.4261 4.86505 69.0154 5.06228 69.4083 5.45675C69.8667 5.91695 70.1286 6.50865 70.1286 7.29758V12.5571C70.1286 13.346 69.8667 13.9377 69.4083 14.3979C68.95 14.7924 68.4261 14.9896 67.7713 14.9896ZM67.7713 6.44291C67.5094 6.44291 67.313 6.50865 67.182 6.64014C67.0511 6.77163 66.9856 7.0346 66.9856 7.36332V12.6228C66.9856 12.9516 67.0511 13.2145 67.182 13.346C67.313 13.4775 67.5094 13.5433 67.7713 13.5433C68.0332 13.5433 68.2297 13.4775 68.3606 13.346C68.4916 13.2145 68.5571 13.0173 68.5571 12.6228V7.36332C68.5571 7.0346 68.4916 6.77163 68.3606 6.64014C68.2297 6.50865 68.0332 6.44291 67.7713 6.44291Z" fill="black"/>
<path d="M76.0217 4.99655H77.5933L76.4146 14.9239H75.5634L74.1883 9.99309L72.8132 14.9239H71.962L70.7179 4.99655H72.2894L72.8132 9.92735L73.73 6.57441H74.6467L75.5634 9.92735L76.0217 4.99655Z" fill="black"/>
</g>
<defs>
<clipPath id="clip0_91_40">
<rect width="114" height="19" fill="white"/>
</clipPath>
</defs>
</svg>
