<?xml version="1.0" encoding="utf-8"?>
<!-- Generator: Adobe Illustrator 26.2.1, SVG Export Plug-In . SVG Version: 6.00 Build 0)  -->
<svg version="1.1" id="Layer_1" xmlns="http://www.w3.org/2000/svg" xmlns:xlink="http://www.w3.org/1999/xlink" x="0px" y="0px"
	 viewBox="0 0 1920 225.1" style="enable-background:new 0 0 1440 225.1;" xml:space="preserve">
<style type="text/css">
	.st0{fill:#EC408B;}
	.st1{fill:#F27AAE;}
	.st2{fill:#351631;}
	.st3{fill:none;stroke:#351631;stroke-width:2;stroke-linecap:round;stroke-miterlimit:10;}
</style>
<path class="st0" d="M-11.8,174.6c57.7-17.6,99.9-76.7,98-137.1c31.4,18.2,54.9,49.8,63.2,85.2c21.6-30.1,54.9-51.4,91.2-58.4
	c-2.5,23.1-5,47.1,2.7,69c7.7,21.9,28.8,40.9,51.8,38.2c30.8-3.6,46.2-40.6,74.5-53.5c21.2-9.7,46-4.2,68.1,3.1
	c22.1,7.3,44.8,16.4,67.8,13.6c23.1-2.8,46.1-23.2,42-46.2c30,18.4,49.9,52.4,51.3,87.6c35.7-5.3,67.3-32.4,77.9-67
	c13.2,31.9,41.3,61,75.7,61.8c34.4,0.9,66.9-39.2,49.8-69.1c30.4-0.4,60.8,12.3,81.9,34.2c10.9-29.1,39.1-51,70-54.2
	c-8.6,26.4,0.6,57.7,22,75.3c17.6-35.5,54.1-60.9,93.4-65.1c-0.9,18.9,1.1,39.1,12.7,54.1c11.5,15,35.2,21.7,49.9,9.8
	c14.7-11.9,7.4-42.1-11.5-41.7c18.7-16.4,48.2-6.6,68.8,7.2c20.7,13.9,41.7,32,66.5,30.3c49.1-3.4,71.2-80.2,120.3-77.2
	c-13.3,17.7-11,45.4,5,60.7c16,15.3,43.7,16.3,60.7,2.1v92.2H-11.8V174.6z"/>
<path class="st1" d="M1094.4,161.7c11.5,15,35.2,21.7,49.9,9.8c12.8-10.4-2.2-51.1-18.8-60.8c-1.7,1-3.4,2.2-5,3.6
	c18.9-0.5,26.2,29.7,11.5,41.7c-12.1,9.9-30.4,7-42.9-2.8C1090.5,156.1,1092.3,159,1094.4,161.7L1094.4,161.7z"/>
<path class="st1" d="M978.2,162.3c15.8-31.9,55-47.3,91.4-53.1c-0.4-5.7-0.4-11.5-0.2-17.2c-39.3,4.1-75.8,29.6-93.4,65.1
	c-4.6-3.8-8.6-8.2-12-13C966.7,150.6,971.3,156.6,978.2,162.3z"/>
<path class="st1" d="M1268,167.3c49.1-3.4,63.6-87.5,108-92.8c-49.1-3-71.2,73.8-120.3,77.2c-3.6,0.2-7.2,0.1-10.6-0.5
	C1251.4,161,1258.5,168,1268,167.3L1268,167.3z"/>
<path class="st1" d="M1393.2,150.7c12.6,12,32.3,15.2,48.4,9.2v-22.6c-16.3,13.6-42.2,13.3-58.5-0.1
	C1386.2,142.6,1389.7,147.4,1393.2,150.7z"/>
<path class="st1" d="M149.2,130.3c18.8-26.3,56.2-39.8,89.5-47.5c0.5-6.2,1.1-12.4,1.8-18.5c-36.3,7-69.6,28.3-91.2,58.4
	c-1.1-4.6-2.4-9.1-4-13.6C146.4,116,147.5,123.1,149.2,130.3L149.2,130.3z"/>
<path class="st1" d="M0.5,170.4C53.6,154.1,107.4,112.8,114,59.2c-8.3-8.4-17.6-15.8-27.9-21.7c1.9,60.4-40.4,119.4-98,137.1v54.9
	H0.5V170.4z"/>
<path class="st1" d="M307.4,187.1c30.8-3.6,46.2-51.7,74.5-64.6c21.2-9.7,46,6.9,68.1,14.1c22.1,7.3,44.8,16.4,67.8,13.6
	c23.1-2.8,41.4-31.2,30-59.7c27.2,16.7,45.8,44.5,50.1,75.8c-4.3-31.6-23.2-61.1-50.4-77.8c4.1,22.9-18.9,43.3-42,46.2
	c-23.1,2.8-45.7-6.3-67.8-13.6c-22.1-7.3-46.9-12.7-68.1-3.1c-28.2,12.9-43.6,49.9-74.5,53.5c-12.9,1.5-25.3-3.8-35-12.7
	C269.9,176.2,288,189.4,307.4,187.1L307.4,187.1z"/>
<path class="st1" d="M687.2,129.4c-4.2-6.4-7.8-13.2-10.6-20.2c-10.6,34.6-42.2,61.7-77.9,67C627,192,673.9,162.2,687.2,129.4z"/>
<path class="st1" d="M886.3,145.1c9.1-24.4,37.5-39.1,64.6-45.2c0.2-6.1,1.2-12.2,3.1-18.1c-30.9,3.3-59.1,25.1-70,54.2
	c-21.2-21.9-51.5-34.5-81.9-34.2c2.3,4.1,3.7,8.3,4.4,12.6C834.7,116.8,868.3,126.5,886.3,145.1L886.3,145.1z"/>
<path class="st2" d="M-12,174.1c56.3-18.7,97.3-77,94.8-136.5l-0.3-6.1l5.3,3c32.5,18.5,56.9,50.7,65.7,87.2l-7.6-1.5
	c11-15.6,25.1-28.9,41.1-39.2c17.8-11.6,38.1-19.1,59-22.6c-3.3,31.6-8.9,69.1,14.8,94.3c11.6,12.3,28.6,18.6,44.7,11.3
	c12.2-5.4,21.1-15.2,30.7-24.6c18.3-18.9,34.9-31.5,62.6-29.9c36.9,1.6,69.4,26.9,106.8,23c20.8-2.5,43.9-20.7,40.2-43.6l-0.6-3.9
	c32.1,18.6,53.8,53.9,55.3,91.1l-2-1.6c34.9-5.2,65.8-32,75.9-66l1.9-6.3c12.1,31.9,38.9,63.9,75.1,65.3c30,1.5,63.1-34.5,46.9-63.5
	l-3.8-6.4l7.5-0.2c31.7-0.6,63.3,12.4,85.5,35.1l-8.2,1.7c13-34.5,45.8-56.9,82.2-58.7l-2.5,7.9c-7.8,24.2,0.8,53.3,20.5,69.3
	l-8.7,1.9c19.4-39.7,60.8-66.5,104.6-69.1c-0.2,5.3-0.6,11.6-0.4,16.9c0.4,15.7,3.5,32.7,15,44c9.9,9.5,27.5,14.3,38.7,4.8
	c9.7-8,5.9-31.4-8.2-31.6l-14.3-0.1l10.6-9.2c10.5-9.5,26.2-11.4,39.4-8.5c12.9,2.6,24.7,8.3,35.5,15.6c19.8,13,38.3,30.8,63,30.2
	c48.4-2.9,69.7-78.9,121.4-75.6l5,0.4l-3,3.9c-12.8,16.6-11,43,4,57.8c15.3,15.1,42.3,16.4,59.2,2.9l0.7,0.8
	c-12.8,11.1-31.9,13.6-47.7,7.7c-16.7-5.9-27.6-22-29.1-39.4c-1.1-11.5,1.7-23.6,8.6-33.1l2,4.3c-41.2-1.9-64.4,58-101.3,74
	c-19.2,9-39.3,4.9-56.9-5.3c-21.4-11.8-38.9-29.7-63.3-34.1c-10.7-2.1-22.3-0.9-30.4,6.5l-3.7-9.4c24-0.4,32.7,34.1,17.1,49.6
	c-15.3,15-40.8,10.1-55.2-3.7c-5.7-5.3-9.8-12.2-12.8-19.4c-5.6-14-6.5-28.9-5.8-43.6l6.5,6.1c-37.3,3.9-72.2,28.1-89,61.7l-3.2,6.4
	l-5.5-4.5c-5.8-4.8-10.8-10.6-14.8-16.9c-8-12.6-12.3-27.4-12.2-42.4c0-7.5,1.2-15,3.6-22.1l5.6,7c-28.9,2.9-55.6,23.4-65.9,50.7
	l-2.8,7.3c-11.4-12.8-25.2-23.6-41.1-30.2c-13.4-5.7-28-8.7-42.6-8.7l3.7-6.6c9.8,16.7,4.5,38.1-7.4,52.2
	c-19,22.8-46.4,28.5-73.2,15.9c-23.9-11.4-41-33.7-50.9-57.7l4.4-0.2c-11.2,35.2-43.4,62.7-79.9,68l-1.9,0.3l-0.1-1.9
	c-1.3-34.7-20.8-68.2-50.4-86.2l2.6-1.8c4.3,25.1-20.2,45.5-43.1,48.6c-37.5,5-70.8-19.4-107.6-20.4c-13-0.5-26.1,2.8-36.6,10.7
	c-18.6,13.4-31,35.4-52.8,45.3c-30.1,13.8-61.1-9.4-70.7-38.2c-7.8-22.6-5.2-47.2-2.6-70.5l5.6,5.2c-17.5,3.3-34.4,10.1-49.5,19.7
	c-18,11.1-32.8,26.7-44.6,44.1l-2.1-9.2c-7.9-34.4-30.4-65.3-60.7-83.3l5.1-3.1c0.9,46.2-23.4,91.3-60.6,118
	c-12.3,8.9-26.1,15.6-40.7,19.7L-12,174.1L-12,174.1L-12,174.1z"/>
<path class="st3" d="M205.7,161.5c0,0,2.9,23.6,21.2,31.2"/>
<path class="st3" d="M205.7,192.7c0,0,10.6,16.7,30,19.4"/>
<path class="st3" d="M61.4,157.1c0,0-8.7,17.6-23.1,26.6"/>
<path class="st3" d="M575.3,163.8c0,0,11.1,19.3,8.5,38.6"/>
<path class="st3" d="M559.2,163.8c0,0,6.5,4.6,9.9,23.8"/>
<path class="st3" d="M811.3,163.8c0,0-7,13.9-21.5,22.3"/>
<path class="st3" d="M988.1,186.5c0,0,0.7-15.5,10.5-29.1"/>
<path class="st3" d="M999.2,205.8c0,0-4.1-14.3,0.6-29.6"/>
<path class="st3" d="M811.3,178.4c0,0-9.3,18.4-28.5,29.6"/>
<path class="st3" d="M1307,141.6c0,0-7,13.9-21.4,22.3"/>
<path class="st3" d="M1307,156.3c0,0-9.3,18.4-28.5,29.6"/>
</svg>
