<?xml version="1.0" encoding="UTF-8"?>
<svg xmlns="http://www.w3.org/2000/svg" xmlns:xlink="http://www.w3.org/1999/xlink" width="2560px" height="401px" viewBox="0 0 2566 401" version="1.1">
<g id="surface1">
<path style=" stroke:none;fill-rule:nonzero;fill:rgb(92.54902%,25.098039%,54.509804%);fill-opacity:1;" d="M -20.449219 311.039062 C 82.324219 279.683594 157.488281 174.402344 154.105469 66.804688 C 210.035156 99.226562 251.890625 155.519531 266.675781 218.582031 C 305.148438 164.960938 364.460938 127.015625 429.117188 114.546875 C 424.664062 155.695312 420.210938 198.453125 433.925781 237.464844 C 447.640625 276.476562 485.222656 310.324219 526.1875 305.515625 C 581.046875 299.101562 608.476562 233.1875 658.882812 210.207031 C 696.644531 192.929688 740.816406 202.726562 780.179688 215.730469 C 819.542969 228.734375 859.976562 244.945312 900.941406 239.957031 C 942.085938 234.96875 983.054688 198.628906 975.75 157.65625 C 1029.1875 190.433594 1064.628906 251.003906 1067.125 313.710938 C 1130.710938 304.269531 1186.996094 255.992188 1205.875 194.355469 C 1229.386719 251.183594 1279.4375 303.019531 1340.710938 304.445312 C 1401.980469 306.050781 1459.867188 234.613281 1429.410156 181.351562 C 1483.558594 180.636719 1537.703125 203.261719 1575.289062 242.273438 C 1594.703125 190.433594 1644.929688 151.421875 1699.96875 145.722656 C 1684.648438 192.75 1701.035156 248.507812 1739.152344 279.863281 C 1770.5 216.621094 1835.511719 171.375 1905.511719 163.890625 C 1903.910156 197.5625 1907.472656 233.546875 1928.132812 260.265625 C 1948.617188 286.988281 1990.832031 298.925781 2017.011719 277.726562 C 2043.195312 256.527344 2030.195312 202.726562 1996.53125 203.4375 C 2029.835938 174.222656 2082.382812 191.683594 2119.074219 216.265625 C 2155.941406 241.027344 2193.347656 273.269531 2237.519531 270.242188 C 2324.972656 264.1875 2364.335938 127.371094 2451.792969 132.714844 C 2428.101562 164.246094 2432.199219 213.59375 2460.699219 240.847656 C 2489.195312 268.105469 2538.535156 269.886719 2568.8125 244.589844 L 2568.8125 408.839844 L -20.449219 408.839844 Z M -20.449219 311.039062 "/>
<path style=" stroke:none;fill-rule:nonzero;fill:rgb(94.901961%,47.843137%,68.235294%);fill-opacity:1;" d="M 1949.863281 288.058594 C 1970.347656 314.777344 2012.558594 326.714844 2038.742188 305.515625 C 2061.542969 286.988281 2034.824219 214.484375 2005.257812 197.203125 C 2002.230469 198.984375 1999.203125 201.125 1996.351562 203.617188 C 2030.015625 202.726562 2043.019531 256.527344 2016.835938 277.902344 C 1995.28125 295.539062 1962.6875 290.375 1940.421875 272.914062 C 1942.917969 278.082031 1946.125 283.246094 1949.863281 288.058594 Z M 1949.863281 288.058594 "/>
<path style=" stroke:none;fill-rule:nonzero;fill:rgb(94.901961%,47.843137%,68.235294%);fill-opacity:1;" d="M 1742.894531 289.125 C 1771.035156 232.296875 1840.855469 204.863281 1905.691406 194.53125 C 1904.980469 184.378906 1904.980469 174.046875 1905.335938 163.890625 C 1835.335938 171.195312 1770.324219 216.621094 1738.976562 279.863281 C 1730.78125 273.09375 1723.65625 265.253906 1717.601562 256.703125 C 1722.410156 268.285156 1730.605469 278.972656 1742.894531 289.125 Z M 1742.894531 289.125 "/>
<path style=" stroke:none;fill-rule:nonzero;fill:rgb(94.901961%,47.843137%,68.235294%);fill-opacity:1;" d="M 2259.070312 298.035156 C 2346.527344 291.976562 2372.351562 142.15625 2451.4375 132.714844 C 2363.980469 127.371094 2324.617188 264.1875 2237.164062 270.242188 C 2230.75 270.597656 2224.339844 270.421875 2218.285156 269.351562 C 2229.503906 286.808594 2242.152344 299.28125 2259.070312 298.035156 Z M 2259.070312 298.035156 "/>
<path style=" stroke:none;fill-rule:nonzero;fill:rgb(94.901961%,47.843137%,68.235294%);fill-opacity:1;" d="M 2482.070312 268.460938 C 2504.515625 289.839844 2539.601562 295.539062 2568.28125 284.851562 L 2568.28125 244.589844 C 2539.246094 268.816406 2493.113281 268.285156 2464.082031 244.414062 C 2469.605469 254.03125 2475.839844 262.582031 2482.070312 268.460938 Z M 2482.070312 268.460938 "/>
<path style=" stroke:none;fill-rule:nonzero;fill:rgb(94.901961%,47.843137%,68.235294%);fill-opacity:1;" d="M 266.316406 232.121094 C 299.804688 185.269531 366.417969 161.21875 425.730469 147.503906 C 426.621094 136.457031 427.691406 125.414062 428.9375 114.546875 C 364.28125 127.015625 304.96875 164.960938 266.496094 218.582031 C 264.535156 210.386719 262.222656 202.371094 259.371094 194.355469 C 261.332031 206.644531 263.289062 219.292969 266.316406 232.121094 Z M 266.316406 232.121094 "/>
<path style=" stroke:none;fill-rule:nonzero;fill:rgb(94.901961%,47.843137%,68.235294%);fill-opacity:1;" d="M 1.460938 303.554688 C 96.039062 274.519531 191.867188 200.945312 203.621094 105.460938 C 188.835938 90.496094 172.273438 77.3125 153.925781 66.804688 C 157.3125 174.402344 81.96875 279.507812 -20.625 311.039062 L -20.625 408.839844 L 1.460938 408.839844 Z M 1.460938 303.554688 "/>
<path style=" stroke:none;fill-rule:nonzero;fill:rgb(94.901961%,47.843137%,68.235294%);fill-opacity:1;" d="M 548.097656 333.304688 C 602.957031 326.890625 630.386719 241.207031 680.792969 218.226562 C 718.550781 200.945312 762.726562 230.515625 802.089844 243.34375 C 841.453125 256.347656 881.882812 272.558594 922.851562 267.570312 C 963.996094 262.582031 996.589844 211.988281 976.285156 161.21875 C 1024.734375 190.96875 1057.863281 240.492188 1065.519531 296.25 C 1057.863281 239.957031 1024.199219 187.40625 975.75 157.65625 C 983.054688 198.453125 942.085938 234.792969 900.941406 239.957031 C 859.796875 244.945312 819.542969 228.734375 780.179688 215.730469 C 740.816406 202.726562 696.644531 193.105469 658.882812 210.207031 C 608.65625 233.1875 581.226562 299.101562 526.1875 305.515625 C 503.210938 308.1875 481.125 298.746094 463.847656 282.890625 C 481.304688 313.886719 513.542969 337.402344 548.097656 333.304688 Z M 548.097656 333.304688 "/>
<path style=" stroke:none;fill-rule:nonzero;fill:rgb(94.901961%,47.843137%,68.235294%);fill-opacity:1;" d="M 1224.578125 230.515625 C 1217.097656 219.117188 1210.683594 207.003906 1205.699219 194.53125 C 1186.816406 256.167969 1130.535156 304.445312 1066.945312 313.886719 C 1117.351562 342.035156 1200.890625 288.949219 1224.578125 230.515625 Z M 1224.578125 230.515625 "/>
<path style=" stroke:none;fill-rule:nonzero;fill:rgb(94.901961%,47.843137%,68.235294%);fill-opacity:1;" d="M 1579.207031 258.484375 C 1595.414062 215.019531 1646 188.832031 1694.269531 177.964844 C 1694.625 167.097656 1696.40625 156.230469 1699.789062 145.722656 C 1644.753906 151.601562 1594.523438 190.433594 1575.109375 242.273438 C 1537.347656 203.261719 1483.378906 180.816406 1429.234375 181.351562 C 1433.328125 188.652344 1435.824219 196.136719 1437.070312 203.796875 C 1487.296875 208.070312 1547.144531 225.351562 1579.207031 258.484375 Z M 1579.207031 258.484375 "/>
<path style=" stroke:none;fill-rule:nonzero;fill:rgb(20.784314%,8.627451%,19.215686%);fill-opacity:1;" d="M -20.804688 310.148438 C 79.476562 276.835938 152.503906 172.976562 148.050781 66.980469 L 147.515625 56.113281 L 156.957031 61.460938 C 214.84375 94.414062 258.304688 151.777344 273.976562 216.800781 L 260.441406 214.128906 C 280.03125 186.335938 305.148438 162.644531 333.644531 144.296875 C 365.351562 123.632812 401.507812 110.269531 438.734375 104.035156 C 432.855469 160.328125 422.882812 227.132812 465.09375 272.023438 C 485.757812 293.9375 516.035156 305.160156 544.710938 292.15625 C 566.441406 282.535156 582.292969 265.078125 599.394531 248.332031 C 631.988281 214.664062 661.554688 192.214844 710.894531 195.066406 C 776.617188 197.917969 834.503906 242.988281 901.121094 236.039062 C 938.167969 231.585938 979.3125 199.164062 972.722656 158.371094 L 971.65625 151.421875 C 1028.828125 184.554688 1067.480469 247.441406 1070.152344 313.710938 L 1066.589844 310.859375 C 1128.753906 301.597656 1183.789062 253.855469 1201.78125 193.285156 L 1205.164062 182.0625 C 1226.714844 238.890625 1274.449219 295.894531 1338.929688 298.390625 C 1392.363281 301.0625 1451.320312 236.929688 1422.464844 185.269531 L 1415.695312 173.867188 L 1429.054688 173.511719 C 1485.515625 172.441406 1541.800781 195.601562 1581.34375 236.039062 L 1566.738281 239.066406 C 1589.894531 177.609375 1648.3125 137.703125 1713.148438 134.496094 L 1708.695312 148.570312 C 1694.800781 191.683594 1710.121094 243.523438 1745.210938 272.023438 L 1729.714844 275.410156 C 1764.265625 204.6875 1838.007812 156.945312 1916.023438 152.3125 C 1915.664062 161.753906 1914.953125 172.976562 1915.308594 182.417969 C 1916.023438 210.386719 1921.542969 240.671875 1942.027344 260.800781 C 1959.660156 277.726562 1991.007812 286.277344 2010.957031 269.351562 C 2028.234375 255.101562 2021.464844 213.414062 1996.351562 213.058594 L 1970.882812 212.882812 L 1989.761719 196.492188 C 2008.464844 179.566406 2036.425781 176.183594 2059.9375 181.351562 C 2082.914062 185.980469 2103.933594 196.136719 2123.167969 209.140625 C 2158.4375 232.296875 2191.386719 264.007812 2235.382812 262.9375 C 2321.589844 257.773438 2359.527344 122.382812 2451.613281 128.261719 L 2460.519531 128.976562 L 2455.175781 135.921875 C 2432.378906 165.496094 2435.585938 212.523438 2462.300781 238.890625 C 2489.554688 265.789062 2537.644531 268.105469 2567.746094 244.054688 L 2568.992188 245.480469 C 2546.195312 265.253906 2512.171875 269.707031 2484.03125 259.199219 C 2454.285156 248.6875 2434.871094 220.007812 2432.199219 189.011719 C 2430.242188 168.523438 2435.226562 146.96875 2447.519531 130.042969 L 2451.078125 137.703125 C 2377.695312 134.320312 2336.375 241.027344 2270.648438 269.53125 C 2236.449219 285.5625 2200.648438 278.257812 2169.300781 260.089844 C 2131.183594 239.066406 2100.015625 207.179688 2056.554688 199.34375 C 2037.496094 195.601562 2016.835938 197.738281 2002.40625 210.921875 L 1995.816406 194.175781 C 2038.566406 193.464844 2054.0625 254.921875 2026.273438 282.535156 C 1999.023438 309.257812 1953.605469 300.527344 1927.957031 275.945312 C 1917.804688 266.503906 1910.5 254.210938 1905.15625 241.382812 C 1895.183594 216.445312 1893.578125 189.902344 1894.824219 163.714844 L 1906.402344 174.582031 C 1839.964844 181.527344 1777.804688 224.636719 1747.882812 284.496094 L 1742.179688 295.894531 L 1732.386719 287.878906 C 1722.054688 279.328125 1713.148438 268.996094 1706.023438 257.773438 C 1691.773438 235.328125 1684.117188 208.960938 1684.292969 182.242188 C 1684.292969 168.878906 1686.429688 155.519531 1690.707031 142.871094 L 1700.679688 155.339844 C 1649.203125 160.507812 1601.648438 197.027344 1583.300781 245.660156 L 1578.316406 258.664062 C 1558.011719 235.863281 1533.429688 216.621094 1505.109375 204.863281 C 1481.242188 194.710938 1455.238281 189.367188 1429.234375 189.367188 L 1435.824219 177.609375 C 1453.277344 207.359375 1443.839844 245.480469 1422.640625 270.597656 C 1388.800781 311.214844 1339.996094 321.371094 1292.261719 298.925781 C 1249.691406 278.617188 1219.234375 238.890625 1201.601562 196.136719 L 1209.4375 195.777344 C 1189.488281 258.484375 1132.136719 307.476562 1067.125 316.917969 L 1063.738281 317.449219 L 1063.5625 314.066406 C 1061.246094 252.25 1026.515625 192.574219 973.792969 160.507812 L 978.421875 157.300781 C 986.082031 202.015625 942.445312 238.355469 901.65625 243.878906 C 834.863281 252.785156 775.550781 209.316406 710.003906 207.535156 C 686.847656 206.644531 663.515625 212.523438 644.8125 226.597656 C 611.683594 250.46875 589.597656 289.660156 550.769531 307.296875 C 497.15625 331.878906 441.941406 290.550781 424.839844 239.246094 C 410.949219 198.984375 415.578125 155.164062 420.210938 113.65625 L 430.183594 122.917969 C 399.015625 128.796875 368.914062 140.910156 342.015625 158.011719 C 309.957031 177.785156 283.59375 205.578125 262.578125 236.574219 L 258.835938 220.183594 C 244.765625 158.902344 204.691406 103.855469 150.722656 71.792969 L 159.804688 66.269531 C 161.40625 148.570312 118.125 228.914062 51.867188 276.476562 C 29.960938 292.332031 5.378906 304.269531 -20.625 311.570312 Z M -20.804688 310.148438 "/>
<path style="fill:none;stroke-width:2;stroke-linecap:round;stroke-linejoin:miter;stroke:rgb(20.784314%,8.627451%,19.215686%);stroke-opacity:1;stroke-miterlimit:10;" d="M 205.700012 161.498988 C 205.700012 161.498988 208.599293 185.099667 226.90073 192.699774 " transform="matrix(1.781153,0,0,1.78143,0.569969,0)"/>
<path style="fill:none;stroke-width:2;stroke-linecap:round;stroke-linejoin:miter;stroke:rgb(20.784314%,8.627451%,19.215686%);stroke-opacity:1;stroke-miterlimit:10;" d="M 205.700012 192.699774 C 205.700012 192.699774 216.299274 209.399836 235.699455 212.099124 " transform="matrix(1.781153,0,0,1.78143,0.569969,0)"/>
<path style="fill:none;stroke-width:2;stroke-linecap:round;stroke-linejoin:miter;stroke:rgb(20.784314%,8.627451%,19.215686%);stroke-opacity:1;stroke-miterlimit:10;" d="M 61.400473 157.100311 C 61.400473 157.100311 52.700436 174.699405 38.300528 183.700686 " transform="matrix(1.781153,0,0,1.78143,0.569969,0)"/>
<path style="fill:none;stroke-width:2;stroke-linecap:round;stroke-linejoin:miter;stroke:rgb(20.784314%,8.627451%,19.215686%);stroke-opacity:1;stroke-miterlimit:10;" d="M 575.299123 163.799193 C 575.299123 163.799193 586.400606 183.099869 583.799587 202.400546 " transform="matrix(1.781153,0,0,1.78143,0.569969,0)"/>
<path style="fill:none;stroke-width:2;stroke-linecap:round;stroke-linejoin:miter;stroke:rgb(20.784314%,8.627451%,19.215686%);stroke-opacity:1;stroke-miterlimit:10;" d="M 559.199561 163.799193 C 559.199561 163.799193 565.699915 168.399605 569.099223 187.599414 " transform="matrix(1.781153,0,0,1.78143,0.569969,0)"/>
<path style="fill:none;stroke-width:2;stroke-linecap:round;stroke-linejoin:miter;stroke:rgb(20.784314%,8.627451%,19.215686%);stroke-opacity:1;stroke-miterlimit:10;" d="M 811.301034 163.799193 C 811.301034 163.799193 804.300652 177.699101 789.799861 186.099566 " transform="matrix(1.781153,0,0,1.78143,0.569969,0)"/>
<path style="fill:none;stroke-width:2;stroke-linecap:round;stroke-linejoin:miter;stroke:rgb(20.784314%,8.627451%,19.215686%);stroke-opacity:1;stroke-miterlimit:10;" d="M 988.100153 186.500841 C 988.100153 186.500841 988.799753 171.000218 998.600726 157.400719 " transform="matrix(1.781153,0,0,1.78143,0.569969,0)"/>
<path style="fill:none;stroke-width:2;stroke-linecap:round;stroke-linejoin:miter;stroke:rgb(20.784314%,8.627451%,19.215686%);stroke-opacity:1;stroke-miterlimit:10;" d="M 999.199443 205.799324 C 999.199443 205.799324 995.100535 191.500334 999.800353 176.199253 " transform="matrix(1.781153,0,0,1.78143,0.569969,0)"/>
<path style="fill:none;stroke-width:2;stroke-linecap:round;stroke-linejoin:miter;stroke:rgb(20.784314%,8.627451%,19.215686%);stroke-opacity:1;stroke-miterlimit:10;" d="M 811.301034 178.400784 C 811.301034 178.400784 802.000088 196.800236 782.799479 208.000855 " transform="matrix(1.781153,0,0,1.78143,0.569969,0)"/>
<path style="fill:none;stroke-width:2;stroke-linecap:round;stroke-linejoin:miter;stroke:rgb(20.784314%,8.627451%,19.215686%);stroke-opacity:1;stroke-miterlimit:10;" d="M 1306.99913 141.599688 C 1306.99913 141.599688 1300.000941 155.499596 1285.601033 163.90006 " transform="matrix(1.781153,0,0,1.78143,0.569969,0)"/>
<path style="fill:none;stroke-width:2;stroke-linecap:round;stroke-linejoin:miter;stroke:rgb(20.784314%,8.627451%,19.215686%);stroke-opacity:1;stroke-miterlimit:10;" d="M 1306.99913 156.299953 C 1306.99913 156.299953 1297.700377 174.699405 1278.499768 185.900024 " transform="matrix(1.781153,0,0,1.78143,0.569969,0)"/>
</g>
</svg>
