<svg width="1440" height="198" viewBox="0 0 1440 198" fill="none" xmlns="http://www.w3.org/2000/svg">
<path d="M-11.8414 143.073C45.8197 125.434 88.0608 66.3712 86.1854 5.98584C117.621 24.2118 141.038 55.7916 149.383 91.2095C170.945 61.151 204.266 39.8028 240.544 32.8127C238.003 55.901 235.562 79.9239 243.282 101.829C251.002 123.734 272.098 142.775 295.119 140.071C325.949 136.451 341.319 99.4624 369.569 86.5759C390.744 76.9111 415.541 82.36 437.639 89.6484C459.747 96.9368 482.391 106.055 505.481 103.211C528.581 100.367 551.562 80.0034 547.454 57.0544C577.441 75.4991 597.306 109.465 598.705 144.694C634.407 139.434 665.981 112.279 676.599 77.7165C689.786 109.614 717.867 138.669 752.309 139.544C786.751 140.419 819.199 100.347 802.062 70.3982C832.475 70.0303 862.819 82.698 883.994 104.573C894.919 75.4395 923.11 53.5941 953.999 50.3327C945.426 76.752 954.555 108.004 975.978 125.623C993.571 90.1058 1030.05 64.7007 1069.4 60.5544C1068.52 79.4565 1070.53 99.6811 1082.07 114.656C1093.61 129.63 1117.27 136.352 1131.93 124.43C1146.6 112.508 1139.29 82.2904 1120.41 82.7776C1139.1 66.3613 1168.56 76.1355 1189.21 89.9964C1209.86 103.867 1230.9 121.964 1255.7 120.254C1304.78 116.873 1326.87 40.0514 1375.97 43.0145C1362.66 60.7533 1364.93 88.3657 1380.96 103.678C1396.99 118.991 1424.62 119.936 1441.66 105.756V198H-11.8414V143.073Z" fill="#EC408B"/>
<path d="M1094.38 130.207C1105.92 145.181 1129.57 151.903 1144.24 139.981C1157.06 129.551 1142.02 88.8629 1125.41 79.1483C1123.68 80.1824 1122 81.3756 1120.4 82.7776C1139.28 82.3003 1146.59 112.508 1131.92 124.43C1119.79 134.294 1101.51 131.39 1089.02 121.606C1090.52 124.609 1092.28 127.492 1094.37 130.197L1094.38 130.207Z" fill="#F27AAE"/>
<path d="M978.211 130.794C994.018 98.8658 1033.22 83.5035 1069.57 77.7165C1069.13 71.9991 1069.13 66.2221 1069.4 60.5544C1030.05 64.6908 993.571 90.1058 975.978 125.623C971.394 121.855 967.375 117.45 963.962 112.607C966.71 119.061 971.285 125.096 978.211 130.794Z" fill="#F27AAE"/>
<path d="M1267.99 135.805C1317.07 132.424 1331.61 48.2943 1375.95 43.0145C1326.85 40.0514 1304.76 116.863 1255.68 120.254C1252.06 120.502 1248.52 120.323 1245.04 119.796C1251.4 129.461 1258.54 136.451 1267.99 135.795V135.805Z" fill="#F27AAE"/>
<path d="M1393.25 119.23C1405.82 131.231 1425.52 134.403 1441.65 128.387V105.756C1425.37 119.309 1399.42 119.041 1383.15 105.627C1386.25 111.136 1389.72 115.859 1393.25 119.23Z" fill="#F27AAE"/>
<path d="M149.215 98.8259C168.058 72.5658 205.397 59.0032 238.718 51.327C239.194 45.1224 239.859 38.9278 240.534 32.8027C204.256 39.7928 170.936 61.141 149.374 91.1995C148.292 86.5957 146.943 82.0616 145.365 77.607C146.367 84.4579 147.498 91.5574 149.215 98.8259V98.8259Z" fill="#F27AAE"/>
<path d="M0.472698 138.887C53.609 122.63 107.4 81.3159 114.048 27.6721C105.763 19.2501 96.4058 11.912 86.1854 5.98584C88.0608 66.3712 45.8197 125.434 -11.8414 143.073V198H0.472698V138.887Z" fill="#F27AAE"/>
<path d="M307.423 155.622C338.253 152.003 353.623 103.947 381.874 91.0603C403.049 81.3955 427.846 97.9112 449.944 105.2C472.042 112.488 494.695 121.606 517.785 118.762C540.886 115.918 559.163 87.5603 547.742 59.0729C574.901 75.7775 593.526 103.579 597.832 134.85C593.496 103.251 574.633 73.7789 547.454 57.0643C551.562 80.0134 528.581 100.377 505.481 103.221C482.381 106.065 459.737 96.9467 437.639 89.6583C415.532 82.3699 390.744 76.921 369.569 86.5859C341.319 99.4723 325.949 136.471 295.119 140.081C282.17 141.602 269.836 136.242 260.141 127.373C269.945 144.714 287.994 157.909 307.423 155.632V155.622Z" fill="#F27AAE"/>
<path d="M687.246 97.8814C683.049 91.468 679.467 84.6569 676.599 77.7065C665.982 112.269 634.417 139.424 598.706 144.684C626.985 160.464 673.86 130.704 687.246 97.8814Z" fill="#F27AAE"/>
<path d="M886.277 113.621C895.425 89.2108 923.735 74.4849 950.844 68.4294C951.062 62.2944 952.084 56.1893 953.99 50.3228C923.1 53.5841 894.909 75.4295 883.985 104.563C862.819 82.6781 832.466 70.0203 802.052 70.3882C804.384 74.455 805.783 78.7107 806.409 83.0162C834.748 85.2932 868.287 95.0177 886.277 113.621V113.621Z" fill="#F27AAE"/>
<path d="M-12 142.556C44.3414 123.873 85.2628 65.5658 82.792 6.08527L82.534 0L87.8824 3.04264C120.379 21.5073 144.789 53.7831 153.551 90.2151L145.901 88.6938C156.925 73.1426 170.985 59.8186 186.951 49.4577C204.723 37.8739 225.035 30.3667 245.972 26.8667C242.638 58.4862 237.061 95.9325 260.786 121.159C272.416 133.508 289.394 139.762 305.439 132.484C317.604 127.115 326.515 117.32 336.13 107.835C354.427 88.8927 371.028 76.3045 398.742 77.9651C435.615 79.5759 468.182 104.842 505.521 100.954C526.319 98.4183 549.389 80.252 545.728 57.3626L545.083 53.5046C577.213 72.0985 598.884 107.417 600.422 144.615L598.447 142.974C633.395 137.744 664.245 110.937 674.337 77.0105L676.202 70.7562C688.348 102.634 715.07 134.622 751.327 136.093C781.344 137.615 814.456 101.62 798.262 72.5659L794.461 66.1724L802.003 66.0133C833.726 65.3769 865.3 78.4125 887.527 101.123L879.36 102.823C892.31 68.3599 925.134 45.8782 961.59 44.0983L959.07 51.9833C951.3 76.1653 959.874 105.259 979.55 121.238L970.898 123.097C990.277 83.4239 1031.67 56.5572 1075.52 54.0018C1075.34 59.3413 1074.93 65.6255 1075.09 70.8855C1075.49 86.5958 1078.56 103.539 1090.06 114.894C1099.94 124.38 1117.6 129.183 1128.78 119.727C1138.48 111.683 1134.7 88.3458 1120.54 88.1171L1106.27 87.9978L1116.89 78.7506C1127.37 69.2746 1143.05 67.3655 1156.25 70.2292C1169.15 72.8642 1180.95 78.5616 1191.75 85.8103C1211.5 98.8359 1230.09 116.595 1254.75 115.968C1303.11 113.085 1324.43 37.0287 1376.11 40.3298L1381.14 40.7077L1378.1 44.6353C1365.28 61.1908 1367.11 87.6697 1382.14 102.416C1397.42 117.519 1424.41 118.852 1441.3 105.339L1441.99 106.184C1429.15 117.291 1410.04 119.786 1394.27 113.84C1377.61 107.914 1366.72 91.816 1365.2 74.4451C1364.07 62.901 1366.86 50.8498 1373.79 41.3938L1375.78 45.7091C1334.53 43.8398 1311.36 103.738 1274.51 119.667C1255.31 128.676 1235.25 124.519 1217.58 114.397C1196.21 102.585 1178.72 84.6569 1154.3 80.3017C1143.65 78.2435 1132.03 79.3969 1123.91 86.8046L1120.25 77.4281C1144.22 77.0304 1152.94 111.553 1137.37 127.015C1122.1 142 1096.52 137.147 1082.13 123.296C1076.46 117.967 1072.29 111.046 1069.37 103.897C1063.76 89.9069 1062.9 75.0417 1063.53 60.276L1070 66.3911C1032.7 70.3187 997.818 94.5106 981.029 128.139L977.844 134.522L972.376 129.998C966.562 125.186 961.59 119.448 957.582 113.144C949.564 100.536 945.287 85.7009 945.347 70.7562C945.386 63.2988 946.547 55.8015 948.899 48.6623L954.545 55.6524C925.68 58.516 898.908 79.0986 888.608 106.303L885.83 113.631C874.429 100.864 860.646 90.0362 844.69 83.4637C831.265 77.7761 816.688 74.7236 802.112 74.7633L805.853 68.2107C815.637 84.9552 810.338 106.343 798.45 120.383C779.428 143.203 752.012 148.93 725.3 136.262C701.436 124.877 684.269 102.585 674.426 78.6114L678.842 78.4026C667.678 113.641 635.449 141.075 598.954 146.395L597.048 146.673L596.979 144.754C595.679 110.102 576.141 76.5631 546.532 58.5459L549.181 56.7362C553.478 81.8529 528.998 102.217 506.087 105.359C468.618 110.35 435.248 85.9694 398.464 84.9253C385.416 84.4481 372.397 87.7293 361.889 95.6243C343.284 109.028 330.841 131.032 309.13 140.906C279.034 154.737 248.075 131.5 238.42 102.734C230.631 80.0929 233.171 55.4933 235.801 32.2659L241.447 37.4861C223.923 40.8071 207.035 47.6182 191.932 57.2334C173.972 68.3201 159.128 83.9111 147.31 101.332L145.216 92.174C137.288 57.7703 114.862 26.9064 84.4987 8.90916L89.5891 5.85658C90.502 52.0927 66.221 97.1555 28.9909 123.843C16.6668 132.713 2.85435 139.484 -11.6725 143.581L-11.9901 142.537H-12V142.556Z" fill="#351631"/>
<path d="M205.675 129.978C205.675 129.978 208.612 153.544 226.841 161.21" stroke="#351631" stroke-width="2" stroke-miterlimit="10" stroke-linecap="round"/>
<path d="M205.675 161.21C205.675 161.21 216.263 177.885 235.702 180.589" stroke="#351631" stroke-width="2" stroke-miterlimit="10" stroke-linecap="round"/>
<path d="M61.4085 125.563C61.4085 125.563 52.736 143.193 38.2885 152.201" stroke="#351631" stroke-width="2" stroke-miterlimit="10" stroke-linecap="round"/>
<path d="M575.347 132.275C575.347 132.275 586.421 151.585 583.811 170.895" stroke="#351631" stroke-width="2" stroke-miterlimit="10" stroke-linecap="round"/>
<path d="M559.173 132.275C559.173 132.275 565.692 136.869 569.046 156.059" stroke="#351631" stroke-width="2" stroke-miterlimit="10" stroke-linecap="round"/>
<path d="M811.32 132.275C811.32 132.275 804.325 146.166 789.867 154.578" stroke="#351631" stroke-width="2" stroke-miterlimit="10" stroke-linecap="round"/>
<path d="M988.114 154.995C988.114 154.995 988.858 139.454 998.642 125.872" stroke="#351631" stroke-width="2" stroke-miterlimit="10" stroke-linecap="round"/>
<path d="M999.158 174.315C999.158 174.315 995.06 160.007 999.753 144.684" stroke="#351631" stroke-width="2" stroke-miterlimit="10" stroke-linecap="round"/>
<path d="M811.32 146.941C811.32 146.941 802.032 165.386 782.832 176.552" stroke="#351631" stroke-width="2" stroke-miterlimit="10" stroke-linecap="round"/>
<path d="M1307.01 110.131C1307.01 110.131 1300.02 124.022 1285.56 132.434" stroke="#351631" stroke-width="2" stroke-miterlimit="10" stroke-linecap="round"/>
<path d="M1307.01 124.798C1307.01 124.798 1297.72 143.242 1278.52 154.409" stroke="#351631" stroke-width="2" stroke-miterlimit="10" stroke-linecap="round"/>
</svg>
