<?xml version="1.0" encoding="utf-8"?>
<!-- Generator: Adobe Illustrator 26.4.1, SVG Export Plug-In . SVG Version: 6.00 Build 0)  -->
<svg version="1.1" id="Layer_2_00000137125334800855626620000002604850143842763174_"
	 xmlns="http://www.w3.org/2000/svg" xmlns:xlink="http://www.w3.org/1999/xlink" x="0px" y="0px" viewBox="0 0 262.6 95.6"
	 style="enable-background:new 0 0 262.6 95.6;" xml:space="preserve">
<style type="text/css">
	.st0{fill:#3D0E1A;}
	.st1{fill:#EC408B;}
</style>
<g id="Layer_1-2">
	<g>
		<g>
			<polygon class="st0" points="21.3,79 15.1,24 62,19.2 55.8,75.5 			"/>
			<polygon class="st0" points="51.8,75.9 51.8,20.2 83,17.1 83,36 80.6,36.2 80.6,54.1 83,53.8 83,72.7 			"/>
			<polygon class="st0" points="74.3,73.6 74.3,18 93.9,16 93.9,52.7 105,51.6 105,70.5 			"/>
			<path class="st0" d="M111,70.4c-10,1-16.4-5.1-16.4-15.5V32.6c0-10.4,6.4-17.8,16.4-18.8s16.4,5.1,16.4,15.5v22.3
				C127.4,62,121,69.4,111,70.4L111,70.4z"/>
			<path class="st0" d="M134.8,68c-10.1,1-16.6-5.1-16.6-15.5V30.2c0-10.4,6.5-17.8,16.6-18.9s16.6,5.1,16.6,15.5v22.3
				C151.4,59.6,144.9,67,134.8,68z"/>
			<polygon class="st0" points="142.9,66.7 142.9,11 184,6.9 184,62.5 			"/>
			<polygon class="st0" points="176.1,63.3 176.1,7.7 207.3,4.5 207.3,23.4 204.9,23.7 204.9,41.5 207.3,41.2 207.3,60.2 
				192.2,76.8 			"/>
			<polygon class="st0" points="213.2,59.6 213.2,22.8 206.1,23.6 206.1,4.6 239.8,1.2 239.8,20.2 232.7,20.9 232.7,57.6 			"/>
			<path class="st0" d="M246,56.8c-10.1,1-16.6-5.1-16.6-15.5V19c0-10.4,6.5-17.8,16.6-18.9c10.1-1,16.6,5.1,16.6,15.5v22.3
				C262.6,48.3,256.1,55.7,246,56.8L246,56.8z"/>
		</g>
		<g>
			<polygon class="st0" points="6.2,95.6 0,40.5 46.9,35.8 40.7,92.1 			"/>
			<polygon class="st0" points="36.8,92.5 36.8,36.8 67.9,33.7 67.9,52.6 65.5,52.8 65.5,70.7 67.9,70.4 67.9,89.3 			"/>
			<polygon class="st0" points="59.3,90.2 59.3,34.5 78.8,32.6 78.8,69.3 89.9,68.2 89.9,87.1 			"/>
			<path class="st0" d="M95.9,87c-10,1-16.4-5.1-16.4-15.5V49.2c0-10.4,6.4-17.8,16.4-18.8s16.4,5.1,16.4,15.5v22.3
				C112.4,78.6,105.9,86,95.9,87L95.9,87z"/>
			<path class="st0" d="M119.7,84.6c-10.1,1-16.6-5.1-16.6-15.5V46.8c0-10.4,6.5-17.8,16.6-18.9s16.6,5.1,16.6,15.5v22.3
				C136.4,76.2,129.8,83.6,119.7,84.6z"/>
			<polygon class="st0" points="127.8,83.3 127.8,27.6 168.9,23.5 168.9,79.1 			"/>
			<polygon class="st0" points="161,79.9 161,24.3 192.2,21.1 192.2,40 189.8,40.3 189.8,58.1 192.2,57.8 192.2,76.8 			"/>
			<polygon class="st0" points="198.1,76.2 198.1,39.4 191.1,40.2 191.1,21.2 224.7,17.8 224.7,36.8 217.7,37.5 217.7,74.2 			"/>
			<path class="st0" d="M230.9,73.3c-10.1,1-16.6-5.1-16.6-15.5V35.6c0-10.4,6.5-17.8,16.6-18.9s16.6,5.1,16.6,15.5v22.3
				C247.5,64.9,241,72.3,230.9,73.3z"/>
		</g>
		<path class="st0" d="M15.1,24L0,40.5L23.5,68c0,0,74.8,5.6,75.6,5.2s99.1-16.6,99.1-16.6l24.8,4l16.8,9.6L259.5,49l-93.3-20.4
			L23.5,38.2C23.5,38.2,15.1,23.9,15.1,24z"/>
		<g>
			<path class="st1" d="M38.8,48h-0.1l-2.4,23.1L27,72l-4.8-42.4l6.5-0.7l3.5,33.4h0.1l3.2-34.1l6.5-0.7l3.3,33.7h0.1L49,26.9
				l5.9-0.6l-4.8,43.3l-8.9,0.9L38.8,48L38.8,48z"/>
			<path class="st1" d="M65,43.4l9.2-0.9v6.1L65,49.5V62l11.6-1.2V67l-18.4,1.9V26l18.4-1.9v6.1L65,31.4V43.4z"/>
			<path class="st1" d="M80.8,23.7l6.7-0.7v36.7l11.1-1.1v6.1l-17.8,1.8L80.8,23.7L80.8,23.7z"/>
			<path class="st1" d="M121,46.5v5.7c0,6.9-3.4,11.1-10,11.8c-6.6,0.7-10-2.9-10-9.8V32c0-6.9,3.4-11.1,10-11.8s10,2.9,10,9.8v4.2
				l-6.4,0.6v-4.6c0-3.1-1.3-4.1-3.5-3.9s-3.5,1.5-3.5,4.6V54c0,3.1,1.3,4,3.5,3.8s3.5-1.5,3.5-4.5v-6.1
				C114.7,47.2,121,46.5,121,46.5z"/>
			<path class="st1" d="M124.6,29.6c0-6.9,3.6-11.1,10.2-11.8s10.2,2.9,10.2,9.7v22.3c0,6.9-3.6,11.1-10.2,11.8
				c-6.6,0.7-10.2-2.9-10.2-9.7V29.6z M131.3,51.6c0,3.1,1.4,4.1,3.5,3.9s3.5-1.5,3.5-4.6V27.8c0-3.1-1.4-4.1-3.5-3.9
				s-3.5,1.5-3.5,4.6V51.6L131.3,51.6z"/>
			<path class="st1" d="M163.6,45.8h0.1l4.5-30.9l9.4-0.9v42.9l-6.4,0.6V26.7h-0.1l-4.5,31.2l-6.4,0.6l-4.9-29.8h-0.1V59l-5.9,0.6
				V16.8l9.4-0.9C158.7,15.8,163.6,45.8,163.6,45.8z"/>
			<path class="st1" d="M189.2,30.8l9.2-0.9V36l-9.2,0.9v12.5l11.6-1.2v6.1l-18.4,1.9V13.4l18.4-1.9v6.1l-11.6,1.2V30.8z"/>
			<path class="st1" d="M212.6,10.4l20.8-2.1v6.1l-7,0.7v36.7l-6.7,0.7V15.8l-7,0.7L212.6,10.4L212.6,10.4z"/>
			<path class="st1" d="M235.8,18.3c0-6.9,3.6-11.1,10.2-11.8s10.2,2.9,10.2,9.7v22.3c0,6.9-3.6,11.1-10.2,11.8s-10.2-2.9-10.2-9.7
				L235.8,18.3L235.8,18.3z M242.5,40.3c0,3.1,1.4,4.1,3.5,3.9s3.5-1.5,3.5-4.6V16.5c0-3.1-1.4-4.1-3.5-3.9s-3.5,1.5-3.5,4.6V40.3
				L242.5,40.3z"/>
		</g>
	</g>
</g>
</svg>
