<svg width="176" height="157" viewBox="0 0 176 157" fill="none" xmlns="http://www.w3.org/2000/svg">
<path d="M0 134.1C0 114.66 11.58 81.38 21.03 68.68C22.49 66.71 23.96 65.15 26.36 64.76C28.89 64.35 31.02 66.14 31.02 68.8C31.02 70.26 30.49 72.08 28.89 74.87C19.44 91.3 9.45 120.46 9.45 136.04C9.45 142.16 10.91 144.06 12.38 143.82C15.18 143.37 20.9 135.26 36.34 100.43C40.34 91.53 42.07 86.46 46.19 85.8C49.38 85.29 51.65 87.32 51.65 90.65C51.65 95.84 46.06 104.2 46.06 119.77C46.06 130.29 48.59 133.47 51.25 133.04C55.24 132.4 59.1 122.59 62.83 111.87C68.42 95.8 71.62 87.69 76.14 76.18C80.27 65.67 82.66 63.55 85.19 63.14C88.12 62.67 90.12 64.48 90.12 67.41C90.12 70.34 88.12 74.12 85.33 79.36C80.67 88.1 75.21 99.89 69.89 113.39C64.3 127.6 58.97 138.04 50.59 139.39C42.6 140.68 36.34 133.43 37.28 115.04C37.41 113.02 37.15 112.4 35.82 115.41C23.04 143.96 17.18 150.36 11.32 151.3C5.33 152.26 0 147.4 0 134.09V134.1Z" fill="#FFE154"/>
<path d="M74.55 118.24C74.55 105.99 84.4 90.56 94.52 88.93C98.11 88.35 100.11 89.76 100.11 92.02C100.11 93.48 99.31 94.94 97.18 96.22C94.92 97.65 92.65 98.95 89.99 102.3C86.4 106.87 84.4 112.38 84.4 118.64C84.4 123.83 86 125.44 88.66 125.01C93.85 124.17 99.04 116.81 99.04 110.96C99.04 107.37 97.04 105.29 97.04 103.03C97.04 101.03 98.5 99.07 100.77 98.7C105.96 97.86 103.17 106.83 109.16 105.87C112.22 105.38 115.28 102.75 120.21 92.91C120.74 91.89 121.28 91.27 121.94 91.17C122.87 91.02 123.54 91.84 123.54 93.31C123.54 94.78 122.87 96.88 121.81 98.91C118.22 105.88 112.49 109.86 106.9 110.76C104.77 111.1 104.1 112.28 103.04 114.84C99.45 124.2 93.32 130.12 86.8 131.17C79.88 132.28 74.55 127.28 74.55 118.23V118.24Z" fill="#FFE154"/>
<path d="M109.69 116.97C109.69 107.92 115.28 89.45 126.6 65.53C131.13 56.02 133.26 53.28 135.79 52.87C137.92 52.53 139.38 53.76 139.38 56.29C139.38 59.75 136.18 65.59 133.39 71.76C129.93 79.37 126.73 86.28 124.6 92.21C119.54 105.4 117.68 113.69 117.68 118.62C117.68 122.75 119.14 124.11 121.94 123.66C126.6 122.91 132.32 116.13 143.64 89.15C144.17 88 144.71 87.51 145.37 87.41C146.3 87.26 146.97 88.08 146.97 89.68C146.97 91.01 146.44 92.83 145.37 95.4C135.25 120.32 128.06 128.14 121.01 129.27C115.15 130.21 109.69 125.9 109.69 116.98V116.97Z" fill="#FFE154"/>
<path d="M121.27 153.18C121.27 150.78 122.2 146.24 123.8 140.26C126.2 130.96 129.92 117.71 133.39 105.84C133.66 105 133.39 104.64 132.72 104.48C129.66 103.64 127.93 102.19 127.93 100.33C127.93 99 128.73 98.07 130.19 97.84C131.25 97.67 132.72 97.84 134.45 98.22C135.12 98.38 135.65 98.16 136.05 96.76C140.71 81.1 145.77 65.91 151.76 57.62C154.69 53.56 157.75 51.2 161.08 50.66C165.87 49.89 170.53 53.4 170.53 57.39C170.53 59.39 169.33 60.91 167.34 61.23C163.88 61.79 165.08 57.33 162.81 57.7C159.35 58.26 154.16 68.28 144.44 98.2C144.04 99.46 144.57 99.91 147.24 99.48C152.7 98.6 158.42 94.48 163.48 86.22C164.28 84.89 164.68 84.3 165.34 84.19C166.27 84.04 166.94 84.86 166.94 86.46C166.94 87.66 166.27 90.29 164.68 92.68C160.29 99.11 154.43 102.98 144.58 104.57C142.58 104.89 142.32 105.07 141.92 106.33C138.86 116.54 136.33 126.53 133.8 137.72C131.27 149.04 128.61 156.26 124.35 156.95C122.49 157.25 121.29 155.71 121.29 153.18H121.27Z" fill="#FFE154"/>
<path d="M152.42 106.23C152.42 95.18 158.28 83.32 163.74 82.44C165.87 82.1 167.6 83.42 167.6 86.08C167.6 91.01 161.48 98.91 161.48 108.23C161.48 112.89 162.94 114.52 165.21 114.15C169.34 113.49 169.6 106.52 173.06 105.96C174.66 105.7 175.72 106.86 175.72 108.59C175.72 112.32 170.13 117.88 163.61 118.93C156.95 120 152.43 116.07 152.43 106.22L152.42 106.23ZM163.6 70.88C163.6 66.89 167.86 60.74 171.72 60.12C173.58 59.82 174.92 61.07 174.92 62.93C174.92 65.59 175.59 65.75 175.59 67.35C175.59 70.68 171.86 74.74 168.4 75.3C165.87 75.71 163.61 73.81 163.61 70.88H163.6Z" fill="#FFE154"/>
<path d="M31.2 0.37001V5.48001H25.99V32.91H20.88V5.48001H15.67V0.37001H31.2V0.37001Z" fill="#FFE154"/>
<path d="M43.8 0.37001H48.91V32.91H43.8V18.78H38.59V32.91H33.48V0.37001H38.59V13.67H43.8V0.37001Z" fill="#FFE154"/>
<path d="M66.11 5.48001H57.74V13.67H63.5V18.78H57.74V27.8H66.11V32.91H52.63V0.37001H66.11V5.48001Z" fill="#FFE154"/>
<path d="M83.45 33.28C81.22 33.28 79.42 32.65 78.06 31.37C76.51 29.88 75.74 27.85 75.74 25.28V21.05H80.85V25.28C80.85 26.4 81.08 27.17 81.55 27.6C81.95 27.97 82.59 28.16 83.46 28.16C84.33 28.16 84.99 27.97 85.37 27.6C85.83 27.2 86.07 26.42 86.07 25.28V23.23C86.07 21.81 85.5 20.57 84.35 19.51C84.1 19.29 83.45 18.89 82.4 18.3C80.94 17.53 79.87 16.84 79.19 16.26C78.07 15.27 77.22 14.14 76.63 12.87C76.04 11.6 75.75 10.24 75.75 8.78001V7.99001C75.75 5.42001 76.52 3.39001 78.07 1.90001C79.43 0.630005 81.23 -0.00999451 83.46 -0.00999451C85.69 -0.00999451 87.49 0.630005 88.85 1.90001C90.4 3.39001 91.17 5.42001 91.17 7.99001V10.83H86.06V7.99001C86.06 6.84001 85.83 6.07001 85.36 5.67001C84.99 5.30001 84.35 5.11001 83.45 5.11001C82.55 5.11001 81.95 5.30001 81.54 5.67001C81.08 6.10001 80.84 6.88001 80.84 7.99001V8.78001C80.84 10.21 81.41 11.43 82.56 12.45C82.87 12.7 83.47 13.07 84.37 13.57C85.98 14.44 87.1 15.15 87.72 15.71C90.01 17.76 91.16 20.27 91.16 23.24V25.29C91.16 27.86 90.38 29.89 88.84 31.38C87.48 32.65 85.68 33.29 83.45 33.29V33.28Z" fill="#FFE154"/>
<path d="M108.27 0.37001V5.48001H103.06V32.91H97.95V5.48001H92.74V0.37001H108.27V0.37001Z" fill="#FFE154"/>
<path d="M117.85 33.28C115.62 33.28 113.82 32.65 112.46 31.37C110.91 29.88 110.14 27.85 110.14 25.28V8C110.14 5.43 110.91 3.4 112.46 1.91C113.82 0.64 115.62 0 117.85 0C120.08 0 121.88 0.64 123.24 1.91C124.79 3.4 125.56 5.43 125.56 8V25.29C125.56 27.86 124.78 29.89 123.24 31.38C121.88 32.65 120.08 33.29 117.85 33.29V33.28ZM117.85 5.11C116.98 5.11 116.35 5.3 115.94 5.67C115.48 6.1 115.24 6.88 115.24 7.99V25.29C115.24 26.41 115.47 27.18 115.94 27.61C116.34 27.98 116.98 28.17 117.85 28.17C118.72 28.17 119.38 27.98 119.76 27.61C120.22 27.21 120.46 26.43 120.46 25.29V8C120.46 6.85 120.23 6.08 119.76 5.68C119.39 5.31 118.75 5.12 117.85 5.12V5.11Z" fill="#FFE154"/>
<path d="M144.16 32.91H138.95L136.3 19.85H133.98V32.91H128.87V0.37001H136.59C138.79 0.37001 140.59 1.02001 141.98 2.32001C143.53 3.75001 144.3 5.76001 144.3 8.36001V11.85C144.3 14.48 143.53 16.51 141.98 17.94C141.76 18.16 141.52 18.36 141.24 18.54L144.17 32.9L144.16 32.91ZM139.19 8.37001C139.19 7.29001 138.96 6.51001 138.49 6.05001C138.09 5.68001 137.45 5.49001 136.58 5.49001H133.98V14.74H136.58C137.45 14.74 138.08 14.55 138.49 14.18C138.95 13.75 139.19 12.97 139.19 11.86V8.37001V8.37001Z" fill="#FFE154"/>
<path d="M162.94 0.37001L156.62 21.47V32.91H151.46V21.47L145.18 0.37001H150.57L154.01 12.04L157.54 0.37001H162.93H162.94Z" fill="#FFE154"/>
<path d="M69.26 58.56H65.58V40.66H68.83C69.92 40.66 70.77 40.94 71.39 41.5C72.12 42.15 72.49 43.11 72.49 44.39V46.26C72.49 47.56 72.12 48.54 71.39 49.2C71.29 49.32 71.16 49.42 71.01 49.51C71.33 49.68 71.61 49.86 71.83 50.05C72.56 50.73 72.93 51.71 72.93 52.99V54.83C72.93 56.11 72.56 57.08 71.83 57.75C71.2 58.3 70.35 58.57 69.27 58.57L69.26 58.56ZM66.52 49.15H68.82C69.65 49.15 70.29 48.94 70.74 48.51C71.27 48.05 71.53 47.3 71.53 46.26V44.39C71.53 43.37 71.27 42.64 70.76 42.22C70.3 41.81 69.65 41.61 68.82 41.61H66.52V49.16V49.15ZM66.52 57.62H69.26C71.07 57.62 71.97 56.69 71.97 54.83V52.99C71.97 51.98 71.71 51.23 71.18 50.74C70.7 50.31 70.06 50.1 69.24 50.1H66.53V57.62H66.52Z" fill="#FFE154"/>
<path d="M81.26 41.6H75.79V48.92H79.65V49.87H75.79V57.62H81.26V58.57H74.84V40.67H81.26V41.62V41.6Z" fill="#FFE154"/>
<path d="M89.52 40.65H90.47V58.55H89.52V49.85H84.07V58.55H83.12V40.65H84.07V48.91H89.52V40.65Z" fill="#FFE154"/>
<path d="M92.77 58.56V40.66H93.72V58.56H92.77Z" fill="#FFE154"/>
<path d="M103.62 40.65V58.55H103.11L96.97 43.97V58.55H96.02V40.65H96.53L102.67 55.23V40.65H103.62Z" fill="#FFE154"/>
<path d="M109.45 58.56H105.79V40.66H109.45C110.52 40.66 111.39 40.96 112.03 41.56C112.75 42.23 113.1 43.21 113.1 44.5V54.83C113.1 56.11 112.73 57.08 112 57.75C111.37 58.3 110.52 58.57 109.44 58.57L109.45 58.56ZM106.74 57.61H109.45C111.26 57.61 112.16 56.68 112.16 54.82V44.49C112.16 43.47 111.9 42.72 111.39 42.24C110.91 41.81 110.26 41.6 109.45 41.6H106.74V57.61Z" fill="#FFE154"/>
</svg>
