<svg width="296" height="115" viewBox="0 0 296 115" fill="none" xmlns="http://www.w3.org/2000/svg">
<path d="M80.1 0.449951V6.63995H73.79V39.8699H67.6V6.63995H61.29V0.449951H80.1Z" fill="#FFE154"/>
<path d="M95.36 0.449951H101.55V39.8699H95.36V22.75H89.05V39.8699H82.86V0.449951H89.05V16.5499H95.36V0.449951Z" fill="#FFE154"/>
<path d="M122.39 6.63995H112.26V16.5499H119.24V22.74H112.26V33.66H122.39V39.8499H106.06V0.449951H122.39V6.63995Z" fill="#FFE154"/>
<path d="M154.82 0.449951H161.07L156.23 39.8699H152.8L147.28 20.28L141.82 39.8699H138.38L133.54 0.449951H139.79L141.93 20.1L145.53 6.69995H149.08L152.68 20.1L154.82 0.449951Z" fill="#FFE154"/>
<path d="M172.9 40.32C170.2 40.32 168.02 39.55 166.37 38.01C164.49 36.21 163.55 33.75 163.55 30.63V9.69C163.55 6.57 164.49 4.11 166.37 2.31C168.02 0.77 170.2 0 172.9 0C175.6 0 177.78 0.77 179.43 2.31C181.31 4.11 182.25 6.57 182.25 9.69V30.63C182.25 33.75 181.31 36.2 179.43 38.01C177.78 39.55 175.6 40.32 172.9 40.32ZM172.9 6.2C171.85 6.2 171.08 6.42 170.59 6.88C170.03 7.41 169.75 8.34 169.75 9.7V30.63C169.75 31.98 170.03 32.92 170.59 33.45C171.08 33.9 171.85 34.13 172.9 34.13C173.95 34.13 174.76 33.9 175.21 33.45C175.77 32.96 176.05 32.02 176.05 30.63V9.69C176.05 8.3 175.77 7.36 175.21 6.87C174.76 6.42 173.99 6.19 172.9 6.19V6.2Z" fill="#FFE154"/>
<path d="M186.24 39.8699V0.449951H192.43V33.6699H202.56V39.86H186.23L186.24 39.8699Z" fill="#FFE154"/>
<path d="M221.88 6.63995H211.75V16.5499H218.79V22.74H211.75V39.86H205.56V0.449951H221.89V6.63995H221.88Z" fill="#FFE154"/>
<path d="M224.92 39.8699V0.449951H231.11V39.8699H224.92Z" fill="#FFE154"/>
<path d="M0 90.94C0 67.64 18.76 43.09 39.83 43.09C49.73 43.09 55.37 48.66 55.37 57.07C55.37 67.07 47.08 78.44 40.75 78.44C38.91 78.44 37.99 77.42 37.99 75.71C37.99 69.8 49.16 64.46 49.16 54.57C49.16 49.91 46.51 47.07 41.56 47.07C25.56 47.07 8.29 75.03 8.29 94.57C8.29 104.68 12.89 110.03 20.38 110.03C34.31 110.03 36.61 91.85 44.55 91.85C46.74 91.85 48 93.21 48 95.03C48 100.71 35.57 114.35 20.14 114.35C8.05 114.35 0 106.05 0 90.94Z" fill="#FFE154"/>
<path d="M48.23 95.25C48.23 84.79 56.75 72.97 65.5 72.97C68.61 72.97 70.33 74.45 70.33 76.38C70.33 77.63 69.64 78.77 67.8 79.56C65.84 80.47 63.89 81.27 61.58 83.77C58.47 87.18 56.75 91.61 56.75 96.95C56.75 101.38 58.13 102.97 60.43 102.97C64.92 102.97 69.41 97.4 69.41 92.4C69.41 89.33 67.68 87.29 67.68 85.35C67.68 83.65 68.95 82.17 70.9 82.17C75.39 82.17 72.97 89.44 78.15 89.44C80.8 89.44 83.45 87.62 87.7 79.89C88.16 79.1 88.62 78.64 89.2 78.64C90.01 78.64 90.58 79.44 90.58 80.69C90.58 81.94 90 83.65 89.08 85.24C85.97 90.7 81.02 93.31 76.19 93.31C74.35 93.31 73.77 94.22 72.85 96.26C69.74 103.76 64.45 107.97 58.81 107.97C52.82 107.97 48.22 102.97 48.22 95.24L48.23 95.25Z" fill="#FFE154"/>
<path d="M78.62 99.23C78.62 91.16 83.45 76.27 93.24 57.41C97.15 49.91 98.88 47.98 101.07 47.98C102.91 47.98 104.41 49.23 104.41 51.28C104.41 54.24 101.53 58.78 99.12 63.67C96.13 69.69 93.36 75.15 91.52 79.92C87.15 90.49 85.53 97.31 85.53 101.74C85.53 105.72 86.8 107.42 88.98 107.42C92.78 107.42 97.61 102.19 107.86 79.92C110.16 73.56 113.39 66.4 117.53 58.55C120.29 53.32 122.13 51.28 124.32 51.28C126.16 51.28 127.89 52.53 127.89 54.69C127.89 57.65 124.9 62.19 123.51 64.81C120.86 69.7 117.98 75.15 116.14 79.92C111.77 90.49 110.15 97.42 110.15 101.17C110.15 104.24 111.42 105.71 113.83 105.71C118.09 105.71 122.35 101.39 132.13 79.91C132.59 79 133.05 78.66 133.63 78.66C134.43 78.66 135.01 79.46 135.01 80.82C135.01 81.96 134.55 83.43 133.63 85.48C125.11 104.8 119.36 110.26 113.37 110.26C107.38 110.26 103.01 105.71 103.24 97.76C97.25 108.67 92.53 112.08 88.39 112.08C83.21 112.08 78.61 107.19 78.61 99.24L78.62 99.23Z" fill="#FFE154"/>
<path d="M123.05 94.4599C123.05 83.8899 130.76 71.2799 140.78 71.2799C146.31 71.2799 150.45 75.1399 150.45 80.8299C150.45 89.3499 140.9 96.5099 132.61 93.4499C131.46 92.9899 131.46 94.4699 131.46 95.8399C131.46 101.98 133.88 104.59 138.25 104.59C145.5 104.59 152.64 98.1099 161.16 79.9299C161.62 79.0199 162.08 78.6799 162.66 78.6799C163.35 78.6799 164.04 79.4799 164.04 80.8399C164.04 81.7499 163.7 82.7699 163 84.5899C156.44 100.5 147.11 109.02 136.87 109.02C128.81 109.02 123.06 103.45 123.06 94.4699L123.05 94.4599ZM143.88 78.2099C143.88 76.1599 143.3 75.5999 142.27 75.5999C139.51 75.5999 134.79 80.9399 132.6 88.2199C132.25 89.4699 132.6 90.0399 133.98 90.0399C138.81 90.0399 143.88 83.6799 143.88 78.2199V78.2099Z" fill="#FFE154"/>
<path d="M151.83 95.5999C151.83 83.8899 160.81 69.2299 171.75 69.2299C177.5 69.2299 181.42 73.4399 181.42 79.3499C181.42 84.3499 178.43 88.0999 175.2 88.0999C173.13 88.0999 171.75 86.8499 171.75 84.6899C171.75 81.2799 175.55 78.6699 175.55 75.0299C175.55 73.5499 174.97 72.9799 173.71 72.9799C168.3 72.9799 160.59 84.9099 160.59 96.8499C160.59 103.67 163.12 106.06 167.04 106.06C175.33 106.06 184.19 94.8099 190.75 78.4399C190.98 77.7599 190.87 77.5299 190.17 77.5299C189.47 77.5299 187.98 77.8699 186.95 77.8699C185.68 77.8699 184.88 77.2999 184.88 76.0499C184.88 74.5699 185.46 73.6599 190.98 72.9799C192.82 72.7499 193.17 72.6399 193.97 70.9399C195.7 67.4199 197.65 63.8899 199.96 59.9199C202.84 55.0299 205.49 52.4199 208.02 52.4199C209.63 52.4199 210.78 53.5599 210.78 55.4899C210.78 56.8499 210.09 58.5599 208.25 61.9699L203.88 70.3799C203.42 71.3999 203.53 71.6299 204.46 71.6299C205.04 71.6299 207.22 71.5199 208.49 71.5199C212.06 71.5199 212.98 72.5399 212.98 73.4499C212.98 74.4699 212.06 74.9299 210.56 75.0399C208.95 75.1499 206.65 75.1499 204.11 75.2699C201.92 75.3799 201.35 75.6099 200.66 77.0899C194.56 90.3899 192.83 97.2099 192.83 100.84C192.83 103.91 194.1 105.16 196.4 105.16C201.12 105.16 206.41 100.84 216.54 79.9299C217 79.0199 217.46 78.6799 218.04 78.6799C218.85 78.6799 219.42 79.4799 219.42 80.8399C219.42 81.8599 218.96 83.3399 217.58 86.2999C209.18 104.26 202.16 109.83 195.94 109.83C192.49 109.83 189.72 108.12 188 105.74C186.73 104.04 185.93 101.88 185.7 99.7199C185.58 98.3599 185.01 98.2399 184.43 99.0399C178.67 106.88 171.88 110.63 165.32 110.63C157.49 110.63 151.85 104.83 151.85 95.6299L151.83 95.5999Z" fill="#FFE154"/>
<path d="M206.62 95.9399C206.62 87.6399 211.68 76.7299 216.52 76.7299C218.36 76.7299 219.86 78.0899 219.86 80.2499C219.86 84.4599 214.11 90.9299 214.11 98.4299C214.11 101.5 215.03 102.86 216.76 102.86C220.67 102.86 226.08 97.2899 233.8 80.3599C234.38 79.2199 234.84 78.6499 235.64 78.6499C236.33 78.6499 236.91 79.4499 236.91 80.9199C236.91 81.7099 236.8 82.3999 236.11 83.9899C228.74 100.92 222.3 107.06 215.85 107.06C210.09 107.06 206.64 103.08 206.64 95.9199L206.62 95.9399ZM217.67 69.2299C217.67 68.5499 217.9 67.8699 217.9 67.1799C217.9 66.1599 217.32 65.5899 217.32 64.4499C217.32 61.9499 220.31 58.3099 223.42 58.3099C225.61 58.3099 227.1 60.1299 227.1 62.8599C227.1 67.0699 223.53 71.6099 219.96 71.6099C218.58 71.6099 217.66 70.6999 217.66 69.2199L217.67 69.2299Z" fill="#FFE154"/>
<path d="M223.66 95.25C223.66 84.79 232.18 72.97 240.93 72.97C244.04 72.97 245.76 74.45 245.76 76.38C245.76 77.63 245.07 78.77 243.23 79.56C241.27 80.47 239.32 81.27 237.01 83.77C233.9 87.18 232.18 91.61 232.18 96.95C232.18 101.38 233.56 102.97 235.86 102.97C240.35 102.97 244.84 97.4 244.84 92.4C244.84 89.33 243.11 87.29 243.11 85.35C243.11 83.65 244.38 82.17 246.33 82.17C250.82 82.17 248.4 89.44 253.58 89.44C256.23 89.44 258.88 87.62 263.13 79.89C263.59 79.1 264.05 78.64 264.63 78.64C265.44 78.64 266.01 79.44 266.01 80.69C266.01 81.94 265.43 83.65 264.51 85.24C261.4 90.7 256.45 93.31 251.62 93.31C249.78 93.31 249.2 94.22 248.28 96.26C245.17 103.76 239.88 107.97 234.24 107.97C228.25 107.97 223.65 102.97 223.65 95.24L223.66 95.25Z" fill="#FFE154"/>
<path d="M254.04 100.14C254.04 91.5 259.1 72.86 264.28 72.86C265.89 72.86 267.27 74.34 267.27 76.84C267.27 80.82 263.59 85.48 263.59 89.34C263.59 90.36 263.82 90.82 264.28 90.82C267.04 90.82 270.61 74.34 280.97 74.34C285.11 74.34 287.99 76.95 287.99 81.05C287.99 86.62 282.81 91.51 282.81 97.53C282.81 100.37 283.96 101.73 285.92 101.73C290.18 101.73 290.18 95.71 293.06 95.71C294.44 95.71 295.36 96.85 295.36 98.32C295.36 101.39 291.1 105.48 285.11 105.48C279.47 105.48 275.56 101.73 275.56 95.59C275.56 90.59 278.21 84.57 278.21 82.07C278.21 81.16 277.86 80.82 277.29 80.82C272.34 80.82 264.28 107.75 257.61 107.75C255.54 107.75 254.04 105.25 254.04 100.14Z" fill="#FFE154"/>
</svg>
